<svg xmlns="http://www.w3.org/2000/svg" width="100.015" height="27" viewBox="0 0 100.015 27">
  <g id="_05.vuce-logo" data-name="05.vuce-logo" transform="translate(-2.081 -2.331)">
    <path id="Trazado_1335" data-name="Trazado 1335" d="M272.57,22.676q-1.706,4.264-3.431,8.519c-1.431,3.558-2.941,7.092-4.264,10.685-.49,1.314-.456,1.809-1.47,1.809-1.554,0-3.431.034-4.044.034-.941,0-1.358-1.51-2.176-3.539-2.235-5.543-4.48-11.087-6.651-16.665a1.876,1.876,0,0,0-2.083-1.426c-2.225,0-4.411.034-6.622.029-.324,0-.76.074-.843-.348-.039-.2.2-.49.382-.676,1.142-1.176,2.294-2.353,3.475-3.49a2.583,2.583,0,0,1,1.823-.8c2.039,0,4.078-.039,6.112,0,1.426.029,2.014,1.064,2.451,2.245q2.588,7.264,5.215,14.484c.191.529.152,1.4,1.015,1.348.72-.044.686-.823.863-1.314,1.755-4.823,3.519-9.646,5.191-14.5a2.947,2.947,0,0,1,3.264-2.294c1.921.078,3.852,0,5.774,0,1.828,0,2.451.613,2.451,2.451,0,4.475-.059,8.95.029,13.42.069,3.661,2.451,5.749,5.916,5.357a4.78,4.78,0,0,0,4.352-5c.132-4.47.078-8.945.078-13.42,0-1.049-.069-2.25,1.113-2.573a6.416,6.416,0,0,1,4.411.294c.72.343.583,1.167.583,1.843,0,4.362-.093,8.724,0,13.082.206,8.171-6.455,12.351-13.557,11.151-5.73-.98-8.95-4.857-9.063-10.749-.064-3.3,0-6.612,0-9.916Z" transform="translate(-238.9 -14.42)" fill="#696b74"/>
    <path id="Trazado_1336" data-name="Trazado 1336" d="M401.188,30.308V20.451a3.05,3.05,0,0,1,3.323-3.4q5.945-.039,11.9,0c1.652,0,2,.549,1.99,2.784,0,2.088-.319,2.451-2.063,2.48-2.661,0-5.323.039-7.984,0-.98,0-1.382.142-1.387,1.274-.025,4.142-.078,4.142,4.073,4.142h2.549c.853,0,1.961-.235,2.294.921a5.014,5.014,0,0,1-.172,3.8c-.289.549-.956.52-1.529.52-1.926,0-3.857.054-5.779-.024-1.064-.039-1.441.211-1.436,1.377,0,4.21-.029,4.21,4.186,4.21h1.363c3.274.059,4.465-.132,5.333.162.49.289,4.735,4.259,4.828,4.828s-.809.3-1.26.3H404.6c-2.279,0-3.392-1.171-3.4-3.48C401.178,36.988,401.188,33.646,401.188,30.308Z" transform="translate(-320.582 -14.562)" fill="#696b74"/>
    <path id="Trazado_1337" data-name="Trazado 1337" d="M370.078,43.8a14.152,14.152,0,0,1-10.871-3.4,13.327,13.327,0,0,1-3.8-14.366,13.528,13.528,0,0,1,12.028-9.019c2.206-.1,4.411-.054,6.622,0,1.691.029,1.9.466,1.931,2.995,0,1.426-.358,2.294-1.985,2.245-1.921-.054-3.848-.029-5.774,0-4.627.044-7.842,3.431-7.842,8.2s3.2,8.038,7.744,8.082c1.961,0,3.965.029,5.945,0,1.657-.029,1.961.946,1.9,2.323s.309,2.9-1.823,2.916C372.97,43.811,371.779,43.8,370.078,43.8Z" transform="translate(-296.869 -14.527)" fill="#696b74"/>
  </g>
</svg>
