<svg xmlns="http://www.w3.org/2000/svg" width="68.437" height="66.506" viewBox="0 0 68.437 66.506"><g transform="translate(-5.449 -5.999)"><path d="M11.7,53.736H64.365A4.031,4.031,0,0,0,68.4,49.7v-36.8a4.031,4.031,0,0,0-4.031-4.031H45.04a1.73,1.73,0,0,0,0,3.46H64.365a.606.606,0,0,1,.606.606V45.864H11.13V12.906a.606.606,0,0,1,.606-.606H23.172a1.73,1.73,0,0,0,0-3.46H11.7A4.031,4.031,0,0,0,7.67,12.871V49.722A4.031,4.031,0,0,0,11.7,53.736Z" transform="translate(1.622 2.074)" fill="#0072bb"/><path d="M72.613,42.374l-4.567-4.308a2.8,2.8,0,0,0-1.92-.8H13.219a2.8,2.8,0,0,0-1.92.8L6.731,42.374a4.879,4.879,0,0,0-.9,5.19,3.08,3.08,0,0,0,2.82,2.111H70.693a3.08,3.08,0,0,0,2.82-2.145A4.879,4.879,0,0,0,72.613,42.374Z" transform="translate(0 22.83)" fill="#0072bb"/><path d="M27.867,17.146l-1.886.623a6.3,6.3,0,0,0-.779-.9l.9-1.73a.242.242,0,0,0-.1-.329L23.075,13.34a.242.242,0,0,0-.329.1l-.9,1.73a6.3,6.3,0,0,0-1.176-.087L20.047,13.2a.242.242,0,0,0-.311-.156l-3.114,1.021a.242.242,0,0,0-.156.311l.623,1.886a6.3,6.3,0,0,0-.9.761l-1.73-.9a.242.242,0,0,0-.329.1L12.66,19.153a.242.242,0,0,0,.1.329l1.73.9a6.3,6.3,0,0,0-.087,1.176l-1.886.623a.242.242,0,0,0-.156.311l1.021,3.114a.242.242,0,0,0,.311.156l1.9-.675a6.3,6.3,0,0,0,.761.9l-.9,1.73a.242.242,0,0,0,.1.329l2.924,1.471a.242.242,0,0,0,.329-.1l.9-1.73a6.315,6.315,0,0,0,1.176.087l.623,1.886a.242.242,0,0,0,.311.156l3.114-1.021a.242.242,0,0,0,.156-.311l-.623-1.886a6.3,6.3,0,0,0,.9-.761l1.73.9a.242.242,0,0,0,.329-.1L28.905,23.7a.242.242,0,0,0-.1-.329l-1.73-.9a6.28,6.28,0,0,0,.087-1.176l1.886-.588A.242.242,0,0,0,29.2,20.4l-1.021-3.114a.242.242,0,0,0-.311-.138ZM21.933,24.9a3.633,3.633,0,1,1,2.318-4.585A3.633,3.633,0,0,1,21.933,24.9Z" transform="translate(5.04 5.135)" fill="#0072bb"/><path d="M44.389,26.44l-2.353-.9a8.01,8.01,0,0,0,0-1.505l2.3-1.021a.311.311,0,0,0,.156-.4l-1.73-3.806a.311.311,0,0,0-.4-.156l-2.318,1.021a8.01,8.01,0,0,0-1.09-1.038l.9-2.353a.311.311,0,0,0-.173-.4L35.791,14.4a.311.311,0,0,0-.4.173l-.9,2.353a8.01,8.01,0,0,0-1.505,0l-1.021-2.3a.311.311,0,0,0-.4-.156L27.763,16.2a.311.311,0,0,0-.156.4l1.038,2.318A8.01,8.01,0,0,0,27.607,20l-2.353-.9a.311.311,0,0,0-.4.173L23.368,23.17a.311.311,0,0,0,.173.4l2.353.9a8.011,8.011,0,0,0,0,1.505l-2.3,1.021a.311.311,0,0,0-.156.4l1.73,3.806a.311.311,0,0,0,.4.156l2.37-1.038a8.027,8.027,0,0,0,1.09,1.038l-.9,2.353a.311.311,0,0,0,.173.4l3.893,1.488a.311.311,0,0,0,.4-.173l.9-2.353a8.011,8.011,0,0,0,1.505,0l1.021,2.3a.311.311,0,0,0,.4.156l3.806-1.73a.311.311,0,0,0,.156-.4l-1.09-2.37a7.993,7.993,0,0,0,1.038-1.09l2.353.9a.311.311,0,0,0,.4-.173l1.488-3.893A.311.311,0,0,0,44.389,26.44ZM32.278,29.312a2.58,2.58,0,1,0,.017-.017Z" transform="translate(13.068 6.117)" fill="#0072bb"/><path d="M32.378,11.295H30.752a5.19,5.19,0,0,0-.363-.9l1.159-1.159a.19.19,0,0,0,0-.277l-1.9-1.9a.19.19,0,0,0-.277,0L28.209,8.215a5.19,5.19,0,0,0-.9-.363V6.225A.19.19,0,0,0,27.1,6H24.42a.19.19,0,0,0-.19.19V7.817a5.19,5.19,0,0,0-.9.363L22.171,7.021a.19.19,0,0,0-.277,0l-1.9,1.9a.19.19,0,0,0,0,.277L21.15,10.36a5.19,5.19,0,0,0-.363.9H19.16a.19.19,0,0,0-.19.19v2.682a.19.19,0,0,0,.19.19h1.592a5.191,5.191,0,0,0,.363.9l-1.159,1.159a.19.19,0,0,0,0,.277l1.9,1.9a.19.19,0,0,0,.277,0L23.3,17.4a5.19,5.19,0,0,0,.9.363v1.626a.19.19,0,0,0,.19.19h2.682a.19.19,0,0,0,.19-.19V17.765a5.19,5.19,0,0,0,.9-.363l1.159,1.159a.19.19,0,0,0,.277,0l1.9-1.9a.19.19,0,0,0,0-.277l-1.159-1.159a5.19,5.19,0,0,0,.363-.9h1.626a.19.19,0,0,0,.19-.19V11.5a.19.19,0,0,0-.138-.208Zm-6.609,4.533a2.976,2.976,0,1,1,2.976-2.907A2.976,2.976,0,0,1,25.769,15.827Z" transform="translate(9.872 0)" fill="#0072bb"/></g></svg>