<svg xmlns="http://www.w3.org/2000/svg" width="77.002" height="67.629" viewBox="0 0 77.002 67.629"><g transform="translate(-1346.532 -1938)"><g transform="translate(1347.55 1932.46)"><path d="M63.624,51.429l-.108-31.6v-.144L52.216,7.648l-.108-.108H17.468a7.036,7.036,0,0,0-7.018,7.018V64.151a7.036,7.036,0,0,0,7.018,7.018H56.625a7.036,7.036,0,0,0,7-7.018Zm-5.4-32.391H53.457v-5.2Zm2.339,32.283h0v12.83a3.923,3.923,0,0,1-3.923,3.923H17.468a3.923,3.923,0,0,1-3.923-3.923V14.558a3.923,3.923,0,0,1,3.923-3.923H49.858V20.8a1.8,1.8,0,0,0,1.8,1.8h8.8Z" transform="translate(0 0)" fill="#0072bb"/><path d="M46.075,20.25H18.2a1.557,1.557,0,0,0,0,3.113H46.075a1.557,1.557,0,1,0,0-3.113Z" transform="translate(4.953 10.161)" fill="#0072bb"/><path d="M46.075,23.9H18.2a1.557,1.557,0,0,0,0,3.113H46.075a1.557,1.557,0,1,0,0-3.113Z" transform="translate(4.953 13.079)" fill="#0072bb"/><path d="M46.075,27.55H18.2a1.557,1.557,0,0,0,0,3.113H46.075a1.557,1.557,0,1,0,0-3.113Z" transform="translate(4.953 15.997)" fill="#0072bb"/><path d="M46.075,31.21H18.2a1.557,1.557,0,1,0,0,3.113H46.075a1.557,1.557,0,1,0,0-3.113Z" transform="translate(4.953 18.924)" fill="#0072bb"/></g><g transform="translate(1345.328 1933.975)" fill="#0072bb"><path d="M 5.144097328186035 70.65465545654297 C 5.144054412841797 70.65465545654297 5.14409875869751 70.65465545654297 5.144055843353271 70.65465545654297 C 4.289415836334229 70.65463256835938 3.478915691375732 70.28401947021484 2.920355796813965 69.63785552978516 C 2.407095670700073 69.04409027099609 2.155805826187134 68.28600311279297 2.212775707244873 67.50325012207031 C 2.269755840301514 66.72041320800781 2.628235816955566 66.00669097900391 3.222195625305176 65.49358367919922 L 72.36830902099609 5.74033260345459 C 72.90195465087891 5.279202461242676 73.58391571044922 5.025252342224121 74.28857421875 5.025252342224121 C 75.14302825927734 5.025252342224121 75.95342254638672 5.395722389221191 76.51198577880859 6.041672706604004 L 76.51752471923828 6.04808235168457 L 76.52295684814453 6.054582595825195 C 77.02708435058594 6.65797233581543 77.26552581787109 7.421512603759766 77.1943359375 8.20454216003418 C 77.12348937988281 8.984035491943359 76.75430297851563 9.689206123352051 76.15441131591797 10.19137096405029 L 7.064845561981201 69.93912506103516 C 6.531008243560791 70.40057373046875 5.848881721496582 70.65465545654297 5.144097328186035 70.65465545654297 Z" stroke="none"/><path d="M 74.28857421875 6.025253295898438 C 73.83957672119141 6.025253295898438 73.38853454589844 6.180366516113281 73.02215576171875 6.496955871582031 L 3.875923156738281 66.25031280517578 C 3.065887451171875 66.95008850097656 2.97686767578125 68.17407989501953 3.676902770996094 68.98390197753906 C 4.060188293457031 69.42732238769531 4.600608825683594 69.65464019775391 5.144073486328125 69.65464019775391 C 5.593162536621094 69.65464019775391 6.0443115234375 69.49945068359375 6.410720825195313 69.18272399902344 L 75.50705718994141 9.42913818359375 C 75.90305328369141 9.100006103515625 76.15183258056641 8.626815795898438 76.19844055175781 8.114006042480469 C 76.24506378173828 7.6011962890625 76.08570861816406 7.090904235839844 75.75554656982422 6.695747375488281 L 75.75555419921875 6.695747375488281 C 75.37226867675781 6.252494812011719 74.83193969726563 6.025253295898438 74.28857421875 6.025253295898438 M 74.28857421875 4.025245666503906 C 75.43366241455078 4.025245666503906 76.519775390625 4.521804809570313 77.26840972900391 5.387596130371094 L 77.27948760986328 5.400413513183594 L 77.29035186767578 5.413414001464844 C 77.966064453125 6.222160339355469 78.28564453125 7.24554443359375 78.19023132324219 8.295082092285156 C 78.09552764892578 9.336967468261719 77.60319519042969 10.27976989746094 76.80308532714844 10.95248413085938 L 7.718955993652344 70.69551086425781 C 7.003288269042969 71.31412506103516 6.088966369628906 71.65464782714844 5.144073486328125 71.65464782714844 C 3.998756408691406 71.65464782714844 2.912498474121094 71.15791320800781 2.163833618164063 70.29181671142578 C 1.475875854492188 69.49595642089844 1.139045715332031 68.47985076904297 1.215408325195313 67.43065643310547 C 1.291786193847656 66.38132476806641 1.772308349609375 65.42465209960938 2.568466186523438 64.73686218261719 L 71.71446228027344 4.98370361328125 C 72.42975616455078 4.365615844726563 73.34391021728516 4.025245666503906 74.28857421875 4.025245666503906 Z" stroke="none" fill="#fff"/></g></g></svg>