<svg xmlns="http://www.w3.org/2000/svg" width="71.437" height="63.787" viewBox="0 0 71.437 63.787"><path d="M65.6,17.938a7.084,7.084,0,1,0-6.831-5.164,1.265,1.265,0,0,0,2.426-.685,4.569,4.569,0,1,1,4.465,3.334,4.465,4.465,0,0,1-2.813-.967h-.119a1.22,1.22,0,0,0-.253-.134h-.8l-.238.074-.208.134-.134.089-6.637,6.518a21.236,21.236,0,0,0-36.089,9.554h0l-.1.461a1.265,1.265,0,0,0,.967,1.488H19.5a1.265,1.265,0,0,0,1.235-1l.089-.4h0A18.766,18.766,0,1,1,20.3,36.51a1.22,1.22,0,0,0-.774-1.1h0a1.384,1.384,0,0,0-.3,0h-.193l-4.971-.045h-.4l-.223.1-.179.119a1.22,1.22,0,0,0-.179.193l-.119.164a1.22,1.22,0,0,0-.1.283q0,.059,0,.119a4.574,4.574,0,0,1-4.613,3.929,4.569,4.569,0,1,1,4.107-6.727,1.265,1.265,0,1,0,2.217-1.191A7.084,7.084,0,1,0,8.2,42.775h.119a7.084,7.084,0,0,0,6.771-5h2.842A21.222,21.222,0,0,0,52.806,51.868l4.122,4.792a7.009,7.009,0,0,0-1.1,3.363,7.1,7.1,0,0,0,6.622,7.53h.461a7.087,7.087,0,1,0,.446-14.168,7.188,7.188,0,0,0-1.935.149,1.3,1.3,0,1,0,.476,2.56,4.628,4.628,0,0,1,1.25-.089A4.569,4.569,0,1,1,58.3,60.277a4.465,4.465,0,0,1,1.146-2.738,1.174,1.174,0,0,0,0-.119,1.22,1.22,0,0,0,.149-.253,1.191,1.191,0,0,0,0-.193.982.982,0,0,0,0-.476,1.206,1.206,0,0,0,0-.253,1.22,1.22,0,0,0-.119-.208,1.176,1.176,0,0,0-.074-.149l-4.807-5.64a21.132,21.132,0,0,0,1.488-27.13l6.1-5.953a7.024,7.024,0,0,0,3.423.774Z" transform="translate(-1.24 -3.77)" fill="#0072bb"/><circle cx="2.441" cy="2.441" r="2.441" transform="translate(61.924 4.643)" fill="#0072bb"/><circle cx="2.441" cy="2.441" r="2.441" transform="translate(59.035 59.078) rotate(-86.35)" fill="#0072bb"/><circle cx="2.441" cy="2.441" r="2.441" transform="matrix(0.719, -0.695, 0.695, 0.719, 3.59, 31.926)" fill="#0072bb"/><path d="M18.84,40.121c0,3.423,8.572,3.78,12.263,3.78a34.869,34.869,0,0,0,7.173-.64c1.012-.223,4.078-.908,4.078-3.14a12.188,12.188,0,0,0-5.759-9.867,8.155,8.155,0,1,0-11.906,0A12.158,12.158,0,0,0,18.84,40.121ZM30.6,19.078a5.587,5.587,0,1,0,0,.015ZM26.519,32.114a1.206,1.206,0,0,0,.253-.164,8.111,8.111,0,0,0,7.56,0,9.495,9.495,0,0,1,5.506,8.036c-.342.342-2.143,1.161-6.905,1.354-5.834.238-10.67-.685-11.563-1.488a9.346,9.346,0,0,1,5.149-7.739Z" transform="translate(7.352 2.456)" fill="#0072bb"/></svg>