<svg xmlns="http://www.w3.org/2000/svg" width="63.661" height="50.019" viewBox="0 0 63.661 50.019"><path d="M13.642,287.831a4.381,4.381,0,0,0-1.332-3.215,4.381,4.381,0,0,0-3.215-1.332,4.381,4.381,0,0,0-3.215,1.332,4.546,4.546,0,0,0,0,6.43,4.381,4.381,0,0,0,3.215,1.332,4.381,4.381,0,0,0,3.215-1.332A4.381,4.381,0,0,0,13.642,287.831Zm6.821-15.915a4.548,4.548,0,0,0-4.547-4.547,4.547,4.547,0,1,0,3.215,7.762A4.381,4.381,0,0,0,20.462,271.915ZM35.667,289l1.812-6.854.6-2.277.512-1.938.661-2.5a2.326,2.326,0,0,0-1.634-2.771,2.116,2.116,0,0,0-1.705.231,2.243,2.243,0,0,0-1.066,1.4l-3.588,13.571a6.755,6.755,0,0,0-3.8,1.545,6.8,6.8,0,0,0-1.528,8.686,6.524,6.524,0,0,0,4.156,3.162,6.641,6.641,0,0,0,5.187-.711,6.833,6.833,0,0,0,2.949-8.313A6.762,6.762,0,0,0,35.667,289Zm23.447-1.172a4.548,4.548,0,1,0-1.332,3.215A4.381,4.381,0,0,0,59.114,287.831ZM36.378,265.094a4.547,4.547,0,0,0-7.762-3.215,4.547,4.547,0,1,0,6.43,6.43A4.381,4.381,0,0,0,36.378,265.094Zm15.915,6.821a4.548,4.548,0,1,0-1.332,3.215A4.381,4.381,0,0,0,52.293,271.915Zm11.368,15.915a31.392,31.392,0,0,1-5.009,17.159,2.162,2.162,0,0,1-1.918,1.03H6.927a2.162,2.162,0,0,1-1.918-1.03,31.756,31.756,0,0,1-2.487-29.521,31.275,31.275,0,0,1,16.945-16.945,31.559,31.559,0,0,1,24.726,0,31.275,31.275,0,0,1,16.945,16.945A31.116,31.116,0,0,1,63.661,287.831Z" transform="translate(0 -256)" fill="#0072bb"/></svg>