<svg xmlns="http://www.w3.org/2000/svg" width="68.48" height="67.856" viewBox="0 0 68.48 67.856"><g transform="translate(-4.248 -5.93)"><path d="M42.459,21.843c0-.441.261-.556.588-.245l5.23,5.066a.784.784,0,0,1,0,1.144L43,32.874c-.327.311-.588.2-.588-.245Z" transform="translate(24.204 9.826)" fill="#0072bb"/><path d="M42.459,21.843c0-.441.261-.556.588-.245l5.23,5.066a.784.784,0,0,1,0,1.144L43,32.874c-.327.311-.588.2-.588-.245Z" transform="translate(24.204 9.826)" fill="#0072bb"/><path d="M10.379,32.629c0,.441-.278.556-.588.245L4.5,27.808a.784.784,0,0,1,0-1.144L9.791,21.6c.311-.311.588-.2.588.245Z" transform="translate(0 9.826)" fill="#0072bb"/><path d="M10.379,32.629c0,.441-.278.556-.588.245L4.5,27.808a.784.784,0,0,1,0-1.144L9.791,21.6c.311-.311.588-.2.588.245Z" transform="translate(0 9.826)" fill="#0072bb"/><path d="M32.879,43.71c.441,0,.556.261.245.588l-5.066,5.279a.784.784,0,0,1-1.144,0L21.848,44.3c-.311-.327-.2-.588.245-.588Z" transform="translate(11.051 23.962)" fill="#0072bb"/><path d="M32.879,43.71c.441,0,.556.261.245.588l-5.066,5.279a.784.784,0,0,1-1.144,0L21.848,44.3c-.311-.327-.2-.588.245-.588Z" transform="translate(11.051 23.962)" fill="#0072bb"/><path d="M44.043,60.906H16.6a3.579,3.579,0,0,1-3.481-3.563V12.287a3.579,3.579,0,0,1,3.563-3.563H46.1v9.233a1.634,1.634,0,0,0,1.634,1.634h7.975V48.845H56.1a11.636,11.636,0,0,1,2.4.245l-.114-32v-.131L48.161,6.044l-.1-.114H16.6a6.39,6.39,0,0,0-6.374,6.39V57.343A6.39,6.39,0,0,0,16.6,63.717H44.386a12.11,12.11,0,0,1-.343-2.795ZM53.6,16.373H49.288V11.65Z" transform="translate(3.794 0)" fill="#0072bb"/><path d="M41.935,33.88A9.315,9.315,0,1,0,51.25,43.2,9.315,9.315,0,0,0,41.935,33.88Zm-.523,15.068h0l-5.393-6.7,1.912-1.634L41.412,44l6.341-5.622,1.634,1.732Z" transform="translate(17.995 17.727)" fill="#0072bb"/><path d="M43.146,18.62H17.783a1.422,1.422,0,0,0,0,2.827H43.146a1.422,1.422,0,0,0,0-2.827Z" transform="translate(7.779 8.049)" fill="#0072bb"/><path d="M43.146,22.27H17.783a1.422,1.422,0,0,0,0,2.827H43.146a1.422,1.422,0,0,0,0-2.827Z" transform="translate(7.779 10.364)" fill="#0072bb"/><path d="M43.2,25.93H17.835a1.405,1.405,0,1,0,0,2.811H43.2a1.405,1.405,0,0,0,0-2.811Z" transform="translate(7.726 12.685)" fill="#0072bb"/><path d="M43.146,29.58H17.783a1.422,1.422,0,0,0,0,2.827H43.146a1.422,1.422,0,0,0,0-2.827Z" transform="translate(7.779 15)" fill="#0072bb"/></g></svg>