<svg xmlns="http://www.w3.org/2000/svg" width="55.913" height="63.913" viewBox="0 0 55.913 63.913"><g transform="translate(-8.129 -4.15)"><path d="M45.511,31.924a.655.655,0,0,1-.638-.556A21.425,21.425,0,0,0,27.147,14.149a.655.655,0,1,1,.164-1.293A22.75,22.75,0,0,1,46.166,31.106a.655.655,0,0,1-.54.753Z" transform="translate(11.704 5.533)" fill="#0072bb"/><path d="M40.182,28.858a.475.475,0,0,1-.458-.376,14.5,14.5,0,0,0-12.079-11.67.458.458,0,0,1-.393-.524.475.475,0,0,1,.524-.376A15.418,15.418,0,0,1,40.64,28.318a.458.458,0,0,1-.376.524Z" transform="translate(12.172 7.486)" fill="#0072bb"/><path d="M28.613,30.852,27.6,14.96H24.652L23.67,35.975l21.539-1.113v-2.93Z" transform="translate(9.895 6.883)" fill="#0072bb"/><path d="M54.269,18.9l1.637-1.637,2.079,2.079,1.178-1.178a1.637,1.637,0,0,0,0-2.357l-3.535-3.6a1.637,1.637,0,0,0-2.357,0l-1.162,1.178,2.079,2.062-1.915,1.9a27.824,27.824,0,0,0-14.419-5.09V8.815h4.092V6.474A2.324,2.324,0,0,0,39.621,4.15H32.616a2.324,2.324,0,0,0-2.324,2.324v2.34h4.092v3.437a27.824,27.824,0,0,0-14.419,5.09l-1.9-1.9,2.079-2.062L18.966,12.2a1.637,1.637,0,0,0-2.357,0l-3.568,3.552a1.637,1.637,0,0,0,0,2.357l1.178,1.178L16.3,17.211l1.637,1.637a27.955,27.955,0,1,0,36.3,0ZM36.118,63.988A23.863,23.863,0,1,1,59.981,40.125,23.863,23.863,0,0,1,36.118,63.988Z" transform="translate(0)" fill="#0072bb"/></g></svg>