<svg xmlns="http://www.w3.org/2000/svg" width="63.787" height="61.948" viewBox="0 0 63.787 61.948"><path d="M12.873,28.564V45.707H19.8V28.564a3.469,3.469,0,1,0-6.923,0Z" transform="translate(-0.352 5.534)" fill="#0072bb"/><path d="M23.884,15.58a3.454,3.454,0,0,0-3.454,3.469V51h6.923V19.049a3.469,3.469,0,0,0-3.469-3.469Z" transform="translate(3.96 0.245)" fill="#0072bb"/><path d="M34.919,10.8a3.469,3.469,0,1,0-6.939,0V55.7h6.939Z" transform="translate(8.262 -4.457)" fill="#0072bb"/><path d="M42.519,21.749a3.469,3.469,0,1,0-6.939,0V49.458h6.939Z" transform="translate(12.594 1.783)" fill="#0072bb"/><path d="M67.15,59.818H13.773V6.929a1.429,1.429,0,0,0-2.857,0v52.89H6.489a1.444,1.444,0,1,0,0,2.873h4.364V66.02a1.429,1.429,0,1,0,2.857,0V62.691H67.087a1.444,1.444,0,1,0,0-2.873Z" transform="translate(-4.894 -5.5)" fill="#0072bb"/><path d="M13.2,33.21a.879.879,0,0,0,.706-.345L31.8,9.881v1.947a.879.879,0,0,0,.879.895h0a.9.9,0,0,0,.895-.895V7.291h0a.832.832,0,0,0,0-.267V6.93a1.1,1.1,0,0,0-.235-.3h0a1.225,1.225,0,0,0-.33-.141h-.424L28.253,7.667a.879.879,0,0,0-.644,1.083.895.895,0,0,0,1.1.644l1.648-.534-17.865,22.9a.879.879,0,0,0,.157,1.256A.863.863,0,0,0,13.2,33.21Z" transform="translate(-0.676 -4.936)" fill="#0072bb"/></svg>