<svg xmlns="http://www.w3.org/2000/svg" width="77.002" height="67.629" viewBox="0 0 77.002 67.629"><g transform="translate(-488 -1890)"><g transform="translate(490.159 1889.75)"><path d="M26.915,16.793a.732.732,0,0,0,.351-.088.615.615,0,0,0,.308-.19.923.923,0,0,0,0-1.318.952.952,0,0,0-1.025-.205.674.674,0,0,0-.293.205.937.937,0,0,0,.659,1.6Z" transform="translate(11.679 4.028)" fill="#0072bb"/><path d="M62.831,34.676c-.586-1.069-1.992-3.632-2.534-4.393a4.613,4.613,0,0,0-3.676-1.845H41.977A4,4,0,0,0,38.36,34.09a8.45,8.45,0,0,1-7.674,11.965h-.073a8.274,8.274,0,0,1-6.825-3.705,8.04,8.04,0,0,1-.747-7.557,56.134,56.134,0,0,1,5.506-9.329,13.049,13.049,0,0,0,1.611-2.929l5.009,2.841a1.318,1.318,0,0,0,.688.19,1.464,1.464,0,0,0,.7-2.636l-3.749-2.109h3.412a.937.937,0,1,0,0-1.875H29.734l.513-7,.879-.615v1.875a.937.937,0,1,0,1.875,0V7.187a.937.937,0,1,0-1.875,0v1.86l-2.314,1.611a.981.981,0,0,0-.41.7l-.469,6.458a6.063,6.063,0,0,0-5.2-3.149,5.242,5.242,0,0,0-.586,0,1.142,1.142,0,0,0-1,1.128v6.693a1.23,1.23,0,0,0,1.069,1.142h0C18.018,27.6,13.4,32.245,12.79,38.1A14.293,14.293,0,0,0,1.074,44.356a1.464,1.464,0,0,0,.351,1.962l3.163,2.153a9.285,9.285,0,1,0,17.574,5.4l28.7.044a9.285,9.285,0,0,0,18.365,0h1.64a1.464,1.464,0,0,0,1-.483,1.611,1.611,0,0,0,.41-1.084C72.233,40.8,64.735,35.774,62.831,34.676ZM23.437,17.1c1.23.293,2.548,1.245,2.548,2.153s-1.318,1.845-2.548,2.138Zm1.875,7.615.908-.835v.073a59.253,59.253,0,0,0-5.858,9.827,10.837,10.837,0,0,0-.615,6.151,14.235,14.235,0,0,0-4.2-1.464c.718-5.433,5.668-10.032,9.768-13.81Zm-12.36,34.3a6.488,6.488,0,1,1,6.473-6.473A6.488,6.488,0,0,1,12.951,59.016ZM22.1,51.049A9.27,9.27,0,0,0,6.2,46.157l-1.889-1.3a11.482,11.482,0,0,1,20.034,6.166ZM60,59.016a6.5,6.5,0,0,1-6.327-5.1h1.684A4.833,4.833,0,0,0,60,57.478a4.979,4.979,0,0,0,4.628-3.544h1.7A6.488,6.488,0,0,1,60,59.016ZM57.31,53.934h5.36A3.1,3.1,0,0,1,60,55.677a3,3,0,0,1-2.695-1.743ZM27.156,51a14.118,14.118,0,0,0-.586-2.929,11.115,11.115,0,0,0,4,.791h0a11.277,11.277,0,0,0,9.534-5.14,11.159,11.159,0,0,0,.776-10.808,1.186,1.186,0,0,1,.088-1.128,1.142,1.142,0,0,1,.981-.542H56.593a1.772,1.772,0,0,1,1.464.718c.293.381,1.084,1.772,1.787,3.046H48.333a.937.937,0,0,0,0,1.875H61.206a16.93,16.93,0,0,1,8.2,14.162Z" fill="#0072bb"/><path d="M32.273,26.024a.879.879,0,0,0-.718,0,1.464,1.464,0,0,0-.322.19,1.025,1.025,0,0,0-.264.674.952.952,0,0,0,.264.659.981.981,0,0,0,.674.264,1.01,1.01,0,0,0,.366,0,.674.674,0,0,0,.293-.205.908.908,0,0,0,.278-.659.967.967,0,0,0-.278-.674,1.01,1.01,0,0,0-.293-.249Z" transform="translate(13.995 9.149)" fill="#0072bb"/><path d="M10.737,34.6a4.862,4.862,0,1,0,0,9.71,4.979,4.979,0,0,0,4.847-4.862A4.862,4.862,0,0,0,10.737,34.6Zm0,7.864a3.017,3.017,0,1,1,3-3.017,3.134,3.134,0,0,1-3,3.061Z" transform="translate(2.214 13.166)" fill="#0072bb"/></g><g transform="translate(486.795 1885.975)" fill="#0072bb"><path d="M 5.144097328186035 70.65465545654297 C 5.144054412841797 70.65465545654297 5.14409875869751 70.65465545654297 5.144055843353271 70.65465545654297 C 4.289415836334229 70.65463256835938 3.478915691375732 70.28401947021484 2.920355796813965 69.63785552978516 C 2.407095670700073 69.04409027099609 2.155805826187134 68.28600311279297 2.212775707244873 67.50325012207031 C 2.269755840301514 66.72041320800781 2.628235816955566 66.00669097900391 3.222195625305176 65.49358367919922 L 72.36830902099609 5.74033260345459 C 72.90195465087891 5.279202461242676 73.58391571044922 5.025252342224121 74.28857421875 5.025252342224121 C 75.14302825927734 5.025252342224121 75.95342254638672 5.395722389221191 76.51198577880859 6.041672706604004 L 76.51752471923828 6.04808235168457 L 76.52295684814453 6.054582595825195 C 77.02708435058594 6.65797233581543 77.26552581787109 7.421512603759766 77.1943359375 8.20454216003418 C 77.12348937988281 8.984035491943359 76.75430297851563 9.689206123352051 76.15441131591797 10.19137096405029 L 7.064845561981201 69.93912506103516 C 6.531008243560791 70.40057373046875 5.848881721496582 70.65465545654297 5.144097328186035 70.65465545654297 Z" stroke="none"/><path d="M 74.28857421875 6.025253295898438 C 73.83957672119141 6.025253295898438 73.38853454589844 6.180366516113281 73.02215576171875 6.496955871582031 L 3.875923156738281 66.25031280517578 C 3.065887451171875 66.95008850097656 2.97686767578125 68.17407989501953 3.676902770996094 68.98390197753906 C 4.060188293457031 69.42732238769531 4.600608825683594 69.65464019775391 5.144073486328125 69.65464019775391 C 5.593162536621094 69.65464019775391 6.0443115234375 69.49945068359375 6.410720825195313 69.18272399902344 L 75.50705718994141 9.42913818359375 C 75.90305328369141 9.100006103515625 76.15183258056641 8.626815795898438 76.19844055175781 8.114006042480469 C 76.24506378173828 7.6011962890625 76.08570861816406 7.090904235839844 75.75554656982422 6.695747375488281 L 75.75555419921875 6.695747375488281 C 75.37226867675781 6.252494812011719 74.83193969726563 6.025253295898438 74.28857421875 6.025253295898438 M 74.28857421875 4.025245666503906 C 75.43366241455078 4.025245666503906 76.519775390625 4.521804809570313 77.26840972900391 5.387596130371094 L 77.27948760986328 5.400413513183594 L 77.29035186767578 5.413414001464844 C 77.966064453125 6.222160339355469 78.28564453125 7.24554443359375 78.19023132324219 8.295082092285156 C 78.09552764892578 9.336967468261719 77.60319519042969 10.27976989746094 76.80308532714844 10.95248413085938 L 7.718955993652344 70.69551086425781 C 7.003288269042969 71.31412506103516 6.088966369628906 71.65464782714844 5.144073486328125 71.65464782714844 C 3.998756408691406 71.65464782714844 2.912498474121094 71.15791320800781 2.163833618164063 70.29181671142578 C 1.475875854492188 69.49595642089844 1.139045715332031 68.47985076904297 1.215408325195313 67.43065643310547 C 1.291786193847656 66.38132476806641 1.772308349609375 65.42465209960938 2.568466186523438 64.73686218261719 L 71.71446228027344 4.98370361328125 C 72.42975616455078 4.365615844726563 73.34391021728516 4.025245666503906 74.28857421875 4.025245666503906 Z" stroke="none" fill="#fff"/></g></g></svg>