<svg xmlns="http://www.w3.org/2000/svg" width="63.788" height="71.709" viewBox="0 0 63.788 71.709"><path d="M23.32,22.577v5.159a5.8,5.8,0,0,0-4.5,5.654V50.663a2.518,2.518,0,0,0,2.6,2.621H42.677a2.518,2.518,0,0,0,2.518-2.518V33.39a5.8,5.8,0,0,0-4.5-5.654V22.577a8.647,8.647,0,1,0-17.293,0Zm15.952,8.131a2.7,2.7,0,0,1,2.7,2.683V50.043H21.958V33.39a2.7,2.7,0,0,1,2.7-2.683ZM26.684,22.577a5.283,5.283,0,1,1,10.566,0V27.55H26.766Z" transform="translate(-0.207 -1.303)" fill="#0072bb"/><path d="M25.2,28.988l-1.011,4.23a.722.722,0,0,0,.124.64.764.764,0,0,0,.6.289h3.384a.764.764,0,0,0,.6-.289.722.722,0,0,0,.124-.64l-1.011-4.23a2.662,2.662,0,1,0-2.807,0Z" transform="translate(5.24 9.476)" fill="#0072bb"/><path d="M71.853,19.159C66.447,18.313,52.827,15.547,42.839,8.2a2.064,2.064,0,0,0-2.414,0c-9.967,7.285-23.587,10.05-28.891,10.9A2.064,2.064,0,0,0,9.8,21.161a111.889,111.889,0,0,0,3.859,24.206,60.155,60.155,0,0,0,10.834,21.9A38.714,38.714,0,0,0,41,79.375a1.733,1.733,0,0,0,.722.144,1.8,1.8,0,0,0,.722-.144A38.4,38.4,0,0,0,58.956,67.221,60.3,60.3,0,0,0,69.769,45.346a112.2,112.2,0,0,0,3.818-24.1A2.064,2.064,0,0,0,71.853,19.159ZM65.807,44.273a56.171,56.171,0,0,1-10.07,20.492A34.71,34.71,0,0,1,41.642,75.393,34.875,34.875,0,0,1,27.568,64.806,55.945,55.945,0,0,1,17.5,44.4a107.825,107.825,0,0,1-3.591-21.5A74.291,74.291,0,0,0,41.642,12.431,74.291,74.291,0,0,0,69.377,22.894a107.844,107.844,0,0,1-3.57,21.379Z" transform="translate(-9.8 -7.811)" fill="#0072bb"/></svg>