<svg xmlns="http://www.w3.org/2000/svg" xmlns:xlink="http://www.w3.org/1999/xlink" width="410.274" height="492.49" viewBox="0 0 410.274 492.49">
  <defs>
    <filter id="Trazado_1906" x="92.521" y="163.909" width="240.424" height="240.424" filterUnits="userSpaceOnUse">
      <feOffset dy="3" input="SourceAlpha"/>
      <feGaussianBlur stdDeviation="3" result="blur"/>
      <feFlood flood-opacity="0.161"/>
      <feComposite operator="in" in2="blur"/>
      <feComposite in="SourceGraphic"/>
    </filter>
  </defs>
  <g id="Grupo_1379" data-name="Grupo 1379" transform="translate(-1317 -767.64)">
    <g id="Grupo_1378" data-name="Grupo 1378" transform="matrix(0.985, -0.174, 0.174, 0.985, 881.981, 191.214)">
      <path id="Trazado_1854" data-name="Trazado 1854" d="M181.73,276.651a80.406,80.406,0,0,1,73.032-110.912l28.294-52.164L254.827,62.11A184.086,184.086,0,0,0,90.949,327.327L120.7,278.294Z" transform="translate(232.896 713.322)" fill="#6ea100"/>
      <path id="Trazado_1855" data-name="Trazado 1855" d="M222,166.269a80.419,80.419,0,0,1,59.512,120.318L312.057,336.4l59.628,1.294A184.1,184.1,0,0,0,222.608,62.33l28.061,51.142Z" transform="translate(276.927 713.387)" fill="#008388"/>
      <path id="Trazado_1856" data-name="Trazado 1856" d="M313.743,244.939a80.393,80.393,0,0,1-132.557-9.2L121,237.37,91,286.817a184.086,184.086,0,0,0,312.982,10.065l-59.163-1.294Z" transform="translate(238.447 764.324)" fill="#039be5"/>
      <g transform="matrix(0.98, 0.17, -0.17, 0.98, 328.31, 643.21)" filter="url(#Trazado_1906)">
        <path id="Trazado_1906-2" data-name="Trazado 1906" d="M96,0A96,96,0,1,1,0,96,96,96,0,0,1,96,0Z" transform="matrix(0.98, -0.17, 0.17, 0.98, 101.52, 203.25)" fill="#dee2e6"/>
      </g>
      <path id="Trazado_1907" data-name="Trazado 1907" d="M90,0A90,90,0,1,1,0,90,90,90,0,0,1,90,0Z" transform="translate(399 868)" fill="#fff"/>
    </g>
    <path id="Trazado_2025" data-name="Trazado 2025" d="M-65.648.256c5.152,0,8.128-2.272,8.128-5.472,0-6.784-10.4-3.936-10.4-6.88,0-.9.96-1.6,3.2-1.6a9.886,9.886,0,0,1,4.96,1.28l1.664-3.552a14.156,14.156,0,0,0-6.624-1.5c-5.024,0-7.968,2.3-7.968,5.568,0,6.88,10.4,4,10.4,6.816,0,.96-.864,1.568-3.168,1.568A11.779,11.779,0,0,1-71.44-5.184L-73.1-1.6A14.779,14.779,0,0,0-65.648.256Zm13.7-19.872a2.87,2.87,0,0,0,3.1-2.88,2.8,2.8,0,0,0-3.1-2.688,2.853,2.853,0,0,0-3.1,2.784A2.853,2.853,0,0,0-51.952-19.616ZM-54.448,0h4.992V-17.216h-4.992Zm15.424.256c5.152,0,8.128-2.272,8.128-5.472,0-6.784-10.4-3.936-10.4-6.88,0-.9.96-1.6,3.2-1.6a9.886,9.886,0,0,1,4.96,1.28l1.664-3.552a14.156,14.156,0,0,0-6.624-1.5c-5.024,0-7.968,2.3-7.968,5.568,0,6.88,10.4,4,10.4,6.816,0,.96-.864,1.568-3.168,1.568a11.779,11.779,0,0,1-5.984-1.664L-46.48-1.6A14.779,14.779,0,0,0-39.024.256Zm20.96-4.608a3.364,3.364,0,0,1-2.016.64,2.008,2.008,0,0,1-2.144-2.272v-7.008h4.288v-3.84h-4.288v-4.192h-4.992v4.192h-2.656v3.84h2.656V-5.92c0,4.1,2.368,6.176,6.432,6.176A7.134,7.134,0,0,0-16.72-.832ZM2.416-8.544c0-5.536-3.9-8.928-8.96-8.928-5.248,0-9.184,3.712-9.184,8.864,0,5.12,3.872,8.864,9.824,8.864,3.1,0,5.5-.96,7.1-2.784l-2.656-2.88a5.836,5.836,0,0,1-4.32,1.664C-8.4-3.744-10.224-5.056-10.7-7.2H2.32C2.352-7.616,2.416-8.16,2.416-8.544ZM-6.512-13.7a4.091,4.091,0,0,1,4.224,3.584h-8.48A4.076,4.076,0,0,1-6.512-13.7Zm34.3-3.776a7.741,7.741,0,0,0-6.208,2.816,6.426,6.426,0,0,0-5.664-2.816,6.972,6.972,0,0,0-5.408,2.24v-1.984H5.744V0h4.992V-8.64c0-3.072,1.568-4.512,3.776-4.512,2.08,0,3.264,1.28,3.264,4.064V0h4.992V-8.64c0-3.072,1.568-4.512,3.808-4.512,2.016,0,3.264,1.28,3.264,4.064V0h4.992V-9.856C34.832-15.1,31.888-17.472,27.792-17.472Zm18.464,0a13.234,13.234,0,0,0-7.424,2.08L40.624-11.9a8.278,8.278,0,0,1,4.96-1.6c2.688,0,3.968,1.248,3.968,3.392H45.584c-5.248,0-7.392,2.112-7.392,5.152,0,2.976,2.4,5.216,6.432,5.216,2.528,0,4.32-.832,5.248-2.4V0h4.672V-9.824C54.544-15.04,51.5-17.472,46.256-17.472ZM45.872-3.1c-1.76,0-2.816-.832-2.816-2.08,0-1.152.736-2.016,3.072-2.016h3.424v1.76A3.678,3.678,0,0,1,45.872-3.1ZM64.848.256c5.152,0,8.128-2.272,8.128-5.472,0-6.784-10.4-3.936-10.4-6.88,0-.9.96-1.6,3.2-1.6a9.886,9.886,0,0,1,4.96,1.28L72.4-15.968a14.156,14.156,0,0,0-6.624-1.5c-5.024,0-7.968,2.3-7.968,5.568,0,6.88,10.4,4,10.4,6.816,0,.96-.864,1.568-3.168,1.568a11.779,11.779,0,0,1-5.984-1.664L57.392-1.6A14.779,14.779,0,0,0,64.848.256Z" transform="translate(1534.458 1187.498)" fill="#fff"/>
    <path id="Trazado_2023" data-name="Trazado 2023" d="M-57.088,0H-52.1V-23.744h-4.992Zm26.5-8.544c0-5.536-3.9-8.928-8.96-8.928-5.248,0-9.184,3.712-9.184,8.864,0,5.12,3.872,8.864,9.824,8.864,3.1,0,5.5-.96,7.1-2.784l-2.656-2.88a5.836,5.836,0,0,1-4.32,1.664c-2.624,0-4.448-1.312-4.928-3.456h13.024C-30.656-7.616-30.592-8.16-30.592-8.544ZM-39.52-13.7A4.091,4.091,0,0,1-35.3-10.112h-8.48A4.076,4.076,0,0,1-39.52-13.7Zm25.28-3.52v2.208a6.911,6.911,0,0,0-5.7-2.464c-4.768,0-8.608,3.3-8.608,8.32s3.84,8.32,8.608,8.32A7.087,7.087,0,0,0-14.5-2.976v.736c0,3.1-1.536,4.7-5.056,4.7A10.29,10.29,0,0,1-25.632.512L-27.616,4.1c2.016,1.568,5.184,2.368,8.448,2.368C-12.96,6.464-9.5,3.52-9.5-2.88V-17.216Zm-4.7,12.288a4.207,4.207,0,0,1-4.544-4.224,4.207,4.207,0,0,1,4.544-4.224,4.18,4.18,0,0,1,4.512,4.224A4.18,4.18,0,0,1-18.944-4.928ZM2.08-17.472a13.234,13.234,0,0,0-7.424,2.08L-3.552-11.9a8.278,8.278,0,0,1,4.96-1.6c2.688,0,3.968,1.248,3.968,3.392H1.408C-3.84-10.112-5.984-8-5.984-4.96c0,2.976,2.4,5.216,6.432,5.216,2.528,0,4.32-.832,5.248-2.4V0h4.672V-9.824C10.368-15.04,7.328-17.472,2.08-17.472ZM1.7-3.1c-1.76,0-2.816-.832-2.816-2.08,0-1.152.736-2.016,3.072-2.016H5.376v1.76A3.678,3.678,0,0,1,1.7-3.1ZM14.88,0h4.992V-23.744H14.88Zm26.5-8.544c0-5.536-3.9-8.928-8.96-8.928-5.248,0-9.184,3.712-9.184,8.864,0,5.12,3.872,8.864,9.824,8.864,3.1,0,5.5-.96,7.1-2.784L37.5-5.408a5.836,5.836,0,0,1-4.32,1.664c-2.624,0-4.448-1.312-4.928-3.456H41.28C41.312-7.616,41.376-8.16,41.376-8.544ZM32.448-13.7a4.091,4.091,0,0,1,4.224,3.584h-8.48A4.076,4.076,0,0,1,32.448-13.7ZM50.5.256c5.152,0,8.128-2.272,8.128-5.472,0-6.784-10.4-3.936-10.4-6.88,0-.9.96-1.6,3.2-1.6a9.886,9.886,0,0,1,4.96,1.28l1.664-3.552a14.156,14.156,0,0,0-6.624-1.5c-5.024,0-7.968,2.3-7.968,5.568,0,6.88,10.4,4,10.4,6.816,0,.96-.864,1.568-3.168,1.568A11.779,11.779,0,0,1,44.7-5.184L43.04-1.6A14.779,14.779,0,0,0,50.5.256Z" transform="matrix(0.559, -0.829, 0.829, 0.559, 1416.539, 996.179)" fill="#fff"/>
    <path id="Trazado_2022" data-name="Trazado 2022" d="M-62.7-17.472a6.689,6.689,0,0,0-5.408,2.24v-1.984H-72.88V6.208h4.992V-1.824A6.684,6.684,0,0,0-62.7.256c4.832,0,8.576-3.456,8.576-8.864S-57.872-17.472-62.7-17.472ZM-63.568-3.84c-2.5,0-4.384-1.792-4.384-4.768s1.888-4.768,4.384-4.768,4.384,1.792,4.384,4.768S-61.072-3.84-63.568-3.84Zm17.536-11.1v-2.272H-50.8V0h4.992V-8.128c0-3.3,1.824-4.8,4.576-4.8.384,0,.7.032,1.12.064v-4.608C-42.768-17.472-44.816-16.608-46.032-14.944ZM-29.1.256c5.472,0,9.44-3.68,9.44-8.864s-3.968-8.864-9.44-8.864-9.472,3.68-9.472,8.864S-34.576.256-29.1.256Zm0-4.1c-2.5,0-4.416-1.792-4.416-4.768s1.92-4.768,4.416-4.768,4.384,1.792,4.384,4.768S-26.608-3.84-29.1-3.84ZM-8.016.256C-4.4.256-1.552-1.344-.3-4.1L-4.176-6.208A4.235,4.235,0,0,1-8.048-3.84,4.405,4.405,0,0,1-12.56-8.608a4.405,4.405,0,0,1,4.512-4.768,4.293,4.293,0,0,1,3.872,2.368L-.3-13.088c-1.248-2.816-4.1-4.384-7.712-4.384-5.6,0-9.6,3.68-9.6,8.864S-13.616.256-8.016.256Zm27.232-8.8c0-5.536-3.9-8.928-8.96-8.928-5.248,0-9.184,3.712-9.184,8.864C1.072-3.488,4.944.256,10.9.256c3.1,0,5.5-.96,7.1-2.784l-2.656-2.88a5.836,5.836,0,0,1-4.32,1.664C8.4-3.744,6.576-5.056,6.1-7.2H19.12C19.152-7.616,19.216-8.16,19.216-8.544ZM10.288-13.7a4.091,4.091,0,0,1,4.224,3.584H6.032A4.076,4.076,0,0,1,10.288-13.7ZM28.336.256c5.152,0,8.128-2.272,8.128-5.472,0-6.784-10.4-3.936-10.4-6.88,0-.9.96-1.6,3.2-1.6a9.887,9.887,0,0,1,4.96,1.28l1.664-3.552a14.156,14.156,0,0,0-6.624-1.5c-5.024,0-7.968,2.3-7.968,5.568,0,6.88,10.4,4,10.4,6.816,0,.96-.864,1.568-3.168,1.568a11.779,11.779,0,0,1-5.984-1.664L20.88-1.6A14.779,14.779,0,0,0,28.336.256Zm19.392,0c5.472,0,9.44-3.68,9.44-8.864s-3.968-8.864-9.44-8.864-9.472,3.68-9.472,8.864S42.256.256,47.728.256Zm0-4.1c-2.5,0-4.416-1.792-4.416-4.768s1.92-4.768,4.416-4.768,4.384,1.792,4.384,4.768S50.224-3.84,47.728-3.84Zm18.56,4.1c5.152,0,8.128-2.272,8.128-5.472,0-6.784-10.4-3.936-10.4-6.88,0-.9.96-1.6,3.2-1.6a9.886,9.886,0,0,1,4.96,1.28l1.664-3.552a14.156,14.156,0,0,0-6.624-1.5c-5.024,0-7.968,2.3-7.968,5.568,0,6.88,10.4,4,10.4,6.816,0,.96-.864,1.568-3.168,1.568A11.779,11.779,0,0,1,60.5-5.184L58.832-1.6A14.779,14.779,0,0,0,66.288.256Z" transform="translate(1634.317 992.995) rotate(54)" fill="#fff"/>
    <path id="Trazado_2020" data-name="Trazado 2020" d="M12.9,0H14L7.56-14H6.54L.1,0H1.2L2.98-3.94H11.1ZM3.38-4.8l3.66-8.08L10.72-4.8Zm17.94-5.72a4.309,4.309,0,0,0-4.14,2.34v-2.26h-.96V0h1V-5.56a3.725,3.725,0,0,1,3.96-4.06c2.12,0,3.38,1.24,3.38,3.6V0h1V-6.1C25.56-9.02,23.86-10.52,21.32-10.52ZM36.24-14.5H34.8l-2.78,2.36H33.1ZM33.2-10.52a6.368,6.368,0,0,0-4.18,1.48l.5.72a5.419,5.419,0,0,1,3.6-1.32c2.04,0,3.1,1.04,3.1,2.98v.84H32.64c-2.9,0-3.9,1.34-3.9,2.92,0,1.78,1.42,2.98,3.76,2.98a4.01,4.01,0,0,0,3.76-1.94V0h.96V-6.62C37.22-9.2,35.78-10.52,33.2-10.52ZM32.64-.74c-1.84,0-2.9-.84-2.9-2.2,0-1.2.76-2.1,2.92-2.1h3.56v1.96A3.578,3.578,0,0,1,32.64-.74Zm8.7.74h1V-14.84h-1Zm5.72-12.98a.811.811,0,0,0,.82-.82.807.807,0,0,0-.82-.8.824.824,0,0,0-.82.82A.807.807,0,0,0,47.06-12.98ZM46.56,0h1V-10.44h-1Zm7.86.08c2.66,0,4.12-1.16,4.12-2.86,0-3.98-6.92-1.76-6.92-4.9,0-1.12.9-1.96,2.94-1.96a5.379,5.379,0,0,1,3.14.94l.46-.8a6.413,6.413,0,0,0-3.58-1.02c-2.64,0-3.96,1.28-3.96,2.86,0,4.1,6.92,1.86,6.92,4.9,0,1.18-.88,1.96-3.08,1.96A6.075,6.075,0,0,1,50.7-2.06l-.46.8A6.551,6.551,0,0,0,54.42.08Zm7.42-13.06a.811.811,0,0,0,.82-.82.807.807,0,0,0-.82-.8.824.824,0,0,0-.82.82A.807.807,0,0,0,61.84-12.98ZM61.34,0h1V-10.44h-1ZM69.2.08c2.66,0,4.12-1.16,4.12-2.86,0-3.98-6.92-1.76-6.92-4.9,0-1.12.9-1.96,2.94-1.96a5.379,5.379,0,0,1,3.14.94l.46-.8a6.413,6.413,0,0,0-3.58-1.02c-2.64,0-3.96,1.28-3.96,2.86,0,4.1,6.92,1.86,6.92,4.9,0,1.18-.88,1.96-3.08,1.96a6.075,6.075,0,0,1-3.76-1.26l-.46.8A6.551,6.551,0,0,0,69.2.08ZM76-1.62a.82.82,0,0,0-.84.84.817.817,0,0,0,.66.82l-.66,2.82h.72L76.66.14a3.072,3.072,0,0,0,.18-.92A.832.832,0,0,0,76-1.62Zm16.62-8.82L88.42-1.1l-4.16-9.34H83.2L87.9,0h1.02l4.72-10.44Zm3.7-2.54a.811.811,0,0,0,.82-.82.807.807,0,0,0-.82-.8.824.824,0,0,0-.82.82A.807.807,0,0,0,96.32-12.98ZM95.82,0h1V-10.44h-1Zm8.74-10.52a6.368,6.368,0,0,0-4.18,1.48l.5.72a5.419,5.419,0,0,1,3.6-1.32c2.04,0,3.1,1.04,3.1,2.98v.84H104c-2.9,0-3.9,1.34-3.9,2.92,0,1.78,1.42,2.98,3.76,2.98a4.01,4.01,0,0,0,3.76-1.94V0h.96V-6.62C108.58-9.2,107.14-10.52,104.56-10.52ZM104-.74c-1.84,0-2.9-.84-2.9-2.2,0-1.2.76-2.1,2.92-2.1h3.56v1.96A3.578,3.578,0,0,1,104-.74Zm13.94-9.78a4.673,4.673,0,0,0-4.24,2.46v-6.78h-1V0h.96V-2.46A4.666,4.666,0,0,0,117.94.08a5.06,5.06,0,0,0,5.16-5.3A5.049,5.049,0,0,0,117.94-10.52Zm-.06,9.7a4.142,4.142,0,0,1-4.2-4.4,4.142,4.142,0,0,1,4.2-4.4,4.157,4.157,0,0,1,4.22,4.4A4.157,4.157,0,0,1,117.88-.82Zm8.82-12.16a.811.811,0,0,0,.82-.82.807.807,0,0,0-.82-.8.824.824,0,0,0-.82.82A.807.807,0,0,0,126.7-12.98ZM126.2,0h1V-10.44h-1Zm5.22,0h1V-14.84h-1Zm5.72-12.98a.811.811,0,0,0,.82-.82.807.807,0,0,0-.82-.8.824.824,0,0,0-.82.82A.807.807,0,0,0,137.14-12.98ZM136.64,0h1V-10.44h-1Zm13.5-14.84v6.82a4.68,4.68,0,0,0-4.26-2.5,5.049,5.049,0,0,0-5.16,5.3,5.06,5.06,0,0,0,5.16,5.3,4.631,4.631,0,0,0,4.28-2.54V0h.98V-14.84ZM145.94-.82a4.142,4.142,0,0,1-4.2-4.4,4.142,4.142,0,0,1,4.2-4.4,4.142,4.142,0,0,1,4.2,4.4A4.142,4.142,0,0,1,145.94-.82Zm12.94-9.7a6.368,6.368,0,0,0-4.18,1.48l.5.72a5.419,5.419,0,0,1,3.6-1.32c2.04,0,3.1,1.04,3.1,2.98v.84h-3.58c-2.9,0-3.9,1.34-3.9,2.92,0,1.78,1.42,2.98,3.76,2.98a4.01,4.01,0,0,0,3.76-1.94V0h.96V-6.62C162.9-9.2,161.46-10.52,158.88-10.52Zm-.56,9.78c-1.84,0-2.9-.84-2.9-2.2,0-1.2.76-2.1,2.92-2.1h3.56v1.96A3.578,3.578,0,0,1,158.32-.74Zm17-14.1v6.82a4.68,4.68,0,0,0-4.26-2.5,5.049,5.049,0,0,0-5.16,5.3,5.06,5.06,0,0,0,5.16,5.3,4.631,4.631,0,0,0,4.28-2.54V0h.98V-14.84ZM171.12-.82a4.142,4.142,0,0,1-4.2-4.4,4.142,4.142,0,0,1,4.2-4.4,4.142,4.142,0,0,1,4.2,4.4A4.142,4.142,0,0,1,171.12-.82Zm21.92-9.62L188.86-1.1l-4.18-9.34h-1.06l4.7,10.4-.56,1.26c-.64,1.42-1.34,1.86-2.3,1.86a2.541,2.541,0,0,1-1.94-.82l-.5.76a3.334,3.334,0,0,0,2.42.94c1.38,0,2.42-.62,3.26-2.54l5.36-11.86Zm17.18,5.18a4.943,4.943,0,0,0-4.98-5.26,4.992,4.992,0,0,0-5,5.3,5.125,5.125,0,0,0,5.38,5.3,5,5,0,0,0,3.94-1.7l-.58-.66a4.21,4.21,0,0,1-3.34,1.46,4.206,4.206,0,0,1-4.42-4.16h8.98C210.2-5.08,210.22-5.18,210.22-5.26Zm-4.98-4.38a3.947,3.947,0,0,1,4,3.88h-8A3.946,3.946,0,0,1,205.24-9.64ZM215.96.08c2.66,0,4.12-1.16,4.12-2.86,0-3.98-6.92-1.76-6.92-4.9,0-1.12.9-1.96,2.94-1.96a5.379,5.379,0,0,1,3.14.94l.46-.8a6.413,6.413,0,0,0-3.58-1.02c-2.64,0-3.96,1.28-3.96,2.86,0,4.1,6.92,1.86,6.92,4.9,0,1.18-.88,1.96-3.08,1.96a6.075,6.075,0,0,1-3.76-1.26l-.46.8A6.551,6.551,0,0,0,215.96.08Zm11.68-1.44a2.4,2.4,0,0,1-1.62.58c-1.28,0-1.94-.74-1.94-2.08V-9.58h3.32v-.86h-3.32v-2.28h-1v2.28h-1.92v.86h1.92v6.82A2.589,2.589,0,0,0,225.92.08a3.168,3.168,0,0,0,2.14-.74Zm11.34-9.08v5.56c0,2.48-1.46,4.06-3.82,4.06-2.18,0-3.44-1.24-3.44-3.6v-6.02h-1v6.1c0,2.92,1.7,4.42,4.36,4.42a4.114,4.114,0,0,0,3.94-2.32V0h.96V-10.44Zm13.52-4.4v6.82a4.68,4.68,0,0,0-4.26-2.5,5.049,5.049,0,0,0-5.16,5.3,5.06,5.06,0,0,0,5.16,5.3,4.631,4.631,0,0,0,4.28-2.54V0h.98V-14.84ZM248.3-.82a4.142,4.142,0,0,1-4.2-4.4,4.142,4.142,0,0,1,4.2-4.4,4.142,4.142,0,0,1,4.2,4.4A4.142,4.142,0,0,1,248.3-.82Zm9.92-12.16a.811.811,0,0,0,.82-.82.807.807,0,0,0-.82-.8.824.824,0,0,0-.82.82A.807.807,0,0,0,258.22-12.98ZM257.72,0h1V-10.44h-1Zm9.3.08a5.085,5.085,0,0,0,5.22-5.3,5.085,5.085,0,0,0-5.22-5.3,5.085,5.085,0,0,0-5.22,5.3A5.085,5.085,0,0,0,267.02.08Zm0-.9a4.142,4.142,0,0,1-4.2-4.4,4.142,4.142,0,0,1,4.2-4.4,4.142,4.142,0,0,1,4.2,4.4A4.142,4.142,0,0,1,267.02-.82Zm21.74-14.02v6.82a4.68,4.68,0,0,0-4.26-2.5,5.049,5.049,0,0,0-5.16,5.3A5.06,5.06,0,0,0,284.5.08a4.631,4.631,0,0,0,4.28-2.54V0h.98V-14.84ZM284.56-.82a4.142,4.142,0,0,1-4.2-4.4,4.142,4.142,0,0,1,4.2-4.4,4.142,4.142,0,0,1,4.2,4.4A4.142,4.142,0,0,1,284.56-.82Zm18.26-4.44a4.943,4.943,0,0,0-4.98-5.26,4.992,4.992,0,0,0-5,5.3,5.125,5.125,0,0,0,5.38,5.3,5,5,0,0,0,3.94-1.7l-.58-.66a4.21,4.21,0,0,1-3.34,1.46,4.206,4.206,0,0,1-4.42-4.16h8.98C302.8-5.08,302.82-5.18,302.82-5.26Zm-4.98-4.38a3.947,3.947,0,0,1,4,3.88h-8A3.946,3.946,0,0,1,297.84-9.64Zm13.72-3.34a.811.811,0,0,0,.82-.82.807.807,0,0,0-.82-.8.824.824,0,0,0-.82.82A.807.807,0,0,0,311.56-12.98ZM311.06,0h1V-10.44h-1Zm18.22-10.52A4.405,4.405,0,0,0,325.06-8a3.7,3.7,0,0,0-3.82-2.52,4.144,4.144,0,0,0-4,2.32v-2.24h-.96V0h1V-5.56c0-2.48,1.46-4.06,3.82-4.06,2.04,0,3.26,1.24,3.26,3.6V0h1V-5.56c0-2.48,1.46-4.06,3.82-4.06,2.04,0,3.26,1.24,3.26,3.6V0h1V-6.1C333.44-9.02,331.8-10.52,329.28-10.52Zm13.52,0a4.666,4.666,0,0,0-4.28,2.54v-2.46h-.96V3.88h1V-2.38A4.673,4.673,0,0,0,342.8.08a5.049,5.049,0,0,0,5.16-5.3A5.06,5.06,0,0,0,342.8-10.52Zm-.06,9.7a4.142,4.142,0,0,1-4.2-4.4,4.142,4.142,0,0,1,4.2-4.4,4.157,4.157,0,0,1,4.22,4.4A4.157,4.157,0,0,1,342.74-.82Zm11.8-9.7a6.368,6.368,0,0,0-4.18,1.48l.5.72a5.419,5.419,0,0,1,3.6-1.32c2.04,0,3.1,1.04,3.1,2.98v.84h-3.58c-2.9,0-3.9,1.34-3.9,2.92,0,1.78,1.42,2.98,3.76,2.98a4.01,4.01,0,0,0,3.76-1.94V0h.96V-6.62C358.56-9.2,357.12-10.52,354.54-10.52Zm-.56,9.78c-1.84,0-2.9-.84-2.9-2.2,0-1.2.76-2.1,2.92-2.1h3.56v1.96A3.578,3.578,0,0,1,353.98-.74Zm12.86.82a4.629,4.629,0,0,0,3.96-1.92l-.74-.54a3.811,3.811,0,0,1-3.22,1.56,4.144,4.144,0,0,1-4.26-4.4,4.144,4.144,0,0,1,4.26-4.4,3.811,3.811,0,0,1,3.22,1.56l.74-.54a4.58,4.58,0,0,0-3.96-1.92,5.089,5.089,0,0,0-5.28,5.3A5.1,5.1,0,0,0,366.84.08Zm11.84-1.44a2.4,2.4,0,0,1-1.62.58c-1.28,0-1.94-.74-1.94-2.08V-9.58h3.32v-.86h-3.32v-2.28h-1v2.28H372.2v.86h1.92v6.82A2.589,2.589,0,0,0,376.96.08a3.168,3.168,0,0,0,2.14-.74Zm6.9,1.44a5.085,5.085,0,0,0,5.22-5.3,5.085,5.085,0,0,0-5.22-5.3,5.085,5.085,0,0,0-5.22,5.3A5.085,5.085,0,0,0,385.58.08Zm0-.9a4.142,4.142,0,0,1-4.2-4.4,4.142,4.142,0,0,1,4.2-4.4,4.142,4.142,0,0,1,4.2,4.4A4.142,4.142,0,0,1,385.58-.82Z" transform="translate(1317 822)" fill="#333"/>
    <path id="Trazado_2024" data-name="Trazado 2024" d="M-72.936.216c3.6,0,5.346-1.8,5.346-3.906,0-4.626-7.326-3.024-7.326-5.346,0-.792.666-1.44,2.394-1.44a7.116,7.116,0,0,1,3.492.99l.9-2.214A8.452,8.452,0,0,0-72.5-12.816c-3.582,0-5.31,1.782-5.31,3.924,0,4.68,7.326,3.06,7.326,5.418,0,.774-.7,1.35-2.43,1.35a7.411,7.411,0,0,1-4.158-1.314l-.99,2.2A8.981,8.981,0,0,0-72.936.216ZM-65.592,0h2.916V-12.6h-2.916Zm20.106,0-.036-12.6h-2.394L-52.56-4.77l-4.716-7.83h-2.412V0h2.736V-7.4l3.69,6.066h1.314L-48.24-7.56-48.222,0Zm8.442-12.6H-42.5V0h2.916V-3.474h2.538c3.366,0,5.472-1.746,5.472-4.554C-31.572-10.854-33.678-12.6-37.044-12.6Zm-.162,6.75h-2.376v-4.374h2.376c1.782,0,2.682.81,2.682,2.2C-34.524-6.66-35.424-5.85-37.206-5.85ZM-29.5,0h9.234V-2.376h-6.318V-12.6H-29.5ZM-18.63,0h2.916V-12.6H-18.63ZM-3.2-10.26V-12.6h-9.522V0H-9.81V-4.59h5.832V-6.93H-9.81v-3.33ZM-1.224,0H1.692V-12.6H-1.224ZM10.71.216a6.474,6.474,0,0,0,5.2-2.25L14.04-3.762a4.015,4.015,0,0,1-3.168,1.494A3.865,3.865,0,0,1,6.84-6.3a3.865,3.865,0,0,1,4.032-4.032A4.054,4.054,0,0,1,14.04-8.856l1.872-1.728a6.5,6.5,0,0,0-5.184-2.232c-3.924,0-6.84,2.718-6.84,6.516A6.469,6.469,0,0,0,10.71.216ZM27.036,0H30.1L24.462-12.6h-2.88L15.966,0h2.988L20.07-2.7h5.85Zm-6.03-4.914,2-4.824,2,4.824ZM37.26.216a6.474,6.474,0,0,0,5.2-2.25L40.59-3.762a4.015,4.015,0,0,1-3.168,1.494A3.865,3.865,0,0,1,33.39-6.3a3.865,3.865,0,0,1,4.032-4.032A4.054,4.054,0,0,1,40.59-8.856l1.872-1.728a6.5,6.5,0,0,0-5.184-2.232c-3.924,0-6.84,2.718-6.84,6.516A6.469,6.469,0,0,0,37.26.216ZM44.424,0H47.34V-12.6H44.424ZM54.792-13.626h2.2l3.258-2.592H57.222ZM56.43.216c3.96,0,6.894-2.754,6.894-6.516s-2.934-6.516-6.894-6.516c-3.978,0-6.894,2.772-6.894,6.516S52.452.216,56.43.216Zm0-2.484A3.844,3.844,0,0,1,52.488-6.3a3.844,3.844,0,0,1,3.942-4.032A3.844,3.844,0,0,1,60.372-6.3,3.844,3.844,0,0,1,56.43-2.268ZM74.2-12.6v7.65L67.932-12.6H65.52V0H68.4V-7.65L74.682,0h2.394V-12.6Z" transform="translate(1531.161 1056.724)" fill="#333"/>
    <path id="Trazado_2021" data-name="Trazado 2021" d="M2.49,0H7.35V-21H2.49Zm24.3-21V-8.25L16.35-21H12.33V0h4.8V-12.75L27.6,0h3.99V-21ZM50.76-4.68a7.715,7.715,0,0,1-3.78.9,6.482,6.482,0,0,1-6.81-6.72,6.465,6.465,0,0,1,6.87-6.72,7.106,7.106,0,0,1,5.43,2.37l3.12-2.88a11.2,11.2,0,0,0-8.79-3.63c-6.69,0-11.55,4.53-11.55,10.86S40.11.36,46.71.36A14.491,14.491,0,0,0,55.2-2.31v-8.52H50.76ZM78.3,0,73.59-6.75a6.827,6.827,0,0,0,4.32-6.63c0-4.71-3.51-7.62-9.12-7.62H59.7V0h4.86V-5.85h4.47L73.08,0ZM72.99-13.38c0,2.28-1.5,3.66-4.47,3.66H64.56v-7.32h3.96C71.49-17.04,72.99-15.69,72.99-13.38ZM86.58-3.9V-8.76h9.75v-3.78H86.58V-17.1H97.62V-21H81.75V0H98.01V-3.9ZM108.78.36c6,0,8.91-3,8.91-6.51,0-7.71-12.21-5.04-12.21-8.91,0-1.32,1.11-2.4,3.99-2.4a11.861,11.861,0,0,1,5.82,1.65l1.5-3.69a14.087,14.087,0,0,0-7.29-1.86c-5.97,0-8.85,2.97-8.85,6.54,0,7.8,12.21,5.1,12.21,9.03,0,1.29-1.17,2.25-4.05,2.25a12.352,12.352,0,0,1-6.93-2.19l-1.65,3.66A14.968,14.968,0,0,0,108.78.36ZM136.71,0h5.1l-9.39-21h-4.8L118.26,0h4.98l1.86-4.5h9.75ZM126.66-8.19l3.33-8.04,3.33,8.04ZM161.82.36c5.97,0,9.51-3.42,9.51-9.6V-21h-4.8V-9.42c0,3.99-1.71,5.64-4.68,5.64-2.94,0-4.68-1.65-4.68-5.64V-21h-4.86V-9.24C152.31-3.06,155.85.36,161.82.36ZM190.59-21V-8.25L180.15-21h-4.02V0h4.8V-12.75L191.4,0h3.99V-21Zm27.36,0h-9.09V0h4.86V-5.79h4.23c5.61,0,9.12-2.91,9.12-7.59C227.07-18.09,223.56-21,217.95-21Zm-.27,11.25h-3.96v-7.29h3.96c2.97,0,4.47,1.35,4.47,3.66C222.15-11.1,220.65-9.75,217.68-9.75ZM249.12,0l-4.71-6.75a6.827,6.827,0,0,0,4.32-6.63c0-4.71-3.51-7.62-9.12-7.62h-9.09V0h4.86V-5.85h4.47L243.9,0Zm-5.31-13.38c0,2.28-1.5,3.66-4.47,3.66h-3.96v-7.32h3.96C242.31-17.04,243.81-15.69,243.81-13.38ZM262.74.36c6.6,0,11.49-4.59,11.49-10.86s-4.89-10.86-11.49-10.86c-6.63,0-11.49,4.62-11.49,10.86S256.11.36,262.74.36Zm0-4.14a6.406,6.406,0,0,1-6.57-6.72,6.406,6.406,0,0,1,6.57-6.72,6.406,6.406,0,0,1,6.57,6.72A6.406,6.406,0,0,1,262.74-3.78ZM295.23-21h-4.77l-5.61,9.33L279.24-21h-5.16l8.13,13.5V0h4.86V-7.44Zm6.66,17.1V-8.76h9.75v-3.78h-9.75V-17.1h11.04V-21H297.06V0h16.26V-3.9ZM327.18.36a10.79,10.79,0,0,0,8.67-3.75l-3.12-2.88a6.692,6.692,0,0,1-5.28,2.49,6.442,6.442,0,0,1-6.72-6.72,6.442,6.442,0,0,1,6.72-6.72,6.756,6.756,0,0,1,5.28,2.46l3.12-2.88a10.841,10.841,0,0,0-8.64-3.72c-6.54,0-11.4,4.53-11.4,10.86S320.67.36,327.18.36ZM343.26,0h4.86V-17.04h6.72V-21h-18.3v3.96h6.72Zm24.06.36c6.6,0,11.49-4.59,11.49-10.86s-4.89-10.86-11.49-10.86c-6.63,0-11.49,4.62-11.49,10.86S360.69.36,367.32.36Zm0-4.14a6.406,6.406,0,0,1-6.57-6.72,6.406,6.406,0,0,1,6.57-6.72,6.406,6.406,0,0,1,6.57,6.72A6.406,6.406,0,0,1,367.32-3.78Z" transform="translate(1318 789)" fill="#333"/>
  </g>
</svg>
