<svg xmlns="http://www.w3.org/2000/svg" xmlns:xlink="http://www.w3.org/1999/xlink" width="350" height="546" viewBox="0 0 350 546">
  <defs>
    <filter id="Rectángulo_2136" x="0" y="0" width="350" height="546" filterUnits="userSpaceOnUse">
      <feOffset dy="3" input="SourceAlpha"/>
      <feGaussianBlur stdDeviation="3" result="blur"/>
      <feFlood flood-opacity="0.161"/>
      <feComposite operator="in" in2="blur"/>
      <feComposite in="SourceGraphic"/>
    </filter>
  </defs>
  <g id="Grupo_1376" data-name="Grupo 1376" transform="translate(-675.161 -1949.741)">
    <g transform="matrix(1, 0, 0, 1, 675.16, 1949.74)" filter="url(#Rectángulo_2136)">
      <rect id="Rectángulo_2136-2" data-name="Rectángulo 2136" width="332" height="528" rx="10" transform="translate(9 6)" fill="#fff"/>
    </g>
    <path id="Trazado_2008" data-name="Trazado 2008" d="M8.36.24a7.193,7.193,0,0,0,5.78-2.5L12.06-4.18A4.462,4.462,0,0,1,8.54-2.52,4.3,4.3,0,0,1,4.06-7a4.3,4.3,0,0,1,4.48-4.48,4.5,4.5,0,0,1,3.52,1.64l2.08-1.92a7.228,7.228,0,0,0-5.76-2.48C4.02-14.24.78-11.22.78-7S4.02.24,8.36.24Zm9.3-12.5a1.794,1.794,0,0,0,1.94-1.8,1.751,1.751,0,0,0-1.94-1.68A1.783,1.783,0,0,0,15.72-14,1.783,1.783,0,0,0,17.66-12.26ZM16.1,0h3.12V-10.76H16.1ZM27.32.16a4.992,4.992,0,0,0,4.82-2.72L29.72-3.88A2.647,2.647,0,0,1,27.3-2.4a2.753,2.753,0,0,1-2.82-2.98A2.753,2.753,0,0,1,27.3-8.36a2.683,2.683,0,0,1,2.42,1.48l2.42-1.3a4.943,4.943,0,0,0-4.82-2.74c-3.5,0-6,2.3-6,5.54S23.82.16,27.32.16ZM33.86,0h3.12V-14.84H33.86ZM45,.16c3.42,0,5.9-2.3,5.9-5.54s-2.48-5.54-5.9-5.54-5.92,2.3-5.92,5.54S41.58.16,45,.16ZM45-2.4a2.73,2.73,0,0,1-2.76-2.98A2.73,2.73,0,0,1,45-8.36a2.715,2.715,0,0,1,2.74,2.98A2.715,2.715,0,0,1,45-2.4ZM66.48-14.84v5.22a4.134,4.134,0,0,0-3.22-1.3,5.231,5.231,0,0,0-5.38,5.54A5.231,5.231,0,0,0,63.26.16a4.139,4.139,0,0,0,3.36-1.4V0H69.6V-14.84ZM63.8-2.4a2.73,2.73,0,0,1-2.76-2.98A2.73,2.73,0,0,1,63.8-8.36a2.726,2.726,0,0,1,2.74,2.98A2.726,2.726,0,0,1,63.8-2.4ZM83.02-5.34a5.327,5.327,0,0,0-5.6-5.58,5.478,5.478,0,0,0-5.74,5.54c0,3.2,2.42,5.54,6.14,5.54a5.635,5.635,0,0,0,4.44-1.74L80.6-3.38a3.648,3.648,0,0,1-2.7,1.04A2.869,2.869,0,0,1,74.82-4.5h8.14C82.98-4.76,83.02-5.1,83.02-5.34ZM77.44-8.56a2.557,2.557,0,0,1,2.64,2.24h-5.3A2.547,2.547,0,0,1,77.44-8.56Zm21-2.2L95.36-3.44l-2.98-7.32H89.16L93.68,0H96.9l4.54-10.76Zm5.84-1.5a1.794,1.794,0,0,0,1.94-1.8,1.751,1.751,0,0,0-1.94-1.68A1.783,1.783,0,0,0,102.34-14,1.783,1.783,0,0,0,104.28-12.26ZM102.72,0h3.12V-10.76h-3.12Zm13.86-14.84v5.22a4.134,4.134,0,0,0-3.22-1.3,5.231,5.231,0,0,0-5.38,5.54A5.231,5.231,0,0,0,113.36.16a4.139,4.139,0,0,0,3.36-1.4V0h2.98V-14.84ZM113.9-2.4a2.73,2.73,0,0,1-2.76-2.98,2.73,2.73,0,0,1,2.76-2.98,2.726,2.726,0,0,1,2.74,2.98A2.726,2.726,0,0,1,113.9-2.4Zm13.02-8.52a8.271,8.271,0,0,0-4.64,1.3l1.12,2.18a5.174,5.174,0,0,1,3.1-1c1.68,0,2.48.78,2.48,2.12H126.5c-3.28,0-4.62,1.32-4.62,3.22,0,1.86,1.5,3.26,4.02,3.26a3.531,3.531,0,0,0,3.28-1.5V0h2.92V-6.14C132.1-9.4,130.2-10.92,126.92-10.92Zm-.24,8.98c-1.1,0-1.76-.52-1.76-1.3,0-.72.46-1.26,1.92-1.26h2.14v1.1A2.3,2.3,0,0,1,126.68-1.94Zm21.74-12.9v5.22a4.134,4.134,0,0,0-3.22-1.3,5.231,5.231,0,0,0-5.38,5.54A5.231,5.231,0,0,0,145.2.16a4.139,4.139,0,0,0,3.36-1.4V0h2.98V-14.84ZM145.74-2.4a2.73,2.73,0,0,1-2.76-2.98,2.73,2.73,0,0,1,2.76-2.98,2.726,2.726,0,0,1,2.74,2.98A2.726,2.726,0,0,1,145.74-2.4Zm19.22-2.94a5.327,5.327,0,0,0-5.6-5.58,5.478,5.478,0,0,0-5.74,5.54c0,3.2,2.42,5.54,6.14,5.54a5.635,5.635,0,0,0,4.44-1.74l-1.66-1.8a3.648,3.648,0,0,1-2.7,1.04,2.869,2.869,0,0,1-3.08-2.16h8.14C164.92-4.76,164.96-5.1,164.96-5.34Zm-5.58-3.22a2.557,2.557,0,0,1,2.64,2.24h-5.3A2.547,2.547,0,0,1,159.38-8.56ZM167.04,0h3.12V-14.84h-3.12Zm18.04-10.92a4.181,4.181,0,0,0-3.38,1.4v-1.24h-2.98V3.88h3.12V-1.14a4.177,4.177,0,0,0,3.24,1.3,5.226,5.226,0,0,0,5.36-5.54A5.226,5.226,0,0,0,185.08-10.92Zm-.54,8.52a2.715,2.715,0,0,1-2.74-2.98,2.715,2.715,0,0,1,2.74-2.98,2.715,2.715,0,0,1,2.74,2.98A2.715,2.715,0,0,1,184.54-2.4ZM195.5-9.34v-1.42h-2.98V0h3.12V-5.08c0-2.06,1.14-3,2.86-3,.24,0,.44.02.7.04v-2.88A4.342,4.342,0,0,0,195.5-9.34ZM206.08.16c3.42,0,5.9-2.3,5.9-5.54s-2.48-5.54-5.9-5.54-5.92,2.3-5.92,5.54S202.66.16,206.08.16Zm0-2.56a2.73,2.73,0,0,1-2.76-2.98,2.73,2.73,0,0,1,2.76-2.98,2.715,2.715,0,0,1,2.74,2.98A2.715,2.715,0,0,1,206.08-2.4Zm15.36-8.36-3.04,7.3-3.02-7.3h-3.22L216.82.08l-.04.1c-.42.96-.9,1.34-1.76,1.34a2.766,2.766,0,0,1-1.76-.68l-1.14,2.22a4.778,4.778,0,0,0,3,.98c1.94,0,3.42-.78,4.46-3.38l4.86-11.42Zm14.52,5.42a5.327,5.327,0,0,0-5.6-5.58,5.478,5.478,0,0,0-5.74,5.54c0,3.2,2.42,5.54,6.14,5.54a5.635,5.635,0,0,0,4.44-1.74l-1.66-1.8a3.648,3.648,0,0,1-2.7,1.04,2.869,2.869,0,0,1-3.08-2.16h8.14C235.92-4.76,235.96-5.1,235.96-5.34Zm-5.58-3.22a2.557,2.557,0,0,1,2.64,2.24h-5.3A2.547,2.547,0,0,1,230.38-8.56ZM243.24.16a4.992,4.992,0,0,0,4.82-2.72l-2.42-1.32a2.647,2.647,0,0,1-2.42,1.48,2.753,2.753,0,0,1-2.82-2.98,2.753,2.753,0,0,1,2.82-2.98,2.683,2.683,0,0,1,2.42,1.48l2.42-1.3a4.943,4.943,0,0,0-4.82-2.74c-3.5,0-6,2.3-6,5.54S239.74.16,243.24.16Zm12.88-2.88a2.1,2.1,0,0,1-1.26.4,1.255,1.255,0,0,1-1.34-1.42V-8.12h2.68v-2.4h-2.68v-2.62H250.4v2.62h-1.66v2.4h1.66V-3.7c0,2.56,1.48,3.86,4.02,3.86a4.459,4.459,0,0,0,2.54-.68ZM263.5.16c3.42,0,5.9-2.3,5.9-5.54s-2.48-5.54-5.9-5.54-5.92,2.3-5.92,5.54S260.08.16,263.5.16Zm0-2.56a2.73,2.73,0,0,1-2.76-2.98,2.73,2.73,0,0,1,2.76-2.98,2.715,2.715,0,0,1,2.74,2.98A2.715,2.715,0,0,1,263.5-2.4Z" transform="translate(712.161 2005.741)" fill="#333"/>
    <path id="Trazado_2009" data-name="Trazado 2009" d="M10.048-11.2,5.52-1.056.992-11.2H.1L5.088,0H5.9L10.9-11.2Zm2.7.816a.649.649,0,0,0,.656-.656.645.645,0,0,0-.656-.64.659.659,0,0,0-.656.656A.645.645,0,0,0,12.752-10.384ZM12.352,0h.8V-8.352h-.8Zm8.256-8.416A3.447,3.447,0,0,0,17.3-6.544V-8.352h-.768V0h.8V-4.448A2.98,2.98,0,0,1,20.5-7.7c1.7,0,2.7.992,2.7,2.88V0H24V-4.88C24-7.216,22.64-8.416,20.608-8.416ZM30.624.064a3.7,3.7,0,0,0,3.168-1.536L33.2-1.9A3.049,3.049,0,0,1,30.624-.656a3.315,3.315,0,0,1-3.408-3.52A3.315,3.315,0,0,1,30.624-7.7,3.049,3.049,0,0,1,33.2-6.448l.592-.432a3.664,3.664,0,0,0-3.168-1.536A4.071,4.071,0,0,0,26.4-4.176,4.08,4.08,0,0,0,30.624.064ZM42.7-8.352V-3.9A2.936,2.936,0,0,1,39.648-.656,2.542,2.542,0,0,1,36.9-3.536V-8.352h-.8v4.88A3.2,3.2,0,0,0,39.584.064a3.291,3.291,0,0,0,3.152-1.856V0H43.5V-8.352ZM46.9,0h.8V-11.872h-.8Zm6.992-8.416a5.094,5.094,0,0,0-3.344,1.184l.4.576a4.335,4.335,0,0,1,2.88-1.056A2.175,2.175,0,0,1,56.3-5.328v.672H53.44c-2.32,0-3.12,1.072-3.12,2.336C50.32-.9,51.456.064,53.328.064a3.208,3.208,0,0,0,3.008-1.552V0H57.1V-5.3C57.1-7.36,55.952-8.416,53.888-8.416ZM53.44-.592c-1.472,0-2.32-.672-2.32-1.76,0-.96.608-1.68,2.336-1.68H56.3v1.568A2.863,2.863,0,0,1,53.44-.592Zm13.6-11.28v5.456a3.744,3.744,0,0,0-3.408-2A4.039,4.039,0,0,0,59.5-4.176,4.048,4.048,0,0,0,63.632.064a3.7,3.7,0,0,0,3.424-2.032V0h.784V-11.872ZM63.68-.656a3.313,3.313,0,0,1-3.36-3.52A3.313,3.313,0,0,1,63.68-7.7a3.313,3.313,0,0,1,3.36,3.52A3.313,3.313,0,0,1,63.68-.656Zm10.8.72a4.068,4.068,0,0,0,4.176-4.24,4.068,4.068,0,0,0-4.176-4.24A4.068,4.068,0,0,0,70.3-4.176,4.068,4.068,0,0,0,74.48.064Zm0-.72a3.313,3.313,0,0,1-3.36-3.52A3.313,3.313,0,0,1,74.48-7.7a3.313,3.313,0,0,1,3.36,3.52A3.313,3.313,0,0,1,74.48-.656Zm13.584-7.76A5.094,5.094,0,0,0,84.72-7.232l.4.576A4.335,4.335,0,0,1,88-7.712a2.175,2.175,0,0,1,2.48,2.384v.672H87.616c-2.32,0-3.12,1.072-3.12,2.336C84.5-.9,85.632.064,87.5.064a3.208,3.208,0,0,0,3.008-1.552V0h.768V-5.3C91.28-7.36,90.128-8.416,88.064-8.416ZM87.616-.592c-1.472,0-2.32-.672-2.32-1.76,0-.96.608-1.68,2.336-1.68H90.48v1.568A2.863,2.863,0,0,1,87.616-.592ZM100.8.064c2.128,0,3.3-.928,3.3-2.288,0-3.184-5.536-1.408-5.536-3.92,0-.9.72-1.568,2.352-1.568a4.3,4.3,0,0,1,2.512.752l.368-.64a5.13,5.13,0,0,0-2.864-.816c-2.112,0-3.168,1.024-3.168,2.288,0,3.28,5.536,1.488,5.536,3.92,0,.944-.7,1.568-2.464,1.568a4.86,4.86,0,0,1-3.008-1.008l-.368.64A5.24,5.24,0,0,0,100.8.064Zm5.936-10.448a.649.649,0,0,0,.656-.656.645.645,0,0,0-.656-.64.659.659,0,0,0-.656.656A.645.645,0,0,0,106.736-10.384ZM106.336,0h.8V-8.352h-.8Zm6.288.064c2.128,0,3.3-.928,3.3-2.288,0-3.184-5.536-1.408-5.536-3.92,0-.9.72-1.568,2.352-1.568a4.3,4.3,0,0,1,2.512.752l.368-.64a5.13,5.13,0,0,0-2.864-.816c-2.112,0-3.168,1.024-3.168,2.288,0,3.28,5.536,1.488,5.536,3.92,0,.944-.7,1.568-2.464,1.568a4.86,4.86,0,0,1-3.008-1.008l-.368.64A5.24,5.24,0,0,0,112.624.064Zm9.344-1.152a1.92,1.92,0,0,1-1.3.464c-1.024,0-1.552-.592-1.552-1.664V-7.664h2.656v-.688H119.12v-1.824h-.8v1.824h-1.536v.688h1.536v5.456A2.072,2.072,0,0,0,120.592.064,2.534,2.534,0,0,0,122.3-.528Zm9.328-3.12a3.954,3.954,0,0,0-3.984-4.208,3.994,3.994,0,0,0-4,4.24,4.1,4.1,0,0,0,4.3,4.24,4,4,0,0,0,3.152-1.36l-.464-.528a3.368,3.368,0,0,1-2.672,1.168A3.365,3.365,0,0,1,124.1-3.984h7.184C131.28-4.064,131.3-4.144,131.3-4.208Zm-3.984-3.5a3.157,3.157,0,0,1,3.2,3.1h-6.4A3.157,3.157,0,0,1,127.312-7.712Zm16.864-.7A3.524,3.524,0,0,0,140.8-6.4a2.959,2.959,0,0,0-3.056-2.016,3.315,3.315,0,0,0-3.2,1.856V-8.352h-.768V0h.8V-4.448A2.936,2.936,0,0,1,137.632-7.7c1.632,0,2.608.992,2.608,2.88V0h.8V-4.448A2.936,2.936,0,0,1,144.1-7.7c1.632,0,2.608.992,2.608,2.88V0h.8V-4.88C147.5-7.216,146.192-8.416,144.176-8.416Zm9.44,0a5.094,5.094,0,0,0-3.344,1.184l.4.576a4.335,4.335,0,0,1,2.88-1.056,2.175,2.175,0,0,1,2.48,2.384v.672h-2.864c-2.32,0-3.12,1.072-3.12,2.336,0,1.424,1.136,2.384,3.008,2.384a3.208,3.208,0,0,0,3.008-1.552V0h.768V-5.3C156.832-7.36,155.68-8.416,153.616-8.416Zm-.448,7.824c-1.472,0-2.32-.672-2.32-1.76,0-.96.608-1.68,2.336-1.68h2.848v1.568A2.863,2.863,0,0,1,153.168-.592Zm9.072.656c2.128,0,3.3-.928,3.3-2.288,0-3.184-5.536-1.408-5.536-3.92,0-.9.72-1.568,2.352-1.568a4.3,4.3,0,0,1,2.512.752l.368-.64a5.13,5.13,0,0,0-2.864-.816c-2.112,0-3.168,1.024-3.168,2.288,0,3.28,5.536,1.488,5.536,3.92,0,.944-.7,1.568-2.464,1.568a4.86,4.86,0,0,1-3.008-1.008l-.368.64A5.24,5.24,0,0,0,162.24.064Z" transform="translate(712.161 2025.741)" fill="#333"/>
    <g id="Grupo_1377" data-name="Grupo 1377" transform="translate(2913.243 1584.723) rotate(90)">
      <circle id="Elipse_437" data-name="Elipse 437" cx="3.556" cy="3.556" r="3.556" transform="translate(477.161 2193.741)" fill="#039be5"/>
      <circle id="Elipse_438" data-name="Elipse 438" cx="3.556" cy="3.556" r="3.556" transform="translate(563.927 2193.741)" fill="#039be5"/>
      <circle id="Elipse_439" data-name="Elipse 439" cx="3.556" cy="3.556" r="3.556" transform="translate(650.693 2193.741)" fill="#039be5"/>
      <circle id="Elipse_440" data-name="Elipse 440" cx="3.556" cy="3.556" r="3.556" transform="translate(737.459 2193.741)" fill="#039be5"/>
      <circle id="Elipse_441" data-name="Elipse 441" cx="3.556" cy="3.556" r="3.556" transform="translate(824.225 2193.741)" fill="#039be5"/>
      <line id="Línea_533" data-name="Línea 533" x2="68.275" transform="translate(490.2 2197.297)" fill="none" stroke="#333" stroke-width="1"/>
      <line id="Línea_534" data-name="Línea 534" x2="68.275" transform="translate(576.966 2197.297)" fill="none" stroke="#333" stroke-width="1"/>
      <line id="Línea_535" data-name="Línea 535" x2="68.275" transform="translate(663.732 2197.297)" fill="none" stroke="#333" stroke-width="1"/>
      <line id="Línea_536" data-name="Línea 536" x2="68.275" transform="translate(751.446 2197.297)" fill="none" stroke="#333" stroke-width="1"/>
    </g>
    <path id="Trazado_2010" data-name="Trazado 2010" d="M9.7,0h2.72L7.408-11.2H4.848L-.144,0H2.512L3.5-2.4H8.7ZM4.336-4.368,6.112-8.656,7.888-4.368ZM21.3-11.2v6.8l-5.568-6.8H13.584V0h2.56V-6.8L21.728,0h2.128V-11.2ZM34.7-14.416H32.016l-2.16,2.3h1.952ZM34.88,0H37.6L32.592-11.2h-2.56L25.04,0H27.7l.992-2.4h5.2ZM29.52-4.368,31.3-8.656l1.776,4.288ZM38.768,0h8.208V-2.112H41.36V-11.2H38.768Zm9.664,0h2.592V-11.2H48.432ZM57.36.192c3.2,0,4.752-1.6,4.752-3.472,0-4.112-6.512-2.688-6.512-4.752,0-.7.592-1.28,2.128-1.28a6.326,6.326,0,0,1,3.1.88l.8-1.968a7.513,7.513,0,0,0-3.888-.992c-3.184,0-4.72,1.584-4.72,3.488,0,4.16,6.512,2.72,6.512,4.816,0,.688-.624,1.2-2.16,1.2a6.588,6.588,0,0,1-3.7-1.168L52.8-1.1A7.983,7.983,0,0,0,57.36.192ZM63.888,0H66.48V-11.2H63.888Zm8.928.192c3.2,0,4.752-1.6,4.752-3.472,0-4.112-6.512-2.688-6.512-4.752,0-.7.592-1.28,2.128-1.28a6.326,6.326,0,0,1,3.1.88l.8-1.968a7.513,7.513,0,0,0-3.888-.992c-3.184,0-4.72,1.584-4.72,3.488,0,4.16,6.512,2.72,6.512,4.816,0,.688-.624,1.2-2.16,1.2a6.588,6.588,0,0,1-3.7-1.168L68.256-1.1A7.983,7.983,0,0,0,72.816.192ZM92.336-9.12V-11.2H83.872V0h2.592V-4.08h5.184V-6.16H86.464V-9.12ZM99.072.192c3.184,0,5.072-1.824,5.072-5.12V-11.2h-2.56v6.176c0,2.128-.912,3.008-2.5,3.008-1.568,0-2.5-.88-2.5-3.008V-11.2H94v6.272C94-1.632,95.888.192,99.072.192ZM114.416-11.2v6.8l-5.568-6.8H106.7V0h2.56V-6.8L114.848,0h2.128V-11.2ZM124.992.192a5.755,5.755,0,0,0,4.624-2l-1.664-1.536a3.569,3.569,0,0,1-2.816,1.328A3.436,3.436,0,0,1,121.552-5.6a3.436,3.436,0,0,1,3.584-3.584,3.6,3.6,0,0,1,2.816,1.312l1.664-1.536a5.782,5.782,0,0,0-4.608-1.984,5.754,5.754,0,0,0-6.08,5.792A5.75,5.75,0,0,0,124.992.192ZM131.36,0h2.592V-11.2H131.36Zm10.672.192A5.8,5.8,0,0,0,148.16-5.6a5.8,5.8,0,0,0-6.128-5.792A5.8,5.8,0,0,0,135.9-5.6,5.8,5.8,0,0,0,142.032.192Zm0-2.208a3.417,3.417,0,0,1-3.5-3.584,3.417,3.417,0,0,1,3.5-3.584,3.417,3.417,0,0,1,3.5,3.584A3.417,3.417,0,0,1,142.032-2.016ZM157.824-11.2v6.8l-5.568-6.8h-2.144V0h2.56V-6.8L158.256,0h2.128V-11.2ZM171.408,0h2.72L169.12-11.2h-2.56L161.568,0h2.656l.992-2.4h5.2Zm-5.36-4.368,1.776-4.288L169.6-4.368ZM175.3,0H183.5V-2.112h-5.616V-11.2H175.3Z" transform="translate(746.161 2067.741)" fill="#039be5"/>
    <path id="Trazado_2012" data-name="Trazado 2012" d="M9.7,0h2.72L7.408-11.2H4.848L-.144,0H2.512L3.5-2.4H8.7ZM4.336-4.368,6.112-8.656,7.888-4.368ZM21.3-11.2v6.8l-5.568-6.8H13.584V0h2.56V-6.8L21.728,0h2.128V-11.2ZM34.7-14.416H32.016l-2.16,2.3h1.952ZM34.88,0H37.6L32.592-11.2h-2.56L25.04,0H27.7l.992-2.4h5.2ZM29.52-4.368,31.3-8.656l1.776,4.288ZM38.768,0h8.208V-2.112H41.36V-11.2H38.768Zm9.664,0h2.592V-11.2H48.432ZM57.36.192c3.2,0,4.752-1.6,4.752-3.472,0-4.112-6.512-2.688-6.512-4.752,0-.7.592-1.28,2.128-1.28a6.326,6.326,0,0,1,3.1.88l.8-1.968a7.513,7.513,0,0,0-3.888-.992c-3.184,0-4.72,1.584-4.72,3.488,0,4.16,6.512,2.72,6.512,4.816,0,.688-.624,1.2-2.16,1.2a6.588,6.588,0,0,1-3.7-1.168L52.8-1.1A7.983,7.983,0,0,0,57.36.192ZM63.888,0H66.48V-11.2H63.888Zm8.928.192c3.2,0,4.752-1.6,4.752-3.472,0-4.112-6.512-2.688-6.512-4.752,0-.7.592-1.28,2.128-1.28a6.326,6.326,0,0,1,3.1.88l.8-1.968a7.513,7.513,0,0,0-3.888-.992c-3.184,0-4.72,1.584-4.72,3.488,0,4.16,6.512,2.72,6.512,4.816,0,.688-.624,1.2-2.16,1.2a6.588,6.588,0,0,1-3.7-1.168L68.256-1.1A7.983,7.983,0,0,0,72.816.192ZM86.192,0h2.592V-9.088h3.584V-11.2h-9.76v2.112h3.584Zm15.2-14.416H98.7l-2.16,2.3H98.5ZM96.336-2.08V-4.672h5.2V-6.688h-5.2V-9.12h5.888V-11.2H93.76V0h8.672V-2.08ZM109.824.192a5.755,5.755,0,0,0,4.624-2l-1.664-1.536a3.569,3.569,0,0,1-2.816,1.328A3.436,3.436,0,0,1,106.384-5.6a3.436,3.436,0,0,1,3.584-3.584,3.6,3.6,0,0,1,2.816,1.312l1.664-1.536a5.782,5.782,0,0,0-4.608-1.984A5.754,5.754,0,0,0,103.76-5.6,5.75,5.75,0,0,0,109.824.192ZM123.9-11.2v6.8l-5.568-6.8h-2.144V0h2.56V-6.8L124.336,0h2.128V-11.2ZM129.12,0h2.592V-11.2H129.12Zm10.608.192a5.755,5.755,0,0,0,4.624-2l-1.664-1.536a3.569,3.569,0,0,1-2.816,1.328A3.436,3.436,0,0,1,136.288-5.6a3.436,3.436,0,0,1,3.584-3.584,3.6,3.6,0,0,1,2.816,1.312l1.664-1.536a5.782,5.782,0,0,0-4.608-1.984,5.754,5.754,0,0,0-6.08,5.792A5.75,5.75,0,0,0,139.728.192Zm11.552,0A5.8,5.8,0,0,0,157.408-5.6a5.8,5.8,0,0,0-6.128-5.792A5.8,5.8,0,0,0,145.152-5.6,5.8,5.8,0,0,0,151.28.192Zm0-2.208a3.417,3.417,0,0,1-3.5-3.584,3.417,3.417,0,0,1,3.5-3.584,3.417,3.417,0,0,1,3.5,3.584A3.417,3.417,0,0,1,151.28-2.016Z" transform="translate(746.161 2154.741)" fill="#039be5"/>
    <path id="Trazado_2014" data-name="Trazado 2014" d="M1.328,0H6.416c3.664,0,6.176-2.208,6.176-5.6s-2.512-5.6-6.176-5.6H1.328ZM3.92-2.128V-9.072H6.288A3.343,3.343,0,0,1,9.968-5.6a3.343,3.343,0,0,1-3.68,3.472Zm13.2.048V-4.672h5.2V-6.688h-5.2V-9.12h5.888V-11.2H14.544V0h8.672V-2.08ZM28.96.192c3.2,0,4.752-1.6,4.752-3.472,0-4.112-6.512-2.688-6.512-4.752,0-.7.592-1.28,2.128-1.28a6.326,6.326,0,0,1,3.1.88l.8-1.968a7.513,7.513,0,0,0-3.888-.992c-3.184,0-4.72,1.584-4.72,3.488,0,4.16,6.512,2.72,6.512,4.816,0,.688-.624,1.2-2.16,1.2a6.588,6.588,0,0,1-3.7-1.168L24.4-1.1A7.983,7.983,0,0,0,28.96.192ZM43.856,0h2.72L41.568-11.2h-2.56L34.016,0h2.656l.992-2.4h5.2ZM38.5-4.368l1.776-4.288,1.776,4.288ZM57.664,0,55.152-3.6a3.641,3.641,0,0,0,2.3-3.536c0-2.512-1.872-4.064-4.864-4.064H47.744V0h2.592V-3.12H52.72L54.88,0ZM54.832-7.136c0,1.216-.8,1.952-2.384,1.952H50.336v-3.9h2.112C54.032-9.088,54.832-8.368,54.832-7.136ZM69.424,0,66.912-3.6a3.641,3.641,0,0,0,2.3-3.536c0-2.512-1.872-4.064-4.864-4.064H59.5V0H62.1V-3.12H64.48L66.64,0ZM66.592-7.136c0,1.216-.8,1.952-2.384,1.952H62.1v-3.9h2.112C65.792-9.088,66.592-8.368,66.592-7.136ZM76.688.192A5.8,5.8,0,0,0,82.816-5.6a5.8,5.8,0,0,0-6.128-5.792A5.8,5.8,0,0,0,70.56-5.6,5.8,5.8,0,0,0,76.688.192Zm0-2.208a3.417,3.417,0,0,1-3.5-3.584,3.417,3.417,0,0,1,3.5-3.584,3.417,3.417,0,0,1,3.5,3.584A3.417,3.417,0,0,1,76.688-2.016ZM84.768,0h8.208V-2.112H87.36V-11.2H84.768Zm9.664,0h8.208V-2.112H97.024V-11.2H94.432Zm14.9.192A5.8,5.8,0,0,0,115.456-5.6a5.8,5.8,0,0,0-6.128-5.792A5.8,5.8,0,0,0,103.2-5.6,5.8,5.8,0,0,0,109.328.192Zm0-2.208a3.417,3.417,0,0,1-3.5-3.584,3.417,3.417,0,0,1,3.5-3.584,3.417,3.417,0,0,1,3.5,3.584A3.417,3.417,0,0,1,109.328-2.016ZM131.664-11.2H129.12l-2.992,4.976L123.136-11.2h-2.752L124.72-4V0h2.592V-3.968ZM139.6,0h2.592V-9.088h3.584V-11.2h-9.76v2.112H139.6Zm10.144-2.08V-4.672h5.2V-6.688h-5.2V-9.12h5.888V-11.2h-8.464V0h8.672V-2.08ZM161.584.192c3.2,0,4.752-1.6,4.752-3.472,0-4.112-6.512-2.688-6.512-4.752,0-.7.592-1.28,2.128-1.28a6.326,6.326,0,0,1,3.1.88l.8-1.968a7.513,7.513,0,0,0-3.888-.992c-3.184,0-4.72,1.584-4.72,3.488,0,4.16,6.512,2.72,6.512,4.816,0,.688-.624,1.2-2.16,1.2a6.588,6.588,0,0,1-3.7-1.168l-.88,1.952A7.983,7.983,0,0,0,161.584.192ZM170.272,0h2.592V-9.088h3.584V-11.2h-9.76v2.112h3.584Z" transform="translate(746.161 2235.741)" fill="#039be5"/>
    <path id="Trazado_2016" data-name="Trazado 2016" d="M3.648,0H6.24V-9.088H9.824V-11.2H.064v2.112H3.648ZM21.136,0,18.624-3.6a3.641,3.641,0,0,0,2.3-3.536c0-2.512-1.872-4.064-4.864-4.064H11.216V0h2.592V-3.12h2.384L18.352,0ZM18.3-7.136c0,1.216-.8,1.952-2.384,1.952H13.808v-3.9H15.92C17.5-9.088,18.3-8.368,18.3-7.136ZM31.344,0h2.72L29.056-11.2H26.5L21.5,0H24.16l.992-2.4h5.2Zm-5.36-4.368L27.76-8.656l1.776,4.288ZM42.944-11.2v6.8l-5.568-6.8H35.232V0h2.56V-6.8L43.376,0H45.5V-11.2ZM51.84.192c3.2,0,4.752-1.6,4.752-3.472,0-4.112-6.512-2.688-6.512-4.752,0-.7.592-1.28,2.128-1.28a6.326,6.326,0,0,1,3.1.88l.8-1.968a7.513,7.513,0,0,0-3.888-.992c-3.184,0-4.72,1.584-4.72,3.488,0,4.16,6.512,2.72,6.512,4.816,0,.688-.624,1.2-2.16,1.2a6.588,6.588,0,0,1-3.7-1.168L47.28-1.1A7.983,7.983,0,0,0,51.84.192ZM58.368,0H60.96V-11.2H58.368ZM68.976.192a5.755,5.755,0,0,0,4.624-2L71.936-3.344A3.569,3.569,0,0,1,69.12-2.016,3.436,3.436,0,0,1,65.536-5.6,3.436,3.436,0,0,1,69.12-9.184a3.6,3.6,0,0,1,2.816,1.312L73.6-9.408a5.782,5.782,0,0,0-4.608-1.984A5.754,5.754,0,0,0,62.912-5.6,5.75,5.75,0,0,0,68.976.192ZM75.344,0h2.592V-11.2H75.344ZM84.56-12.112h1.952l2.9-2.3H86.72ZM86.016.192A5.8,5.8,0,0,0,92.144-5.6a5.8,5.8,0,0,0-6.128-5.792A5.8,5.8,0,0,0,79.888-5.6,5.8,5.8,0,0,0,86.016.192Zm0-2.208a3.417,3.417,0,0,1-3.5-3.584,3.417,3.417,0,0,1,3.5-3.584A3.417,3.417,0,0,1,89.52-5.6,3.417,3.417,0,0,1,86.016-2.016ZM101.808-11.2v6.8L96.24-11.2H94.1V0h2.56V-6.8L102.24,0h2.128V-11.2Z" transform="translate(746.161 2316.741)" fill="#039be5"/>
    <path id="Trazado_2018" data-name="Trazado 2018" d="M3.9-2.08V-4.672H9.1V-6.688H3.9V-9.12H9.792V-11.2H1.328V0H10V-2.08ZM15.744.192c3.2,0,4.752-1.6,4.752-3.472,0-4.112-6.512-2.688-6.512-4.752,0-.7.592-1.28,2.128-1.28a6.326,6.326,0,0,1,3.1.88l.8-1.968a7.513,7.513,0,0,0-3.888-.992c-3.184,0-4.72,1.584-4.72,3.488,0,4.16,6.512,2.72,6.512,4.816,0,.688-.624,1.2-2.16,1.2a6.588,6.588,0,0,1-3.7-1.168L11.184-1.1A7.983,7.983,0,0,0,15.744.192ZM24.432,0h2.592V-9.088h3.584V-11.2h-9.76v2.112h3.584ZM39.808,0h2.72L37.52-11.2H34.96L29.968,0h2.656l.992-2.4h5.2Zm-5.36-4.368,1.776-4.288L38-4.368ZM51.92-5.824a2.692,2.692,0,0,0,1.488-2.464c0-1.744-1.44-2.912-4.24-2.912H43.7V0h5.792c2.944,0,4.48-1.12,4.48-3.056A2.766,2.766,0,0,0,51.92-5.824ZM48.848-9.248c1.264,0,1.952.432,1.952,1.312s-.688,1.328-1.952,1.328H46.272v-2.64Zm.448,7.3H46.272V-4.72H49.3c1.344,0,2.064.448,2.064,1.392C51.36-2.368,50.64-1.952,49.3-1.952ZM55.936,0h2.592V-11.2H55.936Zm5.248,0h8.208V-2.112H63.776V-11.2H61.184Zm9.664,0H73.44V-11.2H70.848ZM78.8-2.112,84.928-9.52V-11.2H75.5v2.112H81.52L75.376-1.68V0h9.792V-2.112ZM95.2,0h2.72L92.912-11.2h-2.56L85.36,0h2.656l.992-2.4h5.2ZM89.84-4.368l1.776-4.288,1.776,4.288ZM104.288.192a5.755,5.755,0,0,0,4.624-2l-1.664-1.536a3.569,3.569,0,0,1-2.816,1.328A3.436,3.436,0,0,1,100.848-5.6a3.436,3.436,0,0,1,3.584-3.584,3.6,3.6,0,0,1,2.816,1.312l1.664-1.536a5.782,5.782,0,0,0-4.608-1.984A5.754,5.754,0,0,0,98.224-5.6,5.75,5.75,0,0,0,104.288.192ZM110.656,0h2.592V-11.2h-2.592Zm9.216-12.112h1.952l2.9-2.3h-2.688Zm1.456,12.3A5.8,5.8,0,0,0,127.456-5.6a5.8,5.8,0,0,0-6.128-5.792A5.8,5.8,0,0,0,115.2-5.6,5.8,5.8,0,0,0,121.328.192Zm0-2.208a3.417,3.417,0,0,1-3.5-3.584,3.417,3.417,0,0,1,3.5-3.584,3.417,3.417,0,0,1,3.5,3.584A3.417,3.417,0,0,1,121.328-2.016ZM137.12-11.2v6.8l-5.568-6.8h-2.144V0h2.56V-6.8L137.552,0h2.128V-11.2Z" transform="translate(746.161 2403.741)" fill="#039be5"/>
    <path id="Trazado_2011" data-name="Trazado 2011" d="M5.434.065A4.348,4.348,0,0,0,8.671-1.209l-.416-.429A3.821,3.821,0,0,1,5.46-.546a3.952,3.952,0,0,1-4.082-4,3.952,3.952,0,0,1,4.082-4,3.809,3.809,0,0,1,2.8,1.079L8.671-7.9A4.338,4.338,0,0,0,5.434-9.165,4.545,4.545,0,0,0,.715-4.55,4.545,4.545,0,0,0,5.434.065Zm7.423-6.9a4.139,4.139,0,0,0-2.717.962l.325.468a3.522,3.522,0,0,1,2.34-.858A1.767,1.767,0,0,1,14.82-4.329v.546H12.493c-1.885,0-2.535.871-2.535,1.9,0,1.157.923,1.937,2.444,1.937a2.607,2.607,0,0,0,2.444-1.261V0h.624V-4.3A2.308,2.308,0,0,0,12.857-6.838ZM12.493-.481c-1.2,0-1.885-.546-1.885-1.43,0-.78.494-1.365,1.9-1.365H14.82V-2A2.326,2.326,0,0,1,12.493-.481Zm7.371.533c1.729,0,2.678-.754,2.678-1.859,0-2.587-4.5-1.144-4.5-3.185,0-.728.585-1.274,1.911-1.274A3.5,3.5,0,0,1,22-5.655l.3-.52a4.168,4.168,0,0,0-2.327-.663c-1.716,0-2.574.832-2.574,1.859,0,2.665,4.5,1.209,4.5,3.185,0,.767-.572,1.274-2,1.274a3.949,3.949,0,0,1-2.444-.819l-.3.52A4.258,4.258,0,0,0,19.864.052Zm7.15,0a3.306,3.306,0,0,0,3.393-3.445,3.306,3.306,0,0,0-3.393-3.445,3.306,3.306,0,0,0-3.393,3.445A3.306,3.306,0,0,0,27.014.052Zm0-.585a2.692,2.692,0,0,1-2.73-2.86,2.692,2.692,0,0,1,2.73-2.86,2.692,2.692,0,0,1,2.73,2.86A2.692,2.692,0,0,1,27.014-.533Zm7.124.585c1.729,0,2.678-.754,2.678-1.859,0-2.587-4.5-1.144-4.5-3.185,0-.728.585-1.274,1.911-1.274a3.5,3.5,0,0,1,2.041.611l.3-.52a4.168,4.168,0,0,0-2.327-.663c-1.716,0-2.574.832-2.574,1.859,0,2.665,4.5,1.209,4.5,3.185,0,.767-.572,1.274-2,1.274a3.949,3.949,0,0,1-2.444-.819l-.3.52A4.258,4.258,0,0,0,34.138.052Zm13.221-9.7v4.433A3.042,3.042,0,0,0,44.59-6.838a3.282,3.282,0,0,0-3.354,3.445A3.289,3.289,0,0,0,44.59.052,3.01,3.01,0,0,0,47.372-1.6V0h.637V-9.646ZM44.629-.533a2.692,2.692,0,0,1-2.73-2.86,2.692,2.692,0,0,1,2.73-2.86,2.692,2.692,0,0,1,2.73,2.86A2.692,2.692,0,0,1,44.629-.533ZM56.5-3.419a3.213,3.213,0,0,0-3.237-3.419,3.245,3.245,0,0,0-3.25,3.445,3.331,3.331,0,0,0,3.5,3.445,3.248,3.248,0,0,0,2.561-1.1l-.377-.429a2.737,2.737,0,0,1-2.171.949,2.734,2.734,0,0,1-2.873-2.7h5.837C56.485-3.3,56.5-3.367,56.5-3.419ZM53.261-6.266a2.565,2.565,0,0,1,2.6,2.522h-5.2A2.565,2.565,0,0,1,53.261-6.266ZM65.624.065c2.262,0,3.653-1.326,3.653-3.926V-9.1h-.663v5.213c0,2.275-1.079,3.341-2.977,3.341s-2.99-1.066-2.99-3.341V-9.1h-.663v5.239C61.984-1.261,63.362.065,65.624.065ZM73.879.052c1.729,0,2.678-.754,2.678-1.859,0-2.587-4.5-1.144-4.5-3.185,0-.728.585-1.274,1.911-1.274a3.5,3.5,0,0,1,2.041.611l.3-.52a4.168,4.168,0,0,0-2.327-.663c-1.716,0-2.574.832-2.574,1.859,0,2.665,4.5,1.209,4.5,3.185,0,.767-.572,1.274-2,1.274a3.949,3.949,0,0,1-2.444-.819l-.3.52A4.258,4.258,0,0,0,73.879.052Zm7.15,0a3.306,3.306,0,0,0,3.393-3.445,3.306,3.306,0,0,0-3.393-3.445,3.306,3.306,0,0,0-3.393,3.445A3.306,3.306,0,0,0,81.029.052Zm0-.585a2.692,2.692,0,0,1-2.73-2.86,2.692,2.692,0,0,1,2.73-2.86,2.692,2.692,0,0,1,2.73,2.86A2.692,2.692,0,0,1,81.029-.533Zm5.109-.52a.533.533,0,0,0-.546.546.531.531,0,0,0,.429.533l-.429,1.833h.468L86.567.091a2,2,0,0,0,.117-.6A.541.541,0,0,0,86.138-1.053ZM95.927.065c2.262,0,3.653-1.326,3.653-3.926V-9.1h-.663v5.213c0,2.275-1.079,3.341-2.977,3.341s-2.99-1.066-2.99-3.341V-9.1h-.663v5.239C92.287-1.261,93.665.065,95.927.065ZM109.031,0l-3.5-4.706,3.25-4.394h-.741l-2.9,3.913-2.9-3.913h-.78l3.25,4.407L101.218,0H102l3.12-4.212L108.251,0ZM110.6-1.053a.533.533,0,0,0-.546.546.531.531,0,0,0,.429.533l-.429,1.833h.468l.507-1.768a2,2,0,0,0,.117-.6A.541.541,0,0,0,110.6-1.053ZM120.679.065a4.348,4.348,0,0,0,3.237-1.274l-.416-.429a3.821,3.821,0,0,1-2.795,1.092,3.952,3.952,0,0,1-4.082-4,3.952,3.952,0,0,1,4.082-4A3.809,3.809,0,0,1,123.5-7.475l.416-.429a4.338,4.338,0,0,0-3.237-1.261A4.545,4.545,0,0,0,115.96-4.55,4.545,4.545,0,0,0,120.679.065Zm7.423-6.9a4.139,4.139,0,0,0-2.717.962l.325.468a3.522,3.522,0,0,1,2.34-.858,1.767,1.767,0,0,1,2.015,1.937v.546h-2.327c-1.885,0-2.535.871-2.535,1.9,0,1.157.923,1.937,2.444,1.937a2.607,2.607,0,0,0,2.444-1.261V0h.624V-4.3A2.308,2.308,0,0,0,128.1-6.838Zm-.364,6.357c-1.2,0-1.885-.546-1.885-1.43,0-.78.494-1.365,1.9-1.365h2.314V-2A2.326,2.326,0,0,1,127.738-.481Zm7.371.533c1.729,0,2.678-.754,2.678-1.859,0-2.587-4.5-1.144-4.5-3.185,0-.728.585-1.274,1.911-1.274a3.5,3.5,0,0,1,2.041.611l.3-.52a4.168,4.168,0,0,0-2.327-.663c-1.716,0-2.574.832-2.574,1.859,0,2.665,4.5,1.209,4.5,3.185,0,.767-.572,1.274-2,1.274a3.949,3.949,0,0,1-2.444-.819l-.3.52A4.258,4.258,0,0,0,135.109.052Zm7.15,0a3.306,3.306,0,0,0,3.393-3.445,3.306,3.306,0,0,0-3.393-3.445,3.306,3.306,0,0,0-3.393,3.445A3.306,3.306,0,0,0,142.259.052Zm0-.585a2.692,2.692,0,0,1-2.73-2.86,2.692,2.692,0,0,1,2.73-2.86,2.692,2.692,0,0,1,2.73,2.86A2.692,2.692,0,0,1,142.259-.533Zm7.124.585c1.729,0,2.678-.754,2.678-1.859,0-2.587-4.5-1.144-4.5-3.185,0-.728.585-1.274,1.911-1.274a3.5,3.5,0,0,1,2.041.611l.3-.52a4.168,4.168,0,0,0-2.327-.663c-1.716,0-2.574.832-2.574,1.859,0,2.665,4.5,1.209,4.5,3.185,0,.767-.572,1.274-2,1.274a3.949,3.949,0,0,1-2.444-.819l-.3.52A4.258,4.258,0,0,0,149.383.052Zm13.221-9.7v4.433a3.042,3.042,0,0,0-2.769-1.625,3.282,3.282,0,0,0-3.354,3.445A3.289,3.289,0,0,0,159.835.052,3.01,3.01,0,0,0,162.617-1.6V0h.637V-9.646Zm-2.73,9.113a2.692,2.692,0,0,1-2.73-2.86,2.692,2.692,0,0,1,2.73-2.86,2.692,2.692,0,0,1,2.73,2.86A2.692,2.692,0,0,1,159.874-.533Zm11.869-2.886a3.213,3.213,0,0,0-3.237-3.419,3.245,3.245,0,0,0-3.25,3.445,3.331,3.331,0,0,0,3.5,3.445,3.248,3.248,0,0,0,2.561-1.1l-.377-.429a2.737,2.737,0,0,1-2.171.949,2.734,2.734,0,0,1-2.873-2.7h5.837C171.73-3.3,171.743-3.367,171.743-3.419Zm-3.237-2.847a2.565,2.565,0,0,1,2.6,2.522h-5.2A2.565,2.565,0,0,1,168.506-6.266ZM179.049,0h.663V-8.5h3.276v-.6h-7.215v.6h3.276Zm10.4-3.419a3.213,3.213,0,0,0-3.237-3.419,3.245,3.245,0,0,0-3.25,3.445,3.331,3.331,0,0,0,3.5,3.445,3.248,3.248,0,0,0,2.561-1.1l-.377-.429a2.737,2.737,0,0,1-2.171.949,2.734,2.734,0,0,1-2.873-2.7h5.837C189.436-3.3,189.449-3.367,189.449-3.419Zm-3.237-2.847a2.565,2.565,0,0,1,2.6,2.522h-5.2A2.565,2.565,0,0,1,186.212-6.266ZM193.18.052c1.729,0,2.678-.754,2.678-1.859,0-2.587-4.5-1.144-4.5-3.185,0-.728.585-1.274,1.911-1.274a3.5,3.5,0,0,1,2.041.611l.3-.52a4.168,4.168,0,0,0-2.327-.663c-1.716,0-2.574.832-2.574,1.859,0,2.665,4.5,1.209,4.5,3.185,0,.767-.572,1.274-2,1.274a3.949,3.949,0,0,1-2.444-.819l-.3.52A4.258,4.258,0,0,0,193.18.052Zm7.592-.936a1.56,1.56,0,0,1-1.053.377c-.832,0-1.261-.481-1.261-1.352V-6.227h2.158v-.559h-2.158V-8.268h-.65v1.482H196.56v.559h1.248v4.433A1.683,1.683,0,0,0,199.654.052a2.059,2.059,0,0,0,1.391-.481Zm2.132-.169a.533.533,0,0,0-.546.546.531.531,0,0,0,.429.533l-.429,1.833h.468l.507-1.768a2,2,0,0,0,.117-.6A.541.541,0,0,0,202.9-1.053ZM8.385,20H9.1L4.914,10.9H4.251L.065,20H.78l1.157-2.561H7.215ZM2.2,16.88l2.379-5.252L6.968,16.88Zm8.97-2.184V13.214h-.624V20h.65V16.464c0-1.677.9-2.678,2.4-2.678.052,0,.1.013.156.013v-.637A2.577,2.577,0,0,0,11.167,14.7Zm9.711-1.482v1.6A3.01,3.01,0,0,0,18.1,13.162a3.289,3.289,0,0,0-3.354,3.445A3.282,3.282,0,0,0,18.1,20.052a3.042,3.042,0,0,0,2.769-1.625v4.095h.65V13.214Zm-2.743,6.253a2.692,2.692,0,0,1-2.73-2.86,2.733,2.733,0,1,1,5.46,0A2.692,2.692,0,0,1,18.135,19.467Zm11.414-6.253v3.614a2.386,2.386,0,0,1-2.483,2.639,2.065,2.065,0,0,1-2.236-2.34V13.214h-.65v3.965a2.6,2.6,0,0,0,2.834,2.873,2.674,2.674,0,0,0,2.561-1.508V20H30.2V13.214Zm3.731-1.651a.527.527,0,1,0,0-1.053.535.535,0,0,0-.533.533A.524.524,0,0,0,33.28,11.563ZM32.955,20h.65V13.214h-.65Zm6.487-.884a1.56,1.56,0,0,1-1.053.377c-.832,0-1.261-.481-1.261-1.352V13.773h2.158v-.559H37.128V11.732h-.65v1.482H35.23v.559h1.248v4.433a1.683,1.683,0,0,0,1.846,1.846,2.059,2.059,0,0,0,1.391-.481Zm7.579-2.535a3.249,3.249,0,1,0-6.487.026,3.331,3.331,0,0,0,3.5,3.445,3.248,3.248,0,0,0,2.561-1.1l-.377-.429a2.9,2.9,0,0,1-5.044-1.755h5.837C47.008,16.7,47.021,16.633,47.021,16.581Zm-3.237-2.847a2.565,2.565,0,0,1,2.6,2.522h-5.2A2.565,2.565,0,0,1,43.784,13.734Zm7.943,6.318A3.009,3.009,0,0,0,54.3,18.8l-.481-.351a2.477,2.477,0,0,1-2.093,1.014,2.693,2.693,0,0,1-2.769-2.86,2.693,2.693,0,0,1,2.769-2.86,2.477,2.477,0,0,1,2.093,1.014l.481-.351a2.977,2.977,0,0,0-2.574-1.248A3.308,3.308,0,0,0,48.3,16.607,3.315,3.315,0,0,0,51.727,20.052Zm7.7-.936a1.56,1.56,0,0,1-1.053.377c-.832,0-1.261-.481-1.261-1.352V13.773h2.158v-.559H57.109V11.732h-.65v1.482H55.211v.559h1.248v4.433a1.683,1.683,0,0,0,1.846,1.846,2.059,2.059,0,0,0,1.391-.481Zm7.371-5.9v3.614a2.386,2.386,0,0,1-2.483,2.639,2.065,2.065,0,0,1-2.236-2.34V13.214h-.65v3.965a2.6,2.6,0,0,0,2.834,2.873,2.674,2.674,0,0,0,2.561-1.508V20h.624V13.214Zm4.03,1.482V13.214H70.2V20h.65V16.464c0-1.677.9-2.678,2.4-2.678.052,0,.1.013.156.013v-.637A2.577,2.577,0,0,0,70.824,14.7Zm6.669-1.534a4.139,4.139,0,0,0-2.717.962l.325.468a3.522,3.522,0,0,1,2.34-.858,1.767,1.767,0,0,1,2.015,1.937v.546H77.129c-1.885,0-2.535.871-2.535,1.9,0,1.157.923,1.937,2.444,1.937a2.607,2.607,0,0,0,2.444-1.261V20h.624V15.7A2.308,2.308,0,0,0,77.493,13.162Zm-.364,6.357c-1.2,0-1.885-.546-1.885-1.43,0-.78.494-1.365,1.9-1.365h2.314V18A2.326,2.326,0,0,1,77.129,19.519Zm9.2.481h5.9v-.6H87V10.9h-.663Zm9.191-7.891h.7l2.041-1.534h-.936Zm.741,7.943a3.306,3.306,0,0,0,3.393-3.445,3.393,3.393,0,1,0-6.786,0A3.306,3.306,0,0,0,96.265,20.052Zm0-.585a2.692,2.692,0,0,1-2.73-2.86,2.733,2.733,0,1,1,5.46,0A2.692,2.692,0,0,1,96.265,19.467Zm10.894-6.253v1.534a3.113,3.113,0,0,0-2.847-1.586,3.3,3.3,0,1,0,0,6.591,3.132,3.132,0,0,0,2.821-1.547V19.35c0,1.807-.845,2.639-2.652,2.639A4.02,4.02,0,0,1,101.738,21l-.351.494a4.482,4.482,0,0,0,3.107,1.079c2.184,0,3.289-1.027,3.289-3.3V13.214Zm-2.795,5.954a2.711,2.711,0,1,1,2.782-2.717A2.642,2.642,0,0,1,104.364,19.168Zm6.5-7.6a.527.527,0,1,0,0-1.053.535.535,0,0,0-.533.533A.524.524,0,0,0,110.864,11.563ZM110.539,20h.65V13.214h-.65Zm6.084.052A3.009,3.009,0,0,0,119.2,18.8l-.481-.351a2.477,2.477,0,0,1-2.093,1.014,2.693,2.693,0,0,1-2.769-2.86,2.693,2.693,0,0,1,2.769-2.86,2.477,2.477,0,0,1,2.093,1.014l.481-.351a2.977,2.977,0,0,0-2.574-1.248,3.308,3.308,0,0,0-3.432,3.445A3.315,3.315,0,0,0,116.623,20.052Zm6.812-6.89a4.139,4.139,0,0,0-2.717.962l.325.468a3.522,3.522,0,0,1,2.34-.858,1.767,1.767,0,0,1,2.015,1.937v.546h-2.327c-1.885,0-2.535.871-2.535,1.9,0,1.157.923,1.937,2.444,1.937a2.607,2.607,0,0,0,2.444-1.261V20h.624V15.7A2.308,2.308,0,0,0,123.435,13.162Zm-.364,6.357c-1.2,0-1.885-.546-1.885-1.43,0-.78.494-1.365,1.9-1.365H125.4V18A2.326,2.326,0,0,1,123.071,19.519Zm5.577.533a.552.552,0,0,0,.546-.559.546.546,0,1,0-1.092,0A.552.552,0,0,0,128.648,20.052Z" transform="translate(746.161 2085.517)" fill="#333"/>
    <path id="Trazado_2013" data-name="Trazado 2013" d="M1.586,0h3.6a4.49,4.49,0,0,0,4.836-4.55A4.49,4.49,0,0,0,5.187-9.1h-3.6Zm.663-.6V-8.5H5.135A3.879,3.879,0,0,1,9.36-4.55,3.879,3.879,0,0,1,5.135-.6Zm10.738,0V-4.329h4.849v-.585H12.987V-8.5h5.421v-.6H12.324V0H18.6V-.6ZM28.093,0,25.818-3.185A2.792,2.792,0,0,0,27.95-6.032c0-1.924-1.378-3.068-3.666-3.068H21.021V0h.663V-2.977h2.6a6.424,6.424,0,0,0,.884-.065L27.339,0ZM21.684-3.562V-8.5h2.6c1.95,0,2.99.9,2.99,2.47s-1.04,2.47-2.99,2.47ZM30.1-1.053a.533.533,0,0,0-.546.546.531.531,0,0,0,.429.533l-.429,1.833h.468L30.524.091a2,2,0,0,0,.117-.6A.541.541,0,0,0,30.1-1.053ZM43.121,0h.715L39.65-9.1h-.663L34.8,0h.715l1.157-2.561h5.278ZM36.933-3.12l2.379-5.252L41.7-3.12ZM45.9-5.3V-6.786h-.624V0h.65V-3.536c0-1.677.9-2.678,2.4-2.678.052,0,.1.013.156.013v-.637A2.577,2.577,0,0,0,45.9-5.3Zm9.711-1.482v1.6a3.01,3.01,0,0,0-2.782-1.651,3.289,3.289,0,0,0-3.354,3.445A3.282,3.282,0,0,0,52.832.052,3.042,3.042,0,0,0,55.6-1.573v4.1h.65V-6.786ZM52.871-.533a2.692,2.692,0,0,1-2.73-2.86,2.692,2.692,0,0,1,2.73-2.86,2.692,2.692,0,0,1,2.73,2.86A2.692,2.692,0,0,1,52.871-.533ZM64.285-6.786v3.614A2.386,2.386,0,0,1,61.8-.533a2.065,2.065,0,0,1-2.236-2.34V-6.786h-.65v3.965A2.6,2.6,0,0,0,61.75.052a2.674,2.674,0,0,0,2.561-1.508V0h.624V-6.786Zm3.731-1.651a.527.527,0,0,0,.533-.533.524.524,0,0,0-.533-.52.535.535,0,0,0-.533.533A.524.524,0,0,0,68.016-8.437ZM67.691,0h.65V-6.786h-.65Zm6.487-.884a1.56,1.56,0,0,1-1.053.377c-.832,0-1.261-.481-1.261-1.352V-6.227h2.158v-.559H71.864V-8.268h-.65v1.482H69.966v.559h1.248v4.433A1.683,1.683,0,0,0,73.06.052a2.059,2.059,0,0,0,1.391-.481Zm7.579-2.535A3.213,3.213,0,0,0,78.52-6.838a3.245,3.245,0,0,0-3.25,3.445,3.331,3.331,0,0,0,3.5,3.445,3.248,3.248,0,0,0,2.561-1.1l-.377-.429a2.737,2.737,0,0,1-2.171.949,2.734,2.734,0,0,1-2.873-2.7h5.837C81.744-3.3,81.757-3.367,81.757-3.419ZM78.52-6.266a2.565,2.565,0,0,1,2.6,2.522h-5.2A2.565,2.565,0,0,1,78.52-6.266ZM86.463.052A3.009,3.009,0,0,0,89.037-1.2l-.481-.351A2.477,2.477,0,0,1,86.463-.533a2.693,2.693,0,0,1-2.769-2.86,2.693,2.693,0,0,1,2.769-2.86,2.477,2.477,0,0,1,2.093,1.014l.481-.351a2.977,2.977,0,0,0-2.574-1.248,3.308,3.308,0,0,0-3.432,3.445A3.315,3.315,0,0,0,86.463.052Zm7.7-.936a1.56,1.56,0,0,1-1.053.377c-.832,0-1.261-.481-1.261-1.352V-6.227H94v-.559H91.845V-8.268H91.2v1.482H89.947v.559H91.2v4.433A1.683,1.683,0,0,0,93.041.052a2.059,2.059,0,0,0,1.391-.481Zm7.371-5.9v3.614A2.386,2.386,0,0,1,99.047-.533a2.065,2.065,0,0,1-2.236-2.34V-6.786h-.65v3.965A2.6,2.6,0,0,0,99,.052a2.674,2.674,0,0,0,2.561-1.508V0h.624V-6.786ZM105.56-5.3V-6.786h-.624V0h.65V-3.536c0-1.677.9-2.678,2.4-2.678.052,0,.1.013.156.013v-.637A2.577,2.577,0,0,0,105.56-5.3Zm6.669-1.534a4.139,4.139,0,0,0-2.717.962l.325.468a3.522,3.522,0,0,1,2.34-.858,1.767,1.767,0,0,1,2.015,1.937v.546h-2.327c-1.885,0-2.535.871-2.535,1.9,0,1.157.923,1.937,2.444,1.937a2.607,2.607,0,0,0,2.444-1.261V0h.624V-4.3A2.308,2.308,0,0,0,112.229-6.838Zm-.364,6.357c-1.2,0-1.885-.546-1.885-1.43,0-.78.494-1.365,1.9-1.365h2.314V-2A2.326,2.326,0,0,1,111.865-.481ZM127.153-8.5v-.6h-6.084V0h.663V-4.017h4.849v-.6h-4.849V-8.5Zm1.365.611h.7l2.041-1.534h-.936ZM128.934,0h.65V-6.786h-.65Zm5.109.052c1.729,0,2.678-.754,2.678-1.859,0-2.587-4.5-1.144-4.5-3.185,0-.728.585-1.274,1.911-1.274a3.5,3.5,0,0,1,2.041.611l.3-.52a4.168,4.168,0,0,0-2.327-.663c-1.716,0-2.574.832-2.574,1.859,0,2.665,4.5,1.209,4.5,3.185,0,.767-.572,1.274-2,1.274a3.949,3.949,0,0,1-2.444-.819l-.3.52A4.258,4.258,0,0,0,134.043.052Zm4.823-8.489a.527.527,0,0,0,.533-.533.524.524,0,0,0-.533-.52.535.535,0,0,0-.533.533A.524.524,0,0,0,138.866-8.437ZM138.541,0h.65V-6.786h-.65Zm6.084.052A3.009,3.009,0,0,0,147.2-1.2l-.481-.351a2.477,2.477,0,0,1-2.093,1.014,2.693,2.693,0,0,1-2.769-2.86,2.693,2.693,0,0,1,2.769-2.86,2.477,2.477,0,0,1,2.093,1.014l.481-.351a2.977,2.977,0,0,0-2.574-1.248,3.308,3.308,0,0,0-3.432,3.445A3.315,3.315,0,0,0,144.625.052Zm6.812-6.89a4.139,4.139,0,0,0-2.717.962l.325.468a3.522,3.522,0,0,1,2.34-.858A1.767,1.767,0,0,1,153.4-4.329v.546h-2.327c-1.885,0-2.535.871-2.535,1.9,0,1.157.923,1.937,2.444,1.937a2.607,2.607,0,0,0,2.444-1.261V0h.624V-4.3A2.308,2.308,0,0,0,151.437-6.838Zm-.364,6.357c-1.2,0-1.885-.546-1.885-1.43,0-.78.494-1.365,1.9-1.365H153.4V-2A2.326,2.326,0,0,1,151.073-.481Z" transform="translate(746.161 2172.517)" fill="#333"/>
    <path id="Trazado_2015" data-name="Trazado 2015" d="M5.434.065A4.348,4.348,0,0,0,8.671-1.209l-.416-.429A3.821,3.821,0,0,1,5.46-.546a3.952,3.952,0,0,1-4.082-4,3.952,3.952,0,0,1,4.082-4,3.809,3.809,0,0,1,2.8,1.079L8.671-7.9A4.338,4.338,0,0,0,5.434-9.165,4.545,4.545,0,0,0,.715-4.55,4.545,4.545,0,0,0,5.434.065ZM13.026.052a3.306,3.306,0,0,0,3.393-3.445,3.306,3.306,0,0,0-3.393-3.445A3.306,3.306,0,0,0,9.633-3.393,3.306,3.306,0,0,0,13.026.052Zm0-.585a2.692,2.692,0,0,1-2.73-2.86,2.692,2.692,0,0,1,2.73-2.86,2.692,2.692,0,0,1,2.73,2.86A2.692,2.692,0,0,1,13.026-.533Zm10.79-9.113v4.433a3.042,3.042,0,0,0-2.769-1.625,3.282,3.282,0,0,0-3.354,3.445A3.289,3.289,0,0,0,21.047.052,3.01,3.01,0,0,0,23.829-1.6V0h.637V-9.646ZM21.086-.533a2.692,2.692,0,0,1-2.73-2.86,2.692,2.692,0,0,1,2.73-2.86,2.692,2.692,0,0,1,2.73,2.86A2.692,2.692,0,0,1,21.086-.533ZM32.955-3.419a3.213,3.213,0,0,0-3.237-3.419,3.245,3.245,0,0,0-3.25,3.445,3.331,3.331,0,0,0,3.5,3.445,3.248,3.248,0,0,0,2.561-1.1l-.377-.429a2.737,2.737,0,0,1-2.171.949,2.734,2.734,0,0,1-2.873-2.7h5.837C32.942-3.3,32.955-3.367,32.955-3.419ZM29.718-6.266a2.565,2.565,0,0,1,2.6,2.522h-5.2A2.565,2.565,0,0,1,29.718-6.266Zm7.9,6.318a3.306,3.306,0,0,0,3.393-3.445,3.306,3.306,0,0,0-3.393-3.445,3.306,3.306,0,0,0-3.393,3.445A3.306,3.306,0,0,0,37.622.052Zm0-.585a2.692,2.692,0,0,1-2.73-2.86,2.692,2.692,0,0,1,2.73-2.86,2.692,2.692,0,0,1,2.73,2.86A2.692,2.692,0,0,1,37.622-.533Zm5.109-.52a.533.533,0,0,0-.546.546.531.531,0,0,0,.429.533l-.429,1.833h.468L43.16.091a2,2,0,0,0,.117-.6A.541.541,0,0,0,42.731-1.053Zm9.113.169a1.56,1.56,0,0,1-1.053.377c-.832,0-1.261-.481-1.261-1.352V-6.227h2.158v-.559H49.53V-8.268h-.65v1.482H47.632v.559H48.88v4.433A1.683,1.683,0,0,0,50.726.052a2.059,2.059,0,0,0,1.391-.481Zm7.579-2.535a3.213,3.213,0,0,0-3.237-3.419,3.245,3.245,0,0,0-3.25,3.445,3.331,3.331,0,0,0,3.5,3.445,3.248,3.248,0,0,0,2.561-1.1l-.377-.429a2.737,2.737,0,0,1-2.171.949,2.734,2.734,0,0,1-2.873-2.7H59.41C59.41-3.3,59.423-3.367,59.423-3.419ZM56.186-6.266a2.565,2.565,0,0,1,2.6,2.522h-5.2A2.565,2.565,0,0,1,56.186-6.266ZM63.154.052c1.729,0,2.678-.754,2.678-1.859,0-2.587-4.5-1.144-4.5-3.185,0-.728.585-1.274,1.911-1.274a3.5,3.5,0,0,1,2.041.611l.3-.52a4.168,4.168,0,0,0-2.327-.663c-1.716,0-2.574.832-2.574,1.859,0,2.665,4.5,1.209,4.5,3.185,0,.767-.572,1.274-2,1.274a3.949,3.949,0,0,1-2.444-.819l-.3.52A4.258,4.258,0,0,0,63.154.052Zm7.592-.936a1.56,1.56,0,0,1-1.053.377c-.832,0-1.261-.481-1.261-1.352V-6.227H70.59v-.559H68.432V-8.268h-.65v1.482H66.534v.559h1.248v4.433A1.683,1.683,0,0,0,69.628.052a2.059,2.059,0,0,0,1.391-.481Zm2.405-7.553a.527.527,0,0,0,.533-.533.524.524,0,0,0-.533-.52.535.535,0,0,0-.533.533A.524.524,0,0,0,73.151-8.437ZM72.826,0h.65V-6.786h-.65Zm6.708-6.838a2.8,2.8,0,0,0-2.691,1.521V-6.786h-.624V0h.65V-3.614a2.421,2.421,0,0,1,2.574-2.639,2.055,2.055,0,0,1,2.2,2.34V0h.65V-3.965A2.576,2.576,0,0,0,79.534-6.838Zm10.933.052v1.534A3.113,3.113,0,0,0,87.62-6.838a3.228,3.228,0,0,0-3.38,3.289,3.238,3.238,0,0,0,3.38,3.3,3.132,3.132,0,0,0,2.821-1.547V-.65c0,1.807-.845,2.639-2.652,2.639A4.02,4.02,0,0,1,85.046,1L84.7,1.5A4.482,4.482,0,0,0,87.8,2.574c2.184,0,3.289-1.027,3.289-3.3V-6.786ZM87.672-.832A2.642,2.642,0,0,1,84.9-3.549a2.632,2.632,0,0,1,2.769-2.7,2.636,2.636,0,0,1,2.782,2.7A2.646,2.646,0,0,1,87.672-.832Zm14.807-5.954v3.614A2.386,2.386,0,0,1,100-.533a2.065,2.065,0,0,1-2.236-2.34V-6.786h-.65v3.965A2.6,2.6,0,0,0,99.944.052a2.674,2.674,0,0,0,2.561-1.508V0h.624V-6.786Zm6.721-.052a2.8,2.8,0,0,0-2.691,1.521V-6.786h-.624V0h.65V-3.614a2.421,2.421,0,0,1,2.574-2.639,2.055,2.055,0,0,1,2.2,2.34V0h.65V-3.965A2.576,2.576,0,0,0,109.2-6.838Zm5.759-1.6a.527.527,0,0,0,.533-.533.524.524,0,0,0-.533-.52.535.535,0,0,0-.533.533A.524.524,0,0,0,114.959-8.437ZM114.634,0h.65V-6.786h-.65Zm6.487-.884a1.56,1.56,0,0,1-1.053.377c-.832,0-1.261-.481-1.261-1.352V-6.227h2.158v-.559h-2.158V-8.268h-.65v1.482h-1.248v.559h1.248v4.433A1.683,1.683,0,0,0,120,.052a2.059,2.059,0,0,0,1.391-.481Zm4.368-5.954a4.139,4.139,0,0,0-2.717.962l.325.468a3.522,3.522,0,0,1,2.34-.858,1.767,1.767,0,0,1,2.015,1.937v.546h-2.327c-1.885,0-2.535.871-2.535,1.9,0,1.157.923,1.937,2.444,1.937a2.607,2.607,0,0,0,2.444-1.261V0h.624V-4.3A2.308,2.308,0,0,0,125.489-6.838Zm-.364,6.357c-1.2,0-1.885-.546-1.885-1.43,0-.78.494-1.365,1.9-1.365h2.314V-2A2.326,2.326,0,0,1,125.125-.481ZM131.4-5.3V-6.786h-.624V0h.65V-3.536c0-1.677.9-2.678,2.4-2.678.052,0,.1.013.156.013v-.637A2.577,2.577,0,0,0,131.4-5.3Zm4.706-3.133a.527.527,0,0,0,.533-.533.524.524,0,0,0-.533-.52.535.535,0,0,0-.533.533A.524.524,0,0,0,136.11-8.437ZM135.785,0h.65V-6.786h-.65Zm6.045.052a3.306,3.306,0,0,0,3.393-3.445,3.306,3.306,0,0,0-3.393-3.445,3.306,3.306,0,0,0-3.393,3.445A3.306,3.306,0,0,0,141.83.052Zm0-.585a2.692,2.692,0,0,1-2.73-2.86,2.692,2.692,0,0,1,2.73-2.86,2.692,2.692,0,0,1,2.73,2.86A2.692,2.692,0,0,1,141.83-.533Zm14.495-2.886a3.213,3.213,0,0,0-3.237-3.419,3.245,3.245,0,0,0-3.25,3.445,3.331,3.331,0,0,0,3.5,3.445,3.248,3.248,0,0,0,2.561-1.1l-.377-.429a2.737,2.737,0,0,1-2.171.949,2.734,2.734,0,0,1-2.873-2.7h5.837C156.312-3.3,156.325-3.367,156.325-3.419Zm-3.237-2.847a2.565,2.565,0,0,1,2.6,2.522h-5.2A2.565,2.565,0,0,1,153.088-6.266Zm8.918-2.171a.527.527,0,0,0,.533-.533.524.524,0,0,0-.533-.52.535.535,0,0,0-.533.533A.524.524,0,0,0,162.006-8.437ZM161.681,0h.65V-6.786h-.65Zm6.708-6.838A2.8,2.8,0,0,0,165.7-5.317V-6.786h-.624V0h.65V-3.614A2.421,2.421,0,0,1,168.3-6.253a2.055,2.055,0,0,1,2.2,2.34V0h.65V-3.965A2.576,2.576,0,0,0,168.389-6.838Zm8.528,5.954a1.56,1.56,0,0,1-1.053.377c-.832,0-1.261-.481-1.261-1.352V-6.227h2.158v-.559H174.6V-8.268h-.65v1.482h-1.248v.559h1.248v4.433A1.683,1.683,0,0,0,175.8.052a2.059,2.059,0,0,0,1.391-.481ZM184.5-3.419a3.213,3.213,0,0,0-3.237-3.419,3.245,3.245,0,0,0-3.25,3.445,3.331,3.331,0,0,0,3.5,3.445,3.248,3.248,0,0,0,2.561-1.1l-.377-.429a2.737,2.737,0,0,1-2.171.949,2.734,2.734,0,0,1-2.873-2.7h5.837C184.483-3.3,184.5-3.367,184.5-3.419Zm-3.237-2.847a2.565,2.565,0,0,1,2.6,2.522h-5.2A2.565,2.565,0,0,1,181.259-6.266ZM192-6.786v1.534a3.113,3.113,0,0,0-2.847-1.586,3.228,3.228,0,0,0-3.38,3.289,3.238,3.238,0,0,0,3.38,3.3,3.132,3.132,0,0,0,2.821-1.547V-.65c0,1.807-.845,2.639-2.652,2.639A4.021,4.021,0,0,1,186.576,1l-.351.494a4.483,4.483,0,0,0,3.107,1.079c2.184,0,3.289-1.027,3.289-3.3V-6.786ZM189.2-.832a2.642,2.642,0,0,1-2.769-2.717,2.632,2.632,0,0,1,2.769-2.7,2.636,2.636,0,0,1,2.782,2.7A2.646,2.646,0,0,1,189.2-.832ZM196-5.3V-6.786h-.624V0h.65V-3.536c0-1.677.9-2.678,2.4-2.678.052,0,.1.013.156.013v-.637A2.577,2.577,0,0,0,196-5.3Zm6.669-1.534a4.139,4.139,0,0,0-2.717.962l.325.468a3.522,3.522,0,0,1,2.34-.858,1.767,1.767,0,0,1,2.015,1.937v.546h-2.327c-1.885,0-2.535.871-2.535,1.9,0,1.157.923,1.937,2.444,1.937a2.607,2.607,0,0,0,2.444-1.261V0h.624V-4.3A2.308,2.308,0,0,0,202.67-6.838Zm-.364,6.357c-1.2,0-1.885-.546-1.885-1.43,0-.78.494-1.365,1.9-1.365h2.314V-2A2.326,2.326,0,0,1,202.306-.481ZM207.961,0h.65V-9.646h-.65Z" transform="translate(746.161 2253.517)" fill="#333"/>
    <path id="Trazado_2017" data-name="Trazado 2017" d="M4.849-9.1H1.586V0h.663V-2.977h2.6c2.288,0,3.666-1.144,3.666-3.055S7.137-9.1,4.849-9.1Zm0,5.525h-2.6V-8.5h2.6c1.95,0,2.99.9,2.99,2.47S6.8-3.575,4.849-3.575ZM10.959-5.3V-6.786h-.624V0h.65V-3.536c0-1.677.9-2.678,2.4-2.678.052,0,.1.013.156.013v-.637A2.577,2.577,0,0,0,10.959-5.3ZM21.021-3.419a3.213,3.213,0,0,0-3.237-3.419,3.245,3.245,0,0,0-3.25,3.445,3.331,3.331,0,0,0,3.5,3.445,3.248,3.248,0,0,0,2.561-1.1l-.377-.429a2.737,2.737,0,0,1-2.171.949,2.734,2.734,0,0,1-2.873-2.7h5.837C21.008-3.3,21.021-3.367,21.021-3.419ZM17.784-6.266a2.565,2.565,0,0,1,2.6,2.522h-5.2A2.565,2.565,0,0,1,17.784-6.266Zm8.658-.572A3.033,3.033,0,0,0,23.66-5.187v-1.6h-.624V2.522h.65V-1.547a3.038,3.038,0,0,0,2.756,1.6A3.282,3.282,0,0,0,29.8-3.393,3.289,3.289,0,0,0,26.442-6.838ZM26.4-.533a2.692,2.692,0,0,1-2.73-2.86,2.692,2.692,0,0,1,2.73-2.86,2.7,2.7,0,0,1,2.743,2.86A2.7,2.7,0,0,1,26.4-.533Zm7.67-6.305a4.139,4.139,0,0,0-2.717.962l.325.468a3.522,3.522,0,0,1,2.34-.858,1.767,1.767,0,0,1,2.015,1.937v.546H33.709c-1.885,0-2.535.871-2.535,1.9,0,1.157.923,1.937,2.444,1.937a2.607,2.607,0,0,0,2.444-1.261V0h.624V-4.3A2.308,2.308,0,0,0,34.073-6.838ZM33.709-.481c-1.2,0-1.885-.546-1.885-1.43,0-.78.494-1.365,1.9-1.365h2.314V-2A2.326,2.326,0,0,1,33.709-.481ZM39.988-5.3V-6.786h-.624V0h.65V-3.536c0-1.677.9-2.678,2.4-2.678.052,0,.1.013.156.013v-.637A2.577,2.577,0,0,0,39.988-5.3Zm6.669-1.534a4.139,4.139,0,0,0-2.717.962l.325.468a3.522,3.522,0,0,1,2.34-.858A1.767,1.767,0,0,1,48.62-4.329v.546H46.293c-1.885,0-2.535.871-2.535,1.9,0,1.157.923,1.937,2.444,1.937a2.606,2.606,0,0,0,2.444-1.261V0h.624V-4.3A2.308,2.308,0,0,0,46.657-6.838ZM46.293-.481c-1.2,0-1.885-.546-1.885-1.43,0-.78.494-1.365,1.9-1.365H48.62V-2A2.326,2.326,0,0,1,46.293-.481Zm8.359.533A3.009,3.009,0,0,0,57.226-1.2l-.481-.351A2.477,2.477,0,0,1,54.652-.533a2.693,2.693,0,0,1-2.769-2.86,2.693,2.693,0,0,1,2.769-2.86,2.477,2.477,0,0,1,2.093,1.014l.481-.351a2.977,2.977,0,0,0-2.574-1.248A3.308,3.308,0,0,0,51.22-3.393,3.315,3.315,0,0,0,54.652.052ZM59.5-8.437a.527.527,0,0,0,.533-.533.524.524,0,0,0-.533-.52.535.535,0,0,0-.533.533A.524.524,0,0,0,59.5-8.437ZM59.176,0h.65V-6.786h-.65Zm5.3-7.891h.7l2.041-1.534h-.936ZM65.221.052a3.306,3.306,0,0,0,3.393-3.445,3.306,3.306,0,0,0-3.393-3.445,3.306,3.306,0,0,0-3.393,3.445A3.306,3.306,0,0,0,65.221.052Zm0-.585a2.692,2.692,0,0,1-2.73-2.86,2.692,2.692,0,0,1,2.73-2.86,2.692,2.692,0,0,1,2.73,2.86A2.692,2.692,0,0,1,65.221-.533Zm8.723-6.305a2.8,2.8,0,0,0-2.691,1.521V-6.786h-.624V0h.65V-3.614a2.421,2.421,0,0,1,2.574-2.639,2.055,2.055,0,0,1,2.2,2.34V0h.65V-3.965A2.576,2.576,0,0,0,73.944-6.838ZM88.1-9.646v4.433a3.042,3.042,0,0,0-2.769-1.625,3.282,3.282,0,0,0-3.354,3.445A3.289,3.289,0,0,0,85.332.052,3.01,3.01,0,0,0,88.114-1.6V0h.637V-9.646ZM85.371-.533a2.692,2.692,0,0,1-2.73-2.86,2.692,2.692,0,0,1,2.73-2.86,2.692,2.692,0,0,1,2.73,2.86A2.692,2.692,0,0,1,85.371-.533ZM97.24-3.419A3.213,3.213,0,0,0,94-6.838a3.245,3.245,0,0,0-3.25,3.445A3.331,3.331,0,0,0,94.25.052a3.248,3.248,0,0,0,2.561-1.1l-.377-.429a2.737,2.737,0,0,1-2.171.949,2.734,2.734,0,0,1-2.873-2.7h5.837C97.227-3.3,97.24-3.367,97.24-3.419ZM94-6.266a2.565,2.565,0,0,1,2.6,2.522H91.4A2.565,2.565,0,0,1,94-6.266Zm14.339,2.847a3.213,3.213,0,0,0-3.237-3.419,3.245,3.245,0,0,0-3.25,3.445,3.331,3.331,0,0,0,3.5,3.445,3.248,3.248,0,0,0,2.561-1.1l-.377-.429a2.737,2.737,0,0,1-2.171.949,2.734,2.734,0,0,1-2.873-2.7h5.837C108.329-3.3,108.342-3.367,108.342-3.419Zm-3.237-2.847a2.565,2.565,0,0,1,2.6,2.522h-5.2A2.565,2.565,0,0,1,105.105-6.266Zm8.567-.572a2.8,2.8,0,0,0-2.691,1.521V-6.786h-.624V0h.65V-3.614a2.421,2.421,0,0,1,2.574-2.639,2.055,2.055,0,0,1,2.2,2.34V0h.65V-3.965A2.576,2.576,0,0,0,113.672-6.838ZM122.2-.884a1.56,1.56,0,0,1-1.053.377c-.832,0-1.261-.481-1.261-1.352V-6.227h2.158v-.559h-2.158V-8.268h-.65v1.482h-1.248v.559h1.248v4.433A1.683,1.683,0,0,0,121.082.052a2.059,2.059,0,0,0,1.391-.481Zm4.485.936a3.306,3.306,0,0,0,3.393-3.445,3.306,3.306,0,0,0-3.393-3.445,3.306,3.306,0,0,0-3.393,3.445A3.306,3.306,0,0,0,126.685.052Zm0-.585a2.692,2.692,0,0,1-2.73-2.86,2.692,2.692,0,0,1,2.73-2.86,2.692,2.692,0,0,1,2.73,2.86A2.692,2.692,0,0,1,126.685-.533ZM132.717-5.3V-6.786h-.624V0h.65V-3.536c0-1.677.9-2.678,2.4-2.678.052,0,.1.013.156.013v-.637A2.577,2.577,0,0,0,132.717-5.3Zm7.7-1.534a2.8,2.8,0,0,0-2.691,1.521V-6.786H137.1V0h.65V-3.614a2.421,2.421,0,0,1,2.574-2.639,2.055,2.055,0,0,1,2.2,2.34V0h.65V-3.965A2.576,2.576,0,0,0,140.413-6.838Zm8.1,6.89a3.306,3.306,0,0,0,3.393-3.445,3.306,3.306,0,0,0-3.393-3.445,3.306,3.306,0,0,0-3.393,3.445A3.306,3.306,0,0,0,148.512.052Zm0-.585a2.692,2.692,0,0,1-2.73-2.86,2.692,2.692,0,0,1,2.73-2.86,2.692,2.692,0,0,1,2.73,2.86A2.692,2.692,0,0,1,148.512-.533Zm7.124.585c1.729,0,2.678-.754,2.678-1.859,0-2.587-4.5-1.144-4.5-3.185,0-.728.585-1.274,1.911-1.274a3.5,3.5,0,0,1,2.041.611l.3-.52a4.168,4.168,0,0,0-2.327-.663c-1.716,0-2.574.832-2.574,1.859,0,2.665,4.5,1.209,4.5,3.185,0,.767-.572,1.274-2,1.274a3.949,3.949,0,0,1-2.444-.819l-.3.52A4.258,4.258,0,0,0,155.636.052Zm4.42-1.1a.533.533,0,0,0-.546.546.531.531,0,0,0,.429.533l-.429,1.833h.468l.507-1.768a2,2,0,0,0,.117-.6A.541.541,0,0,0,160.056-1.053Zm14.469-5.785A2.863,2.863,0,0,0,171.782-5.2,2.4,2.4,0,0,0,169.3-6.838a2.694,2.694,0,0,0-2.6,1.508V-6.786h-.624V0h.65V-3.614a2.386,2.386,0,0,1,2.483-2.639c1.326,0,2.119.806,2.119,2.34V0h.65V-3.614a2.386,2.386,0,0,1,2.483-2.639c1.326,0,2.119.806,2.119,2.34V0h.65V-3.965A2.545,2.545,0,0,0,174.525-6.838Zm5.707-1.6a.527.527,0,0,0,.533-.533.524.524,0,0,0-.533-.52.535.535,0,0,0-.533.533A.524.524,0,0,0,180.232-8.437ZM179.907,0h.65V-6.786h-.65Zm8.879-6.786v1.534a3.113,3.113,0,0,0-2.847-1.586,3.228,3.228,0,0,0-3.38,3.289,3.238,3.238,0,0,0,3.38,3.3,3.132,3.132,0,0,0,2.821-1.547V-.65c0,1.807-.845,2.639-2.652,2.639A4.021,4.021,0,0,1,183.365,1l-.351.494a4.483,4.483,0,0,0,3.107,1.079c2.184,0,3.289-1.027,3.289-3.3V-6.786ZM185.991-.832a2.642,2.642,0,0,1-2.769-2.717,2.632,2.632,0,0,1,2.769-2.7,2.636,2.636,0,0,1,2.782,2.7A2.646,2.646,0,0,1,185.991-.832Zm6.8-4.472V-6.786h-.624V0h.65V-3.536c0-1.677.9-2.678,2.4-2.678.052,0,.1.013.156.013v-.637A2.577,2.577,0,0,0,192.79-5.3Zm6.669-1.534a4.139,4.139,0,0,0-2.717.962l.325.468a3.522,3.522,0,0,1,2.34-.858,1.767,1.767,0,0,1,2.015,1.937v.546H199.1c-1.885,0-2.535.871-2.535,1.9,0,1.157.923,1.937,2.444,1.937a2.607,2.607,0,0,0,2.444-1.261V0h.624V-4.3A2.308,2.308,0,0,0,199.459-6.838ZM199.1-.481c-1.2,0-1.885-.546-1.885-1.43,0-.78.494-1.365,1.9-1.365h2.314V-2A2.326,2.326,0,0,1,199.1-.481Zm8.359.533A3.009,3.009,0,0,0,210.028-1.2l-.481-.351a2.477,2.477,0,0,1-2.093,1.014,2.693,2.693,0,0,1-2.769-2.86,2.693,2.693,0,0,1,2.769-2.86,2.477,2.477,0,0,1,2.093,1.014l.481-.351a2.977,2.977,0,0,0-2.574-1.248,3.308,3.308,0,0,0-3.432,3.445A3.315,3.315,0,0,0,207.454.052ZM212.3-8.437a.527.527,0,0,0,.533-.533.524.524,0,0,0-.533-.52.535.535,0,0,0-.533.533A.524.524,0,0,0,212.3-8.437ZM211.978,0h.65V-6.786h-.65Zm6.045.052a3.306,3.306,0,0,0,3.393-3.445,3.306,3.306,0,0,0-3.393-3.445,3.306,3.306,0,0,0-3.393,3.445A3.306,3.306,0,0,0,218.023.052Zm0-.585a2.692,2.692,0,0,1-2.73-2.86,2.692,2.692,0,0,1,2.73-2.86,2.692,2.692,0,0,1,2.73,2.86A2.692,2.692,0,0,1,218.023-.533Zm8.723-6.305a2.8,2.8,0,0,0-2.691,1.521V-6.786h-.624V0h.65V-3.614a2.421,2.421,0,0,1,2.574-2.639,2.055,2.055,0,0,1,2.2,2.34V0h.65V-3.965A2.576,2.576,0,0,0,226.746-6.838Zm11.193,3.419A3.213,3.213,0,0,0,234.7-6.838a3.245,3.245,0,0,0-3.25,3.445,3.331,3.331,0,0,0,3.5,3.445,3.248,3.248,0,0,0,2.561-1.1l-.377-.429a2.737,2.737,0,0,1-2.171.949,2.734,2.734,0,0,1-2.873-2.7h5.837C237.926-3.3,237.939-3.367,237.939-3.419ZM234.7-6.266a2.565,2.565,0,0,1,2.6,2.522h-5.2A2.565,2.565,0,0,1,234.7-6.266ZM241.67.052c1.729,0,2.678-.754,2.678-1.859,0-2.587-4.5-1.144-4.5-3.185,0-.728.585-1.274,1.911-1.274a3.5,3.5,0,0,1,2.041.611l.3-.52a4.168,4.168,0,0,0-2.327-.663c-1.716,0-2.574.832-2.574,1.859,0,2.665,4.5,1.209,4.5,3.185,0,.767-.572,1.274-2,1.274a3.949,3.949,0,0,1-2.444-.819l-.3.52A4.258,4.258,0,0,0,241.67.052Zm4.42-1.1a.533.533,0,0,0-.546.546.531.531,0,0,0,.429.533l-.429,1.833h.468l.507-1.768a2,2,0,0,0,.117-.6A.541.541,0,0,0,246.09-1.053ZM2,14.7V13.214H1.378V20h.65V16.464c0-1.677.9-2.678,2.4-2.678.052,0,.1.013.156.013v-.637A2.577,2.577,0,0,0,2,14.7Zm10.062,1.885a3.249,3.249,0,1,0-6.487.026,3.331,3.331,0,0,0,3.5,3.445,3.248,3.248,0,0,0,2.561-1.1l-.377-.429a2.737,2.737,0,0,1-2.171.949,2.734,2.734,0,0,1-2.873-2.7h5.837C12.051,16.7,12.064,16.633,12.064,16.581ZM8.827,13.734a2.565,2.565,0,0,1,2.6,2.522h-5.2A2.565,2.565,0,0,1,8.827,13.734ZM14.079,20h.65V10.354h-.65Zm9.139-3.419a3.249,3.249,0,1,0-6.487.026,3.331,3.331,0,0,0,3.5,3.445,3.248,3.248,0,0,0,2.561-1.1l-.377-.429a2.737,2.737,0,0,1-2.171.949,2.734,2.734,0,0,1-2.873-2.7H23.2C23.2,16.7,23.218,16.633,23.218,16.581Zm-3.237-2.847a2.565,2.565,0,0,1,2.6,2.522h-5.2A2.565,2.565,0,0,1,19.981,13.734Zm7.345-.572a4.139,4.139,0,0,0-2.717.962l.325.468a3.522,3.522,0,0,1,2.34-.858,1.767,1.767,0,0,1,2.015,1.937v.546H26.962c-1.885,0-2.535.871-2.535,1.9,0,1.157.923,1.937,2.444,1.937a2.607,2.607,0,0,0,2.444-1.261V20h.624V15.7A2.308,2.308,0,0,0,27.326,13.162Zm-.364,6.357c-1.2,0-1.885-.546-1.885-1.43,0-.78.494-1.365,1.9-1.365h2.314V18A2.326,2.326,0,0,1,26.962,19.519Zm7.371.533c1.729,0,2.678-.754,2.678-1.859,0-2.587-4.5-1.144-4.5-3.185,0-.728.585-1.274,1.911-1.274a3.5,3.5,0,0,1,2.041.611l.3-.52a4.168,4.168,0,0,0-2.327-.663c-1.716,0-2.574.832-2.574,1.859,0,2.665,4.5,1.209,4.5,3.185,0,.767-.572,1.274-2,1.274a3.949,3.949,0,0,1-2.444-.819l-.3.52A4.258,4.258,0,0,0,34.333,20.052Zm10.244-3.471a3.249,3.249,0,1,0-6.487.026,3.331,3.331,0,0,0,3.5,3.445,3.248,3.248,0,0,0,2.561-1.1l-.377-.429a2.9,2.9,0,0,1-5.044-1.755h5.837C44.564,16.7,44.577,16.633,44.577,16.581ZM41.34,13.734a2.565,2.565,0,0,1,2.6,2.522h-5.2A2.565,2.565,0,0,1,41.34,13.734Zm13.377-.52L52,19.285l-2.717-6.071h-.689l3.055,6.76-.364.819C50.869,21.716,50.414,22,49.79,22a1.652,1.652,0,0,1-1.261-.533l-.325.494a2.167,2.167,0,0,0,1.573.611c.9,0,1.573-.4,2.119-1.651l3.484-7.709Zm8.515,5.9a1.56,1.56,0,0,1-1.053.377c-.832,0-1.261-.481-1.261-1.352V13.773h2.158v-.559H60.918V11.732h-.65v1.482H59.02v.559h1.248v4.433a1.683,1.683,0,0,0,1.846,1.846,2.059,2.059,0,0,0,1.391-.481Zm2.7-4.42V13.214h-.624V20h.65V16.464c0-1.677.9-2.678,2.4-2.678.052,0,.1.013.156.013v-.637A2.577,2.577,0,0,0,65.936,14.7ZM72.6,13.162a4.139,4.139,0,0,0-2.717.962l.325.468a3.522,3.522,0,0,1,2.34-.858,1.767,1.767,0,0,1,2.015,1.937v.546H72.241c-1.885,0-2.535.871-2.535,1.9,0,1.157.923,1.937,2.444,1.937a2.607,2.607,0,0,0,2.444-1.261V20h.624V15.7A2.308,2.308,0,0,0,72.6,13.162Zm-.364,6.357c-1.2,0-1.885-.546-1.885-1.43,0-.78.494-1.365,1.9-1.365h2.314V18A2.326,2.326,0,0,1,72.241,19.519Zm8.97-6.357a2.8,2.8,0,0,0-2.691,1.521V13.214H77.9V20h.65V16.386a2.421,2.421,0,0,1,2.574-2.639,2.055,2.055,0,0,1,2.2,2.34V20h.65V16.035A2.576,2.576,0,0,0,81.211,13.162Zm7.15,6.89c1.729,0,2.678-.754,2.678-1.859,0-2.587-4.5-1.144-4.5-3.185,0-.728.585-1.274,1.911-1.274a3.5,3.5,0,0,1,2.041.611l.3-.52a4.168,4.168,0,0,0-2.327-.663c-1.716,0-2.574.832-2.574,1.859,0,2.665,4.5,1.209,4.5,3.185,0,.767-.572,1.274-2,1.274a3.949,3.949,0,0,1-2.444-.819l-.3.52A4.258,4.258,0,0,0,88.361,20.052ZM94.9,10.861a1.56,1.56,0,0,1,1.053.377l.26-.494a2.028,2.028,0,0,0-1.339-.442,1.732,1.732,0,0,0-1.885,1.872v1.04H91.741v.559h1.248V20h.65V13.773H95.8v-.559H93.626v-.988C93.626,11.329,94.055,10.861,94.9,10.861Zm7.852,5.72a3.249,3.249,0,1,0-6.487.026,3.331,3.331,0,0,0,3.5,3.445,3.248,3.248,0,0,0,2.561-1.1l-.377-.429A2.9,2.9,0,0,1,96.9,16.763h5.837C102.739,16.7,102.752,16.633,102.752,16.581Zm-3.237-2.847a2.565,2.565,0,0,1,2.6,2.522h-5.2A2.565,2.565,0,0,1,99.515,13.734Zm5.876.962V13.214h-.624V20h.65V16.464c0-1.677.9-2.678,2.4-2.678.052,0,.1.013.156.013v-.637A2.577,2.577,0,0,0,105.391,14.7Zm10.062,1.885a3.249,3.249,0,1,0-6.487.026,3.331,3.331,0,0,0,3.5,3.445,3.248,3.248,0,0,0,2.561-1.1l-.377-.429a2.9,2.9,0,0,1-5.044-1.755h5.837C115.44,16.7,115.453,16.633,115.453,16.581Zm-3.237-2.847a2.565,2.565,0,0,1,2.6,2.522h-5.2A2.565,2.565,0,0,1,112.216,13.734Zm8.567-.572a2.8,2.8,0,0,0-2.691,1.521V13.214h-.624V20h.65V16.386a2.421,2.421,0,0,1,2.574-2.639,2.055,2.055,0,0,1,2.2,2.34V20h.65V16.035A2.576,2.576,0,0,0,120.783,13.162Zm8.138,6.89A3.009,3.009,0,0,0,131.5,18.8l-.481-.351a2.477,2.477,0,0,1-2.093,1.014,2.693,2.693,0,0,1-2.769-2.86,2.693,2.693,0,0,1,2.769-2.86,2.477,2.477,0,0,1,2.093,1.014l.481-.351a2.977,2.977,0,0,0-2.574-1.248,3.308,3.308,0,0,0-3.432,3.445A3.315,3.315,0,0,0,128.921,20.052Zm4.849-8.489a.527.527,0,1,0,0-1.053.535.535,0,0,0-.533.533A.524.524,0,0,0,133.77,11.563ZM133.445,20h.65V13.214h-.65Zm5.681-6.838a4.139,4.139,0,0,0-2.717.962l.325.468a3.522,3.522,0,0,1,2.34-.858,1.767,1.767,0,0,1,2.015,1.937v.546h-2.327c-1.885,0-2.535.871-2.535,1.9,0,1.157.923,1.937,2.444,1.937a2.607,2.607,0,0,0,2.444-1.261V20h.624V15.7A2.308,2.308,0,0,0,139.126,13.162Zm-.364,6.357c-1.2,0-1.885-.546-1.885-1.43,0-.78.494-1.365,1.9-1.365h2.314V18A2.326,2.326,0,0,1,138.762,19.519Zm11.284-6.357a4.139,4.139,0,0,0-2.717.962l.325.468a3.522,3.522,0,0,1,2.34-.858,1.767,1.767,0,0,1,2.015,1.937v.546h-2.327c-1.885,0-2.535.871-2.535,1.9,0,1.157.923,1.937,2.444,1.937a2.607,2.607,0,0,0,2.444-1.261V20h.624V15.7A2.308,2.308,0,0,0,150.046,13.162Zm-.364,6.357c-1.2,0-1.885-.546-1.885-1.43,0-.78.494-1.365,1.9-1.365h2.314V18A2.326,2.326,0,0,1,149.682,19.519Zm10.712.533c1.729,0,2.678-.754,2.678-1.859,0-2.587-4.5-1.144-4.5-3.185,0-.728.585-1.274,1.911-1.274a3.5,3.5,0,0,1,2.041.611l.3-.52a4.168,4.168,0,0,0-2.327-.663c-1.716,0-2.574.832-2.574,1.859,0,2.665,4.5,1.209,4.5,3.185,0,.767-.572,1.274-2,1.274a3.949,3.949,0,0,1-2.444-.819l-.3.52A4.258,4.258,0,0,0,160.394,20.052Zm7.15,0a3.306,3.306,0,0,0,3.393-3.445,3.393,3.393,0,1,0-6.786,0A3.306,3.306,0,0,0,167.544,20.052Zm0-.585a2.692,2.692,0,0,1-2.73-2.86,2.733,2.733,0,1,1,5.46,0A2.692,2.692,0,0,1,167.544,19.467Zm8.814-6.3a3.033,3.033,0,0,0-2.782,1.651v-1.6h-.624v9.308h.65V18.453a3.038,3.038,0,0,0,2.756,1.6,3.282,3.282,0,0,0,3.354-3.445A3.289,3.289,0,0,0,176.358,13.162Zm-.039,6.3a2.692,2.692,0,0,1-2.73-2.86,2.739,2.739,0,1,1,5.473,0A2.7,2.7,0,0,1,176.319,19.467Zm8.06.585a3.306,3.306,0,0,0,3.393-3.445,3.393,3.393,0,1,0-6.786,0A3.306,3.306,0,0,0,184.379,20.052Zm0-.585a2.692,2.692,0,0,1-2.73-2.86,2.733,2.733,0,1,1,5.46,0A2.692,2.692,0,0,1,184.379,19.467Zm6.032-4.771V13.214h-.624V20h.65V16.464c0-1.677.9-2.678,2.4-2.678.052,0,.1.013.156.013v-.637A2.577,2.577,0,0,0,190.411,14.7Zm7.787,4.42a1.56,1.56,0,0,1-1.053.377c-.832,0-1.261-.481-1.261-1.352V13.773h2.158v-.559h-2.158V11.732h-.65v1.482h-1.248v.559h1.248v4.433a1.683,1.683,0,0,0,1.846,1.846,2.059,2.059,0,0,0,1.391-.481Zm7.579-2.535a3.249,3.249,0,1,0-6.487.026,3.331,3.331,0,0,0,3.5,3.445,3.248,3.248,0,0,0,2.561-1.1l-.377-.429a2.9,2.9,0,0,1-5.044-1.755h5.837C205.764,16.7,205.777,16.633,205.777,16.581Zm-3.237-2.847a2.565,2.565,0,0,1,2.6,2.522h-5.2A2.565,2.565,0,0,1,202.54,13.734Z" transform="translate(746.161 2334.517)" fill="#333"/>
    <path id="Trazado_2019" data-name="Trazado 2019" d="M8.658,0,6.383-3.185A2.792,2.792,0,0,0,8.515-6.032C8.515-7.956,7.137-9.1,4.849-9.1H1.586V0h.663V-2.977h2.6a6.424,6.424,0,0,0,.884-.065L7.9,0ZM2.249-3.562V-8.5h2.6c1.95,0,2.99.9,2.99,2.47s-1.04,2.47-2.99,2.47Zm14.235.143a3.213,3.213,0,0,0-3.237-3.419A3.245,3.245,0,0,0,10-3.393a3.331,3.331,0,0,0,3.5,3.445,3.248,3.248,0,0,0,2.561-1.1l-.377-.429a2.737,2.737,0,0,1-2.171.949,2.734,2.734,0,0,1-2.873-2.7h5.837C16.471-3.3,16.484-3.367,16.484-3.419ZM13.247-6.266a2.565,2.565,0,0,1,2.6,2.522h-5.2A2.565,2.565,0,0,1,13.247-6.266ZM20.215.052c1.729,0,2.678-.754,2.678-1.859,0-2.587-4.5-1.144-4.5-3.185,0-.728.585-1.274,1.911-1.274a3.5,3.5,0,0,1,2.041.611l.3-.52a4.168,4.168,0,0,0-2.327-.663c-1.716,0-2.574.832-2.574,1.859,0,2.665,4.5,1.209,4.5,3.185,0,.767-.572,1.274-2,1.274A3.949,3.949,0,0,1,17.8-1.339l-.3.52A4.258,4.258,0,0,0,20.215.052Zm7.15,0a3.306,3.306,0,0,0,3.393-3.445,3.306,3.306,0,0,0-3.393-3.445,3.306,3.306,0,0,0-3.393,3.445A3.306,3.306,0,0,0,27.365.052Zm0-.585a2.692,2.692,0,0,1-2.73-2.86,2.692,2.692,0,0,1,2.73-2.86,2.692,2.692,0,0,1,2.73,2.86A2.692,2.692,0,0,1,27.365-.533ZM32.773,0h.65V-9.646h-.65Zm8.684-6.786v3.614A2.386,2.386,0,0,1,38.974-.533a2.065,2.065,0,0,1-2.236-2.34V-6.786h-.65v3.965A2.6,2.6,0,0,0,38.922.052a2.674,2.674,0,0,0,2.561-1.508V0h.624V-6.786Zm6.1,6.838A3.009,3.009,0,0,0,50.128-1.2l-.481-.351A2.477,2.477,0,0,1,47.554-.533a2.693,2.693,0,0,1-2.769-2.86,2.693,2.693,0,0,1,2.769-2.86,2.477,2.477,0,0,1,2.093,1.014l.481-.351a2.977,2.977,0,0,0-2.574-1.248,3.308,3.308,0,0,0-3.432,3.445A3.315,3.315,0,0,0,47.554.052ZM52.4-8.437a.527.527,0,0,0,.533-.533.524.524,0,0,0-.533-.52.535.535,0,0,0-.533.533A.524.524,0,0,0,52.4-8.437ZM52.078,0h.65V-6.786h-.65Zm5.3-7.891h.7l2.041-1.534h-.936ZM58.123.052a3.306,3.306,0,0,0,3.393-3.445,3.306,3.306,0,0,0-3.393-3.445A3.306,3.306,0,0,0,54.73-3.393,3.306,3.306,0,0,0,58.123.052Zm0-.585a2.692,2.692,0,0,1-2.73-2.86,2.692,2.692,0,0,1,2.73-2.86,2.692,2.692,0,0,1,2.73,2.86A2.692,2.692,0,0,1,58.123-.533Zm8.723-6.305a2.8,2.8,0,0,0-2.691,1.521V-6.786h-.624V0h.65V-3.614a2.421,2.421,0,0,1,2.574-2.639,2.055,2.055,0,0,1,2.2,2.34V0h.65V-3.965A2.576,2.576,0,0,0,66.846-6.838ZM81-9.646v4.433a3.042,3.042,0,0,0-2.769-1.625A3.282,3.282,0,0,0,74.88-3.393,3.289,3.289,0,0,0,78.234.052,3.01,3.01,0,0,0,81.016-1.6V0h.637V-9.646ZM78.273-.533a2.692,2.692,0,0,1-2.73-2.86,2.692,2.692,0,0,1,2.73-2.86A2.692,2.692,0,0,1,81-3.393,2.692,2.692,0,0,1,78.273-.533ZM90.142-3.419a3.213,3.213,0,0,0-3.237-3.419,3.245,3.245,0,0,0-3.25,3.445,3.331,3.331,0,0,0,3.5,3.445,3.248,3.248,0,0,0,2.561-1.1l-.377-.429a2.737,2.737,0,0,1-2.171.949,2.734,2.734,0,0,1-2.873-2.7h5.837C90.129-3.3,90.142-3.367,90.142-3.419ZM86.905-6.266a2.565,2.565,0,0,1,2.6,2.522h-5.2A2.565,2.565,0,0,1,86.905-6.266Zm8.918-2.171a.527.527,0,0,0,.533-.533.524.524,0,0,0-.533-.52.535.535,0,0,0-.533.533A.524.524,0,0,0,95.823-8.437ZM95.5,0h.65V-6.786H95.5Zm5.109.052c1.729,0,2.678-.754,2.678-1.859,0-2.587-4.5-1.144-4.5-3.185,0-.728.585-1.274,1.911-1.274a3.5,3.5,0,0,1,2.041.611l.3-.52a4.168,4.168,0,0,0-2.327-.663c-1.716,0-2.574.832-2.574,1.859,0,2.665,4.5,1.209,4.5,3.185,0,.767-.572,1.274-2,1.274a3.949,3.949,0,0,1-2.444-.819l-.3.52A4.258,4.258,0,0,0,100.607.052Zm6.214,0c1.729,0,2.678-.754,2.678-1.859,0-2.587-4.5-1.144-4.5-3.185,0-.728.585-1.274,1.911-1.274a3.5,3.5,0,0,1,2.041.611l.3-.52a4.168,4.168,0,0,0-2.327-.663c-1.716,0-2.574.832-2.574,1.859,0,2.665,4.5,1.209,4.5,3.185,0,.767-.572,1.274-2,1.274a3.949,3.949,0,0,1-2.444-.819l-.3.52A4.258,4.258,0,0,0,106.821.052Zm9.789-6.838v3.614a2.386,2.386,0,0,1-2.483,2.639,2.065,2.065,0,0,1-2.236-2.34V-6.786h-.65v3.965A2.6,2.6,0,0,0,114.075.052a2.674,2.674,0,0,0,2.561-1.508V0h.624V-6.786Zm9.152,3.367a3.213,3.213,0,0,0-3.237-3.419,3.245,3.245,0,0,0-3.25,3.445,3.331,3.331,0,0,0,3.5,3.445,3.248,3.248,0,0,0,2.561-1.1l-.377-.429a2.737,2.737,0,0,1-2.171.949,2.734,2.734,0,0,1-2.873-2.7h5.837C125.749-3.3,125.762-3.367,125.762-3.419Zm-3.237-2.847a2.565,2.565,0,0,1,2.6,2.522h-5.2A2.565,2.565,0,0,1,122.525-6.266ZM129.493.052c1.729,0,2.678-.754,2.678-1.859,0-2.587-4.5-1.144-4.5-3.185,0-.728.585-1.274,1.911-1.274a3.5,3.5,0,0,1,2.041.611l.3-.52a4.168,4.168,0,0,0-2.327-.663c-1.716,0-2.574.832-2.574,1.859,0,2.665,4.5,1.209,4.5,3.185,0,.767-.572,1.274-2,1.274a3.949,3.949,0,0,1-2.444-.819l-.3.52A4.258,4.258,0,0,0,129.493.052Zm4.42-1.1a.533.533,0,0,0-.546.546.531.531,0,0,0,.429.533l-.429,1.833h.468l.507-1.768a2,2,0,0,0,.117-.6A.541.541,0,0,0,133.913-1.053Zm9.113.169a1.56,1.56,0,0,1-1.053.377c-.832,0-1.261-.481-1.261-1.352V-6.227h2.158v-.559h-2.158V-8.268h-.65v1.482h-1.248v.559h1.248v4.433A1.683,1.683,0,0,0,141.908.052,2.059,2.059,0,0,0,143.3-.429Zm7.579-2.535a3.213,3.213,0,0,0-3.237-3.419,3.245,3.245,0,0,0-3.25,3.445,3.331,3.331,0,0,0,3.5,3.445,3.248,3.248,0,0,0,2.561-1.1l-.377-.429a2.737,2.737,0,0,1-2.171.949,2.734,2.734,0,0,1-2.873-2.7h5.837C150.592-3.3,150.605-3.367,150.605-3.419Zm-3.237-2.847a2.565,2.565,0,0,1,2.6,2.522h-5.2A2.565,2.565,0,0,1,147.368-6.266ZM154.336.052c1.729,0,2.678-.754,2.678-1.859,0-2.587-4.5-1.144-4.5-3.185,0-.728.585-1.274,1.911-1.274a3.5,3.5,0,0,1,2.041.611l.3-.52a4.168,4.168,0,0,0-2.327-.663c-1.716,0-2.574.832-2.574,1.859,0,2.665,4.5,1.209,4.5,3.185,0,.767-.572,1.274-2,1.274a3.949,3.949,0,0,1-2.444-.819l-.3.52A4.258,4.258,0,0,0,154.336.052Zm7.592-.936a1.56,1.56,0,0,1-1.053.377c-.832,0-1.261-.481-1.261-1.352V-6.227h2.158v-.559h-2.158V-8.268h-.65v1.482h-1.248v.559h1.248v4.433A1.683,1.683,0,0,0,160.81.052,2.059,2.059,0,0,0,162.2-.429Zm7.579-2.535a3.213,3.213,0,0,0-3.237-3.419,3.245,3.245,0,0,0-3.25,3.445,3.331,3.331,0,0,0,3.5,3.445,3.248,3.248,0,0,0,2.561-1.1l-.377-.429a2.737,2.737,0,0,1-2.171.949,2.734,2.734,0,0,1-2.873-2.7h5.837C169.494-3.3,169.507-3.367,169.507-3.419ZM166.27-6.266a2.565,2.565,0,0,1,2.6,2.522h-5.2A2.565,2.565,0,0,1,166.27-6.266Zm7.9,6.318a3.306,3.306,0,0,0,3.393-3.445,3.306,3.306,0,0,0-3.393-3.445,3.306,3.306,0,0,0-3.393,3.445A3.306,3.306,0,0,0,174.174.052Zm0-.585a2.692,2.692,0,0,1-2.73-2.86,2.692,2.692,0,0,1,2.73-2.86,2.692,2.692,0,0,1,2.73,2.86A2.692,2.692,0,0,1,174.174-.533ZM181.3.052c1.729,0,2.678-.754,2.678-1.859,0-2.587-4.5-1.144-4.5-3.185,0-.728.585-1.274,1.911-1.274a3.5,3.5,0,0,1,2.041.611l.3-.52a4.168,4.168,0,0,0-2.327-.663c-1.716,0-2.574.832-2.574,1.859,0,2.665,4.5,1.209,4.5,3.185,0,.767-.572,1.274-2,1.274a3.949,3.949,0,0,1-2.444-.819l-.3.52A4.258,4.258,0,0,0,181.3.052ZM6.162,13.214,3.445,19.285.728,13.214H.039l3.055,6.76-.364.819C2.314,21.716,1.859,22,1.235,22a1.652,1.652,0,0,1-1.261-.533l-.325.494a2.167,2.167,0,0,0,1.573.611c.9,0,1.573-.4,2.119-1.651l3.484-7.709Zm8.112,6.838A3.009,3.009,0,0,0,16.848,18.8l-.481-.351a2.477,2.477,0,0,1-2.093,1.014,2.693,2.693,0,0,1-2.769-2.86,2.693,2.693,0,0,1,2.769-2.86,2.477,2.477,0,0,1,2.093,1.014l.481-.351a2.977,2.977,0,0,0-2.574-1.248,3.308,3.308,0,0,0-3.432,3.445A3.315,3.315,0,0,0,14.274,20.052Zm4.849-8.489a.527.527,0,1,0,0-1.053.535.535,0,0,0-.533.533A.524.524,0,0,0,19.123,11.563ZM18.8,20h.65V13.214H18.8Zm9.139-3.419a3.249,3.249,0,1,0-6.487.026,3.331,3.331,0,0,0,3.5,3.445,3.248,3.248,0,0,0,2.561-1.1l-.377-.429a2.9,2.9,0,0,1-5.044-1.755h5.837C27.924,16.7,27.937,16.633,27.937,16.581ZM24.7,13.734a2.565,2.565,0,0,1,2.6,2.522H22.1A2.565,2.565,0,0,1,24.7,13.734Zm5.876.962V13.214h-.624V20h.65V16.464c0-1.677.9-2.678,2.405-2.678.052,0,.1.013.156.013v-.637A2.577,2.577,0,0,0,30.576,14.7Zm5,0V13.214h-.624V20h.65V16.464c0-1.677.9-2.678,2.4-2.678.052,0,.1.013.156.013v-.637A2.577,2.577,0,0,0,35.581,14.7Zm10.062,1.885a3.249,3.249,0,1,0-6.487.026,3.331,3.331,0,0,0,3.5,3.445,3.248,3.248,0,0,0,2.561-1.1l-.377-.429a2.9,2.9,0,0,1-5.044-1.755H45.63C45.63,16.7,45.643,16.633,45.643,16.581Zm-3.237-2.847a2.565,2.565,0,0,1,2.6,2.522h-5.2A2.565,2.565,0,0,1,42.406,13.734Zm13.975-3.38v4.433a3.042,3.042,0,0,0-2.769-1.625,3.282,3.282,0,0,0-3.354,3.445,3.289,3.289,0,0,0,3.354,3.445A3.01,3.01,0,0,0,56.394,18.4V20h.637V10.354Zm-2.73,9.113a2.692,2.692,0,0,1-2.73-2.86,2.733,2.733,0,1,1,5.46,0A2.692,2.692,0,0,1,53.651,19.467ZM65.52,16.581a3.249,3.249,0,1,0-6.487.026,3.331,3.331,0,0,0,3.5,3.445,3.248,3.248,0,0,0,2.561-1.1l-.377-.429a2.9,2.9,0,0,1-5.044-1.755h5.837C65.507,16.7,65.52,16.633,65.52,16.581Zm-3.237-2.847a2.565,2.565,0,0,1,2.6,2.522h-5.2A2.565,2.565,0,0,1,62.283,13.734ZM67.535,20h.65V10.354h-.65Zm10.14-6.838a3.033,3.033,0,0,0-2.782,1.651v-1.6h-.624v9.308h.65V18.453a3.038,3.038,0,0,0,2.756,1.6,3.282,3.282,0,0,0,3.354-3.445A3.289,3.289,0,0,0,77.675,13.162Zm-.039,6.3a2.692,2.692,0,0,1-2.73-2.86,2.739,2.739,0,1,1,5.473,0A2.7,2.7,0,0,1,77.636,19.467ZM83.668,14.7V13.214h-.624V20h.65V16.464c0-1.677.9-2.678,2.4-2.678.052,0,.1.013.156.013v-.637A2.577,2.577,0,0,0,83.668,14.7Zm6.968,5.356a3.306,3.306,0,0,0,3.393-3.445,3.393,3.393,0,1,0-6.786,0A3.306,3.306,0,0,0,90.636,20.052Zm0-.585a2.692,2.692,0,0,1-2.73-2.86,2.733,2.733,0,1,1,5.46,0A2.692,2.692,0,0,1,90.636,19.467Zm10-6.253-2.717,6.071L95.2,13.214H94.51l3.055,6.76-.364.819c-.416.923-.871,1.209-1.5,1.209a1.652,1.652,0,0,1-1.261-.533l-.325.494a2.167,2.167,0,0,0,1.573.611c.9,0,1.573-.4,2.119-1.651l3.484-7.709Zm7.631,3.367a3.249,3.249,0,1,0-6.487.026,3.331,3.331,0,0,0,3.5,3.445,3.248,3.248,0,0,0,2.561-1.1l-.377-.429a2.9,2.9,0,0,1-5.044-1.755h5.837C108.251,16.7,108.264,16.633,108.264,16.581Zm-3.237-2.847a2.565,2.565,0,0,1,2.6,2.522h-5.2A2.565,2.565,0,0,1,105.027,13.734Zm7.943,6.318a3.009,3.009,0,0,0,2.574-1.248l-.481-.351a2.477,2.477,0,0,1-2.093,1.014,2.693,2.693,0,0,1-2.769-2.86,2.693,2.693,0,0,1,2.769-2.86,2.477,2.477,0,0,1,2.093,1.014l.481-.351a2.977,2.977,0,0,0-2.574-1.248,3.308,3.308,0,0,0-3.432,3.445A3.315,3.315,0,0,0,112.97,20.052Zm7.7-.936a1.56,1.56,0,0,1-1.053.377c-.832,0-1.261-.481-1.261-1.352V13.773h2.158v-.559h-2.158V11.732h-.65v1.482h-1.248v.559H117.7v4.433a1.683,1.683,0,0,0,1.846,1.846,2.059,2.059,0,0,0,1.391-.481Zm4.485.936a3.306,3.306,0,0,0,3.393-3.445,3.393,3.393,0,1,0-6.786,0A3.306,3.306,0,0,0,125.151,20.052Zm0-.585a2.692,2.692,0,0,1-2.73-2.86,2.733,2.733,0,1,1,5.46,0A2.692,2.692,0,0,1,125.151,19.467Zm5.109.585a.552.552,0,0,0,.546-.559.546.546,0,1,0-1.092,0A.552.552,0,0,0,130.26,20.052Z" transform="translate(746.161 2421.517)" fill="#333"/>
  </g>
</svg>
