<svg xmlns="http://www.w3.org/2000/svg" xmlns:xlink="http://www.w3.org/1999/xlink" width="1059" height="414" viewBox="0 0 1059 414">
  <defs>
    <filter id="Rect치ngulo_2136" x="0" y="0" width="1059" height="414" filterUnits="userSpaceOnUse">
      <feOffset dy="3" input="SourceAlpha"/>
      <feGaussianBlur stdDeviation="3" result="blur"/>
      <feFlood flood-opacity="0.161"/>
      <feComposite operator="in" in2="blur"/>
      <feComposite in="SourceGraphic"/>
    </filter>
  </defs>
  <g id="Grupo_1375" data-name="Grupo 1375" transform="translate(-675.161 -1949.741)">
    <g transform="matrix(1, 0, 0, 1, 675.16, 1949.74)" filter="url(#Rect치ngulo_2136)">
      <rect id="Rect치ngulo_2136-2" data-name="Rect치ngulo 2136" width="1041" height="396" rx="10" transform="translate(9 6)" fill="#fff"/>
    </g>
    <path id="Trazado_1996" data-name="Trazado 1996" d="M10.868.312a9.351,9.351,0,0,0,7.514-3.25l-2.7-2.5A5.8,5.8,0,0,1,11.1-3.276,5.583,5.583,0,0,1,5.278-9.1,5.583,5.583,0,0,1,11.1-14.924a5.856,5.856,0,0,1,4.576,2.132l2.7-2.5a9.4,9.4,0,0,0-7.488-3.224c-5.668,0-9.88,3.926-9.88,9.412S5.226.312,10.868.312Zm12.09-16.25a2.332,2.332,0,0,0,2.522-2.34,2.277,2.277,0,0,0-2.522-2.184A2.318,2.318,0,0,0,20.436-18.2,2.318,2.318,0,0,0,22.958-15.938ZM20.93,0h4.056V-13.988H20.93ZM35.516.208c2.938,0,5.252-1.3,6.266-3.536L38.636-5.044A3.441,3.441,0,0,1,35.49-3.12a3.579,3.579,0,0,1-3.666-3.874,3.579,3.579,0,0,1,3.666-3.874,3.488,3.488,0,0,1,3.146,1.924l3.146-1.69c-1.014-2.288-3.328-3.562-6.266-3.562-4.55,0-7.8,2.99-7.8,7.2S30.966.208,35.516.208ZM44.018,0h4.056V-19.292H44.018ZM58.5.208c4.446,0,7.67-2.99,7.67-7.2s-3.224-7.2-7.67-7.2-7.7,2.99-7.7,7.2S54.054.208,58.5.208Zm0-3.328a3.549,3.549,0,0,1-3.588-3.874A3.549,3.549,0,0,1,58.5-10.868a3.53,3.53,0,0,1,3.562,3.874A3.53,3.53,0,0,1,58.5-3.12ZM86.424-19.292v6.786a5.374,5.374,0,0,0-4.186-1.69,6.8,6.8,0,0,0-6.994,7.2,6.8,6.8,0,0,0,6.994,7.2,5.381,5.381,0,0,0,4.368-1.82V0H90.48V-19.292ZM82.94-3.12a3.549,3.549,0,0,1-3.588-3.874,3.549,3.549,0,0,1,3.588-3.874A3.544,3.544,0,0,1,86.5-6.994,3.544,3.544,0,0,1,82.94-3.12Zm24.986-3.822a6.925,6.925,0,0,0-7.28-7.254,7.121,7.121,0,0,0-7.462,7.2c0,4.16,3.146,7.2,7.982,7.2a7.326,7.326,0,0,0,5.772-2.262l-2.158-2.34a4.742,4.742,0,0,1-3.51,1.352c-2.132,0-3.614-1.066-4-2.808h10.582C107.874-6.188,107.926-6.63,107.926-6.942Zm-7.254-4.186A3.324,3.324,0,0,1,104.1-8.216h-6.89A3.312,3.312,0,0,1,100.672-11.128Zm27.3-2.86-4,9.516-3.874-9.516h-4.186L121.784,0h4.186l5.9-13.988Zm7.592-1.95a2.332,2.332,0,0,0,2.522-2.34,2.277,2.277,0,0,0-2.522-2.184,2.318,2.318,0,0,0-2.522,2.262A2.318,2.318,0,0,0,135.564-15.938ZM133.536,0h4.056V-13.988h-4.056Zm18.018-19.292v6.786a5.374,5.374,0,0,0-4.186-1.69,6.8,6.8,0,0,0-6.994,7.2,6.8,6.8,0,0,0,6.994,7.2,5.381,5.381,0,0,0,4.368-1.82V0h3.874V-19.292ZM148.07-3.12a3.549,3.549,0,0,1-3.588-3.874,3.549,3.549,0,0,1,3.588-3.874,3.544,3.544,0,0,1,3.562,3.874A3.544,3.544,0,0,1,148.07-3.12ZM165-14.2a10.753,10.753,0,0,0-6.032,1.69l1.456,2.834a6.726,6.726,0,0,1,4.03-1.3c2.184,0,3.224,1.014,3.224,2.756H164.45c-4.264,0-6.006,1.716-6.006,4.186,0,2.418,1.95,4.238,5.226,4.238,2.054,0,3.51-.676,4.264-1.95V0h3.8V-7.982C171.73-12.22,169.26-14.2,165-14.2Zm-.312,11.674c-1.43,0-2.288-.676-2.288-1.69,0-.936.6-1.638,2.5-1.638h2.782v1.43A2.989,2.989,0,0,1,164.684-2.522Zm28.262-16.77v6.786a5.374,5.374,0,0,0-4.186-1.69,6.8,6.8,0,0,0-6.994,7.2,6.8,6.8,0,0,0,6.994,7.2,5.381,5.381,0,0,0,4.368-1.82V0H197V-19.292ZM189.462-3.12a3.549,3.549,0,0,1-3.588-3.874,3.549,3.549,0,0,1,3.588-3.874,3.544,3.544,0,0,1,3.562,3.874A3.544,3.544,0,0,1,189.462-3.12Zm24.986-3.822a6.925,6.925,0,0,0-7.28-7.254,7.121,7.121,0,0,0-7.462,7.2c0,4.16,3.146,7.2,7.982,7.2a7.326,7.326,0,0,0,5.772-2.262L211.3-4.394a4.742,4.742,0,0,1-3.51,1.352c-2.132,0-3.614-1.066-4-2.808H214.37C214.4-6.188,214.448-6.63,214.448-6.942Zm-7.254-4.186a3.324,3.324,0,0,1,3.432,2.912h-6.89A3.312,3.312,0,0,1,207.194-11.128ZM217.152,0h4.056V-19.292h-4.056ZM240.6-14.2a5.435,5.435,0,0,0-4.394,1.82v-1.612h-3.874V5.044h4.056V-1.482A5.431,5.431,0,0,0,240.6.208a6.794,6.794,0,0,0,6.968-7.2A6.794,6.794,0,0,0,240.6-14.2ZM239.9-3.12a3.53,3.53,0,0,1-3.562-3.874,3.53,3.53,0,0,1,3.562-3.874,3.53,3.53,0,0,1,3.562,3.874A3.53,3.53,0,0,1,239.9-3.12Zm14.248-9.022v-1.846h-3.874V0h4.056V-6.6c0-2.678,1.482-3.9,3.718-3.9.312,0,.572.026.91.052V-14.2A5.645,5.645,0,0,0,254.15-12.142ZM267.9.208c4.446,0,7.67-2.99,7.67-7.2s-3.224-7.2-7.67-7.2-7.7,2.99-7.7,7.2S263.458.208,267.9.208Zm0-3.328a3.549,3.549,0,0,1-3.588-3.874,3.549,3.549,0,0,1,3.588-3.874,3.53,3.53,0,0,1,3.562,3.874A3.53,3.53,0,0,1,267.9-3.12Zm19.968-10.868L283.92-4.5l-3.926-9.49h-4.186L281.866.1l-.052.13c-.546,1.248-1.17,1.742-2.288,1.742a3.6,3.6,0,0,1-2.288-.884l-1.482,2.886a6.211,6.211,0,0,0,3.9,1.274c2.522,0,4.446-1.014,5.8-4.394l6.318-14.846Zm18.876,7.046a6.925,6.925,0,0,0-7.28-7.254,7.121,7.121,0,0,0-7.462,7.2c0,4.16,3.146,7.2,7.982,7.2a7.326,7.326,0,0,0,5.772-2.262L303.6-4.394a4.742,4.742,0,0,1-3.51,1.352c-2.132,0-3.614-1.066-4-2.808H306.67C306.7-6.188,306.748-6.63,306.748-6.942Zm-7.254-4.186a3.324,3.324,0,0,1,3.432,2.912h-6.89A3.312,3.312,0,0,1,299.494-11.128ZM316.212.208c2.938,0,5.252-1.3,6.266-3.536l-3.146-1.716a3.441,3.441,0,0,1-3.146,1.924,3.579,3.579,0,0,1-3.666-3.874,3.579,3.579,0,0,1,3.666-3.874,3.488,3.488,0,0,1,3.146,1.924l3.146-1.69c-1.014-2.288-3.328-3.562-6.266-3.562-4.55,0-7.8,2.99-7.8,7.2S311.662.208,316.212.208Zm16.744-3.744a2.734,2.734,0,0,1-1.638.52,1.631,1.631,0,0,1-1.742-1.846v-5.694h3.484v-3.12h-3.484v-3.406H325.52v3.406h-2.158v3.12h2.158V-4.81c0,3.328,1.924,5.018,5.226,5.018a5.8,5.8,0,0,0,3.3-.884ZM342.55.208c4.446,0,7.67-2.99,7.67-7.2s-3.224-7.2-7.67-7.2-7.7,2.99-7.7,7.2S338.1.208,342.55.208Zm0-3.328a3.549,3.549,0,0,1-3.588-3.874,3.549,3.549,0,0,1,3.588-3.874,3.53,3.53,0,0,1,3.562,3.874A3.53,3.53,0,0,1,342.55-3.12Z" transform="translate(712.161 2011.741)" fill="#333"/>
    <path id="Trazado_1997" data-name="Trazado 1997" d="M12.56-14,6.9-1.32,1.24-14H.12L6.36,0H7.38l6.24-14Zm3.38,1.02a.811.811,0,0,0,.82-.82.807.807,0,0,0-.82-.8.824.824,0,0,0-.82.82A.807.807,0,0,0,15.94-12.98ZM15.44,0h1V-10.44h-1ZM25.76-10.52a4.309,4.309,0,0,0-4.14,2.34v-2.26h-.96V0h1V-5.56a3.725,3.725,0,0,1,3.96-4.06c2.12,0,3.38,1.24,3.38,3.6V0h1V-6.1C30-9.02,28.3-10.52,25.76-10.52ZM38.28.08a4.629,4.629,0,0,0,3.96-1.92l-.74-.54A3.811,3.811,0,0,1,38.28-.82a4.144,4.144,0,0,1-4.26-4.4,4.144,4.144,0,0,1,4.26-4.4A3.811,3.811,0,0,1,41.5-8.06l.74-.54a4.58,4.58,0,0,0-3.96-1.92A5.089,5.089,0,0,0,33-5.22,5.1,5.1,0,0,0,38.28.08Zm15.1-10.52v5.56c0,2.48-1.46,4.06-3.82,4.06-2.18,0-3.44-1.24-3.44-3.6v-6.02h-1v6.1c0,2.92,1.7,4.42,4.36,4.42a4.114,4.114,0,0,0,3.94-2.32V0h.96V-10.44ZM58.62,0h1V-14.84h-1Zm8.74-10.52a6.368,6.368,0,0,0-4.18,1.48l.5.72a5.419,5.419,0,0,1,3.6-1.32c2.04,0,3.1,1.04,3.1,2.98v.84H66.8c-2.9,0-3.9,1.34-3.9,2.92,0,1.78,1.42,2.98,3.76,2.98a4.01,4.01,0,0,0,3.76-1.94V0h.96V-6.62C71.38-9.2,69.94-10.52,67.36-10.52ZM66.8-.74c-1.84,0-2.9-.84-2.9-2.2,0-1.2.76-2.1,2.92-2.1h3.56v1.96A3.578,3.578,0,0,1,66.8-.74Zm17-14.1v6.82a4.68,4.68,0,0,0-4.26-2.5,5.049,5.049,0,0,0-5.16,5.3A5.06,5.06,0,0,0,79.54.08a4.631,4.631,0,0,0,4.28-2.54V0h.98V-14.84ZM79.6-.82a4.142,4.142,0,0,1-4.2-4.4,4.142,4.142,0,0,1,4.2-4.4,4.142,4.142,0,0,1,4.2,4.4A4.142,4.142,0,0,1,79.6-.82Zm13.5.9a5.085,5.085,0,0,0,5.22-5.3,5.085,5.085,0,0,0-5.22-5.3,5.085,5.085,0,0,0-5.22,5.3A5.085,5.085,0,0,0,93.1.08Zm0-.9a4.142,4.142,0,0,1-4.2-4.4,4.142,4.142,0,0,1,4.2-4.4,4.142,4.142,0,0,1,4.2,4.4A4.142,4.142,0,0,1,93.1-.82Zm16.98-9.7a6.368,6.368,0,0,0-4.18,1.48l.5.72A5.419,5.419,0,0,1,110-9.64c2.04,0,3.1,1.04,3.1,2.98v.84h-3.58c-2.9,0-3.9,1.34-3.9,2.92,0,1.78,1.42,2.98,3.76,2.98a4.01,4.01,0,0,0,3.76-1.94V0h.96V-6.62C114.1-9.2,112.66-10.52,110.08-10.52Zm-.56,9.78c-1.84,0-2.9-.84-2.9-2.2,0-1.2.76-2.1,2.92-2.1h3.56v1.96A3.578,3.578,0,0,1,109.52-.74ZM126,.08c2.66,0,4.12-1.16,4.12-2.86,0-3.98-6.92-1.76-6.92-4.9,0-1.12.9-1.96,2.94-1.96a5.379,5.379,0,0,1,3.14.94l.46-.8a6.413,6.413,0,0,0-3.58-1.02c-2.64,0-3.96,1.28-3.96,2.86,0,4.1,6.92,1.86,6.92,4.9,0,1.18-.88,1.96-3.08,1.96a6.075,6.075,0,0,1-3.76-1.26l-.46.8A6.551,6.551,0,0,0,126,.08Zm7.42-13.06a.811.811,0,0,0,.82-.82.807.807,0,0,0-.82-.8.824.824,0,0,0-.82.82A.807.807,0,0,0,133.42-12.98ZM132.92,0h1V-10.44h-1Zm7.86.08c2.66,0,4.12-1.16,4.12-2.86,0-3.98-6.92-1.76-6.92-4.9,0-1.12.9-1.96,2.94-1.96a5.379,5.379,0,0,1,3.14.94l.46-.8a6.413,6.413,0,0,0-3.58-1.02c-2.64,0-3.96,1.28-3.96,2.86,0,4.1,6.92,1.86,6.92,4.9,0,1.18-.88,1.96-3.08,1.96a6.075,6.075,0,0,1-3.76-1.26l-.46.8A6.551,6.551,0,0,0,140.78.08Zm11.68-1.44a2.4,2.4,0,0,1-1.62.58c-1.28,0-1.94-.74-1.94-2.08V-9.58h3.32v-.86H148.9v-2.28h-1v2.28h-1.92v.86h1.92v6.82A2.589,2.589,0,0,0,150.74.08a3.168,3.168,0,0,0,2.14-.74Zm11.66-3.9a4.943,4.943,0,0,0-4.98-5.26,4.992,4.992,0,0,0-5,5.3,5.125,5.125,0,0,0,5.38,5.3,5,5,0,0,0,3.94-1.7l-.58-.66a4.21,4.21,0,0,1-3.34,1.46,4.206,4.206,0,0,1-4.42-4.16h8.98C164.1-5.08,164.12-5.18,164.12-5.26Zm-4.98-4.38a3.947,3.947,0,0,1,4,3.88h-8A3.946,3.946,0,0,1,159.14-9.64Zm21.08-.88A4.405,4.405,0,0,0,176-8a3.7,3.7,0,0,0-3.82-2.52,4.144,4.144,0,0,0-4,2.32v-2.24h-.96V0h1V-5.56c0-2.48,1.46-4.06,3.82-4.06,2.04,0,3.26,1.24,3.26,3.6V0h1V-5.56c0-2.48,1.46-4.06,3.82-4.06,2.04,0,3.26,1.24,3.26,3.6V0h1V-6.1C184.38-9.02,182.74-10.52,180.22-10.52Zm11.8,0a6.368,6.368,0,0,0-4.18,1.48l.5.72a5.419,5.419,0,0,1,3.6-1.32c2.04,0,3.1,1.04,3.1,2.98v.84h-3.58c-2.9,0-3.9,1.34-3.9,2.92,0,1.78,1.42,2.98,3.76,2.98a4.01,4.01,0,0,0,3.76-1.94V0h.96V-6.62C196.04-9.2,194.6-10.52,192.02-10.52Zm-.56,9.78c-1.84,0-2.9-.84-2.9-2.2,0-1.2.76-2.1,2.92-2.1h3.56v1.96A3.578,3.578,0,0,1,191.46-.74ZM202.8.08c2.66,0,4.12-1.16,4.12-2.86,0-3.98-6.92-1.76-6.92-4.9,0-1.12.9-1.96,2.94-1.96a5.379,5.379,0,0,1,3.14.94l.46-.8a6.413,6.413,0,0,0-3.58-1.02c-2.64,0-3.96,1.28-3.96,2.86,0,4.1,6.92,1.86,6.92,4.9,0,1.18-.88,1.96-3.08,1.96a6.075,6.075,0,0,1-3.76-1.26l-.46.8A6.551,6.551,0,0,0,202.8.08Z" transform="translate(712.161 2038.741)" fill="#333"/>
    <g id="Grupo_1374" data-name="Grupo 1374" transform="translate(6.161 1224.741)">
      <path id="Trazado_1999" data-name="Trazado 1999" d="M-112.915,0h3.74l-6.886-15.4h-3.52L-126.445,0h3.652l1.364-3.3h7.15Zm-7.37-6.006,2.442-5.9,2.442,5.9Zm23.32-9.394v9.35l-7.656-9.35h-2.948V0h3.52V-9.35L-96.371,0h2.926V-15.4Zm18.436-4.422h-3.7l-2.97,3.168h2.684ZM-78.287,0h3.74l-6.886-15.4h-3.52L-91.817,0h3.652L-86.8-3.3h7.15Zm-7.37-6.006,2.442-5.9,2.442,5.9ZM-72.941,0h11.286V-2.9h-7.722V-15.4h-3.564Zm13.288,0h3.564V-15.4h-3.564Zm12.276.264c4.4,0,6.534-2.2,6.534-4.774,0-5.654-8.954-3.7-8.954-6.534,0-.968.814-1.76,2.926-1.76a8.7,8.7,0,0,1,4.268,1.21l1.1-2.706a10.33,10.33,0,0,0-5.346-1.364c-4.378,0-6.49,2.178-6.49,4.8,0,5.72,8.954,3.74,8.954,6.622,0,.946-.858,1.65-2.97,1.65A9.058,9.058,0,0,1-52.437-4.2l-1.21,2.684A10.977,10.977,0,0,0-47.377.264ZM-38.4,0h3.564V-15.4H-38.4Zm12.276.264c4.4,0,6.534-2.2,6.534-4.774,0-5.654-8.954-3.7-8.954-6.534,0-.968.814-1.76,2.926-1.76a8.7,8.7,0,0,1,4.268,1.21l1.1-2.706A10.33,10.33,0,0,0-25.6-15.664c-4.378,0-6.49,2.178-6.49,4.8,0,5.72,8.954,3.74,8.954,6.622,0,.946-.858,1.65-2.97,1.65A9.058,9.058,0,0,1-31.185-4.2l-1.21,2.684A10.977,10.977,0,0,0-26.125.264ZM.715-12.54V-15.4H-10.923V0h3.564V-5.61H-.231V-8.47H-7.359v-4.07ZM9.977.264c4.378,0,6.974-2.508,6.974-7.04V-15.4h-3.52v8.492c0,2.926-1.254,4.136-3.432,4.136-2.156,0-3.432-1.21-3.432-4.136V-15.4H3v8.624C3-2.244,5.6.264,9.977.264ZM31.075-15.4v9.35L23.419-15.4H20.471V0h3.52V-9.35L31.669,0H34.6V-15.4ZM45.617.264a7.913,7.913,0,0,0,6.358-2.75L49.687-4.6a4.908,4.908,0,0,1-3.872,1.826A4.724,4.724,0,0,1,40.887-7.7a4.724,4.724,0,0,1,4.928-4.928,4.955,4.955,0,0,1,3.872,1.8l2.288-2.112a7.95,7.95,0,0,0-6.336-2.728c-4.8,0-8.36,3.322-8.36,7.964S40.843.264,45.617.264ZM54.373,0h3.564V-15.4H54.373ZM69.047.264c4.84,0,8.426-3.366,8.426-7.964s-3.586-7.964-8.426-7.964c-4.862,0-8.426,3.388-8.426,7.964S64.185.264,69.047.264Zm0-3.036A4.7,4.7,0,0,1,64.229-7.7a4.7,4.7,0,0,1,4.818-4.928A4.7,4.7,0,0,1,73.865-7.7,4.7,4.7,0,0,1,69.047-2.772ZM90.761-15.4v9.35L83.105-15.4H80.157V0h3.52V-9.35L91.355,0h2.926V-15.4ZM109.439,0h3.74l-6.886-15.4h-3.52L95.909,0h3.652l1.364-3.3h7.15Zm-7.37-6.006,2.442-5.9,2.442,5.9ZM114.785,0h11.286V-2.9h-7.722V-15.4h-3.564Z" transform="translate(839 881)" fill="#039be5"/>
      <path id="Trazado_2006" data-name="Trazado 2006" d="M-95.315,0h3.74l-6.886-15.4h-3.52L-108.845,0h3.652l1.364-3.3h7.15Zm-7.37-6.006,2.442-5.9,2.442,5.9Zm23.32-9.394v9.35l-7.656-9.35h-2.948V0h3.52V-9.35L-78.771,0h2.926V-15.4Zm18.436-4.422h-3.7l-2.97,3.168h2.684ZM-60.687,0h3.74l-6.886-15.4h-3.52L-74.217,0h3.652L-69.2-3.3h7.15Zm-7.37-6.006,2.442-5.9,2.442,5.9ZM-55.341,0h11.286V-2.9h-7.722V-15.4h-3.564Zm13.288,0h3.564V-15.4h-3.564Zm12.276.264c4.4,0,6.534-2.2,6.534-4.774,0-5.654-8.954-3.7-8.954-6.534,0-.968.814-1.76,2.926-1.76A8.7,8.7,0,0,1-25-11.594l1.1-2.706a10.33,10.33,0,0,0-5.346-1.364c-4.378,0-6.49,2.178-6.49,4.8,0,5.72,8.954,3.74,8.954,6.622,0,.946-.858,1.65-2.97,1.65A9.058,9.058,0,0,1-34.837-4.2l-1.21,2.684A10.977,10.977,0,0,0-29.777.264ZM-20.8,0h3.564V-15.4H-20.8ZM-8.525.264c4.4,0,6.534-2.2,6.534-4.774,0-5.654-8.954-3.7-8.954-6.534,0-.968.814-1.76,2.926-1.76a8.7,8.7,0,0,1,4.268,1.21l1.1-2.706A10.33,10.33,0,0,0-8-15.664c-4.378,0-6.49,2.178-6.49,4.8,0,5.72,8.954,3.74,8.954,6.622,0,.946-.858,1.65-2.97,1.65A9.058,9.058,0,0,1-13.585-4.2L-14.8-1.518A10.977,10.977,0,0,0-8.525.264ZM9.867,0h3.564V-12.5h4.928v-2.9H4.939v2.9H9.867Zm20.9-19.822h-3.7L24.1-16.654h2.684ZM23.815-2.86V-6.424h7.15V-9.2h-7.15V-12.54h8.1V-15.4H20.273V0H32.2V-2.86ZM42.361.264a7.913,7.913,0,0,0,6.358-2.75L46.431-4.6a4.908,4.908,0,0,1-3.872,1.826A4.724,4.724,0,0,1,37.631-7.7a4.724,4.724,0,0,1,4.928-4.928,4.955,4.955,0,0,1,3.872,1.8l2.288-2.112a7.95,7.95,0,0,0-6.336-2.728c-4.8,0-8.36,3.322-8.36,7.964S37.587.264,42.361.264ZM61.721-15.4v9.35L54.065-15.4H51.117V0h3.52V-9.35L62.315,0h2.926V-15.4ZM68.893,0h3.564V-15.4H68.893ZM83.479.264a7.913,7.913,0,0,0,6.358-2.75L87.549-4.6a4.908,4.908,0,0,1-3.872,1.826A4.724,4.724,0,0,1,78.749-7.7a4.724,4.724,0,0,1,4.928-4.928,4.955,4.955,0,0,1,3.872,1.8l2.288-2.112A7.95,7.95,0,0,0,83.5-15.664c-4.8,0-8.36,3.322-8.36,7.964S78.705.264,83.479.264Zm15.884,0c4.84,0,8.426-3.366,8.426-7.964s-3.586-7.964-8.426-7.964c-4.862,0-8.426,3.388-8.426,7.964S94.5.264,99.363.264Zm0-3.036A4.7,4.7,0,0,1,94.545-7.7a4.7,4.7,0,0,1,4.818-4.928A4.7,4.7,0,0,1,104.181-7.7,4.7,4.7,0,0,1,99.363-2.772Z" transform="translate(1024 1038)" fill="#039be5"/>
      <path id="Trazado_2005" data-name="Trazado 2005" d="M-67.65,0h3.564V-12.5h4.928v-2.9h-13.42v2.9h4.928ZM-43.6,0l-3.454-4.95A5.007,5.007,0,0,0-43.89-9.812c0-3.454-2.574-5.588-6.688-5.588h-6.666V0h3.564V-4.29H-50.4L-47.432,0ZM-47.5-9.812c0,1.672-1.1,2.684-3.278,2.684h-2.9V-12.5h2.9C-48.6-12.5-47.5-11.506-47.5-9.812ZM-29.568,0h3.74l-6.886-15.4h-3.52L-43.1,0h3.652l1.364-3.3h7.15Zm-7.37-6.006,2.442-5.9,2.442,5.9Zm23.32-9.394v9.35l-7.656-9.35h-2.948V0h3.52V-9.35L-13.024,0H-10.1V-15.4ZM-1.386.264c4.4,0,6.534-2.2,6.534-4.774,0-5.654-8.954-3.7-8.954-6.534,0-.968.814-1.76,2.926-1.76a8.7,8.7,0,0,1,4.268,1.21l1.1-2.706A10.33,10.33,0,0,0-.858-15.664c-4.378,0-6.49,2.178-6.49,4.8,0,5.72,8.954,3.74,8.954,6.622,0,.946-.858,1.65-2.97,1.65A9.058,9.058,0,0,1-6.446-4.2l-1.21,2.684A10.977,10.977,0,0,0-1.386.264ZM7.59,0h3.564V-15.4H7.59ZM22.176.264a7.913,7.913,0,0,0,6.358-2.75L26.246-4.6a4.908,4.908,0,0,1-3.872,1.826A4.724,4.724,0,0,1,17.446-7.7a4.724,4.724,0,0,1,4.928-4.928,4.955,4.955,0,0,1,3.872,1.8l2.288-2.112A7.95,7.95,0,0,0,22.2-15.664c-4.8,0-8.36,3.322-8.36,7.964S17.4.264,22.176.264ZM30.932,0H34.5V-15.4H30.932ZM43.6-16.654h2.684l3.982-3.168h-3.7Zm2,16.918c4.84,0,8.426-3.366,8.426-7.964s-3.586-7.964-8.426-7.964c-4.862,0-8.426,3.388-8.426,7.964S40.744.264,45.606.264Zm0-3.036A4.7,4.7,0,0,1,40.788-7.7a4.7,4.7,0,0,1,4.818-4.928A4.7,4.7,0,0,1,50.424-7.7,4.7,4.7,0,0,1,45.606-2.772ZM67.32-15.4v9.35L59.664-15.4H56.716V0h3.52V-9.35L67.914,0H70.84V-15.4Z" transform="translate(1385 1038)" fill="#039be5"/>
      <path id="Trazado_2000" data-name="Trazado 2000" d="M-119.526,0h7c5.038,0,8.492-3.036,8.492-7.7s-3.454-7.7-8.492-7.7h-7Zm3.564-2.926v-9.548h3.256c3.058,0,5.06,1.826,5.06,4.774s-2,4.774-5.06,4.774Zm18.15.066V-6.424h7.15V-9.2h-7.15V-12.54h8.1V-15.4h-11.638V0H-89.43V-2.86ZM-81.532.264c4.4,0,6.534-2.2,6.534-4.774,0-5.654-8.954-3.7-8.954-6.534,0-.968.814-1.76,2.926-1.76a8.7,8.7,0,0,1,4.268,1.21l1.1-2.706A10.33,10.33,0,0,0-81-15.664c-4.378,0-6.49,2.178-6.49,4.8,0,5.72,8.954,3.74,8.954,6.622,0,.946-.858,1.65-2.97,1.65A9.058,9.058,0,0,1-86.592-4.2L-87.8-1.518A10.977,10.977,0,0,0-81.532.264ZM-61.05,0h3.74L-64.2-15.4h-3.52L-74.58,0h3.652l1.364-3.3h7.15Zm-7.37-6.006,2.442-5.9,2.442,5.9ZM-42.064,0l-3.454-4.95A5.007,5.007,0,0,0-42.35-9.812c0-3.454-2.574-5.588-6.688-5.588H-55.7V0h3.564V-4.29h3.278L-45.892,0Zm-3.894-9.812c0,1.672-1.1,2.684-3.278,2.684h-2.9V-12.5h2.9C-47.058-12.5-45.958-11.506-45.958-9.812ZM-25.894,0l-3.454-4.95A5.007,5.007,0,0,0-26.18-9.812c0-3.454-2.574-5.588-6.688-5.588h-6.666V0h3.564V-4.29h3.278L-29.722,0Zm-3.894-9.812c0,1.672-1.1,2.684-3.278,2.684h-2.9V-12.5h2.9C-30.888-12.5-29.788-11.506-29.788-9.812ZM-15.906.264C-11.066.264-7.48-3.1-7.48-7.7s-3.586-7.964-8.426-7.964c-4.862,0-8.426,3.388-8.426,7.964S-20.768.264-15.906.264Zm0-3.036A4.7,4.7,0,0,1-20.724-7.7a4.7,4.7,0,0,1,4.818-4.928A4.7,4.7,0,0,1-11.088-7.7,4.7,4.7,0,0,1-15.906-2.772ZM-4.8,0H6.49V-2.9H-1.232V-15.4H-4.8ZM8.492,0H19.778V-2.9H12.056V-15.4H8.492ZM28.974.264C33.814.264,37.4-3.1,37.4-7.7s-3.586-7.964-8.426-7.964c-4.862,0-8.426,3.388-8.426,7.964S24.112.264,28.974.264Zm0-3.036A4.7,4.7,0,0,1,24.156-7.7a4.7,4.7,0,0,1,4.818-4.928A4.7,4.7,0,0,1,33.792-7.7,4.7,4.7,0,0,1,28.974-2.772ZM59.686-15.4h-3.5L52.074-8.558,47.96-15.4H44.176l5.962,9.9V0H53.7V-5.456ZM70.6,0h3.564V-12.5H79.09v-2.9H65.67v2.9H70.6ZM84.546-2.86V-6.424H91.7V-9.2h-7.15V-12.54h8.1V-15.4H81V0H92.928V-2.86ZM100.826.264c4.4,0,6.534-2.2,6.534-4.774,0-5.654-8.954-3.7-8.954-6.534,0-.968.814-1.76,2.926-1.76a8.7,8.7,0,0,1,4.268,1.21l1.1-2.706a10.33,10.33,0,0,0-5.346-1.364c-4.378,0-6.49,2.178-6.49,4.8,0,5.72,8.954,3.74,8.954,6.622,0,.946-.858,1.65-2.97,1.65A9.058,9.058,0,0,1,95.766-4.2l-1.21,2.684A10.977,10.977,0,0,0,100.826.264ZM112.772,0h3.564V-12.5h4.928v-2.9h-13.42v2.9h4.928Z" transform="translate(1202 881)" fill="#039be5"/>
      <path id="Trazado_2003" data-name="Trazado 2003" d="M-91.575-2.86V-6.424h7.15V-9.2h-7.15V-12.54h8.1V-15.4H-95.117V0h11.924V-2.86ZM-75.3.264c4.4,0,6.534-2.2,6.534-4.774,0-5.654-8.954-3.7-8.954-6.534,0-.968.814-1.76,2.926-1.76a8.7,8.7,0,0,1,4.268,1.21l1.1-2.706a10.33,10.33,0,0,0-5.346-1.364c-4.378,0-6.49,2.178-6.49,4.8,0,5.72,8.954,3.74,8.954,6.622,0,.946-.858,1.65-2.97,1.65A9.058,9.058,0,0,1-80.355-4.2l-1.21,2.684A10.977,10.977,0,0,0-75.3.264ZM-63.349,0h3.564V-12.5h4.928v-2.9h-13.42v2.9h4.928Zm21.142,0h3.74l-6.886-15.4h-3.52L-55.737,0h3.652l1.364-3.3h7.15Zm-7.37-6.006,2.442-5.9,2.442,5.9Zm24.024-2A3.7,3.7,0,0,0-23.507-11.4c0-2.4-1.98-4-5.83-4h-7.524V0H-28.9c4.048,0,6.16-1.54,6.16-4.2A3.8,3.8,0,0,0-25.553-8.008Zm-4.224-4.708c1.738,0,2.684.594,2.684,1.8s-.946,1.826-2.684,1.826h-3.542v-3.63Zm.616,10.032h-4.158V-6.49h4.158c1.848,0,2.838.616,2.838,1.914C-26.323-3.256-27.313-2.684-29.161-2.684ZM-20.031,0h3.564V-15.4h-3.564Zm7.216,0H-1.529V-2.9H-9.251V-15.4h-3.564ZM.473,0H4.037V-15.4H.473ZM11.407-2.9,19.833-13.09V-15.4H6.875v2.9h8.272L6.7-2.31V0H20.163V-2.9ZM33.957,0H37.7L30.811-15.4h-3.52L20.427,0h3.652l1.364-3.3h7.15Zm-7.37-6.006,2.442-5.9,2.442,5.9ZM46.453.264a7.913,7.913,0,0,0,6.358-2.75L50.523-4.6a4.908,4.908,0,0,1-3.872,1.826A4.724,4.724,0,0,1,41.723-7.7a4.724,4.724,0,0,1,4.928-4.928,4.955,4.955,0,0,1,3.872,1.8l2.288-2.112a7.95,7.95,0,0,0-6.336-2.728c-4.8,0-8.36,3.322-8.36,7.964S41.679.264,46.453.264ZM55.209,0h3.564V-15.4H55.209ZM67.881-16.654h2.684l3.982-3.168h-3.7Zm2,16.918c4.84,0,8.426-3.366,8.426-7.964s-3.586-7.964-8.426-7.964c-4.862,0-8.426,3.388-8.426,7.964S65.021.264,69.883.264Zm0-3.036A4.7,4.7,0,0,1,65.065-7.7a4.7,4.7,0,0,1,4.818-4.928A4.7,4.7,0,0,1,74.7-7.7,4.7,4.7,0,0,1,69.883-2.772ZM91.6-15.4v9.35L83.941-15.4H80.993V0h3.52V-9.35L92.191,0h2.926V-15.4Z" transform="translate(1571 881)" fill="#039be5"/>
      <path id="Trazado_1998" data-name="Trazado 1998" d="M-126.412.085a5.686,5.686,0,0,0,4.233-1.666l-.544-.561a5,5,0,0,1-3.655,1.428,5.168,5.168,0,0,1-5.338-5.236,5.168,5.168,0,0,1,5.338-5.236,4.981,4.981,0,0,1,3.655,1.411l.544-.561a5.673,5.673,0,0,0-4.233-1.649,5.943,5.943,0,0,0-6.171,6.035A5.943,5.943,0,0,0-126.412.085Zm9.707-9.027a5.413,5.413,0,0,0-3.553,1.258l.425.612a4.606,4.606,0,0,1,3.06-1.122,2.311,2.311,0,0,1,2.635,2.533v.714h-3.043c-2.465,0-3.315,1.139-3.315,2.482,0,1.513,1.207,2.533,3.2,2.533a3.409,3.409,0,0,0,3.2-1.649V0h.816V-5.627C-113.288-7.82-114.512-8.942-116.705-8.942Zm-.476,8.313c-1.564,0-2.465-.714-2.465-1.87,0-1.02.646-1.785,2.482-1.785h3.026v1.666A3.042,3.042,0,0,1-117.181-.629Zm9.639.7c2.261,0,3.5-.986,3.5-2.431,0-3.383-5.882-1.5-5.882-4.165,0-.952.765-1.666,2.5-1.666a4.572,4.572,0,0,1,2.669.8l.391-.68a5.451,5.451,0,0,0-3.043-.867c-2.244,0-3.366,1.088-3.366,2.431,0,3.485,5.882,1.581,5.882,4.165,0,1-.748,1.666-2.618,1.666a5.164,5.164,0,0,1-3.2-1.071l-.391.68A5.568,5.568,0,0,0-107.542.068Zm9.35,0a4.323,4.323,0,0,0,4.437-4.505,4.323,4.323,0,0,0-4.437-4.505,4.323,4.323,0,0,0-4.437,4.505A4.323,4.323,0,0,0-98.192.068Zm0-.765a3.52,3.52,0,0,1-3.57-3.74,3.52,3.52,0,0,1,3.57-3.74,3.52,3.52,0,0,1,3.57,3.74A3.52,3.52,0,0,1-98.192-.7Zm9.316.765c2.261,0,3.5-.986,3.5-2.431,0-3.383-5.882-1.5-5.882-4.165,0-.952.765-1.666,2.5-1.666a4.572,4.572,0,0,1,2.669.8l.391-.68a5.451,5.451,0,0,0-3.043-.867c-2.244,0-3.366,1.088-3.366,2.431,0,3.485,5.882,1.581,5.882,4.165,0,1-.748,1.666-2.618,1.666a5.164,5.164,0,0,1-3.2-1.071l-.391.68A5.568,5.568,0,0,0-88.876.068Zm17.289-12.682v5.8a3.978,3.978,0,0,0-3.621-2.125,4.292,4.292,0,0,0-4.386,4.505A4.3,4.3,0,0,0-75.208.068,3.936,3.936,0,0,0-71.57-2.091V0h.833V-12.614ZM-75.157-.7a3.52,3.52,0,0,1-3.57-3.74,3.52,3.52,0,0,1,3.57-3.74,3.52,3.52,0,0,1,3.57,3.74A3.52,3.52,0,0,1-75.157-.7Zm15.521-3.774a4.2,4.2,0,0,0-4.233-4.471,4.243,4.243,0,0,0-4.25,4.505A4.356,4.356,0,0,0-63.546.068,4.247,4.247,0,0,0-60.2-1.377l-.493-.561A3.579,3.579,0,0,1-63.529-.7a3.575,3.575,0,0,1-3.757-3.536h7.633C-59.653-4.318-59.636-4.4-59.636-4.471Zm-4.233-3.723a3.355,3.355,0,0,1,3.4,3.3h-6.8A3.354,3.354,0,0,1-63.869-8.194ZM-47.7.085c2.958,0,4.777-1.734,4.777-5.134V-11.9h-.867v6.817c0,2.975-1.411,4.369-3.893,4.369S-51.6-2.108-51.6-5.083V-11.9h-.867v6.851C-52.462-1.649-50.66.085-47.7.085Zm10.8-.017c2.261,0,3.5-.986,3.5-2.431,0-3.383-5.882-1.5-5.882-4.165,0-.952.765-1.666,2.5-1.666a4.572,4.572,0,0,1,2.669.8l.391-.68a5.451,5.451,0,0,0-3.043-.867c-2.244,0-3.366,1.088-3.366,2.431,0,3.485,5.882,1.581,5.882,4.165,0,1-.748,1.666-2.618,1.666a5.164,5.164,0,0,1-3.2-1.071l-.391.68A5.568,5.568,0,0,0-36.907.068Zm9.35,0A4.323,4.323,0,0,0-23.12-4.437a4.323,4.323,0,0,0-4.437-4.505,4.323,4.323,0,0,0-4.437,4.505A4.323,4.323,0,0,0-27.557.068Zm0-.765a3.52,3.52,0,0,1-3.57-3.74,3.52,3.52,0,0,1,3.57-3.74,3.52,3.52,0,0,1,3.57,3.74A3.52,3.52,0,0,1-27.557-.7Zm6.681-.68a.7.7,0,0,0-.714.714.694.694,0,0,0,.561.7l-.561,2.4h.612l.663-2.312a2.611,2.611,0,0,0,.153-.782A.707.707,0,0,0-20.876-1.377ZM-8.075.085C-5.117.085-3.3-1.649-3.3-5.049V-11.9h-.867v6.817c0,2.975-1.411,4.369-3.893,4.369s-3.91-1.394-3.91-4.369V-11.9h-.867v6.851C-12.835-1.649-11.033.085-8.075.085ZM9.061,0,4.488-6.154,8.738-11.9H7.769L3.978-6.783.187-11.9H-.833l4.25,5.763L-1.156,0h1.02l4.08-5.508L8.041,0Zm2.057-1.377a.7.7,0,0,0-.714.714.694.694,0,0,0,.561.7l-.561,2.4h.612L11.679.119a2.611,2.611,0,0,0,.153-.782A.707.707,0,0,0,11.118-1.377ZM24.293.085a5.686,5.686,0,0,0,4.233-1.666l-.544-.561A5,5,0,0,1,24.327-.714,5.168,5.168,0,0,1,18.989-5.95a5.168,5.168,0,0,1,5.338-5.236,4.981,4.981,0,0,1,3.655,1.411l.544-.561a5.673,5.673,0,0,0-4.233-1.649A5.943,5.943,0,0,0,18.122-5.95,5.943,5.943,0,0,0,24.293.085ZM34-8.942a5.413,5.413,0,0,0-3.553,1.258l.425.612a4.606,4.606,0,0,1,3.06-1.122,2.311,2.311,0,0,1,2.635,2.533v.714H33.524c-2.465,0-3.315,1.139-3.315,2.482,0,1.513,1.207,2.533,3.2,2.533a3.409,3.409,0,0,0,3.2-1.649V0h.816V-5.627C37.417-7.82,36.193-8.942,34-8.942ZM33.524-.629c-1.564,0-2.465-.714-2.465-1.87,0-1.02.646-1.785,2.482-1.785h3.026v1.666A3.042,3.042,0,0,1,33.524-.629Zm9.639.7c2.261,0,3.5-.986,3.5-2.431,0-3.383-5.882-1.5-5.882-4.165,0-.952.765-1.666,2.5-1.666a4.572,4.572,0,0,1,2.669.8l.391-.68A5.451,5.451,0,0,0,43.3-8.942c-2.244,0-3.366,1.088-3.366,2.431,0,3.485,5.882,1.581,5.882,4.165,0,1-.748,1.666-2.618,1.666A5.164,5.164,0,0,1,40-1.751l-.391.68A5.568,5.568,0,0,0,43.163.068Zm9.35,0A4.323,4.323,0,0,0,56.95-4.437a4.323,4.323,0,0,0-4.437-4.505,4.323,4.323,0,0,0-4.437,4.505A4.323,4.323,0,0,0,52.513.068Zm0-.765a3.52,3.52,0,0,1-3.57-3.74,3.52,3.52,0,0,1,3.57-3.74,3.52,3.52,0,0,1,3.57,3.74A3.52,3.52,0,0,1,52.513-.7Zm9.316.765c2.261,0,3.5-.986,3.5-2.431,0-3.383-5.882-1.5-5.882-4.165,0-.952.765-1.666,2.5-1.666a4.572,4.572,0,0,1,2.669.8l.391-.68a5.451,5.451,0,0,0-3.043-.867c-2.244,0-3.366,1.088-3.366,2.431,0,3.485,5.882,1.581,5.882,4.165,0,1-.748,1.666-2.618,1.666a5.164,5.164,0,0,1-3.2-1.071l-.391.68A5.568,5.568,0,0,0,61.829.068ZM79.118-12.614v5.8A3.978,3.978,0,0,0,75.5-8.942a4.292,4.292,0,0,0-4.386,4.505A4.3,4.3,0,0,0,75.5.068a3.936,3.936,0,0,0,3.638-2.159V0h.833V-12.614ZM75.548-.7a3.52,3.52,0,0,1-3.57-3.74,3.52,3.52,0,0,1,3.57-3.74,3.52,3.52,0,0,1,3.57,3.74A3.52,3.52,0,0,1,75.548-.7ZM91.069-4.471a4.2,4.2,0,0,0-4.233-4.471,4.243,4.243,0,0,0-4.25,4.505A4.356,4.356,0,0,0,87.159.068a4.248,4.248,0,0,0,3.349-1.445l-.493-.561A3.579,3.579,0,0,1,87.176-.7a3.575,3.575,0,0,1-3.757-3.536h7.633C91.052-4.318,91.069-4.4,91.069-4.471ZM86.836-8.194a3.355,3.355,0,0,1,3.4,3.3h-6.8A3.354,3.354,0,0,1,86.836-8.194ZM100.623,0h.867V-11.118h4.284V-11.9H96.339v.782h4.284Zm13.6-4.471a4.2,4.2,0,0,0-4.233-4.471,4.243,4.243,0,0,0-4.25,4.505A4.356,4.356,0,0,0,110.313.068a4.248,4.248,0,0,0,3.349-1.445l-.493-.561A3.579,3.579,0,0,1,110.33-.7a3.575,3.575,0,0,1-3.757-3.536h7.633C114.206-4.318,114.223-4.4,114.223-4.471ZM109.99-8.194a3.355,3.355,0,0,1,3.4,3.3h-6.8A3.354,3.354,0,0,1,109.99-8.194ZM119.1.068c2.261,0,3.5-.986,3.5-2.431,0-3.383-5.882-1.5-5.882-4.165,0-.952.765-1.666,2.5-1.666a4.572,4.572,0,0,1,2.669.8l.391-.68a5.451,5.451,0,0,0-3.043-.867c-2.244,0-3.366,1.088-3.366,2.431,0,3.485,5.882,1.581,5.882,4.165,0,1-.748,1.666-2.618,1.666a5.164,5.164,0,0,1-3.2-1.071l-.391.68A5.568,5.568,0,0,0,119.1.068Zm9.928-1.224a2.04,2.04,0,0,1-1.377.493c-1.088,0-1.649-.629-1.649-1.768V-8.143h2.822v-.731H126v-1.938h-.85v1.938h-1.632v.731h1.632v5.8A2.2,2.2,0,0,0,127.568.068a2.693,2.693,0,0,0,1.819-.629Zm2.788-.221a.7.7,0,0,0-.714.714.694.694,0,0,0,.561.7l-.561,2.4h.612l.663-2.312a2.611,2.611,0,0,0,.153-.782A.707.707,0,0,0,131.818-1.377ZM-74,28h.935L-78.54,16.1h-.867L-84.881,28h.935l1.513-3.349h6.9Zm-8.092-4.08,3.111-6.868,3.128,6.868Zm11.73-2.856V19.126h-.816V28h.85V23.376c0-2.193,1.173-3.5,3.145-3.5.068,0,.136.017.2.017v-.833A3.37,3.37,0,0,0-70.363,21.064Zm12.7-1.938v2.091A3.936,3.936,0,0,0-61.3,19.058a4.3,4.3,0,0,0-4.386,4.505A4.292,4.292,0,0,0-61.3,28.068a3.978,3.978,0,0,0,3.621-2.125V31.3h.85V19.126ZM-61.251,27.3a3.52,3.52,0,0,1-3.57-3.74,3.52,3.52,0,0,1,3.57-3.74,3.52,3.52,0,0,1,3.57,3.74A3.52,3.52,0,0,1-61.251,27.3Zm14.926-8.177v4.726A3.12,3.12,0,0,1-49.572,27.3c-1.853,0-2.924-1.054-2.924-3.06V19.126h-.85v5.185a3.4,3.4,0,0,0,3.706,3.757A3.5,3.5,0,0,0-46.291,26.1V28h.816V19.126Zm4.879-2.159a.689.689,0,0,0,.7-.7.686.686,0,0,0-.7-.68.7.7,0,0,0-.7.7A.686.686,0,0,0-41.446,16.967ZM-41.871,28h.85V19.126h-.85Zm8.483-1.156a2.04,2.04,0,0,1-1.377.493c-1.088,0-1.649-.629-1.649-1.768V19.857h2.822v-.731h-2.822V17.188h-.85v1.938H-38.9v.731h1.632v5.8a2.2,2.2,0,0,0,2.414,2.414,2.693,2.693,0,0,0,1.819-.629Zm9.911-3.315a4.2,4.2,0,0,0-4.233-4.471,4.243,4.243,0,0,0-4.25,4.505,4.356,4.356,0,0,0,4.573,4.505,4.247,4.247,0,0,0,3.349-1.445l-.493-.561A3.579,3.579,0,0,1-27.37,27.3a3.575,3.575,0,0,1-3.757-3.536h7.633C-23.494,23.682-23.477,23.6-23.477,23.529Zm-4.233-3.723a3.355,3.355,0,0,1,3.4,3.3h-6.8A3.354,3.354,0,0,1-27.71,19.806Zm10.387,8.262a3.934,3.934,0,0,0,3.366-1.632l-.629-.459A3.239,3.239,0,0,1-17.323,27.3a3.522,3.522,0,0,1-3.621-3.74,3.522,3.522,0,0,1,3.621-3.74,3.239,3.239,0,0,1,2.737,1.326l.629-.459a3.893,3.893,0,0,0-3.366-1.632,4.325,4.325,0,0,0-4.488,4.505A4.335,4.335,0,0,0-17.323,28.068Zm10.064-1.224a2.04,2.04,0,0,1-1.377.493c-1.088,0-1.649-.629-1.649-1.768V19.857h2.822v-.731h-2.822V17.188h-.85v1.938h-1.632v.731h1.632v5.8a2.2,2.2,0,0,0,2.414,2.414A2.693,2.693,0,0,0-6.9,27.439ZM2.38,19.126v4.726A3.12,3.12,0,0,1-.867,27.3c-1.853,0-2.924-1.054-2.924-3.06V19.126h-.85v5.185A3.4,3.4,0,0,0-.935,28.068,3.5,3.5,0,0,0,2.414,26.1V28H3.23V19.126Zm5.27,1.938V19.126H6.834V28h.85V23.376c0-2.193,1.173-3.5,3.145-3.5.068,0,.136.017.2.017v-.833A3.37,3.37,0,0,0,7.65,21.064Zm8.721-2.006a5.413,5.413,0,0,0-3.553,1.258l.425.612a4.606,4.606,0,0,1,3.06-1.122,2.311,2.311,0,0,1,2.635,2.533v.714H15.9c-2.465,0-3.315,1.139-3.315,2.482,0,1.513,1.207,2.533,3.2,2.533a3.409,3.409,0,0,0,3.2-1.649V28h.816V22.373C19.788,20.18,18.564,19.058,16.371,19.058ZM15.9,27.371c-1.564,0-2.465-.714-2.465-1.87,0-1.02.646-1.785,2.482-1.785h3.026v1.666A3.042,3.042,0,0,1,15.9,27.371ZM27.931,28h7.718v-.782H28.8V16.1h-.867ZM39.95,17.681h.918l2.669-2.006H42.313Zm.969,10.387a4.323,4.323,0,0,0,4.437-4.505,4.438,4.438,0,1,0-8.874,0A4.323,4.323,0,0,0,40.919,28.068Zm0-.765a3.52,3.52,0,0,1-3.57-3.74,3.574,3.574,0,1,1,7.14,0A3.52,3.52,0,0,1,40.919,27.3Zm14.246-8.177v2.006a4.07,4.07,0,0,0-3.723-2.074,4.311,4.311,0,1,0,0,8.619,4.1,4.1,0,0,0,3.689-2.023v1.5c0,2.363-1.1,3.451-3.468,3.451a5.258,5.258,0,0,1-3.587-1.292l-.459.646a5.862,5.862,0,0,0,4.063,1.411c2.856,0,4.3-1.343,4.3-4.318V19.126ZM51.51,26.912a3.546,3.546,0,1,1,3.638-3.553A3.455,3.455,0,0,1,51.51,26.912Zm8.5-9.945a.689.689,0,1,0,0-1.377.7.7,0,0,0-.7.7A.686.686,0,0,0,60.01,16.967ZM59.585,28h.85V19.126h-.85Zm7.956.068a3.934,3.934,0,0,0,3.366-1.632l-.629-.459A3.239,3.239,0,0,1,67.541,27.3a3.522,3.522,0,0,1-3.621-3.74,3.522,3.522,0,0,1,3.621-3.74,3.239,3.239,0,0,1,2.737,1.326l.629-.459a3.893,3.893,0,0,0-3.366-1.632,4.325,4.325,0,0,0-4.488,4.505A4.335,4.335,0,0,0,67.541,28.068Zm8.908-9.01A5.413,5.413,0,0,0,72.9,20.316l.425.612a4.606,4.606,0,0,1,3.06-1.122,2.311,2.311,0,0,1,2.635,2.533v.714H75.973c-2.465,0-3.315,1.139-3.315,2.482,0,1.513,1.207,2.533,3.2,2.533a3.408,3.408,0,0,0,3.2-1.649V28h.816V22.373C79.866,20.18,78.642,19.058,76.449,19.058Zm-.476,8.313c-1.564,0-2.465-.714-2.465-1.87,0-1.02.646-1.785,2.482-1.785h3.026v1.666A3.042,3.042,0,0,1,75.973,27.371Zm7.293.7a.722.722,0,0,0,.714-.731.714.714,0,1,0-1.428,0A.722.722,0,0,0,83.266,28.068Z" transform="translate(839 912)" fill="#333"/>
      <path id="Trazado_2007" data-name="Trazado 2007" d="M-101.2,0h4.709c3.774,0,6.324-2.482,6.324-5.95s-2.55-5.95-6.324-5.95H-101.2Zm.867-.782V-11.118h3.774c3.366,0,5.525,2.142,5.525,5.168S-93.194-.782-96.56-.782Zm14.042,0V-5.661h6.341v-.765h-6.341v-4.692H-79.2V-11.9h-7.956V0h8.211V-.782ZM-66.538,0l-2.975-4.165a3.651,3.651,0,0,0,2.788-3.723c0-2.516-1.8-4.012-4.794-4.012h-4.267V0h.867V-3.893h3.4a8.4,8.4,0,0,0,1.156-.085L-67.524,0Zm-8.381-4.658v-6.46h3.4c2.55,0,3.91,1.173,3.91,3.23,0,2.04-1.36,3.23-3.91,3.23Zm11,3.281a.7.7,0,0,0-.714.714.694.694,0,0,0,.561.7l-.561,2.4h.612l.663-2.312a2.611,2.611,0,0,0,.153-.782A.707.707,0,0,0-63.92-1.377ZM-46.886,0h.935l-5.474-11.9h-.867L-57.766,0h.935l1.513-3.349h6.9Zm-8.092-4.08,3.111-6.868,3.128,6.868Zm11.73-2.856V-8.874h-.816V0h.85V-4.624c0-2.193,1.173-3.5,3.145-3.5.068,0,.136.017.2.017v-.833A3.37,3.37,0,0,0-43.248-6.936Zm12.7-1.938v2.091a3.936,3.936,0,0,0-3.638-2.159,4.3,4.3,0,0,0-4.386,4.505A4.292,4.292,0,0,0-34.187.068a3.978,3.978,0,0,0,3.621-2.125V3.3h.85V-8.874ZM-34.136-.7a3.52,3.52,0,0,1-3.57-3.74,3.52,3.52,0,0,1,3.57-3.74,3.52,3.52,0,0,1,3.57,3.74A3.52,3.52,0,0,1-34.136-.7ZM-19.21-8.874v4.726A3.12,3.12,0,0,1-22.457-.7c-1.853,0-2.924-1.054-2.924-3.06V-8.874h-.85v5.185A3.4,3.4,0,0,0-22.525.068,3.5,3.5,0,0,0-19.176-1.9V0h.816V-8.874Zm4.879-2.159a.689.689,0,0,0,.7-.7.686.686,0,0,0-.7-.68.7.7,0,0,0-.7.7A.686.686,0,0,0-14.331-11.033ZM-14.756,0h.85V-8.874h-.85Zm8.483-1.156A2.04,2.04,0,0,1-7.65-.663C-8.738-.663-9.3-1.292-9.3-2.431V-8.143h2.822v-.731H-9.3v-1.938h-.85v1.938h-1.632v.731h1.632v5.8A2.2,2.2,0,0,0-7.735.068,2.693,2.693,0,0,0-5.916-.561ZM3.638-4.471A4.2,4.2,0,0,0-.595-8.942a4.243,4.243,0,0,0-4.25,4.505A4.356,4.356,0,0,0-.272.068,4.247,4.247,0,0,0,3.077-1.377l-.493-.561A3.579,3.579,0,0,1-.255-.7,3.575,3.575,0,0,1-4.012-4.233H3.621C3.621-4.318,3.638-4.4,3.638-4.471ZM-.595-8.194a3.355,3.355,0,0,1,3.4,3.3h-6.8A3.354,3.354,0,0,1-.595-8.194ZM9.792.068a3.934,3.934,0,0,0,3.366-1.632l-.629-.459A3.239,3.239,0,0,1,9.792-.7a3.522,3.522,0,0,1-3.621-3.74,3.522,3.522,0,0,1,3.621-3.74,3.239,3.239,0,0,1,2.737,1.326l.629-.459A3.893,3.893,0,0,0,9.792-8.942,4.325,4.325,0,0,0,5.3-4.437,4.335,4.335,0,0,0,9.792.068ZM19.856-1.156a2.04,2.04,0,0,1-1.377.493c-1.088,0-1.649-.629-1.649-1.768V-8.143h2.822v-.731H16.83v-1.938h-.85v1.938H14.348v.731H15.98v5.8A2.2,2.2,0,0,0,18.394.068a2.693,2.693,0,0,0,1.819-.629ZM29.5-8.874v4.726A3.12,3.12,0,0,1,26.248-.7c-1.853,0-2.924-1.054-2.924-3.06V-8.874h-.85v5.185A3.4,3.4,0,0,0,26.18.068,3.5,3.5,0,0,0,29.529-1.9V0h.816V-8.874Zm5.27,1.938V-8.874h-.816V0h.85V-4.624c0-2.193,1.173-3.5,3.145-3.5.068,0,.136.017.2.017v-.833A3.37,3.37,0,0,0,34.765-6.936Zm8.721-2.006a5.413,5.413,0,0,0-3.553,1.258l.425.612a4.606,4.606,0,0,1,3.06-1.122,2.311,2.311,0,0,1,2.635,2.533v.714H43.01c-2.465,0-3.315,1.139-3.315,2.482C39.7-.952,40.9.068,42.891.068a3.409,3.409,0,0,0,3.2-1.649V0H46.9V-5.627C46.9-7.82,45.679-8.942,43.486-8.942ZM43.01-.629c-1.564,0-2.465-.714-2.465-1.87,0-1.02.646-1.785,2.482-1.785h3.026v1.666A3.042,3.042,0,0,1,43.01-.629ZM63-11.118V-11.9H55.046V0h.867V-5.253h6.341v-.782H55.913v-5.083Zm1.785.8h.918l2.669-2.006H67.15ZM65.331,0h.85V-8.874h-.85Zm6.681.068c2.261,0,3.5-.986,3.5-2.431,0-3.383-5.882-1.5-5.882-4.165,0-.952.765-1.666,2.5-1.666a4.572,4.572,0,0,1,2.669.8l.391-.68a5.451,5.451,0,0,0-3.043-.867c-2.244,0-3.366,1.088-3.366,2.431,0,3.485,5.882,1.581,5.882,4.165,0,1-.748,1.666-2.618,1.666a5.164,5.164,0,0,1-3.2-1.071l-.391.68A5.568,5.568,0,0,0,72.012.068Zm6.307-11.1a.689.689,0,0,0,.7-.7.686.686,0,0,0-.7-.68.7.7,0,0,0-.7.7A.686.686,0,0,0,78.319-11.033ZM77.894,0h.85V-8.874h-.85ZM85.85.068a3.934,3.934,0,0,0,3.366-1.632l-.629-.459A3.239,3.239,0,0,1,85.85-.7a3.522,3.522,0,0,1-3.621-3.74,3.522,3.522,0,0,1,3.621-3.74,3.239,3.239,0,0,1,2.737,1.326l.629-.459A3.893,3.893,0,0,0,85.85-8.942a4.325,4.325,0,0,0-4.488,4.505A4.335,4.335,0,0,0,85.85.068Zm8.908-9.01a5.413,5.413,0,0,0-3.553,1.258l.425.612a4.606,4.606,0,0,1,3.06-1.122,2.311,2.311,0,0,1,2.635,2.533v.714H94.282c-2.465,0-3.315,1.139-3.315,2.482,0,1.513,1.207,2.533,3.2,2.533a3.408,3.408,0,0,0,3.2-1.649V0h.816V-5.627C98.175-7.82,96.951-8.942,94.758-8.942ZM94.282-.629c-1.564,0-2.465-.714-2.465-1.87,0-1.02.646-1.785,2.482-1.785h3.026v1.666A3.042,3.042,0,0,1,94.282-.629Zm7.293.7a.722.722,0,0,0,.714-.731.707.707,0,0,0-.714-.714.707.707,0,0,0-.714.714A.722.722,0,0,0,101.575.068Z" transform="translate(1024 1068)" fill="#333"/>
      <path id="Trazado_2004" data-name="Trazado 2004" d="M-155.414-11.9h-4.267V0h.867V-3.893h3.4c2.992,0,4.794-1.5,4.794-4C-150.62-10.4-152.422-11.9-155.414-11.9Zm0,7.225h-3.4v-6.443h3.4c2.55,0,3.91,1.173,3.91,3.23C-151.5-5.848-152.864-4.675-155.414-4.675Zm7.99-2.261V-8.874h-.816V0h.85V-4.624c0-2.193,1.173-3.5,3.145-3.5.068,0,.136.017.2.017v-.833A3.37,3.37,0,0,0-147.424-6.936Zm13.158,2.465A4.2,4.2,0,0,0-138.5-8.942a4.243,4.243,0,0,0-4.25,4.505A4.356,4.356,0,0,0-138.176.068a4.248,4.248,0,0,0,3.349-1.445l-.493-.561A3.579,3.579,0,0,1-138.159-.7a3.575,3.575,0,0,1-3.757-3.536h7.633C-134.283-4.318-134.266-4.4-134.266-4.471ZM-138.5-8.194a3.355,3.355,0,0,1,3.4,3.3h-6.8A3.354,3.354,0,0,1-138.5-8.194Zm11.322-.748a3.966,3.966,0,0,0-3.638,2.159V-8.874h-.816V3.3h.85V-2.023a3.972,3.972,0,0,0,3.6,2.091,4.292,4.292,0,0,0,4.386-4.505A4.3,4.3,0,0,0-127.177-8.942ZM-127.228-.7a3.52,3.52,0,0,1-3.57-3.74,3.52,3.52,0,0,1,3.57-3.74,3.534,3.534,0,0,1,3.587,3.74A3.534,3.534,0,0,1-127.228-.7Zm10.03-8.245a5.413,5.413,0,0,0-3.553,1.258l.425.612a4.606,4.606,0,0,1,3.06-1.122,2.311,2.311,0,0,1,2.635,2.533v.714h-3.043c-2.465,0-3.315,1.139-3.315,2.482,0,1.513,1.207,2.533,3.2,2.533a3.409,3.409,0,0,0,3.2-1.649V0h.816V-5.627C-113.781-7.82-115.005-8.942-117.2-8.942Zm-.476,8.313c-1.564,0-2.465-.714-2.465-1.87,0-1.02.646-1.785,2.482-1.785h3.026v1.666A3.042,3.042,0,0,1-117.674-.629Zm8.211-6.307V-8.874h-.816V0h.85V-4.624c0-2.193,1.173-3.5,3.145-3.5.068,0,.136.017.2.017v-.833A3.37,3.37,0,0,0-109.463-6.936Zm8.721-2.006A5.413,5.413,0,0,0-104.3-7.684l.425.612a4.606,4.606,0,0,1,3.06-1.122,2.311,2.311,0,0,1,2.635,2.533v.714h-3.043c-2.465,0-3.315,1.139-3.315,2.482,0,1.513,1.207,2.533,3.2,2.533a3.408,3.408,0,0,0,3.2-1.649V0h.816V-5.627C-97.325-7.82-98.549-8.942-100.742-8.942Zm-.476,8.313c-1.564,0-2.465-.714-2.465-1.87,0-1.02.646-1.785,2.482-1.785h3.026v1.666A3.042,3.042,0,0,1-101.218-.629Zm10.931.7a3.934,3.934,0,0,0,3.366-1.632l-.629-.459A3.239,3.239,0,0,1-90.287-.7a3.522,3.522,0,0,1-3.621-3.74,3.522,3.522,0,0,1,3.621-3.74A3.239,3.239,0,0,1-87.55-6.851l.629-.459a3.893,3.893,0,0,0-3.366-1.632,4.325,4.325,0,0,0-4.488,4.505A4.335,4.335,0,0,0-90.287.068Zm6.341-11.1a.689.689,0,0,0,.7-.7.686.686,0,0,0-.7-.68.7.7,0,0,0-.7.7A.686.686,0,0,0-83.946-11.033ZM-84.371,0h.85V-8.874h-.85Zm6.936-10.319h.918l2.669-2.006h-1.224ZM-76.466.068a4.323,4.323,0,0,0,4.437-4.505,4.323,4.323,0,0,0-4.437-4.505A4.323,4.323,0,0,0-80.9-4.437,4.323,4.323,0,0,0-76.466.068Zm0-.765a3.52,3.52,0,0,1-3.57-3.74,3.52,3.52,0,0,1,3.57-3.74,3.52,3.52,0,0,1,3.57,3.74A3.52,3.52,0,0,1-76.466-.7Zm11.407-8.245a3.663,3.663,0,0,0-3.519,1.989V-8.874h-.816V0h.85V-4.726a3.166,3.166,0,0,1,3.366-3.451c1.8,0,2.873,1.054,2.873,3.06V0h.85V-5.185C-61.455-7.667-62.9-8.942-65.059-8.942Zm18.513-3.672v5.8a3.978,3.978,0,0,0-3.621-2.125,4.292,4.292,0,0,0-4.386,4.505A4.3,4.3,0,0,0-50.167.068a3.936,3.936,0,0,0,3.638-2.159V0h.833V-12.614ZM-50.116-.7a3.52,3.52,0,0,1-3.57-3.74,3.52,3.52,0,0,1,3.57-3.74,3.52,3.52,0,0,1,3.57,3.74A3.52,3.52,0,0,1-50.116-.7ZM-34.6-4.471a4.2,4.2,0,0,0-4.233-4.471,4.243,4.243,0,0,0-4.25,4.505A4.356,4.356,0,0,0-38.505.068a4.247,4.247,0,0,0,3.349-1.445l-.493-.561A3.579,3.579,0,0,1-38.488-.7a3.575,3.575,0,0,1-3.757-3.536h7.633C-34.612-4.318-34.6-4.4-34.6-4.471Zm-4.233-3.723a3.355,3.355,0,0,1,3.4,3.3h-6.8A3.354,3.354,0,0,1-38.828-8.194Zm18.751,3.723A4.2,4.2,0,0,0-24.31-8.942a4.243,4.243,0,0,0-4.25,4.505A4.356,4.356,0,0,0-23.987.068a4.247,4.247,0,0,0,3.349-1.445l-.493-.561A3.579,3.579,0,0,1-23.97-.7a3.575,3.575,0,0,1-3.757-3.536h7.633C-20.094-4.318-20.077-4.4-20.077-4.471ZM-24.31-8.194a3.355,3.355,0,0,1,3.4,3.3h-6.8A3.354,3.354,0,0,1-24.31-8.194Zm11.2-.748a3.663,3.663,0,0,0-3.519,1.989V-8.874h-.816V0h.85V-4.726a3.166,3.166,0,0,1,3.366-3.451c1.8,0,2.873,1.054,2.873,3.06V0h.85V-5.185C-9.5-7.667-10.948-8.942-13.107-8.942ZM-1.955-1.156a2.04,2.04,0,0,1-1.377.493c-1.088,0-1.649-.629-1.649-1.768V-8.143h2.822v-.731H-4.981v-1.938h-.85v1.938H-7.463v.731h1.632v5.8A2.2,2.2,0,0,0-3.417.068,2.693,2.693,0,0,0-1.6-.561ZM3.91.068A4.323,4.323,0,0,0,8.347-4.437,4.323,4.323,0,0,0,3.91-8.942,4.323,4.323,0,0,0-.527-4.437,4.323,4.323,0,0,0,3.91.068Zm0-.765A3.52,3.52,0,0,1,.34-4.437a3.52,3.52,0,0,1,3.57-3.74,3.52,3.52,0,0,1,3.57,3.74A3.52,3.52,0,0,1,3.91-.7ZM11.8-6.936V-8.874h-.816V0h.85V-4.624c0-2.193,1.173-3.5,3.145-3.5.068,0,.136.017.2.017v-.833A3.37,3.37,0,0,0,11.8-6.936ZM21.862-8.942a3.663,3.663,0,0,0-3.519,1.989V-8.874h-.816V0h.85V-4.726a3.166,3.166,0,0,1,3.366-3.451c1.8,0,2.873,1.054,2.873,3.06V0h.85V-5.185C25.466-7.667,24.021-8.942,21.862-8.942ZM32.453.068A4.323,4.323,0,0,0,36.89-4.437a4.323,4.323,0,0,0-4.437-4.505,4.323,4.323,0,0,0-4.437,4.505A4.323,4.323,0,0,0,32.453.068Zm0-.765a3.52,3.52,0,0,1-3.57-3.74,3.52,3.52,0,0,1,3.57-3.74,3.52,3.52,0,0,1,3.57,3.74A3.52,3.52,0,0,1,32.453-.7Zm9.316.765c2.261,0,3.5-.986,3.5-2.431,0-3.383-5.882-1.5-5.882-4.165,0-.952.765-1.666,2.5-1.666a4.572,4.572,0,0,1,2.669.8l.391-.68A5.451,5.451,0,0,0,41.9-8.942c-2.244,0-3.366,1.088-3.366,2.431,0,3.485,5.882,1.581,5.882,4.165,0,1-.748,1.666-2.618,1.666a5.164,5.164,0,0,1-3.2-1.071l-.391.68A5.568,5.568,0,0,0,41.769.068Zm5.78-1.445a.7.7,0,0,0-.714.714.694.694,0,0,0,.561.7l-.561,2.4h.612L48.11.119a2.611,2.611,0,0,0,.153-.782A.707.707,0,0,0,47.549-1.377ZM66.47-8.942A3.745,3.745,0,0,0,62.883-6.8a3.143,3.143,0,0,0-3.247-2.142,3.523,3.523,0,0,0-3.4,1.972v-1.9H55.42V0h.85V-4.726a3.12,3.12,0,0,1,3.247-3.451c1.734,0,2.771,1.054,2.771,3.06V0h.85V-4.726a3.12,3.12,0,0,1,3.247-3.451c1.734,0,2.771,1.054,2.771,3.06V0h.85V-5.185C70.006-7.667,68.612-8.942,66.47-8.942Zm7.463-2.091a.689.689,0,0,0,.7-.7.686.686,0,0,0-.7-.68.7.7,0,0,0-.7.7A.686.686,0,0,0,73.933-11.033ZM73.508,0h.85V-8.874h-.85ZM85.119-8.874v2.006A4.07,4.07,0,0,0,81.4-8.942a4.221,4.221,0,0,0-4.42,4.3A4.234,4.234,0,0,0,81.4-.323a4.1,4.1,0,0,0,3.689-2.023v1.5c0,2.363-1.105,3.451-3.468,3.451A5.258,5.258,0,0,1,78.03,1.309l-.459.646a5.862,5.862,0,0,0,4.063,1.411c2.856,0,4.3-1.343,4.3-4.318V-8.874ZM81.464-1.088a3.455,3.455,0,0,1-3.621-3.553,3.442,3.442,0,0,1,3.621-3.536A3.446,3.446,0,0,1,85.1-4.641,3.46,3.46,0,0,1,81.464-1.088Zm8.891-5.848V-8.874h-.816V0h.85V-4.624c0-2.193,1.173-3.5,3.145-3.5.068,0,.136.017.2.017v-.833A3.37,3.37,0,0,0,90.355-6.936Zm8.721-2.006a5.413,5.413,0,0,0-3.553,1.258l.425.612a4.606,4.606,0,0,1,3.06-1.122,2.311,2.311,0,0,1,2.635,2.533v.714H98.6c-2.465,0-3.315,1.139-3.315,2.482,0,1.513,1.207,2.533,3.2,2.533a3.409,3.409,0,0,0,3.2-1.649V0h.816V-5.627C102.493-7.82,101.269-8.942,99.076-8.942ZM98.6-.629c-1.564,0-2.465-.714-2.465-1.87,0-1.02.646-1.785,2.482-1.785h3.026v1.666A3.042,3.042,0,0,1,98.6-.629Zm10.931.7A3.934,3.934,0,0,0,112.9-1.564l-.629-.459A3.239,3.239,0,0,1,109.531-.7a3.522,3.522,0,0,1-3.621-3.74,3.522,3.522,0,0,1,3.621-3.74,3.239,3.239,0,0,1,2.737,1.326l.629-.459a3.893,3.893,0,0,0-3.366-1.632,4.325,4.325,0,0,0-4.488,4.505A4.335,4.335,0,0,0,109.531.068Zm6.341-11.1a.689.689,0,0,0,.7-.7.686.686,0,0,0-.7-.68.7.7,0,0,0-.7.7A.686.686,0,0,0,115.872-11.033ZM115.447,0h.85V-8.874h-.85Zm7.905.068a4.323,4.323,0,0,0,4.437-4.505,4.323,4.323,0,0,0-4.437-4.505,4.323,4.323,0,0,0-4.437,4.505A4.323,4.323,0,0,0,123.352.068Zm0-.765a3.52,3.52,0,0,1-3.57-3.74,3.52,3.52,0,0,1,3.57-3.74,3.52,3.52,0,0,1,3.57,3.74A3.52,3.52,0,0,1,123.352-.7Zm11.407-8.245a3.663,3.663,0,0,0-3.519,1.989V-8.874h-.816V0h.85V-4.726a3.166,3.166,0,0,1,3.366-3.451c1.8,0,2.873,1.054,2.873,3.06V0h.85V-5.185C138.363-7.667,136.918-8.942,134.759-8.942ZM149.4-4.471a4.2,4.2,0,0,0-4.233-4.471,4.243,4.243,0,0,0-4.25,4.505A4.356,4.356,0,0,0,145.486.068a4.248,4.248,0,0,0,3.349-1.445l-.493-.561A3.579,3.579,0,0,1,145.5-.7a3.575,3.575,0,0,1-3.757-3.536h7.633C149.379-4.318,149.4-4.4,149.4-4.471Zm-4.233-3.723a3.355,3.355,0,0,1,3.4,3.3h-6.8A3.354,3.354,0,0,1,145.163-8.194ZM154.275.068c2.261,0,3.5-.986,3.5-2.431,0-3.383-5.882-1.5-5.882-4.165,0-.952.765-1.666,2.5-1.666a4.572,4.572,0,0,1,2.669.8l.391-.68a5.451,5.451,0,0,0-3.043-.867c-2.244,0-3.366,1.088-3.366,2.431,0,3.485,5.882,1.581,5.882,4.165,0,1-.748,1.666-2.618,1.666a5.163,5.163,0,0,1-3.2-1.071l-.391.68A5.568,5.568,0,0,0,154.275.068Zm5.78-1.445a.7.7,0,0,0-.714.714.7.7,0,0,0,.561.7l-.561,2.4h.612l.663-2.312a2.611,2.611,0,0,0,.153-.782A.707.707,0,0,0,160.055-1.377Zm-294.1,22.441V19.126h-.816V28h.85V23.376c0-2.193,1.173-3.5,3.145-3.5.068,0,.136.017.2.017v-.833A3.37,3.37,0,0,0-134.045,21.064Zm13.158,2.465a4.2,4.2,0,0,0-4.233-4.471,4.243,4.243,0,0,0-4.25,4.505,4.356,4.356,0,0,0,4.573,4.505,4.248,4.248,0,0,0,3.349-1.445l-.493-.561A3.579,3.579,0,0,1-124.78,27.3a3.575,3.575,0,0,1-3.757-3.536h7.633C-120.9,23.682-120.887,23.6-120.887,23.529Zm-4.233-3.723a3.355,3.355,0,0,1,3.4,3.3h-6.8A3.354,3.354,0,0,1-125.12,19.806ZM-118.252,28h.85V15.386h-.85Zm11.951-4.471a4.2,4.2,0,0,0-4.233-4.471,4.243,4.243,0,0,0-4.25,4.505,4.356,4.356,0,0,0,4.573,4.505,4.248,4.248,0,0,0,3.349-1.445l-.493-.561a3.579,3.579,0,0,1-2.839,1.241,3.575,3.575,0,0,1-3.757-3.536h7.633C-106.318,23.682-106.3,23.6-106.3,23.529Zm-4.233-3.723a3.355,3.355,0,0,1,3.4,3.3h-6.8A3.354,3.354,0,0,1-110.534,19.806Zm9.6-.748a5.413,5.413,0,0,0-3.553,1.258l.425.612A4.606,4.606,0,0,1-101,19.806a2.311,2.311,0,0,1,2.635,2.533v.714H-101.4c-2.465,0-3.315,1.139-3.315,2.482,0,1.513,1.207,2.533,3.2,2.533a3.409,3.409,0,0,0,3.2-1.649V28h.816V22.373C-97.512,20.18-98.736,19.058-100.929,19.058Zm-.476,8.313c-1.564,0-2.465-.714-2.465-1.87,0-1.02.646-1.785,2.482-1.785h3.026v1.666A3.042,3.042,0,0,1-101.4,27.371Zm9.639.7c2.261,0,3.5-.986,3.5-2.431,0-3.383-5.882-1.5-5.882-4.165,0-.952.765-1.666,2.5-1.666a4.572,4.572,0,0,1,2.669.8l.391-.68a5.451,5.451,0,0,0-3.043-.867c-2.244,0-3.366,1.088-3.366,2.431,0,3.485,5.882,1.581,5.882,4.165,0,1-.748,1.666-2.618,1.666a5.164,5.164,0,0,1-3.2-1.071l-.391.68A5.568,5.568,0,0,0-91.766,28.068Zm13.4-4.539A4.2,4.2,0,0,0-82.6,19.058a4.243,4.243,0,0,0-4.25,4.505,4.356,4.356,0,0,0,4.573,4.505,4.248,4.248,0,0,0,3.349-1.445l-.493-.561A3.579,3.579,0,0,1-82.263,27.3a3.575,3.575,0,0,1-3.757-3.536h7.633C-78.387,23.682-78.37,23.6-78.37,23.529ZM-82.6,19.806a3.355,3.355,0,0,1,3.4,3.3H-86A3.354,3.354,0,0,1-82.6,19.806Zm17.493-.68-3.553,7.939-3.553-7.939h-.9l3.995,8.84-.476,1.071c-.544,1.207-1.139,1.581-1.955,1.581a2.16,2.16,0,0,1-1.649-.7l-.425.646a2.834,2.834,0,0,0,2.057.8c1.173,0,2.057-.527,2.771-2.159l4.556-10.081Zm11.135,7.718a2.04,2.04,0,0,1-1.377.493c-1.088,0-1.649-.629-1.649-1.768V19.857h2.822v-.731H-57V17.188h-.85v1.938h-1.632v.731h1.632v5.8a2.2,2.2,0,0,0,2.414,2.414,2.693,2.693,0,0,0,1.819-.629Zm3.536-5.78V19.126h-.816V28h.85V23.376c0-2.193,1.173-3.5,3.145-3.5.068,0,.136.017.2.017v-.833A3.37,3.37,0,0,0-50.439,21.064Zm8.721-2.006a5.413,5.413,0,0,0-3.553,1.258l.425.612a4.606,4.606,0,0,1,3.06-1.122,2.311,2.311,0,0,1,2.635,2.533v.714h-3.043c-2.465,0-3.315,1.139-3.315,2.482,0,1.513,1.207,2.533,3.2,2.533a3.409,3.409,0,0,0,3.2-1.649V28h.816V22.373C-38.3,20.18-39.525,19.058-41.718,19.058Zm-.476,8.313c-1.564,0-2.465-.714-2.465-1.87,0-1.02.646-1.785,2.482-1.785h3.026v1.666A3.042,3.042,0,0,1-42.194,27.371Zm11.73-8.313a3.663,3.663,0,0,0-3.519,1.989V19.126H-34.8V28h.85V23.274a3.166,3.166,0,0,1,3.366-3.451c1.8,0,2.873,1.054,2.873,3.06V28h.85V22.815C-26.86,20.333-28.3,19.058-30.464,19.058Zm9.35,9.01c2.261,0,3.5-.986,3.5-2.431,0-3.383-5.882-1.5-5.882-4.165,0-.952.765-1.666,2.5-1.666a4.572,4.572,0,0,1,2.669.8l.391-.68a5.451,5.451,0,0,0-3.043-.867c-2.244,0-3.366,1.088-3.366,2.431,0,3.485,5.882,1.581,5.882,4.165,0,1-.748,1.666-2.618,1.666a5.164,5.164,0,0,1-3.2-1.071l-.391.68A5.568,5.568,0,0,0-21.114,28.068Zm8.551-12.019a2.04,2.04,0,0,1,1.377.493l.34-.646a2.652,2.652,0,0,0-1.751-.578,2.265,2.265,0,0,0-2.465,2.448v1.36h-1.632v.731h1.632V28h.85V19.857h2.822v-.731h-2.839V17.834C-14.229,16.661-13.668,16.049-12.563,16.049Zm10.268,7.48a4.2,4.2,0,0,0-4.233-4.471,4.243,4.243,0,0,0-4.25,4.505A4.356,4.356,0,0,0-6.2,28.068a4.247,4.247,0,0,0,3.349-1.445l-.493-.561A3.579,3.579,0,0,1-6.188,27.3a3.575,3.575,0,0,1-3.757-3.536h7.633C-2.312,23.682-2.295,23.6-2.295,23.529Zm-4.233-3.723a3.355,3.355,0,0,1,3.4,3.3h-6.8A3.354,3.354,0,0,1-6.528,19.806Zm7.684,1.258V19.126H.34V28h.85V23.376c0-2.193,1.173-3.5,3.145-3.5.068,0,.136.017.2.017v-.833A3.37,3.37,0,0,0,1.156,21.064Zm13.158,2.465a4.248,4.248,0,1,0-8.483.034A4.356,4.356,0,0,0,10.4,28.068a4.247,4.247,0,0,0,3.349-1.445l-.493-.561A3.579,3.579,0,0,1,10.421,27.3a3.575,3.575,0,0,1-3.757-3.536H14.3C14.3,23.682,14.314,23.6,14.314,23.529Zm-4.233-3.723a3.355,3.355,0,0,1,3.4,3.3h-6.8A3.354,3.354,0,0,1,10.081,19.806Zm11.2-.748a3.663,3.663,0,0,0-3.519,1.989V19.126h-.816V28h.85V23.274a3.166,3.166,0,0,1,3.366-3.451c1.8,0,2.873,1.054,2.873,3.06V28h.85V22.815C24.888,20.333,23.443,19.058,21.284,19.058Zm10.642,9.01a3.934,3.934,0,0,0,3.366-1.632l-.629-.459A3.239,3.239,0,0,1,31.926,27.3a3.522,3.522,0,0,1-3.621-3.74,3.522,3.522,0,0,1,3.621-3.74,3.239,3.239,0,0,1,2.737,1.326l.629-.459a3.893,3.893,0,0,0-3.366-1.632,4.325,4.325,0,0,0-4.488,4.505A4.335,4.335,0,0,0,31.926,28.068Zm6.341-11.1a.689.689,0,1,0,0-1.377.7.7,0,0,0-.7.7A.686.686,0,0,0,38.267,16.967ZM37.842,28h.85V19.126h-.85Zm7.429-8.942a5.413,5.413,0,0,0-3.553,1.258l.425.612a4.606,4.606,0,0,1,3.06-1.122,2.311,2.311,0,0,1,2.635,2.533v.714H44.8c-2.465,0-3.315,1.139-3.315,2.482,0,1.513,1.207,2.533,3.2,2.533a3.409,3.409,0,0,0,3.2-1.649V28h.816V22.373C48.688,20.18,47.464,19.058,45.271,19.058ZM44.8,27.371c-1.564,0-2.465-.714-2.465-1.87,0-1.02.646-1.785,2.482-1.785h3.026v1.666A3.042,3.042,0,0,1,44.8,27.371Zm14.756-8.313A5.413,5.413,0,0,0,56,20.316l.425.612a4.606,4.606,0,0,1,3.06-1.122,2.311,2.311,0,0,1,2.635,2.533v.714H59.075c-2.465,0-3.315,1.139-3.315,2.482,0,1.513,1.207,2.533,3.2,2.533a3.409,3.409,0,0,0,3.2-1.649V28h.816V22.373C62.968,20.18,61.744,19.058,59.551,19.058Zm-.476,8.313c-1.564,0-2.465-.714-2.465-1.87,0-1.02.646-1.785,2.482-1.785h3.026v1.666A3.042,3.042,0,0,1,59.075,27.371Zm14.008.7c2.261,0,3.5-.986,3.5-2.431,0-3.383-5.882-1.5-5.882-4.165,0-.952.765-1.666,2.5-1.666a4.572,4.572,0,0,1,2.669.8l.391-.68a5.451,5.451,0,0,0-3.043-.867c-2.244,0-3.366,1.088-3.366,2.431,0,3.485,5.882,1.581,5.882,4.165,0,1-.748,1.666-2.618,1.666a5.164,5.164,0,0,1-3.2-1.071l-.391.68A5.568,5.568,0,0,0,73.083,28.068Zm9.35,0a4.323,4.323,0,0,0,4.437-4.505,4.438,4.438,0,1,0-8.874,0A4.323,4.323,0,0,0,82.433,28.068Zm0-.765a3.52,3.52,0,0,1-3.57-3.74,3.574,3.574,0,1,1,7.14,0A3.52,3.52,0,0,1,82.433,27.3Zm11.526-8.245a3.966,3.966,0,0,0-3.638,2.159V19.126h-.816V31.3h.85V25.977a3.972,3.972,0,0,0,3.6,2.091,4.292,4.292,0,0,0,4.386-4.505A4.3,4.3,0,0,0,93.959,19.058ZM93.908,27.3a3.52,3.52,0,0,1-3.57-3.74,3.582,3.582,0,1,1,7.157,0A3.534,3.534,0,0,1,93.908,27.3Zm10.54.765a4.323,4.323,0,0,0,4.437-4.505,4.438,4.438,0,1,0-8.874,0A4.323,4.323,0,0,0,104.448,28.068Zm0-.765a3.52,3.52,0,0,1-3.57-3.74,3.574,3.574,0,1,1,7.14,0A3.52,3.52,0,0,1,104.448,27.3Zm7.888-6.239V19.126h-.816V28h.85V23.376c0-2.193,1.173-3.5,3.145-3.5.068,0,.136.017.2.017v-.833A3.37,3.37,0,0,0,112.336,21.064Zm10.183,5.78a2.04,2.04,0,0,1-1.377.493c-1.088,0-1.649-.629-1.649-1.768V19.857h2.822v-.731h-2.822V17.188h-.85v1.938h-1.632v.731h1.632v5.8a2.2,2.2,0,0,0,2.414,2.414,2.693,2.693,0,0,0,1.819-.629Zm9.911-3.315a4.248,4.248,0,1,0-8.483.034,4.356,4.356,0,0,0,4.573,4.505,4.247,4.247,0,0,0,3.349-1.445l-.493-.561a3.8,3.8,0,0,1-6.6-2.3h7.633C132.413,23.682,132.43,23.6,132.43,23.529ZM128.2,19.806a3.355,3.355,0,0,1,3.4,3.3h-6.8A3.354,3.354,0,0,1,128.2,19.806Zm6.766,8.262a.722.722,0,0,0,.714-.731.714.714,0,0,0-1.428,0A.722.722,0,0,0,134.963,28.068Z" transform="translate(1385 1068)" fill="#333"/>
      <path id="Trazado_2001" data-name="Trazado 2001" d="M-131.886.085a5.686,5.686,0,0,0,4.233-1.666l-.544-.561a5,5,0,0,1-3.655,1.428A5.168,5.168,0,0,1-137.19-5.95a5.168,5.168,0,0,1,5.338-5.236A4.981,4.981,0,0,1-128.2-9.775l.544-.561a5.673,5.673,0,0,0-4.233-1.649,5.943,5.943,0,0,0-6.171,6.035A5.943,5.943,0,0,0-131.886.085Zm9.928-.017a4.323,4.323,0,0,0,4.437-4.505,4.323,4.323,0,0,0-4.437-4.505A4.323,4.323,0,0,0-126.4-4.437,4.323,4.323,0,0,0-121.958.068Zm0-.765a3.52,3.52,0,0,1-3.57-3.74,3.52,3.52,0,0,1,3.57-3.74,3.52,3.52,0,0,1,3.57,3.74A3.52,3.52,0,0,1-121.958-.7Zm14.11-11.917v5.8a3.978,3.978,0,0,0-3.621-2.125,4.292,4.292,0,0,0-4.386,4.505A4.3,4.3,0,0,0-111.469.068a3.936,3.936,0,0,0,3.638-2.159V0H-107V-12.614ZM-111.418-.7a3.52,3.52,0,0,1-3.57-3.74,3.52,3.52,0,0,1,3.57-3.74,3.52,3.52,0,0,1,3.57,3.74A3.52,3.52,0,0,1-111.418-.7ZM-95.9-4.471a4.2,4.2,0,0,0-4.233-4.471,4.243,4.243,0,0,0-4.25,4.505A4.356,4.356,0,0,0-99.807.068a4.247,4.247,0,0,0,3.349-1.445l-.493-.561A3.579,3.579,0,0,1-99.79-.7a3.575,3.575,0,0,1-3.757-3.536h7.633C-95.914-4.318-95.9-4.4-95.9-4.471Zm-4.233-3.723a3.355,3.355,0,0,1,3.4,3.3h-6.8A3.354,3.354,0,0,1-100.13-8.194ZM-89.794.068a4.323,4.323,0,0,0,4.437-4.505,4.323,4.323,0,0,0-4.437-4.505,4.323,4.323,0,0,0-4.437,4.505A4.323,4.323,0,0,0-89.794.068Zm0-.765a3.52,3.52,0,0,1-3.57-3.74,3.52,3.52,0,0,1,3.57-3.74,3.52,3.52,0,0,1,3.57,3.74A3.52,3.52,0,0,1-89.794-.7Zm6.681-.68a.7.7,0,0,0-.714.714.694.694,0,0,0,.561.7l-.561,2.4h.612l.663-2.312A2.611,2.611,0,0,0-82.4-.663.707.707,0,0,0-83.113-1.377Zm11.917.221a2.04,2.04,0,0,1-1.377.493c-1.088,0-1.649-.629-1.649-1.768V-8.143H-71.4v-.731h-2.822v-1.938h-.85v1.938H-76.7v.731h1.632v5.8A2.2,2.2,0,0,0-72.658.068a2.693,2.693,0,0,0,1.819-.629Zm9.911-3.315a4.2,4.2,0,0,0-4.233-4.471,4.243,4.243,0,0,0-4.25,4.505A4.356,4.356,0,0,0-65.2.068a4.247,4.247,0,0,0,3.349-1.445l-.493-.561A3.579,3.579,0,0,1-65.178-.7a3.575,3.575,0,0,1-3.757-3.536H-61.3C-61.3-4.318-61.285-4.4-61.285-4.471Zm-4.233-3.723a3.355,3.355,0,0,1,3.4,3.3h-6.8A3.354,3.354,0,0,1-65.518-8.194ZM-56.406.068c2.261,0,3.5-.986,3.5-2.431,0-3.383-5.882-1.5-5.882-4.165,0-.952.765-1.666,2.5-1.666a4.572,4.572,0,0,1,2.669.8l.391-.68a5.451,5.451,0,0,0-3.043-.867c-2.244,0-3.366,1.088-3.366,2.431,0,3.485,5.882,1.581,5.882,4.165,0,1-.748,1.666-2.618,1.666a5.164,5.164,0,0,1-3.2-1.071l-.391.68A5.568,5.568,0,0,0-56.406.068Zm9.928-1.224a2.04,2.04,0,0,1-1.377.493c-1.088,0-1.649-.629-1.649-1.768V-8.143h2.822v-.731H-49.5v-1.938h-.85v1.938h-1.632v.731h1.632v5.8A2.2,2.2,0,0,0-47.94.068a2.693,2.693,0,0,0,1.819-.629Zm3.145-9.877a.689.689,0,0,0,.7-.7.686.686,0,0,0-.7-.68.7.7,0,0,0-.7.7A.686.686,0,0,0-43.333-11.033ZM-43.758,0h.85V-8.874h-.85Zm8.772-8.942a3.663,3.663,0,0,0-3.519,1.989V-8.874h-.816V0h.85V-4.726A3.166,3.166,0,0,1-35.1-8.177c1.8,0,2.873,1.054,2.873,3.06V0h.85V-5.185C-31.382-7.667-32.827-8.942-34.986-8.942Zm14.3.068v2.006a4.07,4.07,0,0,0-3.723-2.074,4.221,4.221,0,0,0-4.42,4.3,4.234,4.234,0,0,0,4.42,4.318,4.1,4.1,0,0,0,3.689-2.023v1.5c0,2.363-1.105,3.451-3.468,3.451a5.258,5.258,0,0,1-3.587-1.292l-.459.646a5.862,5.862,0,0,0,4.063,1.411c2.856,0,4.3-1.343,4.3-4.318V-8.874Zm-3.655,7.786a3.455,3.455,0,0,1-3.621-3.553,3.442,3.442,0,0,1,3.621-3.536,3.446,3.446,0,0,1,3.638,3.536A3.46,3.46,0,0,1-24.344-1.088ZM-4.981-8.874v4.726A3.12,3.12,0,0,1-8.228-.7c-1.853,0-2.924-1.054-2.924-3.06V-8.874H-12v5.185A3.4,3.4,0,0,0-8.3.068,3.5,3.5,0,0,0-4.947-1.9V0h.816V-8.874Zm8.789-.068A3.663,3.663,0,0,0,.289-6.953V-8.874H-.527V0h.85V-4.726A3.166,3.166,0,0,1,3.689-8.177c1.8,0,2.873,1.054,2.873,3.06V0h.85V-5.185C7.412-7.667,5.967-8.942,3.808-8.942Zm7.531-2.091a.689.689,0,0,0,.7-.7.686.686,0,0,0-.7-.68.7.7,0,0,0-.7.7A.686.686,0,0,0,11.339-11.033ZM10.914,0h.85V-8.874h-.85ZM19.4-1.156a2.04,2.04,0,0,1-1.377.493c-1.088,0-1.649-.629-1.649-1.768V-8.143h2.822v-.731H16.371v-1.938h-.85v1.938H13.889v.731h1.632v5.8A2.2,2.2,0,0,0,17.935.068a2.693,2.693,0,0,0,1.819-.629Zm5.712-7.786a5.413,5.413,0,0,0-3.553,1.258l.425.612a4.606,4.606,0,0,1,3.06-1.122,2.311,2.311,0,0,1,2.635,2.533v.714H24.633c-2.465,0-3.315,1.139-3.315,2.482,0,1.513,1.207,2.533,3.2,2.533a3.409,3.409,0,0,0,3.2-1.649V0h.816V-5.627C28.526-7.82,27.3-8.942,25.109-8.942ZM24.633-.629c-1.564,0-2.465-.714-2.465-1.87,0-1.02.646-1.785,2.482-1.785h3.026v1.666A3.042,3.042,0,0,1,24.633-.629Zm8.211-6.307V-8.874h-.816V0h.85V-4.624c0-2.193,1.173-3.5,3.145-3.5.068,0,.136.017.2.017v-.833A3.37,3.37,0,0,0,32.844-6.936ZM39-11.033a.689.689,0,0,0,.7-.7.686.686,0,0,0-.7-.68.7.7,0,0,0-.7.7A.686.686,0,0,0,39-11.033ZM38.573,0h.85V-8.874h-.85Zm7.9.068a4.323,4.323,0,0,0,4.437-4.505,4.323,4.323,0,0,0-4.437-4.505,4.323,4.323,0,0,0-4.437,4.505A4.323,4.323,0,0,0,46.478.068Zm0-.765a3.52,3.52,0,0,1-3.57-3.74,3.52,3.52,0,0,1,3.57-3.74,3.52,3.52,0,0,1,3.57,3.74A3.52,3.52,0,0,1,46.478-.7ZM65.433-4.471A4.2,4.2,0,0,0,61.2-8.942a4.243,4.243,0,0,0-4.25,4.505A4.356,4.356,0,0,0,61.523.068a4.248,4.248,0,0,0,3.349-1.445l-.493-.561A3.579,3.579,0,0,1,61.54-.7a3.575,3.575,0,0,1-3.757-3.536h7.633C65.416-4.318,65.433-4.4,65.433-4.471ZM61.2-8.194a3.355,3.355,0,0,1,3.4,3.3H57.8A3.354,3.354,0,0,1,61.2-8.194Zm11.662-2.839a.689.689,0,0,0,.7-.7.686.686,0,0,0-.7-.68.7.7,0,0,0-.7.7A.686.686,0,0,0,72.862-11.033ZM72.437,0h.85V-8.874h-.85Zm8.772-8.942A3.663,3.663,0,0,0,77.69-6.953V-8.874h-.816V0h.85V-4.726A3.166,3.166,0,0,1,81.09-8.177c1.8,0,2.873,1.054,2.873,3.06V0h.85V-5.185C84.813-7.667,83.368-8.942,81.209-8.942ZM92.361-1.156a2.04,2.04,0,0,1-1.377.493c-1.088,0-1.649-.629-1.649-1.768V-8.143h2.822v-.731H89.335v-1.938h-.85v1.938H86.853v.731h1.632v5.8A2.2,2.2,0,0,0,90.9.068a2.693,2.693,0,0,0,1.819-.629Zm9.911-3.315a4.2,4.2,0,0,0-4.233-4.471,4.243,4.243,0,0,0-4.25,4.505A4.356,4.356,0,0,0,98.362.068a4.248,4.248,0,0,0,3.349-1.445l-.493-.561A3.579,3.579,0,0,1,98.379-.7a3.575,3.575,0,0,1-3.757-3.536h7.633C102.255-4.318,102.272-4.4,102.272-4.471ZM98.039-8.194a3.355,3.355,0,0,1,3.4,3.3h-6.8A3.354,3.354,0,0,1,98.039-8.194Zm14.042-.68v2.006a4.07,4.07,0,0,0-3.723-2.074,4.221,4.221,0,0,0-4.42,4.3,4.234,4.234,0,0,0,4.42,4.318,4.1,4.1,0,0,0,3.689-2.023v1.5c0,2.363-1.105,3.451-3.468,3.451a5.258,5.258,0,0,1-3.587-1.292l-.459.646A5.862,5.862,0,0,0,108.6,3.366c2.856,0,4.3-1.343,4.3-4.318V-8.874Zm-3.655,7.786A3.455,3.455,0,0,1,104.8-4.641a3.442,3.442,0,0,1,3.621-3.536,3.446,3.446,0,0,1,3.638,3.536A3.46,3.46,0,0,1,108.426-1.088Zm8.891-5.848V-8.874H116.5V0h.85V-4.624c0-2.193,1.173-3.5,3.145-3.5.068,0,.136.017.2.017v-.833A3.37,3.37,0,0,0,117.317-6.936Zm8.721-2.006a5.413,5.413,0,0,0-3.553,1.258l.425.612a4.606,4.606,0,0,1,3.06-1.122A2.311,2.311,0,0,1,128.6-5.661v.714h-3.043c-2.465,0-3.315,1.139-3.315,2.482,0,1.513,1.207,2.533,3.2,2.533a3.409,3.409,0,0,0,3.2-1.649V0h.816V-5.627C129.455-7.82,128.231-8.942,126.038-8.942Zm-.476,8.313C124-.629,123.1-1.343,123.1-2.5c0-1.02.646-1.785,2.482-1.785H128.6v1.666A3.042,3.042,0,0,1,125.562-.629Zm7.4.629h.85V-12.614h-.85Zm4.335.068a.722.722,0,0,0,.714-.731.707.707,0,0,0-.714-.714.707.707,0,0,0-.714.714A.722.722,0,0,0,137.292.068Z" transform="translate(1202 912)" fill="#333"/>
      <path id="Trazado_2002" data-name="Trazado 2002" d="M-109.259,0l-2.975-4.165a3.651,3.651,0,0,0,2.788-3.723c0-2.516-1.8-4.012-4.794-4.012h-4.267V0h.867V-3.893h3.4a8.4,8.4,0,0,0,1.156-.085L-110.245,0Zm-8.381-4.658v-6.46h3.4c2.55,0,3.91,1.173,3.91,3.23,0,2.04-1.36,3.23-3.91,3.23Zm18.615.187a4.2,4.2,0,0,0-4.233-4.471,4.243,4.243,0,0,0-4.25,4.505A4.356,4.356,0,0,0-102.935.068a4.247,4.247,0,0,0,3.349-1.445l-.493-.561A3.579,3.579,0,0,1-102.918-.7a3.575,3.575,0,0,1-3.757-3.536h7.633C-99.042-4.318-99.025-4.4-99.025-4.471Zm-4.233-3.723a3.355,3.355,0,0,1,3.4,3.3h-6.8A3.354,3.354,0,0,1-103.258-8.194ZM-94.146.068c2.261,0,3.5-.986,3.5-2.431,0-3.383-5.882-1.5-5.882-4.165,0-.952.765-1.666,2.5-1.666a4.572,4.572,0,0,1,2.669.8l.391-.68a5.451,5.451,0,0,0-3.043-.867c-2.244,0-3.366,1.088-3.366,2.431,0,3.485,5.882,1.581,5.882,4.165,0,1-.748,1.666-2.618,1.666a5.164,5.164,0,0,1-3.2-1.071l-.391.68A5.568,5.568,0,0,0-94.146.068Zm9.35,0a4.323,4.323,0,0,0,4.437-4.505A4.323,4.323,0,0,0-84.8-8.942a4.323,4.323,0,0,0-4.437,4.505A4.323,4.323,0,0,0-84.8.068Zm0-.765a3.52,3.52,0,0,1-3.57-3.74,3.52,3.52,0,0,1,3.57-3.74,3.52,3.52,0,0,1,3.57,3.74A3.52,3.52,0,0,1-84.8-.7Zm7.072.7h.85V-12.614h-.85Zm11.356-8.874v4.726A3.12,3.12,0,0,1-69.615-.7c-1.853,0-2.924-1.054-2.924-3.06V-8.874h-.85v5.185A3.4,3.4,0,0,0-69.683.068,3.5,3.5,0,0,0-66.334-1.9V0h.816V-8.874ZM-58.4.068a3.934,3.934,0,0,0,3.366-1.632l-.629-.459A3.239,3.239,0,0,1-58.4-.7a3.522,3.522,0,0,1-3.621-3.74A3.522,3.522,0,0,1-58.4-8.177a3.239,3.239,0,0,1,2.737,1.326l.629-.459A3.893,3.893,0,0,0-58.4-8.942a4.325,4.325,0,0,0-4.488,4.505A4.335,4.335,0,0,0-58.4.068Zm6.341-11.1a.689.689,0,0,0,.7-.7.686.686,0,0,0-.7-.68.7.7,0,0,0-.7.7A.686.686,0,0,0-52.054-11.033ZM-52.479,0h.85V-8.874h-.85Zm6.936-10.319h.918l2.669-2.006H-43.18ZM-44.574.068a4.323,4.323,0,0,0,4.437-4.505,4.323,4.323,0,0,0-4.437-4.505,4.323,4.323,0,0,0-4.437,4.505A4.323,4.323,0,0,0-44.574.068Zm0-.765a3.52,3.52,0,0,1-3.57-3.74,3.52,3.52,0,0,1,3.57-3.74A3.52,3.52,0,0,1-41-4.437,3.52,3.52,0,0,1-44.574-.7Zm11.407-8.245a3.663,3.663,0,0,0-3.519,1.989V-8.874H-37.5V0h.85V-4.726a3.166,3.166,0,0,1,3.366-3.451c1.8,0,2.873,1.054,2.873,3.06V0h.85V-5.185C-29.563-7.667-31.008-8.942-33.167-8.942Zm18.513-3.672v5.8a3.978,3.978,0,0,0-3.621-2.125,4.292,4.292,0,0,0-4.386,4.505A4.3,4.3,0,0,0-18.275.068a3.936,3.936,0,0,0,3.638-2.159V0h.833V-12.614ZM-18.224-.7a3.52,3.52,0,0,1-3.57-3.74,3.52,3.52,0,0,1,3.57-3.74,3.52,3.52,0,0,1,3.57,3.74A3.52,3.52,0,0,1-18.224-.7ZM-2.7-4.471A4.2,4.2,0,0,0-6.936-8.942a4.243,4.243,0,0,0-4.25,4.505A4.356,4.356,0,0,0-6.613.068,4.247,4.247,0,0,0-3.264-1.377l-.493-.561A3.579,3.579,0,0,1-6.6-.7a3.575,3.575,0,0,1-3.757-3.536H-2.72C-2.72-4.318-2.7-4.4-2.7-4.471ZM-6.936-8.194a3.355,3.355,0,0,1,3.4,3.3h-6.8A3.354,3.354,0,0,1-6.936-8.194ZM4.726-11.033a.689.689,0,0,0,.7-.7.686.686,0,0,0-.7-.68.7.7,0,0,0-.7.7A.686.686,0,0,0,4.726-11.033ZM4.3,0h.85V-8.874H4.3Zm6.681.068c2.261,0,3.5-.986,3.5-2.431,0-3.383-5.882-1.5-5.882-4.165,0-.952.765-1.666,2.5-1.666a4.572,4.572,0,0,1,2.669.8l.391-.68a5.451,5.451,0,0,0-3.043-.867c-2.244,0-3.366,1.088-3.366,2.431,0,3.485,5.882,1.581,5.882,4.165,0,1-.748,1.666-2.618,1.666a5.164,5.164,0,0,1-3.2-1.071l-.391.68A5.568,5.568,0,0,0,10.982.068Zm8.126,0c2.261,0,3.5-.986,3.5-2.431,0-3.383-5.882-1.5-5.882-4.165,0-.952.765-1.666,2.5-1.666a4.572,4.572,0,0,1,2.669.8l.391-.68a5.451,5.451,0,0,0-3.043-.867c-2.244,0-3.366,1.088-3.366,2.431,0,3.485,5.882,1.581,5.882,4.165,0,1-.748,1.666-2.618,1.666a5.164,5.164,0,0,1-3.2-1.071l-.391.68A5.568,5.568,0,0,0,19.108.068Zm12.8-8.942v4.726A3.12,3.12,0,0,1,28.662-.7c-1.853,0-2.924-1.054-2.924-3.06V-8.874h-.85v5.185A3.4,3.4,0,0,0,28.594.068,3.5,3.5,0,0,0,31.943-1.9V0h.816V-8.874Zm11.968,4.4a4.2,4.2,0,0,0-4.233-4.471,4.243,4.243,0,0,0-4.25,4.505A4.356,4.356,0,0,0,39.967.068a4.247,4.247,0,0,0,3.349-1.445l-.493-.561A3.579,3.579,0,0,1,39.984-.7a3.575,3.575,0,0,1-3.757-3.536H43.86C43.86-4.318,43.877-4.4,43.877-4.471ZM39.644-8.194a3.355,3.355,0,0,1,3.4,3.3h-6.8A3.354,3.354,0,0,1,39.644-8.194ZM48.756.068c2.261,0,3.5-.986,3.5-2.431,0-3.383-5.882-1.5-5.882-4.165,0-.952.765-1.666,2.5-1.666a4.572,4.572,0,0,1,2.669.8l.391-.68a5.451,5.451,0,0,0-3.043-.867c-2.244,0-3.366,1.088-3.366,2.431,0,3.485,5.882,1.581,5.882,4.165,0,1-.748,1.666-2.618,1.666a5.164,5.164,0,0,1-3.2-1.071l-.391.68A5.568,5.568,0,0,0,48.756.068Zm5.78-1.445a.7.7,0,0,0-.714.714.694.694,0,0,0,.561.7l-.561,2.4h.612L55.1.119a2.611,2.611,0,0,0,.153-.782A.707.707,0,0,0,54.536-1.377Zm11.917.221a2.04,2.04,0,0,1-1.377.493c-1.088,0-1.649-.629-1.649-1.768V-8.143h2.822v-.731H63.427v-1.938h-.85v1.938H60.945v.731h1.632v5.8A2.2,2.2,0,0,0,64.991.068,2.693,2.693,0,0,0,66.81-.561Zm9.911-3.315a4.2,4.2,0,0,0-4.233-4.471,4.243,4.243,0,0,0-4.25,4.505A4.356,4.356,0,0,0,72.454.068,4.248,4.248,0,0,0,75.8-1.377l-.493-.561A3.579,3.579,0,0,1,72.471-.7a3.575,3.575,0,0,1-3.757-3.536h7.633C76.347-4.318,76.364-4.4,76.364-4.471ZM72.131-8.194a3.355,3.355,0,0,1,3.4,3.3h-6.8A3.354,3.354,0,0,1,72.131-8.194ZM81.243.068c2.261,0,3.5-.986,3.5-2.431,0-3.383-5.882-1.5-5.882-4.165,0-.952.765-1.666,2.5-1.666a4.572,4.572,0,0,1,2.669.8l.391-.68a5.451,5.451,0,0,0-3.043-.867c-2.244,0-3.366,1.088-3.366,2.431,0,3.485,5.882,1.581,5.882,4.165,0,1-.748,1.666-2.618,1.666a5.164,5.164,0,0,1-3.2-1.071l-.391.68A5.568,5.568,0,0,0,81.243.068Zm9.928-1.224a2.04,2.04,0,0,1-1.377.493c-1.088,0-1.649-.629-1.649-1.768V-8.143h2.822v-.731H88.145v-1.938H87.3v1.938H85.663v.731H87.3v5.8A2.2,2.2,0,0,0,89.709.068a2.693,2.693,0,0,0,1.819-.629Zm9.911-3.315a4.2,4.2,0,0,0-4.233-4.471A4.243,4.243,0,0,0,92.6-4.437,4.356,4.356,0,0,0,97.172.068a4.248,4.248,0,0,0,3.349-1.445l-.493-.561A3.579,3.579,0,0,1,97.189-.7a3.575,3.575,0,0,1-3.757-3.536h7.633C101.065-4.318,101.082-4.4,101.082-4.471ZM96.849-8.194a3.355,3.355,0,0,1,3.4,3.3h-6.8A3.354,3.354,0,0,1,96.849-8.194ZM107.185.068a4.323,4.323,0,0,0,4.437-4.505,4.323,4.323,0,0,0-4.437-4.505,4.323,4.323,0,0,0-4.437,4.505A4.323,4.323,0,0,0,107.185.068Zm0-.765a3.52,3.52,0,0,1-3.57-3.74,3.52,3.52,0,0,1,3.57-3.74,3.52,3.52,0,0,1,3.57,3.74A3.52,3.52,0,0,1,107.185-.7ZM116.5.068c2.261,0,3.5-.986,3.5-2.431,0-3.383-5.882-1.5-5.882-4.165,0-.952.765-1.666,2.5-1.666a4.572,4.572,0,0,1,2.669.8l.391-.68a5.451,5.451,0,0,0-3.043-.867c-2.244,0-3.366,1.088-3.366,2.431,0,3.485,5.882,1.581,5.882,4.165,0,1-.748,1.666-2.618,1.666a5.164,5.164,0,0,1-3.2-1.071l-.391.68A5.568,5.568,0,0,0,116.5.068ZM-77.962,19.126l-3.553,7.939-3.553-7.939h-.9l3.995,8.84-.476,1.071c-.544,1.207-1.139,1.581-1.955,1.581a2.16,2.16,0,0,1-1.649-.7l-.425.646a2.834,2.834,0,0,0,2.057.8c1.173,0,2.057-.527,2.771-2.159L-77.1,19.126Zm10.608,8.942a3.934,3.934,0,0,0,3.366-1.632l-.629-.459A3.239,3.239,0,0,1-67.354,27.3a3.522,3.522,0,0,1-3.621-3.74,3.522,3.522,0,0,1,3.621-3.74,3.239,3.239,0,0,1,2.737,1.326l.629-.459a3.893,3.893,0,0,0-3.366-1.632,4.325,4.325,0,0,0-4.488,4.505A4.335,4.335,0,0,0-67.354,28.068Zm6.341-11.1a.689.689,0,0,0,.7-.7.686.686,0,0,0-.7-.68.7.7,0,0,0-.7.7A.686.686,0,0,0-61.013,16.967ZM-61.438,28h.85V19.126h-.85Zm11.951-4.471a4.2,4.2,0,0,0-4.233-4.471,4.243,4.243,0,0,0-4.25,4.505A4.356,4.356,0,0,0-53.4,28.068a4.247,4.247,0,0,0,3.349-1.445l-.493-.561A3.579,3.579,0,0,1-53.38,27.3a3.575,3.575,0,0,1-3.757-3.536H-49.5C-49.5,23.682-49.487,23.6-49.487,23.529Zm-4.233-3.723a3.355,3.355,0,0,1,3.4,3.3h-6.8A3.354,3.354,0,0,1-53.72,19.806Zm7.684,1.258V19.126h-.816V28H-46V23.376c0-2.193,1.173-3.5,3.145-3.5.068,0,.136.017.2.017v-.833A3.37,3.37,0,0,0-46.036,21.064Zm6.545,0V19.126h-.816V28h.85V23.376c0-2.193,1.173-3.5,3.145-3.5.068,0,.136.017.2.017v-.833A3.37,3.37,0,0,0-39.491,21.064Zm13.158,2.465a4.2,4.2,0,0,0-4.233-4.471,4.243,4.243,0,0,0-4.25,4.505,4.356,4.356,0,0,0,4.573,4.505,4.247,4.247,0,0,0,3.349-1.445l-.493-.561A3.579,3.579,0,0,1-30.226,27.3a3.575,3.575,0,0,1-3.757-3.536h7.633C-26.35,23.682-26.333,23.6-26.333,23.529Zm-4.233-3.723a3.355,3.355,0,0,1,3.4,3.3h-6.8A3.354,3.354,0,0,1-30.566,19.806Zm18.275-4.42v5.8a3.978,3.978,0,0,0-3.621-2.125A4.292,4.292,0,0,0-20.3,23.563a4.3,4.3,0,0,0,4.386,4.505,3.936,3.936,0,0,0,3.638-2.159V28h.833V15.386ZM-15.861,27.3a3.52,3.52,0,0,1-3.57-3.74,3.52,3.52,0,0,1,3.57-3.74,3.52,3.52,0,0,1,3.57,3.74A3.52,3.52,0,0,1-15.861,27.3ZM-.34,23.529a4.2,4.2,0,0,0-4.233-4.471,4.243,4.243,0,0,0-4.25,4.505A4.356,4.356,0,0,0-4.25,28.068,4.247,4.247,0,0,0-.9,26.623l-.493-.561A3.579,3.579,0,0,1-4.233,27.3,3.575,3.575,0,0,1-7.99,23.767H-.357C-.357,23.682-.34,23.6-.34,23.529Zm-4.233-3.723a3.355,3.355,0,0,1,3.4,3.3h-6.8A3.354,3.354,0,0,1-4.573,19.806ZM2.3,28h.85V15.386H2.3Zm13.26-8.942a3.966,3.966,0,0,0-3.638,2.159V19.126H11.1V31.3h.85V25.977a3.972,3.972,0,0,0,3.6,2.091,4.292,4.292,0,0,0,4.386-4.505A4.3,4.3,0,0,0,15.555,19.058ZM15.5,27.3a3.52,3.52,0,0,1-3.57-3.74,3.582,3.582,0,1,1,7.157,0A3.534,3.534,0,0,1,15.5,27.3Zm7.888-6.239V19.126h-.816V28h.85V23.376c0-2.193,1.173-3.5,3.145-3.5.068,0,.136.017.2.017v-.833A3.37,3.37,0,0,0,23.392,21.064Zm9.112,7a4.323,4.323,0,0,0,4.437-4.505,4.438,4.438,0,1,0-8.874,0A4.323,4.323,0,0,0,32.5,28.068Zm0-.765a3.52,3.52,0,0,1-3.57-3.74,3.574,3.574,0,1,1,7.14,0A3.52,3.52,0,0,1,32.5,27.3Zm13.073-8.177-3.553,7.939-3.553-7.939h-.9l4,8.84-.476,1.071c-.544,1.207-1.139,1.581-1.955,1.581a2.16,2.16,0,0,1-1.649-.7l-.425.646a2.834,2.834,0,0,0,2.057.8c1.173,0,2.057-.527,2.771-2.159l4.556-10.081Zm9.979,4.4a4.248,4.248,0,1,0-8.483.034,4.356,4.356,0,0,0,4.573,4.505A4.247,4.247,0,0,0,55,26.623l-.493-.561a3.8,3.8,0,0,1-6.6-2.3h7.633C55.539,23.682,55.556,23.6,55.556,23.529Zm-4.233-3.723a3.355,3.355,0,0,1,3.4,3.3h-6.8A3.354,3.354,0,0,1,51.323,19.806ZM61.71,28.068a3.934,3.934,0,0,0,3.366-1.632l-.629-.459A3.239,3.239,0,0,1,61.71,27.3a3.522,3.522,0,0,1-3.621-3.74,3.522,3.522,0,0,1,3.621-3.74,3.239,3.239,0,0,1,2.737,1.326l.629-.459a3.893,3.893,0,0,0-3.366-1.632,4.325,4.325,0,0,0-4.488,4.505A4.335,4.335,0,0,0,61.71,28.068Zm10.064-1.224a2.04,2.04,0,0,1-1.377.493c-1.088,0-1.649-.629-1.649-1.768V19.857H71.57v-.731H68.748V17.188H67.9v1.938H66.266v.731H67.9v5.8a2.2,2.2,0,0,0,2.414,2.414,2.693,2.693,0,0,0,1.819-.629Zm5.865,1.224a4.323,4.323,0,0,0,4.437-4.505,4.438,4.438,0,1,0-8.874,0A4.323,4.323,0,0,0,77.639,28.068Zm0-.765a3.52,3.52,0,0,1-3.57-3.74,3.574,3.574,0,1,1,7.14,0A3.52,3.52,0,0,1,77.639,27.3Zm6.681.765a.722.722,0,0,0,.714-.731.714.714,0,1,0-1.428,0A.722.722,0,0,0,84.32,28.068Z" transform="translate(1571 912)" fill="#333"/>
      <circle id="Elipse_432" data-name="Elipse 432" cx="7.5" cy="7.5" r="7.5" transform="translate(832 969)" fill="#039be5"/>
      <circle id="Elipse_433" data-name="Elipse 433" cx="7.5" cy="7.5" r="7.5" transform="translate(1015 969)" fill="#039be5"/>
      <circle id="Elipse_434" data-name="Elipse 434" cx="7.5" cy="7.5" r="7.5" transform="translate(1198 969)" fill="#039be5"/>
      <circle id="Elipse_435" data-name="Elipse 435" cx="7.5" cy="7.5" r="7.5" transform="translate(1381 969)" fill="#039be5"/>
      <circle id="Elipse_436" data-name="Elipse 436" cx="7.5" cy="7.5" r="7.5" transform="translate(1564 969)" fill="#039be5"/>
      <line id="L칤nea_529" data-name="L칤nea 529" x2="144" transform="translate(859.5 976.5)" fill="none" stroke="#333" stroke-width="1"/>
      <line id="L칤nea_530" data-name="L칤nea 530" x2="144" transform="translate(1042.5 976.5)" fill="none" stroke="#333" stroke-width="1"/>
      <line id="L칤nea_531" data-name="L칤nea 531" x2="144" transform="translate(1225.5 976.5)" fill="none" stroke="#333" stroke-width="1"/>
      <line id="L칤nea_532" data-name="L칤nea 532" x2="144" transform="translate(1410.5 976.5)" fill="none" stroke="#333" stroke-width="1"/>
    </g>
  </g>
</svg>
