<svg xmlns="http://www.w3.org/2000/svg" width="94.181" height="91.524" viewBox="0 0 94.181 91.524">
  <g id="cambio-tecnologico" transform="translate(-5.449 -5.999)">
    <path id="Trazado_2038" data-name="Trazado 2038" d="M13.218,70.625H85.693a5.548,5.548,0,0,0,5.548-5.548V14.435a5.548,5.548,0,0,0-5.548-5.548H59.1a2.381,2.381,0,0,0,0,4.762H85.693a.833.833,0,0,1,.833.833V59.792H12.432V14.435a.833.833,0,0,1,.833-.833H29A2.381,2.381,0,0,0,29,8.84H13.218A5.548,5.548,0,0,0,7.67,14.388V65.1a5.548,5.548,0,0,0,5.548,5.524Z" transform="translate(3.067 3.923)" fill="#333"/>
    <path id="Trazado_2039" data-name="Trazado 2039" d="M97.879,44.294l-6.286-5.928a3.857,3.857,0,0,0-2.643-1.1H16.142a3.857,3.857,0,0,0-2.643,1.1L7.213,44.294a6.714,6.714,0,0,0-1.238,7.143,4.238,4.238,0,0,0,3.881,2.9h85.38a4.238,4.238,0,0,0,3.881-2.952A6.714,6.714,0,0,0,97.879,44.294Z" transform="translate(0 43.182)" fill="#333"/>
    <path id="Trazado_2040" data-name="Trazado 2040" d="M33.7,18.694l-2.6.857a8.667,8.667,0,0,0-1.071-1.238l1.238-2.381a.333.333,0,0,0-.143-.452l-4.024-2.024a.333.333,0,0,0-.452.143l-1.238,2.381A8.666,8.666,0,0,0,23.8,15.86l-.857-2.6a.333.333,0,0,0-.429-.214l-4.286,1.4a.333.333,0,0,0-.214.429l.857,2.6a8.667,8.667,0,0,0-1.238,1.048l-2.381-1.238a.333.333,0,0,0-.452.143l-2.024,4.024a.333.333,0,0,0,.143.452L15.3,23.146a8.667,8.667,0,0,0-.119,1.619l-2.6.857a.333.333,0,0,0-.214.429l1.4,4.286a.333.333,0,0,0,.429.214l2.619-.929a8.667,8.667,0,0,0,1.048,1.238l-1.238,2.381a.333.333,0,0,0,.143.452L20.8,35.717a.333.333,0,0,0,.452-.143l1.238-2.381a8.69,8.69,0,0,0,1.619.119l.857,2.6a.333.333,0,0,0,.429.214l4.286-1.4a.333.333,0,0,0,.214-.429l-.857-2.6a8.667,8.667,0,0,0,1.238-1.048l2.381,1.238a.333.333,0,0,0,.452-.143l2.024-4.024a.333.333,0,0,0-.143-.452l-2.381-1.238a8.643,8.643,0,0,0,.119-1.619l2.6-.81a.333.333,0,0,0,.214-.429l-1.4-4.286a.333.333,0,0,0-.429-.19ZM25.537,29.36a5,5,0,1,1,3.19-6.309A5,5,0,0,1,25.537,29.36Z" transform="translate(9.533 9.712)" fill="#039be5"/>
    <path id="Trazado_2041" data-name="Trazado 2041" d="M52.3,30.977l-3.238-1.238a11.024,11.024,0,0,0,0-2.071l3.167-1.4a.429.429,0,0,0,.214-.548l-2.381-5.238a.429.429,0,0,0-.548-.214l-3.19,1.4a11.023,11.023,0,0,0-1.5-1.429L46.066,17a.429.429,0,0,0-.238-.548l-5.357-2.048a.429.429,0,0,0-.548.238l-1.238,3.238a11.023,11.023,0,0,0-2.071,0l-1.4-3.167a.429.429,0,0,0-.548-.214l-5.238,2.381a.429.429,0,0,0-.214.548l1.429,3.19a11.024,11.024,0,0,0-1.429,1.5l-3.238-1.238a.429.429,0,0,0-.548.238l-2.048,5.357a.429.429,0,0,0,.238.548l3.238,1.238a11.024,11.024,0,0,0,0,2.071l-3.167,1.4a.429.429,0,0,0-.214.548l2.381,5.238a.429.429,0,0,0,.548.214l3.262-1.429a11.047,11.047,0,0,0,1.5,1.429l-1.238,3.238a.429.429,0,0,0,.238.548l5.357,2.048a.429.429,0,0,0,.548-.238L37.3,40.1a11.024,11.024,0,0,0,2.071,0l1.4,3.167a.429.429,0,0,0,.548.214L46.566,41.1a.429.429,0,0,0,.214-.548l-1.5-3.262a11,11,0,0,0,1.429-1.5l3.238,1.238a.429.429,0,0,0,.548-.238l2.048-5.357a.429.429,0,0,0-.238-.452ZM35.638,34.93a3.551,3.551,0,1,0,.024-.024Z" transform="translate(24.718 11.571)" fill="#039be5"/>
    <path id="Trazado_2042" data-name="Trazado 2042" d="M37.422,13.286H35.184a7.142,7.142,0,0,0-.5-1.238l1.6-1.6a.262.262,0,0,0,0-.381L33.66,7.453a.262.262,0,0,0-.381,0l-1.6,1.6a7.143,7.143,0,0,0-1.238-.5V6.31A.262.262,0,0,0,30.16,6H26.47a.262.262,0,0,0-.262.262V8.5A7.143,7.143,0,0,0,24.97,9l-1.6-1.6a.262.262,0,0,0-.381,0l-2.619,2.619a.262.262,0,0,0,0,.381l1.6,1.6a7.143,7.143,0,0,0-.5,1.238H19.232a.262.262,0,0,0-.262.262v3.69a.262.262,0,0,0,.262.262h2.19a7.143,7.143,0,0,0,.5,1.238l-1.6,1.6a.262.262,0,0,0,0,.381l2.619,2.619a.262.262,0,0,0,.381,0l1.6-1.6a7.143,7.143,0,0,0,1.238.5v2.238a.262.262,0,0,0,.262.262h3.69a.262.262,0,0,0,.262-.262V22.191a7.142,7.142,0,0,0,1.238-.5l1.6,1.6a.262.262,0,0,0,.381,0l2.619-2.619a.262.262,0,0,0,0-.381l-1.6-1.6a7.142,7.142,0,0,0,.5-1.238h2.238a.262.262,0,0,0,.262-.262V13.572a.262.262,0,0,0-.19-.286Zm-9.1,6.238a4.1,4.1,0,1,1,4.1-4A4.1,4.1,0,0,1,28.327,19.524Z" transform="translate(18.672 0)" fill="#039be5"/>
  </g>
</svg>
