<svg xmlns="http://www.w3.org/2000/svg" width="95.159" height="87.279" viewBox="0 0 95.159 87.279">
  <g id="cogs" transform="translate(-492.549 -1632.72)">
    <path id="cogs-2" data-name="cogs" d="M-19.592,59.615a12.224,12.224,0,0,0-3.717-8.971,12.224,12.224,0,0,0-8.971-3.717,12.224,12.224,0,0,0-8.971,3.717,12.224,12.224,0,0,0-3.717,8.971,12.224,12.224,0,0,0,3.717,8.971A12.224,12.224,0,0,0-32.28,72.3a12.224,12.224,0,0,0,8.971-3.717A12.224,12.224,0,0,0-19.592,59.615ZM-.561,55.1v9.169a1.613,1.613,0,0,1-.347.966,1.151,1.151,0,0,1-.793.52L-9.383,66.95a24.428,24.428,0,0,1-1.586,3.767q1.685,2.379,4.461,5.7a1.72,1.72,0,0,1,.347.991,1.272,1.272,0,0,1-.347.942A51.75,51.75,0,0,1-10.6,82.785q-2.949,2.949-3.891,2.949a1.787,1.787,0,0,1-1.041-.347l-5.7-4.461a22.472,22.472,0,0,1-3.816,1.536,59.006,59.006,0,0,1-1.14,7.682,1.45,1.45,0,0,1-1.487,1.189H-36.89a1.511,1.511,0,0,1-.991-.372,1.278,1.278,0,0,1-.5-.867l-1.14-7.583a21.738,21.738,0,0,1-3.717-1.536l-5.848,4.411a1.341,1.341,0,0,1-.991.347,1.644,1.644,0,0,1-1.041-.4q-7.137-6.592-7.137-7.93a1.661,1.661,0,0,1,.347-.942q.5-.694,2.032-2.627t2.329-3.023a25.35,25.35,0,0,1-1.735-4.064l-7.533-1.189a1.222,1.222,0,0,1-.843-.471A1.477,1.477,0,0,1-64,64.125V54.956a1.613,1.613,0,0,1,.347-.966,1.151,1.151,0,0,1,.793-.52l7.682-1.189a24.428,24.428,0,0,1,1.586-3.767q-1.685-2.379-4.461-5.7a1.89,1.89,0,0,1-.347-.991,1.451,1.451,0,0,1,.347-.991,42.144,42.144,0,0,1,4.064-4.411q2.974-2.924,3.915-2.924a1.787,1.787,0,0,1,1.041.347l5.7,4.461a24.112,24.112,0,0,1,3.816-1.586,56.993,56.993,0,0,1,1.14-7.633,1.45,1.45,0,0,1,1.487-1.189h9.219a1.511,1.511,0,0,1,.991.372,1.278,1.278,0,0,1,.5.867l1.14,7.583a21.737,21.737,0,0,1,3.717,1.536l5.848-4.411a1.451,1.451,0,0,1,.991-.347,1.644,1.644,0,0,1,1.041.4q7.137,6.592,7.137,7.93a1.661,1.661,0,0,1-.347.942q-.595.793-2.082,2.676t-2.23,2.974a33.826,33.826,0,0,1,1.685,4.064l7.533,1.14a1.436,1.436,0,0,1,.843.52A1.477,1.477,0,0,1-.561,55.1Z" transform="translate(556.549 1616.72)" fill="#333"/>
    <path id="cogs-3" data-name="cogs" d="M18.471,84.99a6.1,6.1,0,0,0-1.883-4.461,6.224,6.224,0,0,0-8.921,0,6.282,6.282,0,0,0-.025,8.946,6.112,6.112,0,0,0,4.485,1.859,6.112,6.112,0,0,0,4.485-1.859A6.112,6.112,0,0,0,18.471,84.99Zm0-50.752a6.1,6.1,0,0,0-1.883-4.461,6.224,6.224,0,0,0-8.921,0,6.282,6.282,0,0,0-.025,8.946,6.112,6.112,0,0,0,4.485,1.859,6.112,6.112,0,0,0,4.485-1.859A6.112,6.112,0,0,0,18.471,34.239ZM31.159,81.521V88.46q0,.793-7.385,1.536a14.449,14.449,0,0,1-1.487,2.577q2.528,5.6,2.528,6.84a.429.429,0,0,1-.2.347q-6.047,3.519-6.146,3.519-.4,0-2.28-2.329t-2.577-3.37q-.991.1-1.487.1t-1.487-.1q-.694,1.041-2.577,3.37t-2.28,2.329q-.1,0-6.146-3.519a.429.429,0,0,1-.2-.347q0-1.239,2.528-6.84A14.45,14.45,0,0,1,.48,90Q-6.9,89.253-6.9,88.46V81.521q0-.793,7.385-1.536a13.849,13.849,0,0,1,1.487-2.577q-2.528-5.6-2.528-6.84a.429.429,0,0,1,.2-.347q.2-.1,1.735-.991T4.3,67.545a12.181,12.181,0,0,1,1.487-.793q.4,0,2.28,2.3T10.64,72.4q.991-.1,1.487-.1t1.487.1a45.6,45.6,0,0,1,4.56-5.551l.3-.1q.2,0,6.146,3.469a.429.429,0,0,1,.2.347q0,1.239-2.528,6.84a13.849,13.849,0,0,1,1.487,2.577Q31.159,80.728,31.159,81.521Zm0-50.752v6.939q0,.793-7.385,1.536a14.45,14.45,0,0,1-1.487,2.577q2.528,5.6,2.528,6.84a.429.429,0,0,1-.2.347q-6.047,3.519-6.146,3.519-.4,0-2.28-2.329t-2.577-3.37q-.991.1-1.487.1t-1.487-.1q-.694,1.041-2.577,3.37t-2.28,2.329q-.1,0-6.146-3.519a.429.429,0,0,1-.2-.347q0-1.239,2.528-6.84A14.45,14.45,0,0,1,.48,39.245Q-6.9,38.5-6.9,37.708V30.769q0-.793,7.385-1.536a13.849,13.849,0,0,1,1.487-2.577q-2.528-5.6-2.528-6.84a.429.429,0,0,1,.2-.347q.2-.1,1.735-.991T4.3,16.793A12.18,12.18,0,0,1,5.783,16q.4,0,2.28,2.3T10.64,21.65q.991-.1,1.487-.1t1.487.1a45.6,45.6,0,0,1,4.56-5.551l.3-.1q.2,0,6.146,3.469a.429.429,0,0,1,.2.347q0,1.239-2.528,6.84a13.848,13.848,0,0,1,1.487,2.577Q31.159,29.977,31.159,30.769Z" transform="translate(556.549 1616.72)" fill="#039be5"/>
  </g>
</svg>
