<svg xmlns="http://www.w3.org/2000/svg" width="73.452" height="80.593" viewBox="0 0 73.452 80.593">
  <path id="database" d="M83.357,21.389c-2.249-8.8-20.535-12.819-36.6-12.819S12.342,12.609,10.213,21.341a2.177,2.177,0,0,0-.145,1.064V75.328a1.911,1.911,0,0,0,.194.895c2.129,8.877,20.414,12.94,36.523,12.94s34.322-4.039,36.451-12.747a2.419,2.419,0,0,0,.266-1.088V22.284a2.056,2.056,0,0,0-.145-.895ZM78.713,64.927v9.99c-.726,4.451-14,9.433-31.9,9.433s-31.226-4.958-32.049-9.433V64.976c6.265,4.281,18.576,7.014,31.928,7.014s25.736-2.733,32-7.014ZM46.785,67.177C27,67.177,14.857,61.493,14.857,57.5V47.923c6.265,4.305,18.576,7.039,31.928,7.039s25.663-2.733,31.928-7.039v9.53c-.024,4.064-12.166,9.772-31.952,9.772ZM78.713,23.034v.387c-.726,4.451-14,9.409-31.855,9.409S15.728,27.993,15,23.421v-.7c.726-4.451,14-9.433,31.9-9.433s31.154,4.983,31.9,9.457v.266ZM46.761,50.173c-19.785,0-31.928-5.684-31.928-9.675V30.823c6.265,4.305,18.552,7.063,31.928,7.063s25.663-2.757,31.928-7.063V40.5C78.689,44.464,66.546,50.173,46.761,50.173Z" transform="translate(-10.054 -8.57)" fill="#333"/>
</svg>
