<svg xmlns="http://www.w3.org/2000/svg" width="97.451" height="97.965" viewBox="0 0 97.451 97.965">
  <g id="empleo-2" transform="translate(-3.115 -2.995)">
    <path id="Trazado_1982" data-name="Trazado 1982" d="M45.558,45.277A11.715,11.715,0,0,0,57.294,33.739c.993-2.206,2.361-6.442.375-9.376a5.626,5.626,0,0,0-6.618-1.588,10.788,10.788,0,0,0-6.486-4.92A9.707,9.707,0,0,0,36.6,20.325c-5.361,4.236-3.4,11.384-2.647,13.546A11.737,11.737,0,0,0,45.558,45.277ZM36.314,34.246a24.952,24.952,0,0,0,13.921-8.6h0a22.062,22.062,0,0,0,4.545,7.567v.154a1.787,1.787,0,0,1,0,.265,9.288,9.288,0,0,1-18.554.618Z" transform="translate(36.019 17.803)" fill="#333"/>
    <path id="Trazado_1983" data-name="Trazado 1983" d="M18.694,45.277A11.715,11.715,0,0,0,30.364,33.739c.993-2.206,2.361-6.442.375-9.376a5.626,5.626,0,0,0-6.618-1.588,10.788,10.788,0,0,0-6.486-4.92,9.707,9.707,0,0,0-7.964,2.471c-5.361,4.236-3.4,11.384-2.647,13.546A11.737,11.737,0,0,0,18.694,45.277ZM9.45,34.246a24.952,24.952,0,0,0,13.921-8.6h0A22.062,22.062,0,0,0,28,33.187v.154a1.787,1.787,0,0,1,0,.243A9.288,9.288,0,0,1,9.45,34.2Z" transform="translate(3.538 17.803)" fill="#333"/>
    <path id="Trazado_1984" data-name="Trazado 1984" d="M16.31,51.374l12.068.243a14.009,14.009,0,0,0,15.62,0l12.112-.243a31.989,31.989,0,0,1-4.1-17.009C52.248,20.8,41.372,17.09,35.482,18.083A12.994,12.994,0,0,0,29.37,20.62c-4.412-.154-9.089,3.287-8.825,13.7A31.989,31.989,0,0,1,16.31,51.374ZM31.444,29.312A26.827,26.827,0,0,0,47.858,39.659v.309A11.693,11.693,0,1,1,31.422,29.312Z" transform="translate(15.915 18.016)" fill="#333"/>
    <path id="Trazado_1985" data-name="Trazado 1985" d="M51.649,30.13h-.243a13.237,13.237,0,0,1-7.126,2.206,13.59,13.59,0,0,1-7.126-2.206h-.243a16.856,16.856,0,0,0-2.824,1.787L34,32.049l.176.331c.287.507.574,1.037.882,1.522l.132.221.2-.154a15.442,15.442,0,0,1,1.633-1.147,15.84,15.84,0,0,0,7.3,1.963,15.245,15.245,0,0,0,7.324-1.963A23.451,23.451,0,0,1,60.981,46.61a31.769,31.769,0,0,1-16.634,4.964,27.842,27.842,0,0,1-5.383-.618H38.5l.2.419a22.922,22.922,0,0,1,.9,2.206v.132h.132a28.237,28.237,0,0,0,4.545.419,33.909,33.909,0,0,0,18.951-6.067h0C63.916,46.147,60.364,34.41,51.649,30.13Z" transform="translate(37.252 32.729)" fill="#333"/>
    <path id="Trazado_1986" data-name="Trazado 1986" d="M22.231,51.588A34.879,34.879,0,0,1,5.6,46.624a23.474,23.474,0,0,1,9.332-13.788,15.84,15.84,0,0,0,7.3,1.963,15.245,15.245,0,0,0,7.324-1.941,11.671,11.671,0,0,1,1.986,1.434l.221.2.132-.243a15.882,15.882,0,0,0,.9-1.787v-.154l-.066-.221A14.318,14.318,0,0,0,29.578,30.1h-.243a13.237,13.237,0,0,1-7.126,2.206A13.59,13.59,0,0,1,15.083,30.1h-.243C6.171,34.38,2.619,46.117,3.17,47.749h0a36.181,36.181,0,0,0,18.951,6.067,30.733,30.733,0,0,0,4.677-.375h.331v-.132c.265-.684.574-1.39.882-2.074l.2-.419h-.441a29.188,29.188,0,0,1-5.537.772Z" transform="translate(0 32.693)" fill="#333"/>
    <path id="Trazado_1987" data-name="Trazado 1987" d="M47.242,34.11H47a16.458,16.458,0,0,1-8.825,2.8,16.921,16.921,0,0,1-8.825-2.8h-.243c-10.722,5.317-15.134,19.855-14.45,21.819h0a44.807,44.807,0,0,0,23.474,7.5,41.917,41.917,0,0,0,23.474-7.5h0C62.377,53.921,57.964,39.427,47.242,34.11Zm11.6,20.429a39.446,39.446,0,0,1-20.716,6.177,43.307,43.307,0,0,1-20.716-6.177c.574-3.221,4.258-12.774,11.649-17.186a19.591,19.591,0,0,0,9.067,2.427A18.863,18.863,0,0,0,47.2,37.353c7.391,4.412,11.075,13.965,11.649,17.186Z" transform="translate(13.839 37.53)" fill="#039be5"/>
    <path id="Trazado_1988" data-name="Trazado 1988" d="M43.092,19.253l-2.559-1.037a8.648,8.648,0,0,0,0-1.633l2.559-1.059a.331.331,0,0,0,.176-.441l-1.743-4.17a.331.331,0,0,0-.441-.176L38.525,11.8a8.825,8.825,0,0,0-1.169-1.147l1.081-2.427a.331.331,0,0,0-.176-.441L34.025,6.016a.331.331,0,0,0-.441.176L32.524,8.729a8.825,8.825,0,0,0-1.655,0L29.811,6.192a.331.331,0,0,0-.441-.176L25.156,7.759a.331.331,0,0,0-.176.441l1.059,2.537a8.825,8.825,0,0,0-1.169,1.147L22.31,10.847a.331.331,0,0,0-.441.176l-1.743,4.17a.331.331,0,0,0,.176.441l2.559,1.037a8.627,8.627,0,0,0,0,1.633l-2.493.949a.331.331,0,0,0-.176.441l1.743,4.17a.336.336,0,0,0,.441.176l2.559-1.059A8.824,8.824,0,0,0,26.1,24.128l-1.059,2.537a.331.331,0,0,0,.176.441l4.214,1.721a.331.331,0,0,0,.441-.176L30.914,26.2a8.825,8.825,0,0,0,1.655,0l1.059,2.537a.336.336,0,0,0,.441.176l4.214-1.743a.331.331,0,0,0,.176-.441L37.4,24.194a8.825,8.825,0,0,0,1.169-1.147l2.559,1.037a.331.331,0,0,0,.441-.176l1.743-4.17a.331.331,0,0,0-.221-.485Zm-13.237,2.78A5.008,5.008,0,0,1,27.1,15.414a5.074,5.074,0,0,1,6.618-2.736A5.008,5.008,0,0,1,36.473,19.3a5.074,5.074,0,0,1-6.685,2.8Z" transform="translate(20.483 3.609)" fill="#039be5"/>
    <path id="Trazado_1989" data-name="Trazado 1989" d="M27.19,11.1l-.949-.882a4.059,4.059,0,0,0,.287-.706h1.3a.154.154,0,0,0,.088-.2V7.11a.154.154,0,0,0-.154-.154h-1.3a4.06,4.06,0,0,0-.309-.706l.882-.927a.154.154,0,0,0,0-.221L25.491,3.646a.154.154,0,0,0-.221,0l-.882.927a4.126,4.126,0,0,0-.728-.265V3.028a.154.154,0,0,0-.154-.022H21.3a.154.154,0,0,0-.154.154V4.44a4.126,4.126,0,0,0-.706.309l-.949-.882a.154.154,0,0,0-.221,0L17.813,5.411a.154.154,0,0,0,0,.221l.949.882a4.037,4.037,0,0,0-.287.706h-1.3a.154.154,0,0,0-.066.2V9.625h1.412a4.06,4.06,0,0,0,.309.706l-.882.927a.154.154,0,0,0,0,.221l1.544,1.456a.154.154,0,0,0,.221,0l.882-.927a4.125,4.125,0,0,0,.728.265v1.28h2.316a.154.154,0,0,0,.154-.154v-1.28a4.1,4.1,0,0,0,.706-.309l.949.882a.154.154,0,0,0,.221,0l1.456-1.544a.154.154,0,0,0,.066-.044ZM20.9,10.11a2.339,2.339,0,0,1,0-3.331,2.383,2.383,0,0,1,3.353,0,2.339,2.339,0,0,1,0,3.331,2.383,2.383,0,0,1-3.331,0Z" transform="translate(16.861 0)" fill="#333"/>
  </g>
</svg>
