<svg xmlns="http://www.w3.org/2000/svg" width="97" height="72.022" viewBox="0 0 97 72.022">
  <g id="nube-subir-datos" transform="translate(-0.58 -6.905)">
    <path id="Trazado_1994" data-name="Trazado 1994" d="M79.2,27.082h-.512v-.216A15.327,15.327,0,0,0,63.384,11.578a15.15,15.15,0,0,0-11.372,5.076A23.256,23.256,0,0,0,9.985,32.886,16.055,16.055,0,0,0,.58,47.505,17.019,17.019,0,0,0,17.147,64.151H43.63V60.609H17.147A13.379,13.379,0,0,1,4.063,47.6,12.533,12.533,0,0,1,12.444,35.8a1.771,1.771,0,0,0,1.161-1.968A19.675,19.675,0,0,1,50.28,20.747a1.751,1.751,0,0,0,1.515.905,1.712,1.712,0,0,0,1.535-.826,11.805,11.805,0,0,1,21.761,6.2,12.377,12.377,0,0,1-.118,1.731,1.751,1.751,0,0,0,.394,1.417,1.79,1.79,0,0,0,1.318.63h2.459A14.855,14.855,0,0,1,93.979,45.656,15.485,15.485,0,0,1,78.573,60.707H54.412v3.443h24.22A19.125,19.125,0,0,0,97.58,45.557,18.416,18.416,0,0,0,79.2,27.082Z" transform="translate(0 0)" fill="#333"/>
    <path id="Trazado_1995" data-name="Trazado 1995" d="M44.339,35.443,32.731,23.835a1.79,1.79,0,0,0-2.518,0L18.6,35.443a1.771,1.771,0,0,0,0,2.5,1.79,1.79,0,0,0,2.518,0l8.6-8.578V61.277a1.771,1.771,0,1,0,3.542,0V29.363l8.578,8.578a1.774,1.774,0,1,0,2.518-2.5Z" transform="translate(16.94 15.879)" fill="#039be5"/>
  </g>
</svg>
