<svg xmlns="http://www.w3.org/2000/svg" width="72.08" height="84.094" viewBox="0 0 72.08 84.094">
  <g id="programacion" transform="translate(-17312 15758)">
    <path id="file-code-o" d="M196.889,16.97c.876.876,1.627,2.927,2.253,4.428a10.833,10.833,0,0,1,.939,4.13v54.06a4.486,4.486,0,0,1-4.505,4.505h-63.07A4.486,4.486,0,0,1,128,79.588V4.505a4.344,4.344,0,0,1,1.314-3.191A4.344,4.344,0,0,1,132.505,0h42.047a10.833,10.833,0,0,1,4.13.939,10.918,10.918,0,0,1,3.566,2.253ZM174.33,5.52V25.75h20.23V21.4L178.862,5.52C178.885,5.543,174.33,5.52,174.33,5.52Zm20.606,73.428V30.033H174.552a4.486,4.486,0,0,1-4.505-4.505V5.145h-36.9v73.8Z" transform="translate(17184 -15758)" fill="#333"/>
    <path id="code" d="M-4.652,301.709l-1.254,1.254a.793.793,0,0,1-.577.251.793.793,0,0,1-.577-.251l-11.689-11.689A.793.793,0,0,1-19,290.7a.793.793,0,0,1,.251-.577L-7.06,278.431a.793.793,0,0,1,.577-.251.793.793,0,0,1,.577.251l1.254,1.254a.793.793,0,0,1,.251.577.793.793,0,0,1-.251.577L-14.51,290.7l9.858,9.858a.793.793,0,0,1,.251.577A.793.793,0,0,1-4.652,301.709Zm14.825-26.765-2.779,9.619L.817,307.328a.816.816,0,0,1-.389.489.7.7,0,0,1-.589.063l-1.555-.426a.816.816,0,0,1-.489-.389.751.751,0,0,1-.063-.615l9.357-32.384a.816.816,0,0,1,.389-.489.7.7,0,0,1,.589-.063l1.555.426a.816.816,0,0,1,.489.389A.751.751,0,0,1,10.173,274.944Zm16.481,16.33L14.965,302.964a.789.789,0,0,1-1.154,0l-1.254-1.254a.789.789,0,0,1,0-1.154l9.858-9.858-9.858-9.858a.789.789,0,0,1,0-1.154l1.254-1.254a.789.789,0,0,1,1.154,0L26.654,290.12a.789.789,0,0,1,0,1.154Z" transform="translate(17344.092 -15996.304)" fill="#039be5"/>
  </g>
</svg>
