<svg xmlns="http://www.w3.org/2000/svg" width="249.206" height="43.026" viewBox="0 0 249.206 43.026">
  <g id="logo" transform="translate(-3.3 -4.5)">
    <path id="Trazado_3" data-name="Trazado 3" d="M70.272,23.025h2.915l7.842,17.9H77.7l-1.8-4.233H67.5l-1.8,4.3H62.5Zm4.511,10.9L71.73,26.772,68.676,33.92h6.107Zm8.4-6.385h3.053v3.053a4.682,4.682,0,0,1,4.788-3.262v3.262h-.208c-2.706,0-4.58,1.735-4.58,5.344v5.135H83.18ZM93.174,43.5l1.11-2.29a8.665,8.665,0,0,0,4.788,1.457c2.776,0,4.233-1.457,4.233-4.094V37.529a5.552,5.552,0,0,1-4.719,2.5,6.038,6.038,0,0,1-6.107-6.246v-.069A6.075,6.075,0,0,1,98.587,27.4a5.774,5.774,0,0,1,4.719,2.29V27.674h3.053V38.361c0,2.29-.555,3.956-1.735,5.066-1.249,1.249-3.123,1.8-5.482,1.8A13.285,13.285,0,0,1,93.174,43.5Zm10.2-9.854a3.781,3.781,0,0,0-3.956-3.747A3.609,3.609,0,0,0,95.6,33.573v.069a3.648,3.648,0,0,0,3.817,3.678,3.768,3.768,0,0,0,3.956-3.678Zm5.691.694c0-3.886,2.706-7.009,6.593-7.009,4.3,0,6.454,3.331,6.454,7.217l-.069.833h-9.924a3.728,3.728,0,0,0,3.886,3.4,4.734,4.734,0,0,0,3.609-1.6l1.8,1.6a6.8,6.8,0,0,1-5.482,2.5,6.662,6.662,0,0,1-6.87-6.94Zm9.924-1.041c-.208-2.013-1.388-3.539-3.4-3.539-1.874,0-3.192,1.457-3.47,3.539Zm5.691-5.76h3.053v2.082a4.782,4.782,0,0,1,4.164-2.36c3.053,0,4.788,2.013,4.788,5.135v8.536h-3.053V33.3c0-2.082-1.041-3.262-2.845-3.262a3,3,0,0,0-3.053,3.331v7.564H124.68V27.535Zm15.892,9.716V30.172h-1.735V27.535h1.735V23.857h3.053v3.678h3.609v2.637h-3.609v6.593a1.471,1.471,0,0,0,1.666,1.666,3.47,3.47,0,0,0,1.874-.486v2.5a5.466,5.466,0,0,1-2.776.694c-2.221.069-3.817-.9-3.817-3.886Zm9.369-14.643h3.331v2.915h-3.331V22.608Zm.139,4.927h3.053V40.929h-3.053Zm6.593,0h3.053v2.082a4.782,4.782,0,0,1,4.164-2.36c3.053,0,4.788,2.013,4.788,5.135v8.536h-3.053V33.3c0-2.082-1.041-3.262-2.845-3.262a3,3,0,0,0-3.053,3.331v7.564h-3.053Zm14.365,9.577c0-2.915,2.29-4.372,5.552-4.372a10.658,10.658,0,0,1,3.609.555v-.347c0-1.874-1.18-2.915-3.331-2.915a9.358,9.358,0,0,0-3.817.833l-.833-2.429a10.942,10.942,0,0,1,5.066-1.11,5.913,5.913,0,0,1,4.441,1.527,5.634,5.634,0,0,1,1.457,4.164V41h-3.053V39.333a5.344,5.344,0,0,1-4.372,1.943c-2.5,0-4.719-1.457-4.719-4.164Zm9.16-.972v-.9a8.892,8.892,0,0,0-3.053-.555c-2.013,0-3.123.833-3.123,2.221v.069c0,1.319,1.11,2.013,2.637,2.013,2.013.069,3.539-1.11,3.539-2.845Zm5.968,1.319h3.4V41h-3.4Zm6.523,6.038,1.11-2.29a8.665,8.665,0,0,0,4.788,1.457c2.776,0,4.233-1.457,4.233-4.094V37.529a5.552,5.552,0,0,1-4.719,2.5A6.038,6.038,0,0,1,192,33.781v-.069A6.075,6.075,0,0,1,198.1,27.4a5.774,5.774,0,0,1,4.719,2.29V27.674h3.053V38.361c0,2.29-.555,3.956-1.735,5.066-1.249,1.249-3.123,1.8-5.482,1.8A13.285,13.285,0,0,1,192.689,43.5Zm10.2-9.854a3.781,3.781,0,0,0-3.956-3.747,3.609,3.609,0,0,0-3.817,3.678v.069a3.648,3.648,0,0,0,3.817,3.678,3.768,3.768,0,0,0,3.956-3.678Zm5.621.694a7.036,7.036,0,0,1,7.148-7.079,6.964,6.964,0,0,1,7.148,6.94v.069a7.038,7.038,0,0,1-7.217,7.009,6.94,6.94,0,0,1-7.079-6.94Zm11.242,0a4.169,4.169,0,0,0-4.094-4.372,4.012,4.012,0,0,0-4.025,4.3v.069a4.067,4.067,0,1,0,8.119,0Zm8.813,4.58V41h-3.053V22.4h3.053v7.356a5.318,5.318,0,0,1,4.58-2.5c3.123,0,6.246,2.5,6.246,6.94v.069c0,4.441-3.053,6.94-6.246,6.94a5.135,5.135,0,0,1-4.58-2.29Zm7.634-4.65c0-2.637-1.735-4.372-3.817-4.372a4.033,4.033,0,0,0-3.886,4.3v.069a4.033,4.033,0,0,0,3.886,4.3C234.467,38.57,236.2,36.9,236.2,34.267Zm5.621,3.192h3.4V41h-3.4Zm5.691-.347c0-2.915,2.29-4.372,5.552-4.372a10.658,10.658,0,0,1,3.609.555v-.347c0-1.874-1.18-2.915-3.331-2.915a9.358,9.358,0,0,0-3.817.833l-.833-2.429a10.942,10.942,0,0,1,5.066-1.11,5.913,5.913,0,0,1,4.441,1.527,5.634,5.634,0,0,1,1.457,4.164V41h-2.984V39.333a5.344,5.344,0,0,1-4.372,1.943c-2.568,0-4.788-1.457-4.788-4.164Zm9.16-.972v-.9a8.892,8.892,0,0,0-3.053-.555c-2.013,0-3.123.833-3.123,2.221v.069c0,1.319,1.11,2.013,2.637,2.013C255.147,39.055,256.674,37.876,256.674,36.141Zm6.107-8.605h3.053v3.053a4.682,4.682,0,0,1,4.788-3.262v3.262h-.208c-2.706,0-4.58,1.735-4.58,5.344v5.135h-3.053V27.535Z" transform="translate(-18.117 -5.478)" fill="#0094d4"/>
    <path id="Trazado_4" data-name="Trazado 4" d="M17.654,29.551H15.225a1.073,1.073,0,0,1-.972-.416,1.308,1.308,0,0,1-.278-.625V28.44l.069-.763A7.99,7.99,0,0,1,15.5,24.415l-.139-.069a.888.888,0,0,1-.416-.972,2.286,2.286,0,0,1,.694-1.18,3.213,3.213,0,0,1,2.221-1.041,2.933,2.933,0,0,1,2.706,1.6A15.487,15.487,0,0,1,22.1,27.816v.763a.637.637,0,0,1-.278.416,1.838,1.838,0,0,1-.972.486h-2.36v3.4H29.244A17.558,17.558,0,0,0,25.913,22.4a11.52,11.52,0,0,0-3.539-3.123,8.93,8.93,0,0,0-4.3-1.18,8.728,8.728,0,0,0-4.3,1.18A12.491,12.491,0,0,0,10.229,22.4,16.864,16.864,0,0,0,6.9,32.882H17.654V29.551Z" transform="translate(-1.099 -4.162)" fill="#0090d1"/>
    <path id="Trazado_5" data-name="Trazado 5" d="M6.9,39.5a18.944,18.944,0,0,0,.486,4.441c4.788-.555,7.7-1.11,8.536-1.666a2.555,2.555,0,0,1,1.735-.625V39.569H6.9Zm11.451,2.221,1.11.347H19.6a5.114,5.114,0,0,1,1.874.416l.694.208a36.959,36.959,0,0,0,6.523,1.319,19.118,19.118,0,0,0,.555-4.511h-10.9Z" transform="translate(-1.102 -10.711)" fill="#fff"/>
    <path id="Trazado_6" data-name="Trazado 6" d="M18.6,16.1Zm0,0" transform="translate(-4.682 -3.55)" fill="#1d1d1b"/>
    <path id="Trazado_7" data-name="Trazado 7" d="M23.671,49.4l-.208.278a.891.891,0,0,1-.694.278l-.208.278a.986.986,0,0,1-.972.347l-.208.278a.867.867,0,0,1-.9.278l-.347.208a1.562,1.562,0,0,1-.833.069v2.845a.347.347,0,0,1-.694,0V51.551l-.486.069h-.208a.8.8,0,0,1-.486-.347,1.254,1.254,0,0,1-.972-.139l-.278-.347-.347-.069a.746.746,0,0,1-.625-.555h-.278c-.278-.069-.625-.139-.763-.486l-.069-.208L10,51.413l.972,1.527a11.52,11.52,0,0,0,5.413,3.956l.278-.278a2.859,2.859,0,0,1,2.151,0c.347-.069,1.527-.416,2.151,0l.278.278a9.022,9.022,0,0,0,1.874-.833,12.492,12.492,0,0,0,3.539-3.123l.972-1.388A21.1,21.1,0,0,1,23.671,49.4" transform="translate(-2.05 -13.741)" fill="#fff"/>
    <path id="Trazado_8" data-name="Trazado 8" d="M22.372,62.271v-.486a2.378,2.378,0,0,0,1.249-.625.865.865,0,0,0,.208-.833.694.694,0,0,0-.347-.625,2.859,2.859,0,0,0-2.151,0c-.347-.069-1.527-.416-2.151,0a.694.694,0,0,0-.347.625l.208.833a2.128,2.128,0,0,0,1.319.625V62.2A4.082,4.082,0,0,1,18,63.312l.347.416a4.977,4.977,0,0,0,2.221-1.11l.139.139c-.069.278-.416,1.041-1.735,1.388a2.426,2.426,0,0,0,.833.208A2.429,2.429,0,0,0,21.192,62.9h.416A2.416,2.416,0,0,0,23,64.353l.833-.208c-1.319-.347-1.666-1.11-1.735-1.388l.139-.139a4.352,4.352,0,0,0,2.221,1.11l.347-.416a3.47,3.47,0,0,1-2.429-1.041" transform="translate(-4.499 -16.826)" fill="#0090d1"/>
    <path id="Trazado_9" data-name="Trazado 9" d="M23.458,60.339l.139.278a.586.586,0,0,1-.139.486,1.388,1.388,0,0,1-.625.347.821.821,0,0,0,.069-.694.734.734,0,0,0-.416-.486,1.434,1.434,0,0,1,.972.069m-2.776.555a.979.979,0,0,1,.9-.486l.416.069a.609.609,0,0,1,.486.416.575.575,0,0,1-.208.555,1.233,1.233,0,0,0-.694-.278.891.891,0,0,0-.694.278.525.525,0,0,1-.208-.555m-.347.555L19.71,61.1a.586.586,0,0,1-.139-.486l.139-.278.625-.139h.278l-.416.486a.91.91,0,0,0,.139.763m.694.833a.555.555,0,1,1,.555.555c-.278-.069-.555-.278-.555-.555m3.539,1.8a4.977,4.977,0,0,1-2.221-1.11l-.139.139c.069.278.416,1.041,1.735,1.388l.625-.416m-3.747-1.18a4.352,4.352,0,0,1-2.221,1.11l.625.416c1.319-.347,1.666-1.11,1.735-1.388l-.139-.139" transform="translate(-4.682 -17.046)" fill="#fff"/>
    <path id="Trazado_10" data-name="Trazado 10" d="M30.365,31.7,30.3,31.5l-.139-.069.139-.278a5.466,5.466,0,0,0,.278-1.6l-.069-.208-.139-.069L30.434,29a5.7,5.7,0,0,0,.139-1.6l-.139-.208H30.3l.069-.347a4.164,4.164,0,0,0-.069-1.6l-.139-.139h-.139l.069-.278a4.279,4.279,0,0,0-.139-1.6L29.81,23.1H29.6v-.416a4.061,4.061,0,0,0-.347-1.527l-.139-.139h-.208V20.67a4.858,4.858,0,0,0-.486-1.527c-.069-.069-.069-.139-.208-.139l-.139.069-.069-.347a4.648,4.648,0,0,0-.694-1.457L27.1,17.2l-.208.069-.139-.347a4.969,4.969,0,0,0-.9-1.319l-.208-.069-.139.069-.208-.347a5.775,5.775,0,0,0-1.11-1.18l-.208-.069-.139.139a2.445,2.445,0,0,0-1.249-.9h.278a3.177,3.177,0,0,0,1.11-.069.382.382,0,0,0,.208-.347.3.3,0,0,0-.278-.278,2.753,2.753,0,0,1-1.319-.347l-.208-.139,1.666-.278a.278.278,0,0,0,0-.555l-1.6-.208.625-.208a3.4,3.4,0,0,0,.972-.486.242.242,0,0,0,.069-.347c-.069-.069-.208-.208-.347-.139a2.351,2.351,0,0,1-1.319.139h-.208l1.388-.833a.264.264,0,1,0-.208-.486l-1.6.416.486-.416a3,3,0,0,0,.694-.833.305.305,0,0,0-.069-.347h-.347a2.7,2.7,0,0,1-1.18.694l-.208.069.9-1.319V6.582c-.069-.069-.278-.139-.347,0l-1.319.972.347-.625a3.789,3.789,0,0,0,.347-1.041c0-.139-.069-.278-.208-.278a.253.253,0,0,0-.347.139,2.253,2.253,0,0,1-.833,1.041l-.139.139.416-1.6c.069-.139-.069-.278-.139-.347a.253.253,0,0,0-.347.139l-.833,1.457.069-.694a1.679,1.679,0,0,0-.139-1.11.382.382,0,0,0-.347-.208c-.139,0-.416.069-.416.278a2.753,2.753,0,0,1-.347,1.319l-.069.208-.208-1.6a.278.278,0,1,0-.555,0l-.208,1.6-.208-.625a3.4,3.4,0,0,0-.486-.972.242.242,0,0,0-.347-.069.253.253,0,0,0-.139.347,2.351,2.351,0,0,1,.139,1.319v.208l-.833-1.457a.264.264,0,1,0-.486.208l.208,1.6-.416-.486a3,3,0,0,0-.833-.694.305.305,0,0,0-.347.069v.347a2.7,2.7,0,0,1,.694,1.18l.069.208L12.113,6.513h-.347c-.069.069-.139.278,0,.347l.972,1.319L12.183,7.9A6.94,6.94,0,0,0,11,7.623c-.139,0-.278.069-.278.208a.253.253,0,0,0,.139.347,2.253,2.253,0,0,1,1.041.833l.139.139-1.6-.416c-.139-.069-.278.069-.347.139a.253.253,0,0,0,.139.347l1.388.833-.694-.069a1.679,1.679,0,0,0-1.11.139.382.382,0,0,0-.208.347.3.3,0,0,0,.278.278,2.753,2.753,0,0,1,1.319.347l.208.069-1.666.208a.278.278,0,1,0,0,.555l1.666.208-.625.208a1.884,1.884,0,0,0-.972.555.242.242,0,0,0-.069.347.253.253,0,0,0,.347.139l.833-.208-.763.694-.208.278-.139-.069-.208.069a4.422,4.422,0,0,0-1.11,1.18l-.208.347L8.158,15.6l-.208.069a4.969,4.969,0,0,0-.9,1.319l-.139.347h0l-.208.069A5.552,5.552,0,0,0,5.937,18.8l-.069.416-.208-.069-.208.139a4.346,4.346,0,0,0-.486,1.527v.347l-.208-.069-.139.139a6.819,6.819,0,0,0-.347,1.527V23.1H4.063l-.139.139a6.485,6.485,0,0,0-.139,1.6l.069.278H3.786l-.139.139a4.164,4.164,0,0,0-.069,1.6l.069.347H3.578c-.069,0-.139.069-.139.208A4.069,4.069,0,0,0,3.508,29l.069.278H3.439l-.139.208a5.915,5.915,0,0,0,.208,1.6l.139.416-.208.069-.069.208A4.932,4.932,0,0,0,3.855,33.3l.139.208-.139.069-.069.208a4.627,4.627,0,0,0,.625,1.457l.208.347-.139.069v.208a5.2,5.2,0,0,0,.763,1.388l.208.208-.139.139v.208a4.858,4.858,0,0,0,.9,1.319l.208.208-.139.139v.208a5.968,5.968,0,0,0,1.388,1.457H7.6l-.139.139.069.208a5.066,5.066,0,0,0,2.29,1.388h.9a12.075,12.075,0,0,0,4.3,1.874l.416.069-.763-.486-.069-.139a11.034,11.034,0,0,1-3.539-1.666L11,41.836a8.867,8.867,0,0,0,1.457.972,12.349,12.349,0,0,0,2.013.833V43.5l.069-.347a9.022,9.022,0,0,1-1.874-.833A12.491,12.491,0,0,1,9.129,39.2l-.972-1.527c.763-.347,2.568-1.11,4.094-1.943l.069.208a1.138,1.138,0,0,0,.763.486h.278c.069.278.347.416.625.555l.347.069.278.347a1.219,1.219,0,0,0,.972.139l.486.347h.208l.486-.069v2.706a.347.347,0,0,0,.694,0V37.672a1.481,1.481,0,0,0,.833-.069l.347-.208a.867.867,0,0,0,.9-.278l.208-.278a1.589,1.589,0,0,0,.972-.347l.208-.278a1.06,1.06,0,0,0,.694-.278l.208-.278a19.431,19.431,0,0,0,4.025,2.151L24.883,39.2a11.52,11.52,0,0,1-5.413,3.956l.069.347v.139a9.507,9.507,0,0,0,3.47-1.874l-.069.694a12.318,12.318,0,0,1-1.6.972,10.245,10.245,0,0,1-1.874.694H19.4l-.069.139a1.319,1.319,0,0,1-.763.486l1.041-.208a11.936,11.936,0,0,0,3.678-1.8h.833l1.041-.416a5.092,5.092,0,0,0,1.249-.972l.069-.208L26.34,41h-.069l.347-.278a3.47,3.47,0,0,0,1.041-1.18v-.208L27.52,39.2l.208-.208a3.7,3.7,0,0,0,.9-1.319v-.208l-.139-.139.208-.278a5.2,5.2,0,0,0,.763-1.388v-.208l-.208-.069.208-.278a4.627,4.627,0,0,0,.625-1.457l-.069-.208-.208-.069.208-.347a4.439,4.439,0,0,0,.347-1.319m-.278-1.8a2.877,2.877,0,0,1-.208,1.11,2.4,2.4,0,0,1-.486.833,2.625,2.625,0,0,1-.555.486,2.433,2.433,0,0,1-.486-1.6l.069-.625a2.746,2.746,0,0,1,.416.833l.139.139.139-.069a2.647,2.647,0,0,1,.972-1.11m0-2.082-.069,1.11a2.151,2.151,0,0,1-.416.9,2.082,2.082,0,0,1-.555.555,3.263,3.263,0,0,1-.625-2.082l.486.763.139.069L29.185,29a2.876,2.876,0,0,1,.9-1.18m-.278-2.151h0a3.47,3.47,0,0,1-.278,2.013,2.117,2.117,0,0,1-.486.555,3.311,3.311,0,0,1-.763-2.013,2.362,2.362,0,0,1,.555.694l.139.069.139-.139a4.388,4.388,0,0,1,.694-1.18m-.278-1.943a3.091,3.091,0,0,1,.069,1.11l-.278.972a1.831,1.831,0,0,1-.416.625,2.341,2.341,0,0,1-.763-1.388l-.069-.555a2.24,2.24,0,0,1,.625.694l.208.069.139-.139a1.874,1.874,0,0,1,.486-1.388m-15.961.069v-.069a6.87,6.87,0,0,1,1.943-3.609l.139-.069a.3.3,0,0,0-.347-.486l-.139.139a.677.677,0,0,1-.555.139.555.555,0,0,1-.139-.347,4.4,4.4,0,0,1,.486-.833,2.776,2.776,0,0,1,1.735-.833l.763.139a2.2,2.2,0,0,1,1.319,1.18,11.5,11.5,0,0,1,.972,2.568,3.74,3.74,0,0,1-1.11-.625c-.069-.278-.278-.278-.347-.139l-.069.208.139.208a4.674,4.674,0,0,0,1.666.833l.208.972-.9-.278-.486-.139a3.24,3.24,0,0,1-1.11-.694.347.347,0,1,0-.416.555,6.272,6.272,0,0,0,1.319.763l.555.208c.763.208,1.11.347,1.18.763l-.069.139a1.405,1.405,0,0,1-.972.278h-.763a2.878,2.878,0,0,1-1.527-.416c-1.8-1.11-2.568-.9-3.47-.555m2.776.972H14.126l-.486-.139-.069-.069c.972-.486,1.457-.625,2.776.208m.9,4.025v-3.4h2.36a1.455,1.455,0,0,0,.972-.486l.278-.416v-.763a13.951,13.951,0,0,0-1.527-5.066,2.667,2.667,0,0,0-2.706-1.6,3.192,3.192,0,0,0-2.915,2.221.847.847,0,0,0,.416.972l.139.069a6.815,6.815,0,0,0-1.457,3.262l-.069.763v.069l.278.625a1.073,1.073,0,0,0,.972.416h2.429V30.94A29.7,29.7,0,0,1,6.145,33.23,18.945,18.945,0,0,1,8.991,18.31a11.5,11.5,0,0,1,3.539-3.123,8.93,8.93,0,0,1,4.3-1.18,8.728,8.728,0,0,1,4.3,1.18,12.491,12.491,0,0,1,3.539,3.123,16.864,16.864,0,0,1,3.331,10.479A19.578,19.578,0,0,1,27.45,33.3a27.835,27.835,0,0,1-6.523-1.319l-.694-.208a3.843,3.843,0,0,0-1.874-.416H18.22l-1.11-.347V28.789Zm4.58-15.406-.763.208-.555.069a2.91,2.91,0,0,1-1.11-.278l.625-.278h.9a1.968,1.968,0,0,1,.9.278m.416,1.18h0l-.555.139h-.069a2.553,2.553,0,0,1-1.457-.555l.625-.139a1.931,1.931,0,0,1,1.457.555m-2.29-1.8-1.041.278-.139.139.069.208a3.542,3.542,0,0,1,.694.625,2.6,2.6,0,0,1-2.013-.9l.555-.347a2.175,2.175,0,0,1,1.874,0h0M17.8,12.411a2.45,2.45,0,0,1-.972.486l-.139.139.139.139a2.187,2.187,0,0,1,.763.486h-.416a2.887,2.887,0,0,1-1.735-.486,1,1,0,0,1,.486-.416,2.546,2.546,0,0,1,1.874-.347h0m-2.221,0a4.035,4.035,0,0,1-.9.694.133.133,0,0,0-.069.208l.139.139a2.613,2.613,0,0,1,.833.278l-.555.139-.625.069a2.776,2.776,0,0,1-1.041-.208l.347-.555a2.918,2.918,0,0,1,1.874-.763M12.738,13.8l-.069.208.139.139h.416l.486.069-.555.208a3.47,3.47,0,0,1-1.041.208l-.625-.069c.069-.347.416-1.249,1.943-1.8,0,.278-.278.625-.694,1.041m15.684,9.16a3.663,3.663,0,0,1,.416-1.319,3.143,3.143,0,0,1,.208,1.11,2.206,2.206,0,0,1-.139.972,2.082,2.082,0,0,1-.347.625,2.453,2.453,0,0,1-.972-1.319l-.139-.555a2.325,2.325,0,0,1,.694.555l.208.069.069-.139m-.694-1.874a3.483,3.483,0,0,1,.278-1.388l.347,1.041a2.29,2.29,0,0,1-.278,1.666,2.314,2.314,0,0,1-1.11-1.18l-.208-.555a4.858,4.858,0,0,1,.763.486h.208v-.069m-.9-1.6.069-.208a2.65,2.65,0,0,1,.139-1.388l.416,1.041a2.385,2.385,0,0,1,.069.972,2.082,2.082,0,0,1-.208.694,3.15,3.15,0,0,1-1.319-1.041L25.715,19l.833.416.278.069m-1.319-1.666h.208l.069-.208a3.252,3.252,0,0,1-.069-1.388,3.178,3.178,0,0,1,.555.9,2.449,2.449,0,0,1,.208.972l-.069.763a2.286,2.286,0,0,1-1.388-.833l-.416-.486a1.831,1.831,0,0,1,.9.278m-1.319-1.457L24.4,16.3v-.208a3.063,3.063,0,0,1-.347-1.319,3.68,3.68,0,0,1,.694.833,2.637,2.637,0,0,1,.486,1.666,3.058,3.058,0,0,1-1.457-.555l-.486-.416h.069c.486-.139.833,0,.833.069M23.7,14.979a2.24,2.24,0,0,1,.139.833h-.069a4.092,4.092,0,0,1-1.943-.763,3.47,3.47,0,0,1,.9,0l.208-.069v-.208a3.069,3.069,0,0,1-.555-1.041A2.341,2.341,0,0,1,23.7,14.979M10.864,12.9l.069-.069,1.041-.278c.486-.069.763-.278.763-.347l.069-.139-.069-.069-2.013-.278,2.013-.278.069-.139-.069-.139-.9-.278-.347-.208-.555-.278h.139l1.041.139h.833l.069-.069-.069-.139-1.8-1.041,2.013.486.139-.069-.069-.139a2.022,2.022,0,0,1-.694-.625l-.278-.278-.416-.486.069.069.9.486a2.368,2.368,0,0,0,.763.347l.139-.069V8.872L12.46,7.207l1.666,1.249h.139c.069-.069.069-.139,0-.139a4.1,4.1,0,0,1-.416-.833l-.139-.416L13.5,6.443l.069.069.625.833.625.625h.139l.069-.139-.486-2.013,1.041,1.943.139.069.069-.139a2.417,2.417,0,0,1-.069-.972V5.68l.069.069.278,1.041a2.454,2.454,0,0,0,.278.763l.139.069.069-.069L16.9,5.541l.278,2.013.139.069.139-.069.278-.9.208-.347.278-.555v.139l-.139,1.041a2.776,2.776,0,0,0,0,.833l.069.069.139-.069,1.041-1.8L18.845,7.97l.069.139.139-.069a2.24,2.24,0,0,1,.625-.694l.278-.278.486-.416-.069.069-.486.9a2.368,2.368,0,0,0-.347.763l.069.139h.139l1.666-1.249L20.094,9.011a.1.1,0,0,0,0,.139c.069.069.139.069.139,0a2.631,2.631,0,0,1,.833-.416l.416-.139.625-.208-.069.069L21.2,9.08c-.416.278-.625.555-.625.625v.139l.139.069,2.013-.486-1.874.972-.069.139.139.069a2.9,2.9,0,0,1,.972-.069h1.041l-.069.069-1.041.278c-.486.069-.763.278-.763.347L21,11.37l.069.069,2.013.278-2.013.278L21,12.134l.069.139a2.787,2.787,0,0,1,.9.278l.347.208.555.278h-.139L21.69,12.9h-.069a3.267,3.267,0,0,0-1.11-.278l-.139-.139a4.164,4.164,0,0,0-1.527-.278h-.486v-.069c0-.069-.069-.139-.208-.139h-1.6L16,12.134l-.069-.139-.208-.069a4.938,4.938,0,0,0-1.527.347l-.347.139-.069-.139-.208-.069a4.627,4.627,0,0,0-1.457.625H11.35l-.486.069m.555.625A2.224,2.224,0,0,1,11,14.84v.208l.208.069.9-.069a3.6,3.6,0,0,1-1.943.833H10.1c-.139-.416,0-1.457,1.319-2.36M8.574,16.436a2.63,2.63,0,0,1,.416-.9l.763-.833a2.669,2.669,0,0,1-.347,1.319v.208l.208.069.833-.139-.486.416a2.282,2.282,0,0,1-1.388.555H8.5l.069-.694m-.416-.208a2.429,2.429,0,0,1-.069,1.388l.069.208h.208a1.452,1.452,0,0,1,.833-.278,3.1,3.1,0,0,1-1.8,1.319,2.724,2.724,0,0,1,.763-2.637m-1.8,2.706a2.564,2.564,0,0,1,.486-.972,2.809,2.809,0,0,1,.069,1.388l.069.208h.208a1.639,1.639,0,0,1,.833-.416l-.347.555a2.536,2.536,0,0,1-1.319.972,2.082,2.082,0,0,1-.208-.694l.208-1.041m-.972,1.874a3.07,3.07,0,0,1,.347-1.041,3.222,3.222,0,0,1,.278,1.388l.069.139h.208a2.152,2.152,0,0,1,.833-.486l-.208.486A2.776,2.776,0,0,1,5.66,22.543l-.278-.694V20.808m-.555.833h0a2.622,2.622,0,0,1,.486,1.319l.139.139.208-.069a2.9,2.9,0,0,1,.763-.625l-.139.555a2.957,2.957,0,0,1-1.041,1.388,1.209,1.209,0,0,1-.347-.625l-.139-.972a3.091,3.091,0,0,1,.069-1.11m-.555,2.013A2.58,2.58,0,0,1,4.9,24.9l.139.139.208-.069a3.542,3.542,0,0,1,.625-.694l-.069.555a2.776,2.776,0,0,1-.833,1.457,1.831,1.831,0,0,1-.416-.625l-.278-.972V23.654m-.347,2.013h0a2.64,2.64,0,0,1,.694,1.18l.139.139.139-.069a2.362,2.362,0,0,1,.555-.694l-.069.625A2.409,2.409,0,0,1,4.688,28.3L4.2,27.748a1.968,1.968,0,0,1-.278-.9v-1.18m-.139,2.151.139.139A3.393,3.393,0,0,1,4.549,29c0,.069.069.139.208.139L4.9,29a1.556,1.556,0,0,1,.416-.763v.972a1.973,1.973,0,0,1-.625,1.18,2.87,2.87,0,0,1-.9-2.568M3.716,29.9l.139.139a2.917,2.917,0,0,1,.694.972l.139.069.139-.139.486-.833a2.776,2.776,0,0,1-.486,2.151,2.644,2.644,0,0,1-1.11-2.36m.069,2.151h0a2.893,2.893,0,0,1,1.041.9l.208.069.139-.139.347-.9.208.555A2.33,2.33,0,0,1,5.451,34.2a3,3,0,0,1-.625-.416L4.2,33.022a2.548,2.548,0,0,1-.416-.972m.486,2.013c0-.069.069-.069,0,0l.208.069a2.881,2.881,0,0,1,.972.763l.208.069.139-.139a3.383,3.383,0,0,1,.278-.9,2.635,2.635,0,0,1,.069,2.221,2.926,2.926,0,0,1-1.874-2.082m1.249,2.915a3.246,3.246,0,0,1-.555-.972l.139.069a2.423,2.423,0,0,1,1.041.694h.208l.139-.139a3.3,3.3,0,0,1,.139-.9l.278.555a2.3,2.3,0,0,1,.069,1.666,1.286,1.286,0,0,1-.694-.278,2.475,2.475,0,0,1-.763-.694m.278.972a2.776,2.776,0,0,1,1.249.555h.208l.069-.139a2.271,2.271,0,0,1,.069-.9l.278.486a2.378,2.378,0,0,1,.278,1.6l-.694-.139-.833-.555-.625-.9m3.956,3.47-.208-.9a2.669,2.669,0,0,1,1.041,1.943h-.278l-.416-.069A3.865,3.865,0,0,1,8.158,41.35a2.082,2.082,0,0,1,1.388.208l.208-.069v-.069M8.227,40.17h.208l.069-.208a2.187,2.187,0,0,1-.069-.9,2.993,2.993,0,0,1,.833,2.013H9.2a1.509,1.509,0,0,1-.694-.139,2.6,2.6,0,0,1-.833-.486,2.958,2.958,0,0,1-.763-.833,7.872,7.872,0,0,1,1.319.555m6.732-4.511-.139.139a1.85,1.85,0,0,0-.694.833l-.139-.069c-.278-.069-.278-.208-.278-.278,0-.139.069-.278.278-.486l.625-.347.208.069c.069-.069.069,0,.139.139h0m.347,1.388c-.139,0-.416.069-.555-.069l-.069-.139c0-.208.278-.486.486-.625l.625-.347.208.069.069.139-.208.278a1.312,1.312,0,0,0-.555.694m1.457.069c-.139.069-.486.347-.763.278l-.139-.069a1.58,1.58,0,0,1,.625-.555c.347-.208.486-.069.486-.069l.069.139-.278.278M13.71,35.243l-.139.139a1.388,1.388,0,0,0-.416.625h-.139c-.208,0-.278-.069-.278-.139a.245.245,0,0,1,.069-.278.994.994,0,0,1,.763-.347h.069c-.069-.069,0-.069.069,0m7.356.347-.416.139a4.858,4.858,0,0,0-1.6-1.527h-.208l-.139.139v.208l.139.139A3.939,3.939,0,0,1,20.3,36.006l-.069.139a.694.694,0,0,1-.486.208l-.416-.555a7.634,7.634,0,0,0-.763-.625l-.208-.069-.208.139-.069.208.139.208.625.555.278.416-.139.208-.416.139a2.009,2.009,0,0,0-.555-.763.26.26,0,0,0-.416,0l-.069.208.069.208.416.555-.139.069-.486.069.139-.347a.71.71,0,0,0-.278-.625.921.921,0,0,0-.694-.208.7.7,0,0,0-.278-.486,1.052,1.052,0,0,0-.9-.208.787.787,0,0,0-.416-.416.955.955,0,0,0-.763-.069.925.925,0,0,0-.625-.208,1.554,1.554,0,0,0-1.18.416c-1.666.9-3.747,1.8-4.58,2.221A15.781,15.781,0,0,1,6.7,34.688l-.208-.763c2.429-.278,4.372-.555,5.76-.833a10.3,10.3,0,0,0,2.915-.9,1.946,1.946,0,0,1,1.457-.555l.347.069-.278.139-.486.347-.347.278-.416.208c-.347.139-.625.278-.694.555a.638.638,0,0,0,.139.694,1.208,1.208,0,0,0,1.041.347,2.558,2.558,0,0,0,1.18-.347l.347-.208.347-.208a1.592,1.592,0,0,1,.972.069l1.041.555a5.552,5.552,0,0,1,1.457,1.388c-.069-.139-.139,0-.208.069m1.041-.208a4.164,4.164,0,0,1-.486-.416l-.069-.069a10.986,10.986,0,0,0-1.527-1.388,3.263,3.263,0,0,0-2.5-.694,2.082,2.082,0,0,0-.555.278l-.278.208-.9.278-.486-.069-.069-.139.416-.208.486-.278.416-.347.486-.347a1.66,1.66,0,0,1,1.041-.208H18.5a4.47,4.47,0,0,1,1.666.416l.694.208,2.221.625a22.438,22.438,0,0,0,4.233.694l-.208.763a16.688,16.688,0,0,1-1.18,2.776c-.763-.416-2.568-1.249-3.817-2.082m3.539,6.107a4.971,4.971,0,0,1-1.735,1.041l-.416.069h-.278a2.277,2.277,0,0,1,.625-1.527l.416-.416-.208.833.069.208.208.069a1.73,1.73,0,0,1,1.319-.278h0m1.319-1.735a2.958,2.958,0,0,1-.763.833l-.833.486-.694.139H24.6a2.224,2.224,0,0,1,.486-1.527l.347-.486a2.411,2.411,0,0,1-.069.9l.069.208h.208a1.762,1.762,0,0,1,1.319-.555h0m.416-.9-.833.555-.694.139a2.7,2.7,0,0,1,.278-1.6l.278-.486.069.9.069.139h.208a2.082,2.082,0,0,1,1.249-.555,4.174,4.174,0,0,1-.625.9m.972-1.874a2.169,2.169,0,0,1-.763.625,1.286,1.286,0,0,1-.694.278,2.776,2.776,0,0,1,.069-1.666l.208-.486a3.3,3.3,0,0,1,.139.9l.139.139.208-.069a2.082,2.082,0,0,1,1.041-.694l.208-.069a3.678,3.678,0,0,1-.555,1.041m.694-1.943a2.205,2.205,0,0,1-.694.694l-.694.347a2.777,2.777,0,0,1-.069-1.666l.208-.555a3.383,3.383,0,0,1,.278.9l.139.139.208-.069a3.245,3.245,0,0,1,1.11-.833,3.627,3.627,0,0,1-.486,1.041m.555-2.013-.555.763-.625.416a2.668,2.668,0,0,1-.278-1.666l.139-.555.347.9.139.139.139-.069a3.162,3.162,0,0,1,.972-.972,2.908,2.908,0,0,1-.278,1.041" transform="translate(0)" fill="#1d1d1b"/>
    <path id="Trazado_11" data-name="Trazado 11" d="M23.885,13.079a2.2,2.2,0,0,1,1.11.278h.069l1.041.139h.139l-.555-.278-.347-.208a2.776,2.776,0,0,0-.9-.278l-.069-.139.069-.139,2.013-.278L24.44,11.9l-.069-.069.069-.139.763-.347,1.041-.278L26.314,11H25.273l-.972.069L24.163,11l.069-.139,1.735-1.041-2.013.486-.139-.069v-.139a2.216,2.216,0,0,1,.625-.625l.833-.625.069-.069-.625.208-.416.139-.833.416H23.33c-.069-.069-.069-.139,0-.139l1.249-1.666L22.913,8.984h-.139l-.069-.139a1.857,1.857,0,0,1,.347-.763l.486-.9.069-.069-.486.416-.278.278-.625.694-.139.069-.069-.139L22.5,6.416l-1.041,1.8-.139.069-.069-.069V7.388l.139-1.041V6.208l-.278.555L20.9,7.11l-.278.9-.139.069-.139-.069L20.207,6l-.278,2.013-.069.069-.139-.069a2.454,2.454,0,0,1-.278-.763l-.278-1.041L19.1,6.139V7.18l.069.972L19.1,8.29l-.139-.069L17.917,6.486,18.4,8.5l-.069.139h-.139l-.625-.625-.625-.833-.069-.069.208.625.139.416a4.1,4.1,0,0,0,.416.833v.139c-.069.069-.139.069-.139,0L15.835,7.874l1.249,1.666v.139l-.139.069a1.857,1.857,0,0,1-.763-.347,2.6,2.6,0,0,0-.9-.486l-.069-.069.416.486.278.278.694.625.069.139-.139.069-2.013-.486L16.321,11l.069.139-.069.069h-.833l-1.041-.139h-.139l.555.278.347.208.9.278.069.139-.069.139-2.013.278,2.013.278.069.069-.069.139-.763.347-1.041.278-.069.069h1.388a4.627,4.627,0,0,1,1.457-.625l.208.069.069.139.347-.139a4.938,4.938,0,0,1,1.527-.347l.208.069.069.139.555-.139h1.6l.208.139v.069h.486a4.164,4.164,0,0,1,1.527.278c-.069-.278,0-.208,0-.139" transform="translate(-3.305 -0.459)" fill="#fcc200"/>
    <path id="Trazado_12" data-name="Trazado 12" d="M22.19,12.211c2.013-.347,2.221.278,2.221.278a.152.152,0,0,0,.208.069s.139,0,.069-.208c0,0-.208-.625-1.249-.763a5.106,5.106,0,0,0-1.11,0c-.208,0-.208.416-.208.416-.069.208.069.208.069.208m-1.666.347a1.618,1.618,0,0,0-.763-.069c-.9,0-1.11.555-1.11.555-.069.208.069.208.069.208A.215.215,0,0,0,19,13.113s.069-.139.416-.278v.139a.486.486,0,0,0,.972,0l-.069-.208.347.278.278.069c.208,0,.139-.139.139-.139l-.555-.416m1.666.763.278-.069a.461.461,0,0,1,.347-.278l-.069.208a.486.486,0,0,0,.972,0v-.139c.347.069.416.278.416.278a.3.3,0,0,0,.278.139s.139,0,.069-.208c0,0-.208-.555-1.11-.555l-.763.069a.983.983,0,0,0-.416.625c-.139-.208-.208-.069,0-.069m-3.817-.763a.152.152,0,0,0,.208-.069s.208-.555,2.221-.278c0,0,.208.069.139-.139,0,0-.069-.416-.208-.416a2.471,2.471,0,0,0-1.11,0c-1.041.139-1.249.763-1.249.763-.139.139,0,.139,0,.139" transform="translate(-4.594 -2.159)" fill="#1d1d1b"/>
    <path id="Trazado_13" data-name="Trazado 13" d="M27.788,57.3a2.082,2.082,0,0,0-1.388.208l-.208-.069-.069-.208.208-.833-.416.416a2.277,2.277,0,0,0-.625,1.527h.278l.416-.069a2.739,2.739,0,0,0,1.8-.972m-16.1-.9a2.259,2.259,0,0,0,.208.9l-.069.208h-.139A3.726,3.726,0,0,0,10.3,57.3a4.264,4.264,0,0,0,1.735,1.041l.416.069h.278A2.491,2.491,0,0,0,11.688,56.4" transform="translate(-2.142 -15.883)" fill="#289b38"/>
    <path id="Trazado_14" data-name="Trazado 14" d="M36.36,54.894a2.863,2.863,0,0,0-1.319.416h-.208l-.069-.208.069-.9-.347.486A2.776,2.776,0,0,0,34,56.213h.069a1.509,1.509,0,0,0,.694-.139,2.6,2.6,0,0,0,.833-.486,1.442,1.442,0,0,0,.763-.694h0" transform="translate(-9.395 -15.21)" fill="#289b38"/>
    <path id="Trazado_15" data-name="Trazado 15" d="M37.94,52.486a3.141,3.141,0,0,0-1.249.555h-.208l-.069-.139a2.27,2.27,0,0,0-.069-.9l-.278.486a2.7,2.7,0,0,0-.278,1.6,1.376,1.376,0,0,0,.763-.208l.833-.555a4.32,4.32,0,0,0,.555-.833h0" transform="translate(-9.935 -14.536)" fill="#289b38"/>
    <path id="Trazado_16" data-name="Trazado 16" d="M39.288,49.778l-.208.069a2.423,2.423,0,0,0-1.041.694H37.9a.139.139,0,0,1-.139-.139,3.3,3.3,0,0,0-.139-.9l-.208.486a2.3,2.3,0,0,0-.069,1.666,1.286,1.286,0,0,0,.694-.278l.763-.625.486-.972" transform="translate(-10.38 -13.771)" fill="#289b38"/>
    <path id="Trazado_17" data-name="Trazado 17" d="M40.2,46.939a2.712,2.712,0,0,0-1.11.833l-.208.069a.139.139,0,0,1-.139-.139,3.382,3.382,0,0,0-.278-.9l-.208.555a2.778,2.778,0,0,0,.069,1.666l.694-.347.694-.694a3.627,3.627,0,0,0,.486-1.041" transform="translate(-10.668 -12.945)" fill="#289b38"/>
    <path id="Trazado_18" data-name="Trazado 18" d="M40.824,44a2.082,2.082,0,0,0-.972.972l-.139.069a.139.139,0,0,1-.139-.139l-.347-.9-.139.555a2.668,2.668,0,0,0,.278,1.666,1.868,1.868,0,0,0,.625-.416l.555-.763A2.3,2.3,0,0,0,40.824,44h0" transform="translate(-10.945 -12.088)" fill="#289b38"/>
    <path id="Trazado_19" data-name="Trazado 19" d="M40.263,42.11l-.139.069a.139.139,0,0,1-.139-.139,2.746,2.746,0,0,0-.416-.833l-.069.625a2.433,2.433,0,0,0,.486,1.6,2.625,2.625,0,0,0,.555-.486,3.281,3.281,0,0,0,.486-.833A2.877,2.877,0,0,0,41.235,41a2.608,2.608,0,0,0-.972,1.11" transform="translate(-11.078 -11.17)" fill="#289b38"/>
    <path id="Trazado_20" data-name="Trazado 20" d="M40.225,39.319l-.139-.069-.486-.763a3.263,3.263,0,0,0,.625,2.082,1.95,1.95,0,0,0,.555-.555,3.588,3.588,0,0,0,.416-.9L41.335,38a2.854,2.854,0,0,0-.763,1.18l-.347.139" transform="translate(-11.109 -10.252)" fill="#289b38"/>
    <path id="Trazado_21" data-name="Trazado 21" d="M40.094,36.419l-.139-.069-.555-.694a3.311,3.311,0,0,0,.763,2.013l.486-.555a1.968,1.968,0,0,0,.278-.9,2.981,2.981,0,0,0,0-1.11,3.284,3.284,0,0,0-.694,1.249l-.139.069" transform="translate(-11.048 -9.364)" fill="#289b38"/>
    <path id="Trazado_22" data-name="Trazado 22" d="M39.633,33.557l-.208-.069-.625-.625.069.555a3.47,3.47,0,0,0,.763,1.388,1.831,1.831,0,0,0,.416-.625l.278-.972a3.091,3.091,0,0,0-.069-1.11,2.58,2.58,0,0,0-.625,1.249c.139.139.069.139,0,.208" transform="translate(-10.864 -8.446)" fill="#289b38"/>
    <path id="Trazado_23" data-name="Trazado 23" d="M39,30.757l-.208-.069-.694-.555.139.555a2.776,2.776,0,0,0,.972,1.319l.347-.625.139-.972-.208-1.11a2.671,2.671,0,0,0-.416,1.319L39,30.757" transform="translate(-10.65 -7.589)" fill="#289b38"/>
    <path id="Trazado_24" data-name="Trazado 24" d="M37.763,27.957,37,27.472l.208.555a2.632,2.632,0,0,0,1.11,1.18l.278-.694v-.972a3.07,3.07,0,0,0-.347-1.041,3.222,3.222,0,0,0-.278,1.388l-.069.139-.139-.069" transform="translate(-10.313 -6.733)" fill="#289b38"/>
    <path id="Trazado_25" data-name="Trazado 25" d="M35.7,24.91l.278.555A2.418,2.418,0,0,0,37.3,26.506l.208-.694-.069-.972L37.019,23.8a2.65,2.65,0,0,0-.139,1.388l-.069.208H36.6a3.2,3.2,0,0,0-.9-.486" transform="translate(-9.915 -5.906)" fill="#289b38"/>
    <path id="Trazado_26" data-name="Trazado 26" d="M34,22.719l.416.486a2.286,2.286,0,0,0,1.388.833,1.233,1.233,0,0,0,.069-.763,2.776,2.776,0,0,0-.208-.972l-.555-.9a3.252,3.252,0,0,0,.069,1.388L35.11,23H34.9a1.831,1.831,0,0,0-.9-.278h0" transform="translate(-9.395 -5.172)" fill="#289b38"/>
    <path id="Trazado_27" data-name="Trazado 27" d="M25.958,20.8l-.208.069-.833-.139h-.069l.486.416a2.488,2.488,0,0,0,1.457.555,1.589,1.589,0,0,0-.069-.763,2.63,2.63,0,0,0-.416-.9l-.694-.833a2.669,2.669,0,0,0,.347,1.319c.069.139.069.208,0,.278M10.69,45.64h.069a2.993,2.993,0,0,0-.833-2.013,2.187,2.187,0,0,0,.069.9l-.069.208H9.719A2.524,2.524,0,0,0,8.4,44.322a2.958,2.958,0,0,0,.763.833L10,45.64h.694" transform="translate(-1.561 -4.499)" fill="#289b38"/>
    <path id="Trazado_28" data-name="Trazado 28" d="M9.151,54.082a2.378,2.378,0,0,0-.278-1.6L8.6,52l-.069.9-.069.139H8.249A2.082,2.082,0,0,0,7,52.486l.694.9.833.555a1.141,1.141,0,0,0,.625.139" transform="translate(-1.132 -14.536)" fill="#289b38"/>
    <path id="Trazado_29" data-name="Trazado 29" d="M7.613,51.621h0A2.776,2.776,0,0,0,7.266,49.4a3.3,3.3,0,0,0-.139.9l-.139.139-.208-.069a3.856,3.856,0,0,0-1.041-.694L5.6,49.608l.555.972a2.169,2.169,0,0,0,.763.625,1.24,1.24,0,0,0,.694.416" transform="translate(-0.704 -13.741)" fill="#289b38"/>
    <path id="Trazado_30" data-name="Trazado 30" d="M6.5,49.121A2.659,2.659,0,0,0,6.435,46.9a3.383,3.383,0,0,0-.278.9l-.139.139-.208-.069a2.881,2.881,0,0,0-.972-.763L4.7,47.039a3.025,3.025,0,0,0,1.8,2.082" transform="translate(-0.428 -12.976)" fill="#289b38"/>
    <path id="Trazado_31" data-name="Trazado 31" d="M4.972,46a3,3,0,0,0,.625.416,2.082,2.082,0,0,0,.278-1.666L5.666,44.2l-.278.833-.139.139L5.041,45.1A2.915,2.915,0,0,0,4,44.2l.347,1.041L4.972,46" transform="translate(-0.214 -12.149)" fill="#289b38"/>
    <path id="Trazado_32" data-name="Trazado 32" d="M5.08,43.529a2.329,2.329,0,0,0,.486-2.151l-.486.833-.139.139L4.8,42.28a2.322,2.322,0,0,0-.694-.972L3.9,41.1a2.754,2.754,0,0,0,1.18,2.429" transform="translate(-0.184 -11.201)" fill="#289b38"/>
    <path id="Trazado_33" data-name="Trazado 33" d="M4.994,40.668a1.8,1.8,0,0,0,.625-1.18v-.972a1.556,1.556,0,0,0-.416.763l-.139.139-.208-.139a2.429,2.429,0,0,0-.625-1.041L4.092,38.1c-.139,1.666.555,2.36.9,2.568" transform="translate(-0.237 -10.282)" fill="#289b38"/>
    <path id="Trazado_34" data-name="Trazado 34" d="M4.555,37.051a2.117,2.117,0,0,0,.486.555,2.409,2.409,0,0,0,.694-1.457l.069-.625a2.362,2.362,0,0,0-.555.694c0,.069-.069.139-.139.069a.139.139,0,0,1-.139-.139A2.368,2.368,0,0,0,4.277,34.9a2.981,2.981,0,0,0,0,1.11,2.3,2.3,0,0,0,.278,1.041" transform="translate(-0.283 -9.303)" fill="#289b38"/>
    <path id="Trazado_35" data-name="Trazado 35" d="M4.847,34.182l.416.625A3.089,3.089,0,0,0,6.1,33.349l.139-.625a2.836,2.836,0,0,0-.694.694l-.208.069a.139.139,0,0,1-.139-.139A2.58,2.58,0,0,0,4.569,32.1L4.5,33.21l.347.972" transform="translate(-0.367 -8.446)" fill="#289b38"/>
    <path id="Trazado_36" data-name="Trazado 36" d="M5.786,31.906A2.453,2.453,0,0,0,6.9,30.519l.139-.555a2.81,2.81,0,0,0-.763.625l-.208.069a.139.139,0,0,1-.139-.139A3.663,3.663,0,0,0,5.508,29.2,3.47,3.47,0,0,0,5.3,30.31l.139.972.347.625" transform="translate(-0.612 -7.559)" fill="#289b38"/>
    <path id="Trazado_37" data-name="Trazado 37" d="M6.578,29.206a2.94,2.94,0,0,0,1.249-1.18l.208-.486-.833.486H6.994l-.069-.139A3.222,3.222,0,0,0,6.647,26.5L6.3,27.541v.972l.278.694" transform="translate(-0.918 -6.733)" fill="#289b38"/>
    <path id="Trazado_38" data-name="Trazado 38" d="M7.73,26.506a2.536,2.536,0,0,0,1.319-.972L9.4,24.98a1.639,1.639,0,0,0-.833.416H8.355l-.069-.208A2.809,2.809,0,0,0,8.216,23.8l-.486.972-.139.972a.96.96,0,0,0,.139.763" transform="translate(-1.308 -5.906)" fill="#289b38"/>
    <path id="Trazado_39" data-name="Trazado 39" d="M9.158,24.037a3.337,3.337,0,0,0,1.8-1.319A2.451,2.451,0,0,0,10.13,23H9.921l-.069-.208A2.429,2.429,0,0,0,9.921,21.4a2.724,2.724,0,0,0-.763,2.637" transform="translate(-1.764 -5.172)" fill="#289b38"/>
    <path id="Trazado_40" data-name="Trazado 40" d="M10.9,21.729h0a2.794,2.794,0,0,0,1.388-.555l.486-.416-.833.139-.208-.069v-.208A3.063,3.063,0,0,0,12.08,19.3l-.763.833a2.63,2.63,0,0,0-.416.9v.694" transform="translate(-2.326 -4.529)" fill="#289b38"/>
    <path id="Trazado_41" data-name="Trazado 41" d="M14.982,19.027l-.9.069-.208-.069v-.208a2.224,2.224,0,0,0,.416-1.319A2.826,2.826,0,0,0,12.9,19.86h.069a3.4,3.4,0,0,0,2.013-.833" transform="translate(-2.938 -3.978)" fill="#289b38"/>
    <path id="Trazado_42" data-name="Trazado 42" d="M17.351,17.888l-.486-.069h-.416a.139.139,0,0,1-.139-.139l.069-.208a2.435,2.435,0,0,0,.763-.972c-1.527.555-1.874,1.388-1.943,1.8l.625.069a3.47,3.47,0,0,0,1.041-.208l.486-.278h0" transform="translate(-3.642 -3.672)" fill="#289b38"/>
    <path id="Trazado_43" data-name="Trazado 43" d="M20.051,17.219l-.833-.278a.139.139,0,0,1-.139-.139l.069-.208a2.67,2.67,0,0,0,.9-.694,3.326,3.326,0,0,0-1.8.763l-.347.555,1.041.208.625-.069.486-.139" transform="translate(-4.468 -3.489)" fill="#289b38"/>
    <path id="Trazado_44" data-name="Trazado 44" d="M22.088,16.656a.139.139,0,0,1-.139-.139l.139-.139a2.45,2.45,0,0,0,.972-.486,3.035,3.035,0,0,0-1.874.347,1.572,1.572,0,0,0-.486.416,2.776,2.776,0,0,0,1.735.486h.416a2.9,2.9,0,0,0-.763-.486" transform="translate(-5.325 -3.481)" fill="#289b38"/>
    <path id="Trazado_45" data-name="Trazado 45" d="M25.088,16.856l-.069-.208.139-.139,1.041-.278a3.082,3.082,0,0,0-1.943,0,.856.856,0,0,0-.555.347,2.637,2.637,0,0,0,2.013.9l-.625-.625m5,2.5a2.063,2.063,0,0,0-.139-.833,1.949,1.949,0,0,0-1.388-1.249,3.069,3.069,0,0,0,.555,1.041v.208l-.208.069H28a4.092,4.092,0,0,0,1.943.763h.139" transform="translate(-6.243 -3.542)" fill="#289b38"/>
    <path id="Trazado_46" data-name="Trazado 46" d="M29.345,18.388a1.7,1.7,0,0,0-1.457-.555l-.625.139a2.553,2.553,0,0,0,1.457.555h.069l.555-.139h0M26.5,17.208a1.92,1.92,0,0,0,1.11.347l.555-.069.763-.208A1.973,1.973,0,0,0,28.1,17h-.9a.921.921,0,0,0-.694.208h0" transform="translate(-7.1 -3.825)" fill="#289b38"/>
    <path id="Trazado_47" data-name="Trazado 47" d="M18.169,30.409c.069.139.278.139.486.139h2.221A2.346,2.346,0,0,0,18.1,30.27l.069.139m5.482-1.041L23.1,29.16a9.469,9.469,0,0,1-1.319-.763.416.416,0,0,1-.069-.486.427.427,0,0,1,.486-.069l1.11.694.486.139.9.278-.208-.972a4.674,4.674,0,0,1-1.666-.833l-.139-.208.069-.208a.427.427,0,0,1,.486-.069,3.74,3.74,0,0,0,1.11.625,11.5,11.5,0,0,0-.972-2.568,2.429,2.429,0,0,0-1.319-1.18l-.763-.139a2.352,2.352,0,0,0-1.735.833,1.665,1.665,0,0,0-.486.833c0,.139,0,.278.139.347a.7.7,0,0,0,.555-.139l.139-.139c.139-.069.347-.069.416.069a.262.262,0,0,1-.069.416l-.139.069a4.04,4.04,0,0,0-.694.763A6.858,6.858,0,0,0,18.169,29.3v.069c.9-.416,1.666-.555,3.331.486a2.878,2.878,0,0,0,1.527.416h.763c.208,0,.763,0,.972-.278l.069-.139c-.069-.139-.416-.278-1.18-.486" transform="translate(-4.529 -5.784)" fill="#e53212"/>
    <path id="Trazado_48" data-name="Trazado 48" d="M19.985,49.88l.208-.278-.069-.139-.208-.069-.625.347c-.208.139-.486.416-.486.625l.069.139.555.069a1.312,1.312,0,0,1,.555-.694m1.18.416-.069-.139s-.139-.139-.486.069a1.248,1.248,0,0,0-.625.555l.139.069c.278.069.625-.208.763-.278.069,0,.278-.139.278-.278m-3.47-1.6h0a1.28,1.28,0,0,0-.833.347c-.139.139-.069.208-.069.278l.278.139h.139a1.411,1.411,0,0,1,.416-.625l.139-.139h-.069m.069,1.041c0,.069,0,.208.278.278l.139.069a1.85,1.85,0,0,1,.694-.833l.139-.139v-.069l-.139-.139-.208-.069a.959.959,0,0,0-.625.347l-.278.555" transform="translate(-4.124 -13.526)" fill="#f9c081"/>
    <path id="Trazado_49" data-name="Trazado 49" d="M22.157,47.6l.416-.139.139-.278a7.061,7.061,0,0,0-1.457-1.388l-.972-.555a1.218,1.218,0,0,0-.972-.069l-.347.208-.347.208a2.339,2.339,0,0,1-1.18.347c-.347,0-.763.069-1.041-.347a.855.855,0,0,1-.139-.694c.069-.208.347-.347.694-.555l.416-.208.347-.278L18.2,43.5l.278-.139-.347-.069a1.86,1.86,0,0,0-1.457.555,8.413,8.413,0,0,1-2.915.9c-1.388.278-3.331.555-5.76.833l.208.763a15.781,15.781,0,0,0,1.11,2.706c.833-.347,2.984-1.319,4.58-2.221a1.649,1.649,0,0,1,1.18-.416l.625.208a.955.955,0,0,1,.763.069q.416.208.416.416a.874.874,0,0,1,.9.208.7.7,0,0,1,.278.486.711.711,0,0,1,.694.208.968.968,0,0,1,.278.625l-.139.347.486-.069.139-.069-.416-.555-.069-.208.069-.208c.139-.139.278-.069.416,0l.555.763a.51.51,0,0,0,.416-.139l.139-.208-.278-.416-.625-.555-.139-.208.069-.208.208-.139.208.069.763.625.416.555a.63.63,0,0,0,.486-.208l.069-.139a4.65,4.65,0,0,0-1.457-1.319.139.139,0,0,1-.139-.139V46l.139-.139h.208a15.285,15.285,0,0,1,1.6,1.735" transform="translate(-1.438 -11.868)" fill="#f9c081"/>
    <path id="Trazado_50" data-name="Trazado 50" d="M22.335,45.08l.555-.278a3.571,3.571,0,0,1,2.5.694,7.864,7.864,0,0,1,1.527,1.388l.069.069.486.416a17.164,17.164,0,0,0,3.817,2.013,13.88,13.88,0,0,0,1.388-3.539,22.438,22.438,0,0,1-4.233-.694,20.7,20.7,0,0,1-2.221-.625l-.694-.208a4.47,4.47,0,0,0-1.666-.416h-.416a1.56,1.56,0,0,0-1.041.208l-.486.347L21.5,44.8l-.486.278-.416.208.069.139.486.069a1.68,1.68,0,0,0,.9-.278l.278-.139" transform="translate(-5.294 -12.057)" fill="#f9c081"/>
  </g>
</svg>
