<svg xmlns="http://www.w3.org/2000/svg" width="164.231" height="54.232" viewBox="0 0 164.231 54.232"><g transform="translate(0.003 0.006)"><path d="M35.961,22.6a2.456,2.456,0,0,0-1.2-2.226h0a3.6,3.6,0,0,1-1.712-3.082,2.737,2.737,0,0,1,.685-2.056h0a2.759,2.759,0,0,0,.514-1.541,1.986,1.986,0,0,0-.685-1.713C33.049,11.3,29.282,6.5,19.178.509a3.449,3.449,0,0,0-1.884-.514A4.846,4.846,0,0,0,15.068.68h0L9.074,4.962h0a3.449,3.449,0,0,1-1.884.514H2.74A2.7,2.7,0,0,0,0,8.135V44.691A2.2,2.2,0,0,0,.685,46.4a10.377,10.377,0,0,0,2.4,2.056,1.847,1.847,0,0,0,1.37.343,2.7,2.7,0,0,0,2.74-2.659V38.87a2.7,2.7,0,0,1,2.66-2.74h.081a3.15,3.15,0,0,1,1.2.343h0a19.678,19.678,0,0,0,7.021,1.37A18.045,18.045,0,0,0,35.966,23.116c-.171,0,0-.172,0-.515" fill="#96c93f"/><path d="M46.75,25.516a.627.627,0,0,1,.685-.685H50.86a3.429,3.429,0,0,1,.332,6.85,3.064,3.064,0,0,1-.332,0H48.291a.168.168,0,0,0-.171.165V35.62a.782.782,0,0,1-.685.855c-.514,0-.685-.342-.685-.855v-10.1Zm6.165,2.74a2.026,2.026,0,0,0-1.989-2.064,1.871,1.871,0,0,0-.237.01H48.12a.168.168,0,0,0-.171.165v3.774a.167.167,0,0,0,.165.171h2.575a1.944,1.944,0,0,0,2.226-2.056" fill="#59595b"/><path d="M55.483,35.447V28.94a.627.627,0,0,1,.685-.685.737.737,0,0,1,.685.685v.342h0a2.179,2.179,0,0,1,2.055-1.2,2.477,2.477,0,0,1,1.2.343c.342.171.342.342.342.514a.739.739,0,0,1-.685.686h-.342a1.532,1.532,0,0,0-.856-.171c-1.2,0-1.712,1.026-1.712,2.226v3.767a.685.685,0,1,1-1.37,0v0" fill="#59595b"/><path d="M61.306,34.249a5.582,5.582,0,0,1-.342-2.056,4.013,4.013,0,0,1,.342-2.055,3,3,0,0,1,3.082-2.055,3.053,3.053,0,0,1,3.082,2.055,5.6,5.6,0,0,1,.342,2.055,3.719,3.719,0,0,1-.342,2.056A3,3,0,0,1,64.388,36.3a3.208,3.208,0,0,1-3.082-2.055m4.966-.514a4.247,4.247,0,0,0,.171-1.541,3.8,3.8,0,0,0-.171-1.541,1.646,1.646,0,0,0-1.712-1.2,1.7,1.7,0,0,0-1.712,1.2,4.249,4.249,0,0,0-.171,1.541,3.811,3.811,0,0,0,.171,1.541,1.646,1.646,0,0,0,1.712,1.2,1.781,1.781,0,0,0,1.712-1.2" fill="#59595b"/><path d="M71.068,35.276l-2.4-6.165v-.343a.737.737,0,0,1,.685-.685c.342,0,.515.171.686.514l2.055,5.48h0L74.15,28.6c.172-.343.343-.514.686-.514a.738.738,0,0,1,.686.685v.343l-2.4,6.165c-.172.686-.514.856-.855.856a1.21,1.21,0,0,1-1.2-.856" fill="#59595b"/><path d="M76.375,25.687a.856.856,0,1,1,.855.856c-.513.171-.855-.343-.855-.856m.171,3.254a.627.627,0,0,1,.563-.685.612.612,0,0,1,.121,0,.738.738,0,0,1,.686.685v6.508a.627.627,0,0,1-.686.685.737.737,0,0,1-.685-.685V28.941Z" fill="#59595b"/><path d="M79.971,28.94a.627.627,0,0,1,.685-.685.737.737,0,0,1,.685.685v.171h0a2.352,2.352,0,0,1,2.229-1.026A2.646,2.646,0,0,1,86.31,31v4.451a.628.628,0,0,1-.563.686.621.621,0,0,1-.122,0,.738.738,0,0,1-.685-.686V31.338c0-1.2-.515-2.055-1.713-2.055a1.8,1.8,0,0,0-1.883,1.711,1.249,1.249,0,0,0,0,.173v4.28a.629.629,0,0,1-.564.686.611.611,0,0,1-.121,0,.739.739,0,0,1-.686-.686V28.94Z" fill="#59595b"/><path d="M88.191,34.249a7.069,7.069,0,0,1-.172-2.056c0-.855.172-1.541.172-2.055a3,3,0,0,1,3.082-2.055,3.091,3.091,0,0,1,2.568,1.2.63.63,0,0,1,.172.514.738.738,0,0,1-.686.685,1.3,1.3,0,0,1-.686-.342,2.166,2.166,0,0,0-1.541-.685,1.534,1.534,0,0,0-1.711,1.2,7,7,0,0,0,0,3.081,1.646,1.646,0,0,0,1.711,1.2,2.166,2.166,0,0,0,1.541-.685.89.89,0,0,1,.686-.342.738.738,0,0,1,.686.685.631.631,0,0,1-.172.514,3.086,3.086,0,0,1-2.568,1.2,2.868,2.868,0,0,1-3.082-2.055" fill="#59595b"/><path d="M95.383,25.687a.856.856,0,1,1,.855.856.809.809,0,0,1-.855-.759.782.782,0,0,1,0-.1m.172,3.254a.626.626,0,0,1,.563-.685.612.612,0,0,1,.121,0,.738.738,0,0,1,.686.685v6.508a.627.627,0,0,1-.686.685.736.736,0,0,1-.684-.685Z" fill="#59595b"/><path d="M105.486,35.619a.736.736,0,0,1-.685.685,1.3,1.3,0,0,1-.685-.343l-.342-.515h0a3.1,3.1,0,0,1-2.4.856c-1.712,0-2.74-.856-2.74-2.4,0-1.712,1.2-2.4,3.082-2.4h1.713a.168.168,0,0,0,.17-.165V30.99c0-1.026-.514-1.712-1.884-1.712a3.4,3.4,0,0,0-1.541.343.6.6,0,0,0-.342.171.456.456,0,0,1-.515-.385.472.472,0,0,1,0-.13c0-.171.172-.514.343-.514a4.532,4.532,0,0,1,2.4-.514c2.056,0,3.082,1.026,3.082,2.911v2.911a1.547,1.547,0,0,0,.172.855l.342.514c-.344-.171-.172,0-.172.172M103.6,33.557V32.7a.168.168,0,0,0-.166-.171h-1.547c-1.369,0-1.884.343-1.884,1.369,0,.856.515,1.2,1.712,1.2,1.027,0,1.885-.514,1.885-1.541" fill="#59595b"/><path d="M46.749,11.644a.908.908,0,0,1,.771-1.027.892.892,0,0,1,.258,0H51.2c2.4,0,3.6,1.2,3.6,2.911a2.38,2.38,0,0,1-1.37,2.4h0A2.851,2.851,0,0,1,54.974,18.5c0,2.226-1.541,3.254-3.939,3.254H47.61a.908.908,0,0,1-1.032-.764.946.946,0,0,1,0-.271V11.64Zm4.11,3.426a1.4,1.4,0,0,0,1.534-1.252c0-.039.006-.079.007-.118,0-.856-.514-1.37-1.541-1.37H49.147a.168.168,0,0,0-.171.165V14.9a.168.168,0,0,0,.165.171h.006Zm-1.541,4.8H51.2c1.027,0,1.541-.515,1.541-1.37s-.514-1.37-1.541-1.37H49.318a.168.168,0,0,0-.171.165V17.3l.171,2.569c-.171-.172-.171,0,0,0" fill="#5a5a5c"/><path d="M60.963,21.063h0a2.335,2.335,0,0,1-2.055.856,2.653,2.653,0,0,1-2.74-2.911V14.9a1.2,1.2,0,0,1,2.4-.005V18.5c0,.855.342,1.37,1.2,1.37s1.2-.515,1.2-1.37V14.9a1.2,1.2,0,0,1,2.4,0V20.55a1.17,1.17,0,0,1-1.139,1.2h-.061a.973.973,0,0,1-1.2-.68.014.014,0,0,0,0-.006" fill="#5a5a5c"/><path d="M64.9,19.694a5.293,5.293,0,0,1-.342-1.884,5.861,5.861,0,0,1,.171-1.884,3.748,3.748,0,0,1,6.85,0,6.2,6.2,0,0,1,.342,1.884.628.628,0,0,1-.686.686H66.959a.168.168,0,0,0-.171.165v.52A1.581,1.581,0,0,0,68.5,20.208a5,5,0,0,0,1.541-.343,1.544,1.544,0,0,1,.855-.172.809.809,0,0,1,.856.76.785.785,0,0,1,0,.1.939.939,0,0,1-.515.856,4.887,4.887,0,0,1-2.91.855c-1.712-.342-3.082-1.2-3.425-2.569m4.625-2.74h0c.171-.342,0-.515,0-.686a1.524,1.524,0,0,0-2.74,0v.515a.168.168,0,0,0,.165.171h2.575Z" fill="#5a5a5c"/><path d="M77.916,20.55v-3.6a1.21,1.21,0,1,0-2.4,0v3.6a1.2,1.2,0,1,1-2.4.006V14.9a1.169,1.169,0,0,1,1.142-1.2.58.58,0,0,1,.059,0,.956.956,0,0,1,1.026.855h0A2.334,2.334,0,0,1,77.4,13.7a2.659,2.659,0,0,1,2.74,2.91v4.11a1.171,1.171,0,0,1-1.14,1.2h-.062c-.514,0-1.027-.514-1.027-1.37" fill="#5a5a5c"/><path d="M81.684,19.694a5.272,5.272,0,0,1-.343-1.884,3.1,3.1,0,0,1,.343-1.884A3.221,3.221,0,0,1,85.108,13.7a3.42,3.42,0,0,1,3.426,2.226,5.271,5.271,0,0,1,.342,1.884,3.112,3.112,0,0,1-.342,1.884,3.222,3.222,0,0,1-3.426,2.227,3.418,3.418,0,0,1-3.424-2.227m4.795-.685a5.55,5.55,0,0,0,0-2.74,1.267,1.267,0,0,0-2.4,0,5.55,5.55,0,0,0,0,2.74,1.141,1.141,0,0,0,1.2.856c.514.171,1.029-.171,1.2-.856" fill="#5a5a5c"/><path d="M90.417,21.235a.941.941,0,0,1-.515-.855.959.959,0,0,1,1.027-.856,1.308,1.308,0,0,1,.686.171,3.448,3.448,0,0,0,1.884.515c.856,0,1.2-.342,1.2-.686s-.172-.514-1.2-.685l-.856-.171c-1.711-.171-2.568-1.027-2.568-2.4,0-1.541,1.2-2.568,3.254-2.568a5.456,5.456,0,0,1,2.4.514.875.875,0,0,1,.685.855.809.809,0,0,1-.857.856,1.3,1.3,0,0,1-.685-.171,4.978,4.978,0,0,0-1.541-.342c-.685,0-1.026.171-1.026.685,0,.342.17.514,1.026.686l.856.171c1.883.171,2.568,1.026,2.568,2.4,0,1.712-1.37,2.74-3.6,2.74a7.344,7.344,0,0,1-2.738-.858" fill="#5a5a5c"/><path d="M101.376,20.207l3.082-8.392a1.755,1.755,0,0,1,3.425,0l2.911,8.392v.514a1.171,1.171,0,0,1-1.142,1.2h-.059a1.288,1.288,0,0,1-1.2-.856l-.515-1.37h-3.767l-.514,1.37a1.288,1.288,0,0,1-1.2.856,1.169,1.169,0,0,1-1.2-1.142V20.72a.632.632,0,0,0,.171-.514m5.994-2.568L105.994,13.7h0l-1.37,3.938Z" fill="#5a5a5c"/><path d="M111.823,11.645a1.37,1.37,0,1,1,1.37,1.37h0a1.351,1.351,0,0,1-1.37-1.332.241.241,0,0,1,0-.038m0,8.9V14.894a1.2,1.2,0,0,1,2.4-.005v5.656a1.17,1.17,0,0,1-1.141,1.2h-.059c-.684.171-1.2-.343-1.2-1.2" fill="#5a5a5c"/><path d="M115.932,20.549V14.9a1.17,1.17,0,0,1,1.142-1.2.58.58,0,0,1,.059,0,1.287,1.287,0,0,1,1.2.855h0a2.407,2.407,0,0,1,2.055-1.027,1.289,1.289,0,0,1,.856.172,1.138,1.138,0,0,1,.685.855,1.168,1.168,0,0,1-1.139,1.2c-.021,0-.041,0-.061,0H119.7c-.855,0-1.2.685-1.2,1.712V20.72a1.171,1.171,0,0,1-1.142,1.2H117.3c-1.028,0-1.369-.514-1.369-1.371" fill="#5a5a5c"/><path d="M122.1,19.694a5.271,5.271,0,0,1-.342-1.884,5.834,5.834,0,0,1,.172-1.884,3.748,3.748,0,0,1,6.849,0,6.2,6.2,0,0,1,.342,1.884.628.628,0,0,1-.686.686h-4.279a.168.168,0,0,0-.17.165v.52a1.58,1.58,0,0,0,1.711,1.027,5,5,0,0,0,1.541-.343,1.545,1.545,0,0,1,.856-.172.81.81,0,0,1,.856.76.785.785,0,0,1,0,.1.943.943,0,0,1-.514.856,4.893,4.893,0,0,1-2.912.855c-1.711-.342-3.082-1.2-3.424-2.569m4.625-2.74h0c.172-.342,0-.515,0-.686a1.525,1.525,0,0,0-2.74,0v.515a.169.169,0,0,0,.166.171h2.574Z" fill="#5a5a5c"/><path d="M130.66,21.235a.939.939,0,0,1-.514-.855.957.957,0,0,1,1.026-.856,1.3,1.3,0,0,1,.685.171,3.456,3.456,0,0,0,1.885.515c.855,0,1.2-.342,1.2-.686s-.17-.514-1.2-.685l-.856-.171c-1.712-.171-2.569-1.027-2.569-2.4,0-1.541,1.2-2.568,3.254-2.568a5.447,5.447,0,0,1,2.4.514.875.875,0,0,1,.686.855.809.809,0,0,1-.76.856.785.785,0,0,1-.1,0,1.3,1.3,0,0,1-.685-.171,4.978,4.978,0,0,0-1.541-.342c-.686,0-1.027.171-1.027.685,0,.342.171.514,1.027.686l.855.171c1.885.171,2.569,1.026,2.569,2.4,0,1.712-1.37,2.74-3.6,2.74a8.619,8.619,0,0,1-2.737-.858" fill="#5a5a5c"/><path d="M47.04,44.2a.4.4,0,0,1,.1-.318.3.3,0,0,1,.214-.088.336.336,0,0,1,.2.055.589.589,0,0,1,.176.253l2.593,5.768L52.917,44.1a.6.6,0,0,1,.176-.253.339.339,0,0,1,.2-.055.3.3,0,0,1,.214.088.4.4,0,0,1,.1.318v7.092a.469.469,0,0,1-.066.3.3.3,0,0,1-.461,0,.469.469,0,0,1-.066-.3V45.263l-2.263,4.965c-.1.226-.2.363-.429.363s-.324-.138-.428-.363l-2.263-4.965v6.025a.469.469,0,0,1-.066.3.3.3,0,0,1-.461,0,.469.469,0,0,1-.066-.3V44.2Z" fill="#5a5a5c"/><path d="M55.774,44.174a.407.407,0,1,1,.407.406A.4.4,0,0,1,55.774,44.174ZM55.9,46.7a.429.429,0,0,1,.061-.274.288.288,0,0,1,.451,0,.43.43,0,0,1,.06.274v4.614a.433.433,0,0,1-.06.275.288.288,0,0,1-.451,0,.432.432,0,0,1-.061-.275Z" fill="#5a5a5c"/><path d="M62.128,48.381c0-1.021-.506-1.582-1.462-1.582a1.4,1.4,0,0,0-1.494,1.582v2.934a.432.432,0,0,1-.061.275.288.288,0,0,1-.451,0,.432.432,0,0,1-.061-.275V46.7a.429.429,0,0,1,.061-.274.288.288,0,0,1,.451,0,.429.429,0,0,1,.061.274v.286A1.961,1.961,0,0,1,62.7,48.272v3.043a.433.433,0,0,1-.06.275.289.289,0,0,1-.452,0,.433.433,0,0,1-.06-.275V48.381Z" fill="#5a5a5c"/><path d="M64.651,44.174a.406.406,0,1,1,.406.406A.4.4,0,0,1,64.651,44.174Zm.12,2.526a.429.429,0,0,1,.061-.274.288.288,0,0,1,.451,0,.429.429,0,0,1,.061.274v4.614a.432.432,0,0,1-.061.275.288.288,0,0,1-.451,0,.432.432,0,0,1-.061-.275Z" fill="#5a5a5c"/><path d="M68.784,49.189c-1.061-.093-1.593-.565-1.593-1.39,0-.912.747-1.505,1.9-1.505a3.153,3.153,0,0,1,1.527.362.446.446,0,0,1,.2.165.214.214,0,0,1,.033.132.261.261,0,0,1-.055.132.254.254,0,0,1-.2.1.525.525,0,0,1-.264-.1,2.512,2.512,0,0,0-1.241-.3c-.868,0-1.352.362-1.352,1.011,0,.55.335.818,1.077.885l.856.077c.879.076,1.55.356,1.55,1.39,0,.967-.824,1.57-2.121,1.57a3.086,3.086,0,0,1-1.856-.516c-.138-.094-.23-.192-.23-.308a.265.265,0,0,1,.088-.2.247.247,0,0,1,.176-.065c.088,0,.165.038.318.153a2.329,2.329,0,0,0,1.483.429c1.032,0,1.593-.352,1.593-1.065,0-.55-.324-.824-1.011-.885Z" fill="#5a5a5c"/><path d="M74.2,51.656a1.236,1.236,0,0,1-1.274-1.384v-3.45h-.445a.37.37,0,0,1-.235-.05.231.231,0,0,1,0-.363.378.378,0,0,1,.235-.05h.445V45.008a.427.427,0,0,1,.061-.274.286.286,0,0,1,.451,0,.427.427,0,0,1,.061.274v1.351h.917a.378.378,0,0,1,.236.05.231.231,0,0,1,0,.363.373.373,0,0,1-.236.05h-.917v3.45c0,.549.253.879.8.879h.088a.406.406,0,0,1,.253.055.247.247,0,0,1,0,.4.456.456,0,0,1-.274.055H74.2Z" fill="#5a5a5c"/><path d="M76.585,49.129c0,1.34.6,2.087,1.725,2.087a1.825,1.825,0,0,0,1.22-.417c.154-.138.215-.188.319-.188a.268.268,0,0,1,.252.253c0,.236-.385.473-.561.571a2.587,2.587,0,0,1-1.263.285c-1.462,0-2.264-.944-2.264-2.713,0-1.747.813-2.714,2.132-2.714s2.12.967,2.12,2.494a.361.361,0,0,1-.077.264.34.34,0,0,1-.264.077H76.585Zm3.12-.473a2.539,2.539,0,0,0-.187-.973,1.508,1.508,0,0,0-2.746,0,2.554,2.554,0,0,0-.188.973Z" fill="#5a5a5c"/><path d="M82.074,46.7a.429.429,0,0,1,.061-.274.288.288,0,0,1,.451,0,.429.429,0,0,1,.061.274v.362a1.81,1.81,0,0,1,1.538-.769,1.74,1.74,0,0,1,.967.253c.144.088.274.187.274.34a.289.289,0,0,1-.076.188.275.275,0,0,1-.2.088c-.077,0-.143-.033-.341-.154a1.375,1.375,0,0,0-.725-.209,1.453,1.453,0,0,0-1.439,1.6v2.911a.432.432,0,0,1-.061.275.288.288,0,0,1-.451,0,.432.432,0,0,1-.061-.275V46.7Z" fill="#5a5a5c"/><path d="M86.452,44.174a.406.406,0,1,1,.407.406A.405.405,0,0,1,86.452,44.174Zm.121,2.526a.429.429,0,0,1,.061-.274.288.288,0,0,1,.451,0,.429.429,0,0,1,.061.274v4.614a.432.432,0,0,1-.061.275.288.288,0,0,1-.451,0,.432.432,0,0,1-.061-.275Z" fill="#5a5a5c"/><path d="M91.113,51.721a2.027,2.027,0,0,1-1.472-.582,2.863,2.863,0,0,1-.671-2.131,2.867,2.867,0,0,1,.671-2.132,2.152,2.152,0,0,1,2.944,0,2.867,2.867,0,0,1,.671,2.132,2.863,2.863,0,0,1-.671,2.131A2.027,2.027,0,0,1,91.113,51.721Zm1.572-2.713a2.513,2.513,0,0,0-.483-1.764,1.553,1.553,0,0,0-2.176,0,2.513,2.513,0,0,0-.483,1.764,2.509,2.509,0,0,0,.483,1.763,1.553,1.553,0,0,0,2.176,0A2.514,2.514,0,0,0,92.685,49.008Z" fill="#5a5a5c"/><path d="M101.654,51.59a.288.288,0,0,1-.451,0,.432.432,0,0,1-.061-.275v-.34a1.755,1.755,0,0,1-1.57.746,1.855,1.855,0,0,1-1.3-.461,3.1,3.1,0,0,1-.692-2.252,3.1,3.1,0,0,1,.692-2.252,1.849,1.849,0,0,1,1.3-.462,1.755,1.755,0,0,1,1.57.747V44.174a.432.432,0,0,1,.061-.275.288.288,0,0,1,.451,0,.432.432,0,0,1,.061.275v7.141A.432.432,0,0,1,101.654,51.59Zm-.51-2.582c0-1.1-.2-2.209-1.494-2.209s-1.494,1.11-1.494,2.209.2,2.208,1.494,2.208S101.144,50.107,101.144,49.008Z" fill="#5a5a5c"/><path d="M104.117,49.129c0,1.34.6,2.087,1.726,2.087a1.822,1.822,0,0,0,1.219-.417c.154-.138.215-.188.318-.188a.267.267,0,0,1,.253.253c0,.236-.384.473-.56.571a2.594,2.594,0,0,1-1.264.285c-1.461,0-2.264-.944-2.264-2.713,0-1.747.813-2.714,2.132-2.714s2.12.967,2.12,2.494a.361.361,0,0,1-.077.264.342.342,0,0,1-.264.077h-3.339Zm3.12-.473a2.539,2.539,0,0,0-.187-.973,1.508,1.508,0,0,0-2.747,0,2.593,2.593,0,0,0-.187.973Z" fill="#5a5a5c"/><path d="M46.9,58.7a.429.429,0,0,1,.061-.274.288.288,0,0,1,.451,0,.43.43,0,0,1,.06.274v.341a1.758,1.758,0,0,1,1.571-.747,1.85,1.85,0,0,1,1.3.462,4.01,4.01,0,0,1,0,4.5,1.854,1.854,0,0,1-1.3.461,1.757,1.757,0,0,1-1.571-.746v2.867a.428.428,0,0,1-.06.274.286.286,0,0,1-.451,0,.427.427,0,0,1-.061-.274Zm3.56,2.308c0-1.1-.2-2.209-1.494-2.209s-1.494,1.11-1.494,2.209.2,2.208,1.494,2.208S50.456,62.107,50.456,61.008Z" transform="translate(66 -12)" fill="#5a5a5c"/><path d="M52.858,58.7a.429.429,0,0,1,.061-.274.288.288,0,0,1,.451,0,.43.43,0,0,1,.06.274v.362a1.81,1.81,0,0,1,1.538-.769,1.738,1.738,0,0,1,.967.253c.143.088.275.187.275.34a.29.29,0,0,1-.077.188.275.275,0,0,1-.2.088c-.077,0-.143-.033-.34-.154a1.375,1.375,0,0,0-.725-.209,1.453,1.453,0,0,0-1.439,1.6v2.911a.433.433,0,0,1-.06.275.288.288,0,0,1-.451,0,.432.432,0,0,1-.061-.275V58.7Z" transform="translate(66 -12)" fill="#5a5a5c"/><path d="M58.862,63.721a2.029,2.029,0,0,1-1.473-.582,3.726,3.726,0,0,1,0-4.263,2.155,2.155,0,0,1,2.946,0,3.726,3.726,0,0,1,0,4.263A2.029,2.029,0,0,1,58.862,63.721Zm1.572-2.713a2.513,2.513,0,0,0-.483-1.764,1.553,1.553,0,0,0-2.176,0,3.461,3.461,0,0,0,0,3.527,1.553,1.553,0,0,0,2.176,0A2.514,2.514,0,0,0,60.434,61.008Z" transform="translate(66 -12)" fill="#5a5a5c"/><path d="M66.6,63.59a.288.288,0,0,1-.451,0,.432.432,0,0,1-.061-.275v-.34a1.755,1.755,0,0,1-1.57.746,1.855,1.855,0,0,1-1.3-.461,4.01,4.01,0,0,1,0-4.5,1.849,1.849,0,0,1,1.3-.462,1.755,1.755,0,0,1,1.57.747V56.174a.432.432,0,0,1,.061-.275.288.288,0,0,1,.451,0,.432.432,0,0,1,.061.275v7.141A.439.439,0,0,1,66.6,63.59Zm-.511-2.582c0-1.1-.2-2.209-1.494-2.209S63.1,59.909,63.1,61.008s.2,2.208,1.494,2.208S66.087,62.107,66.087,61.008Z" transform="translate(66 -12)" fill="#5a5a5c"/><path d="M72.258,63.03a1.962,1.962,0,0,1-3.527-1.286V58.7a.429.429,0,0,1,.061-.274.288.288,0,0,1,.451,0,.429.429,0,0,1,.061.274v2.934c0,1.021.5,1.582,1.461,1.582a1.4,1.4,0,0,0,1.494-1.582V58.7a.429.429,0,0,1,.061-.274.288.288,0,0,1,.451,0,.429.429,0,0,1,.061.274v4.614a.432.432,0,0,1-.061.275.288.288,0,0,1-.451,0,.432.432,0,0,1-.061-.275V63.03Z" transform="translate(66 -12)" fill="#5a5a5c"/><path d="M76.984,63.721c-1.462,0-2.324-1.032-2.324-2.713s.862-2.714,2.324-2.714a1.971,1.971,0,0,1,1.384.5c.2.176.28.269.28.406a.261.261,0,0,1-.264.247c-.1,0-.176-.061-.346-.209a1.446,1.446,0,0,0-1.055-.439,1.6,1.6,0,0,0-1.39.692,3.349,3.349,0,0,0,0,3.033,1.6,1.6,0,0,0,1.39.692,1.446,1.446,0,0,0,1.055-.439c.17-.148.241-.209.346-.209a.262.262,0,0,1,.176.066.258.258,0,0,1,.088.181c0,.138-.077.231-.28.407A1.975,1.975,0,0,1,76.984,63.721Z" transform="translate(66 -12)" fill="#5a5a5c"/><path d="M82.227,63.721c-1.462,0-2.324-1.032-2.324-2.713s.862-2.714,2.324-2.714a1.971,1.971,0,0,1,1.384.5c.2.176.28.269.28.406a.261.261,0,0,1-.264.247c-.1,0-.176-.061-.346-.209a1.446,1.446,0,0,0-1.055-.439,1.6,1.6,0,0,0-1.39.692,3.349,3.349,0,0,0,0,3.033,1.6,1.6,0,0,0,1.39.692,1.446,1.446,0,0,0,1.055-.439c.17-.148.241-.209.346-.209a.262.262,0,0,1,.176.066.258.258,0,0,1,.088.181c0,.138-.077.231-.28.407A1.977,1.977,0,0,1,82.227,63.721Z" transform="translate(66 -12)" fill="#5a5a5c"/><path d="M85.5,56.174a.406.406,0,1,1,.407.406A.405.405,0,0,1,85.5,56.174Zm.121,2.526a.429.429,0,0,1,.061-.274.288.288,0,0,1,.451,0,.429.429,0,0,1,.061.274v4.614a.432.432,0,0,1-.061.275.288.288,0,0,1-.451,0,.432.432,0,0,1-.061-.275Z" transform="translate(66 -12)" fill="#5a5a5c"/><path d="M90.156,63.721a2.027,2.027,0,0,1-1.472-.582,3.721,3.721,0,0,1,0-4.263,2.152,2.152,0,0,1,2.944,0,3.721,3.721,0,0,1,0,4.263A2.027,2.027,0,0,1,90.156,63.721Zm1.572-2.713a2.513,2.513,0,0,0-.483-1.764,1.553,1.553,0,0,0-2.176,0,3.461,3.461,0,0,0,0,3.527,1.553,1.553,0,0,0,2.176,0A2.514,2.514,0,0,0,91.728,61.008Zm-1.275-4.043a.665.665,0,0,1-.138.17.241.241,0,0,1-.159.055.255.255,0,0,1-.148-.044.267.267,0,0,1-.138-.235.474.474,0,0,1,.1-.248l.593-.95a.629.629,0,0,1,.138-.17.246.246,0,0,1,.159-.055.255.255,0,0,1,.148.044.269.269,0,0,1,.138.236.474.474,0,0,1-.1.247Z" transform="translate(66 -12)" fill="#5a5a5c"/><path d="M97.657,60.381c0-1.021-.506-1.582-1.462-1.582A1.4,1.4,0,0,0,94.7,60.381v2.934a.432.432,0,0,1-.061.275.288.288,0,0,1-.451,0,.432.432,0,0,1-.061-.275V58.7a.429.429,0,0,1,.061-.274.288.288,0,0,1,.451,0,.429.429,0,0,1,.061.274v.286a1.961,1.961,0,0,1,3.527,1.286v3.043a.433.433,0,0,1-.06.275.289.289,0,0,1-.452,0,.433.433,0,0,1-.06-.275V60.381Z" transform="translate(66 -12)" fill="#5a5a5c"/></g></svg>