<?xml version="1.0" encoding="utf-8"?>
<!-- Generator: Adobe Illustrator 17.0.0, SVG Export Plug-In . SVG Version: 6.00 Build 0)  -->
<!DOCTYPE svg PUBLIC "-//W3C//DTD SVG 1.1//EN" "http://www.w3.org/Graphics/SVG/1.1/DTD/svg11.dtd">
<svg version="1.1" id="Layer_1" xmlns="http://www.w3.org/2000/svg" xmlns:xlink="http://www.w3.org/1999/xlink" x="0px" y="0px"
	 width="145px" height="40px" viewBox="0 0 145 40" enable-background="new 0 0 145 40" xml:space="preserve">
<path fill="#363534" d="M53.685,33.167l3.927-9.317h1.808v11.459h-1.185v-9.9h-0.034l-4.202,9.9h-0.622l-4.208-9.9h-0.029v9.9
	h-1.188V23.85h1.814L53.685,33.167z"/>
<path fill="#363534" d="M71.87,31.041c0,0.471-0.058,0.975-0.17,1.506c-0.117,0.536-0.334,1.029-0.652,1.479
	c-0.317,0.455-0.755,0.832-1.304,1.13c-0.551,0.292-1.265,0.441-2.129,0.441c-0.878,0-1.585-0.148-2.134-0.441
	c-0.546-0.296-0.981-0.674-1.299-1.13c-0.317-0.45-0.53-0.943-0.65-1.479c-0.114-0.53-0.166-1.035-0.166-1.506v-7.19h1.177v7.052
	c0,0.551,0.058,1.024,0.167,1.421c0.108,0.392,0.252,0.721,0.432,0.991c0.185,0.271,0.385,0.482,0.61,0.642
	c0.222,0.159,0.447,0.276,0.678,0.366c0.22,0.085,0.437,0.138,0.644,0.164c0.206,0.027,0.39,0.048,0.541,0.048
	c0.141,0,0.321-0.021,0.538-0.048c0.212-0.027,0.429-0.08,0.655-0.164c0.225-0.089,0.446-0.207,0.671-0.366
	c0.225-0.161,0.427-0.371,0.61-0.642c0.18-0.27,0.326-0.599,0.435-0.991c0.108-0.398,0.164-0.87,0.164-1.421v-7.052h1.183
	L71.87,31.041L71.87,31.041z"/>
<path fill="#363534" d="M84.225,33.553h0.027V23.85h1.188v11.459H83.96l-6.933-9.81h-0.029v9.81h-1.185V23.85h1.479L84.225,33.553z"
	/>
<path fill="#363534" d="M90.763,35.31H89.58V23.85h1.183V35.31z"/>
<path fill="#363534" d="M104.47,33.501c-0.191,0.286-0.437,0.562-0.727,0.822c-0.286,0.259-0.62,0.483-0.991,0.668
	c-0.369,0.184-0.774,0.339-1.208,0.445c-0.429,0.107-0.885,0.16-1.368,0.16c-0.866,0-1.671-0.148-2.407-0.45
	c-0.74-0.302-1.381-0.721-1.922-1.257c-0.541-0.53-0.968-1.167-1.276-1.893c-0.304-0.743-0.461-1.543-0.461-2.413
	c0-0.875,0.157-1.681,0.461-2.418c0.308-0.727,0.735-1.359,1.276-1.893c0.541-0.536,1.183-0.961,1.922-1.263
	c0.736-0.296,1.542-0.45,2.407-0.45c0.721,0,1.442,0.148,2.163,0.42c0.727,0.286,1.342,0.748,1.855,1.394l-1.032,0.759
	c-0.124-0.181-0.286-0.361-0.49-0.545c-0.204-0.186-0.448-0.345-0.716-0.488c-0.265-0.143-0.557-0.249-0.869-0.339
	c-0.303-0.085-0.61-0.127-0.912-0.127c-0.749,0-1.413,0.133-2.005,0.403c-0.593,0.27-1.095,0.631-1.506,1.087
	c-0.413,0.45-0.721,0.977-0.943,1.575c-0.218,0.599-0.329,1.224-0.329,1.888c0,0.657,0.112,1.283,0.329,1.883
	c0.222,0.599,0.53,1.124,0.943,1.574c0.411,0.461,0.913,0.816,1.506,1.087c0.592,0.271,1.257,0.409,2.005,0.409
	c0.302,0,0.609-0.031,0.909-0.089c0.297-0.048,0.599-0.138,0.885-0.27c0.293-0.127,0.564-0.308,0.825-0.525
	c0.255-0.228,0.494-0.498,0.715-0.832L104.47,33.501z"/>
<path fill="#363534" d="M108.632,35.31h-1.18V23.85h1.18V35.31z"/>
<path fill="#363534" d="M112.771,23.85h3.382c1.185,0,2.124,0.25,2.803,0.764c0.684,0.504,1.029,1.273,1.029,2.296
	c0,1.022-0.345,1.792-1.029,2.305c-0.678,0.51-1.618,0.77-2.803,0.77h-2.198v5.324h-1.186L112.771,23.85L112.771,23.85z
	 M113.956,28.915h1.903c0.531,0,0.981-0.054,1.339-0.16c0.363-0.112,0.663-0.25,0.884-0.429c0.218-0.181,0.375-0.392,0.477-0.631
	c0.092-0.239,0.143-0.504,0.143-0.784c0-0.272-0.051-0.525-0.143-0.77c-0.102-0.244-0.26-0.456-0.477-0.641
	c-0.22-0.175-0.521-0.323-0.884-0.425c-0.357-0.102-0.808-0.154-1.339-0.154h-1.903V28.915z"/>
<path fill="#363534" d="M124.373,35.31h-1.186V23.85h1.186V35.31z"/>
<path fill="#363534" d="M139.84,29.582c0,0.869-0.155,1.67-0.456,2.413c-0.308,0.726-0.73,1.362-1.275,1.893
	c-0.541,0.536-1.183,0.955-1.923,1.257c-0.739,0.302-1.54,0.45-2.405,0.45c-0.869,0-1.667-0.148-2.405-0.45
	c-0.74-0.302-1.381-0.721-1.922-1.257c-0.541-0.53-0.971-1.167-1.278-1.893c-0.302-0.743-0.459-1.543-0.459-2.413
	c0-0.875,0.157-1.681,0.459-2.418c0.308-0.727,0.737-1.359,1.278-1.893c0.541-0.536,1.183-0.961,1.922-1.263
	c0.736-0.296,1.535-0.45,2.405-0.45c0.865,0,1.665,0.154,2.405,0.45c0.74,0.302,1.382,0.727,1.923,1.263
	c0.545,0.535,0.967,1.166,1.275,1.893C139.686,27.901,139.84,28.708,139.84,29.582z M138.559,29.582
	c0-0.663-0.104-1.288-0.326-1.888c-0.218-0.599-0.528-1.125-0.942-1.575c-0.41-0.456-0.917-0.817-1.506-1.087
	c-0.591-0.27-1.259-0.403-2.004-0.403c-0.742,0-1.416,0.133-2.007,0.403c-0.591,0.27-1.09,0.631-1.498,1.087
	c-0.413,0.45-0.726,0.977-0.943,1.575c-0.22,0.599-0.329,1.224-0.329,1.888c0,0.657,0.108,1.283,0.329,1.883
	c0.218,0.599,0.53,1.124,0.943,1.574c0.409,0.461,0.906,0.816,1.498,1.087c0.592,0.271,1.265,0.409,2.007,0.409
	c0.746,0,1.413-0.137,2.004-0.409c0.589-0.27,1.095-0.625,1.506-1.087c0.413-0.45,0.724-0.976,0.942-1.574
	C138.456,30.865,138.559,30.239,138.559,29.582z"/>
<path fill="#363534" d="M64.973,19.347H55.95c-1.166,0-2.239-0.173-3.227-0.512c-0.986-0.334-1.838-0.826-2.548-1.479
	c-0.722-0.649-1.281-1.433-1.684-2.357c-0.408-0.926-0.612-1.988-0.612-3.168c0-1.103,0.204-2.122,0.619-3.043
	c0.41-0.929,0.975-1.72,1.693-2.383c0.714-0.664,1.555-1.181,2.522-1.543c0.961-0.365,2.002-0.553,3.11-0.553
	c1.109,0,2.143,0.188,3.111,0.559c0.967,0.376,1.809,0.9,2.522,1.557c0.714,0.664,1.279,1.454,1.692,2.369
	c0.418,0.921,0.622,1.934,0.622,3.037c0,0.523-0.06,1.035-0.178,1.532c-0.121,0.496-0.298,0.967-0.536,1.407
	c-0.238,0.439-0.545,0.841-0.925,1.186c-0.379,0.356-0.818,0.644-1.325,0.863v0.042h4.166V19.347z M51.287,11.829
	c0,0.633,0.115,1.223,0.355,1.778c0.236,0.555,0.562,1.03,0.978,1.437c0.412,0.412,0.894,0.733,1.44,0.967
	c0.543,0.236,1.134,0.351,1.763,0.351c0.633,0,1.224-0.115,1.767-0.351c0.542-0.235,1.025-0.555,1.437-0.967
	c0.418-0.409,0.739-0.884,0.98-1.437c0.238-0.554,0.357-1.145,0.357-1.778c0-0.633-0.12-1.229-0.357-1.782
	c-0.241-0.554-0.562-1.031-0.98-1.437c-0.412-0.409-0.896-0.727-1.437-0.967c-0.543-0.23-1.134-0.35-1.767-0.35
	c-0.63,0-1.22,0.12-1.763,0.35c-0.546,0.24-1.028,0.56-1.44,0.967c-0.415,0.407-0.742,0.883-0.978,1.437
	C51.402,10.599,51.287,11.196,51.287,11.829z"/>
<path fill="#363534" d="M78.721,13.69c0,0.873-0.136,1.668-0.399,2.405c-0.269,0.732-0.664,1.363-1.192,1.902
	c-0.523,0.539-1.179,0.957-1.963,1.261c-0.784,0.308-1.691,0.459-2.712,0.459c-1.037,0-1.95-0.151-2.73-0.459
	c-0.79-0.304-1.443-0.722-1.969-1.261c-0.525-0.539-0.923-1.17-1.189-1.902c-0.266-0.736-0.397-1.532-0.397-2.405V4.683h3.275v8.887
	c0,0.449,0.076,0.878,0.225,1.265c0.146,0.381,0.352,0.715,0.618,0.998c0.269,0.278,0.585,0.508,0.955,0.665
	c0.373,0.156,0.776,0.24,1.21,0.24c0.436,0,0.834-0.085,1.197-0.24c0.369-0.157,0.685-0.387,0.949-0.665
	c0.263-0.282,0.468-0.616,0.619-0.998c0.146-0.389,0.22-0.817,0.22-1.265V4.683h3.282L78.721,13.69L78.721,13.69z"/>
<path fill="#363534" d="M81.283,4.683h3.283v14.662h-3.283V4.683z"/>
<path fill="#363534" d="M87.256,4.683h3.281v11.678h6.074v2.985h-9.354V4.683z"/>
<path fill="#363534" d="M97.998,4.683h4.961l3.427,9.565h0.047l3.446-9.565h4.942v14.662h-3.28V8.102h-0.048l-3.908,11.245h-2.504
	L101.32,8.102h-0.042v11.245h-3.281V4.683z"/>
<path fill="#363534" d="M117.551,4.683h10.113v2.985h-6.835v2.729h6.459v2.985h-6.459v2.979h7.208v2.985H117.55L117.551,4.683
	L117.551,4.683z"/>
<path fill="#363534" d="M137.611,8.263c-0.264-0.324-0.626-0.575-1.082-0.731c-0.46-0.162-0.889-0.24-1.291-0.24
	c-0.238,0-0.489,0.026-0.738,0.083c-0.25,0.058-0.493,0.142-0.719,0.261c-0.227,0.11-0.406,0.273-0.543,0.465
	c-0.139,0.194-0.212,0.428-0.212,0.701c0,0.445,0.173,0.784,0.507,1.015c0.334,0.235,0.758,0.439,1.267,0.6
	c0.515,0.168,1.067,0.334,1.649,0.497c0.591,0.162,1.14,0.403,1.652,0.706c0.512,0.303,0.936,0.711,1.273,1.223
	c0.34,0.507,0.504,1.191,0.504,2.048c0,0.821-0.154,1.527-0.463,2.134c-0.306,0.606-0.724,1.108-1.249,1.51
	c-0.528,0.403-1.137,0.7-1.833,0.895c-0.69,0.193-1.425,0.287-2.196,0.287c-0.964,0-1.867-0.146-2.692-0.439
	c-0.827-0.282-1.597-0.758-2.311-1.406l2.334-2.52c0.334,0.434,0.761,0.779,1.272,1.024c0.512,0.235,1.037,0.361,1.589,0.361
	c0.266,0,0.53-0.037,0.803-0.1c0.274-0.062,0.523-0.15,0.737-0.276c0.217-0.126,0.392-0.282,0.53-0.476
	c0.131-0.193,0.199-0.423,0.199-0.685c0-0.445-0.173-0.79-0.515-1.045c-0.348-0.257-0.776-0.476-1.3-0.654
	c-0.512-0.178-1.076-0.356-1.675-0.539c-0.605-0.178-1.167-0.418-1.682-0.722c-0.523-0.309-0.952-0.705-1.299-1.202
	c-0.34-0.496-0.51-1.155-0.51-1.966c0-0.789,0.157-1.479,0.47-2.07c0.319-0.597,0.732-1.093,1.263-1.49
	c0.525-0.403,1.127-0.701,1.819-0.905c0.688-0.199,1.396-0.302,2.12-0.302c0.845,0,1.657,0.121,2.442,0.355
	c0.784,0.236,1.49,0.628,2.12,1.177L137.611,8.263z"/>
<circle fill="#BED600" cx="20.5" cy="18.27" r="8.002"/>
<path fill="#BED600" d="M20.5,0.5C9.731,0.5,1,9.231,1,20c0,10.77,8.731,19.5,19.5,19.5S40,30.77,40,20
	C40,9.231,31.269,0.5,20.5,0.5z M20.5,34.427c-2.811,0-5.412-1.007-7.53-2.715h15.06C25.912,33.42,23.311,34.427,20.5,34.427z
	 M20.5,29.983c-6.468,0-11.712-5.244-11.712-11.712S14.032,6.559,20.5,6.559s11.712,5.243,11.712,11.712S26.968,29.983,20.5,29.983z
	"/>
</svg>
