<?xml version="1.0" encoding="utf-8"?>
<!-- Generator: Adobe Illustrator 16.0.0, SVG Export Plug-In . SVG Version: 6.00 Build 0)  -->
<!DOCTYPE svg PUBLIC "-//W3C//DTD SVG 1.1//EN" "http://www.w3.org/Graphics/SVG/1.1/DTD/svg11.dtd">
<svg version="1.1" id="Capa_1" xmlns="http://www.w3.org/2000/svg" xmlns:xlink="http://www.w3.org/1999/xlink" x="0px" y="0px"
	 width="53.73px" height="63.787px" viewBox="0 0 53.73 63.787" enable-background="new 0 0 53.73 63.787" xml:space="preserve">
<path fill="#0072BB" d="M52.658,54.959L40.198,41.21c-1.349,1.917-3.095,3.52-5.12,4.7l12.464,13.662
	c1.171,1.507,3.341,1.778,4.85,0.608C53.898,59.01,54.17,56.84,53,55.332c-0.104-0.133-0.217-0.258-0.338-0.374L52.658,54.959
	L52.658,54.959z"/>
<path fill="#0072BB" d="M27.407,17.638c-7.611-0.388-14.097,5.468-14.484,13.079c-0.389,7.612,5.469,14.097,13.079,14.485
	c7.611,0.389,14.098-5.469,14.484-13.079c0.001-0.004,0.001-0.008,0.001-0.012C40.868,24.504,35.014,18.026,27.407,17.638z
	 M26.648,41.21c-5.449-0.006-9.862-4.426-9.857-9.875c0.006-5.449,4.427-9.862,9.875-9.857c5.449,0.005,9.862,4.426,9.857,9.875
	c-0.005,5.441-4.415,9.852-9.857,9.857H26.648z"/>
<path fill="#0072BB" d="M27.063,24.563c-3.791-0.203-7.029,2.706-7.232,6.497c0,0.007,0,0.014-0.001,0.021
	c-0.104,0.611,0.307,1.19,0.917,1.295c0.61,0.104,1.19-0.306,1.295-0.917c0.017-0.089,0.021-0.18,0.015-0.27
	c0.134-2.556,2.309-4.523,4.864-4.4c0.611,0.102,1.189-0.31,1.292-0.921c0.104-0.611-0.31-1.189-0.921-1.292
	c-0.087-0.014-0.175-0.019-0.262-0.013H27.063z"/>
<path fill="#0072BB" d="M44.032,62.737l-1.936-2.116H7.019c-2.135-0.011-3.868-1.72-3.908-3.853V7.019
	c0-2.168,1.758-3.926,3.926-3.926H39.6V13.26c0,1,0.81,1.809,1.809,1.809h8.792v30.754l3.112,3.4L53.132,12.3v-0.145L41.807,0.109
	L41.698,0H7.019C3.146,0.01,0.01,3.146,0,7.019v49.75c0.01,3.873,3.146,7.01,7.021,7.02h38.1c-0.394-0.314-0.757-0.666-1.085-1.051
	H44.032z M47.885,11.538h-4.829V6.223L47.885,11.538z"/>
</svg>
