<svg xmlns="http://www.w3.org/2000/svg" width="136.996" height="48.805" viewBox="0 0 136.996 48.805"><path d="M137.161,639.5a2.457,2.457,0,0,0-1.2-2.226h0a3.6,3.6,0,0,1-1.712-3.082,2.73,2.73,0,0,1,.685-2.055h0a2.762,2.762,0,0,0,.514-1.541,1.986,1.986,0,0,0-.685-1.713c-.514-.685-4.281-5.48-14.385-11.473a3.452,3.452,0,0,0-1.884-.514,4.857,4.857,0,0,0-2.226.685h0l-5.994,4.281h0a3.452,3.452,0,0,1-1.884.514H103.94a2.7,2.7,0,0,0-2.74,2.74v36.475a2.2,2.2,0,0,0,.685,1.713,10.354,10.354,0,0,0,2.4,2.055,1.845,1.845,0,0,0,1.37.343,2.7,2.7,0,0,0,2.74-2.74v-7.192a2.7,2.7,0,0,1,2.74-2.74,3.174,3.174,0,0,1,1.2.343h0a19.7,19.7,0,0,0,7.021,1.37,18.044,18.044,0,0,0,17.809-14.727c-.171,0,0-.171,0-.514" transform="translate(-101.2 -616.9)" fill="#96c93f"/><path d="M128.5,632.085a.627.627,0,0,1,.685-.685h3.425a3.429,3.429,0,1,1,0,6.85h-2.569a.168.168,0,0,0-.171.171v3.767a.783.783,0,0,1-.685.856c-.514,0-.685-.342-.685-.856Zm6.165,2.74a2.027,2.027,0,0,0-2.226-2.055H129.87a.168.168,0,0,0-.171.171v3.768a.168.168,0,0,0,.171.171h2.569a1.943,1.943,0,0,0,2.226-2.055" transform="translate(-81.75 -606.569)" fill="#59595b"/><path d="M133.6,640.663v-6.507a.627.627,0,0,1,.685-.685.737.737,0,0,1,.685.685v.342h0a2.179,2.179,0,0,1,2.055-1.2,2.473,2.473,0,0,1,1.2.343c.342.171.342.342.342.514a.737.737,0,0,1-.685.685h-.342a1.545,1.545,0,0,0-.856-.171c-1.2,0-1.712,1.027-1.712,2.226v3.767a.685.685,0,1,1-1.37,0" transform="translate(-78.117 -605.216)" fill="#59595b"/><path d="M137.143,639.465a5.59,5.59,0,0,1-.342-2.055,4.015,4.015,0,0,1,.342-2.055,3,3,0,0,1,3.082-2.055,3.054,3.054,0,0,1,3.082,2.055,5.59,5.59,0,0,1,.342,2.055,3.708,3.708,0,0,1-.342,2.055,3,3,0,0,1-3.082,2.055,3.209,3.209,0,0,1-3.082-2.055m4.966-.514a4.251,4.251,0,0,0,.171-1.541,3.8,3.8,0,0,0-.171-1.541,1.648,1.648,0,0,0-1.712-1.2,1.7,1.7,0,0,0-1.712,1.2,4.251,4.251,0,0,0-.171,1.541,3.8,3.8,0,0,0,.171,1.541,1.648,1.648,0,0,0,1.712,1.2,1.783,1.783,0,0,0,1.712-1.2" transform="translate(-75.837 -605.216)" fill="#59595b"/><path d="M143.7,640.492l-2.4-6.165v-.343a.737.737,0,0,1,.685-.685c.342,0,.514.171.685.514l2.055,5.48h0l2.055-5.48c.171-.343.342-.514.685-.514a.737.737,0,0,1,.685.685v.343l-2.4,6.165c-.171.685-.514.856-.856.856a1.209,1.209,0,0,1-1.2-.856" transform="translate(-72.631 -605.216)" fill="#59595b"/><path d="M145.8,632.256a.856.856,0,1,1,.856.856c-.514.171-.856-.343-.856-.856m.171,3.254a.627.627,0,0,1,.685-.685.737.737,0,0,1,.685.685v6.507a.627.627,0,0,1-.685.685.737.737,0,0,1-.685-.685Z" transform="translate(-69.425 -606.569)" fill="#59595b"/><path d="M147.9,634.156a.627.627,0,0,1,.685-.685.737.737,0,0,1,.685.685v.171h0A2.355,2.355,0,0,1,151.5,633.3a2.654,2.654,0,0,1,2.74,2.911v4.452a.627.627,0,0,1-.685.685.737.737,0,0,1-.685-.685v-4.11c0-1.2-.514-2.055-1.712-2.055a1.8,1.8,0,0,0-1.884,1.884v4.281a.627.627,0,0,1-.685.685.737.737,0,0,1-.685-.685v-6.507Z" transform="translate(-67.929 -605.216)" fill="#59595b"/><path d="M152.771,639.465a7.056,7.056,0,0,1-.171-2.055c0-.856.171-1.541.171-2.055a3,3,0,0,1,3.082-2.055,3.093,3.093,0,0,1,2.569,1.2.629.629,0,0,1,.171.514.737.737,0,0,1-.685.685,1.3,1.3,0,0,1-.685-.342,2.171,2.171,0,0,0-1.541-.685,1.536,1.536,0,0,0-1.712,1.2,7.022,7.022,0,0,0,0,3.082,1.648,1.648,0,0,0,1.712,1.2,2.17,2.17,0,0,0,1.541-.685.89.89,0,0,1,.685-.342.737.737,0,0,1,.685.685.629.629,0,0,1-.171.514,3.092,3.092,0,0,1-2.569,1.2,2.869,2.869,0,0,1-3.082-2.055" transform="translate(-64.58 -605.216)" fill="#59595b"/><path d="M156.9,632.256a.856.856,0,1,1,.856.856.809.809,0,0,1-.856-.856m.171,3.254a.627.627,0,0,1,.685-.685.737.737,0,0,1,.685.685v6.507a.627.627,0,0,1-.685.685.737.737,0,0,1-.685-.685Z" transform="translate(-61.517 -606.569)" fill="#59595b"/><path d="M165.65,640.764a.737.737,0,0,1-.685.685,1.3,1.3,0,0,1-.685-.343l-.342-.514h0a3.1,3.1,0,0,1-2.4.856c-1.712,0-2.74-.856-2.74-2.4,0-1.712,1.2-2.4,3.082-2.4h1.712a.168.168,0,0,0,.171-.171v-.342c0-1.027-.514-1.712-1.884-1.712a3.419,3.419,0,0,0-1.541.342.6.6,0,0,0-.342.171.454.454,0,0,1-.514-.514c0-.171.171-.514.342-.514a4.535,4.535,0,0,1,2.4-.514c2.055,0,3.082,1.027,3.082,2.911v2.911a1.544,1.544,0,0,0,.171.856l.342.514c-.343-.171-.171,0-.171.171m-1.884-2.055v-.856a.168.168,0,0,0-.171-.171h-1.541c-1.37,0-1.884.343-1.884,1.37,0,.856.514,1.2,1.712,1.2,1.027,0,1.884-.514,1.884-1.541" transform="translate(-60.163 -605.145)" fill="#59595b"/><path d="M128.571,624.127A.908.908,0,0,1,129.6,623.1h3.425c2.4,0,3.6,1.2,3.6,2.911a2.381,2.381,0,0,1-1.37,2.4h0a2.849,2.849,0,0,1,1.541,2.569c0,2.226-1.541,3.254-3.939,3.254h-3.425A.908.908,0,0,1,128.4,633.2v-9.076Zm4.11,3.425a1.4,1.4,0,0,0,1.541-1.37c0-.856-.514-1.37-1.541-1.37h-1.712a.168.168,0,0,0-.171.171v2.4a.168.168,0,0,0,.171.171Zm-1.541,4.795h1.884c1.027,0,1.541-.514,1.541-1.37s-.514-1.37-1.541-1.37H131.14a.168.168,0,0,0-.171.171l.171,2.569c-.171-.171-.171,0,0,0" transform="translate(-81.822 -612.483)" fill="#5a5a5c"/><path d="M138.795,632.264h0a2.336,2.336,0,0,1-2.055.856,2.654,2.654,0,0,1-2.74-2.911V626.1a1.2,1.2,0,1,1,2.4,0v3.6c0,.856.342,1.37,1.2,1.37s1.2-.514,1.2-1.37v-3.6a1.2,1.2,0,1,1,2.4,0v5.651a1.17,1.17,0,0,1-1.2,1.2.974.974,0,0,1-1.2-.685" transform="translate(-77.832 -611.201)" fill="#5a5a5c"/><path d="M139.242,630.894a5.286,5.286,0,0,1-.342-1.884,5.856,5.856,0,0,1,.171-1.884,3.748,3.748,0,0,1,6.85,0,6.156,6.156,0,0,1,.342,1.884.627.627,0,0,1-.685.685H141.3a.168.168,0,0,0-.171.171v.514a1.582,1.582,0,0,0,1.712,1.027,5,5,0,0,0,1.541-.343,1.545,1.545,0,0,1,.856-.171.809.809,0,0,1,.856.856.942.942,0,0,1-.514.856,4.9,4.9,0,0,1-2.911.856c-1.712-.342-3.082-1.2-3.425-2.569m4.624-2.74h0c.171-.342,0-.514,0-.685a1.524,1.524,0,0,0-2.74,0v.514a.168.168,0,0,0,.171.171h2.569Z" transform="translate(-74.341 -611.2)" fill="#5a5a5c"/><path d="M148.695,631.75v-3.6a1.209,1.209,0,1,0-2.4,0v3.6a1.2,1.2,0,1,1-2.4,0V626.1a1.171,1.171,0,0,1,1.2-1.2.959.959,0,0,1,1.027.856h0a2.335,2.335,0,0,1,2.055-.856,2.654,2.654,0,0,1,2.74,2.911v4.11a1.17,1.17,0,0,1-1.2,1.2c-.514,0-1.028-.514-1.028-1.37" transform="translate(-70.779 -611.2)" fill="#5a5a5c"/><path d="M149.042,630.894a5.286,5.286,0,0,1-.342-1.884,3.109,3.109,0,0,1,.342-1.884,3.222,3.222,0,0,1,3.425-2.226,3.419,3.419,0,0,1,3.425,2.226,5.285,5.285,0,0,1,.342,1.884,3.109,3.109,0,0,1-.342,1.884,3.222,3.222,0,0,1-3.425,2.226,3.419,3.419,0,0,1-3.425-2.226m4.795-.685a5.565,5.565,0,0,0,0-2.74,1.267,1.267,0,0,0-2.4,0,5.564,5.564,0,0,0,0,2.74,1.141,1.141,0,0,0,1.2.856c.514.171,1.028-.171,1.2-.856" transform="translate(-67.359 -611.2)" fill="#5a5a5c"/><path d="M154.214,632.435a.942.942,0,0,1-.514-.856.959.959,0,0,1,1.027-.856,1.294,1.294,0,0,1,.685.171,3.452,3.452,0,0,0,1.884.514c.856,0,1.2-.342,1.2-.685s-.171-.514-1.2-.685l-.856-.171c-1.712-.171-2.569-1.027-2.569-2.4,0-1.541,1.2-2.569,3.254-2.569a5.469,5.469,0,0,1,2.4.514.874.874,0,0,1,.685.856.809.809,0,0,1-.856.856,1.3,1.3,0,0,1-.685-.171,5,5,0,0,0-1.541-.342c-.685,0-1.027.171-1.027.685,0,.342.171.514,1.027.685l.856.171c1.884.171,2.569,1.027,2.569,2.4,0,1.712-1.37,2.74-3.6,2.74a7.355,7.355,0,0,1-2.74-.856" transform="translate(-63.797 -611.2)" fill="#5a5a5c"/><path d="M160.471,632.761l3.082-8.391a1.755,1.755,0,0,1,3.425,0l2.911,8.391v.514a1.171,1.171,0,0,1-1.2,1.2,1.288,1.288,0,0,1-1.2-.856l-.514-1.37h-3.767l-.514,1.37a1.288,1.288,0,0,1-1.2.856,1.171,1.171,0,0,1-1.2-1.2.629.629,0,0,0,.171-.514m5.994-2.569-1.37-3.939h0l-1.37,3.939Z" transform="translate(-59.095 -612.554)" fill="#5a5a5c"/><path d="M166.5,624.27a1.37,1.37,0,1,1,1.37,1.37,1.351,1.351,0,0,1-1.37-1.37m0,8.9v-5.651a1.2,1.2,0,1,1,2.4,0v5.651a1.171,1.171,0,0,1-1.2,1.2c-.685.171-1.2-.343-1.2-1.2" transform="translate(-54.677 -612.625)" fill="#5a5a5c"/><path d="M168.9,631.821V626.17a1.171,1.171,0,0,1,1.2-1.2,1.288,1.288,0,0,1,1.2.856h0a2.409,2.409,0,0,1,2.055-1.027,1.284,1.284,0,0,1,.856.171,1.138,1.138,0,0,1,.685.856,1.17,1.17,0,0,1-1.2,1.2h-1.027c-.856,0-1.2.685-1.2,1.712v3.254a1.171,1.171,0,0,1-1.2,1.2c-1.027,0-1.37-.514-1.37-1.37" transform="translate(-52.968 -611.272)" fill="#5a5a5c"/><path d="M172.643,630.894a5.285,5.285,0,0,1-.342-1.884,5.856,5.856,0,0,1,.171-1.884,3.748,3.748,0,0,1,6.85,0,6.155,6.155,0,0,1,.342,1.884.627.627,0,0,1-.685.685H174.7a.168.168,0,0,0-.171.171v.514a1.582,1.582,0,0,0,1.712,1.027,5,5,0,0,0,1.541-.343,1.545,1.545,0,0,1,.856-.171.809.809,0,0,1,.856.856.942.942,0,0,1-.514.856,4.9,4.9,0,0,1-2.911.856c-1.712-.342-3.082-1.2-3.425-2.569m4.624-2.74h0c.171-.342,0-.514,0-.685a1.524,1.524,0,0,0-2.74,0v.514a.168.168,0,0,0,.171.171h2.569Z" transform="translate(-50.545 -611.2)" fill="#5a5a5c"/><path d="M177.714,632.435a.942.942,0,0,1-.514-.856.959.959,0,0,1,1.027-.856,1.294,1.294,0,0,1,.685.171,3.452,3.452,0,0,0,1.884.514c.856,0,1.2-.342,1.2-.685s-.171-.514-1.2-.685l-.856-.171c-1.712-.171-2.569-1.027-2.569-2.4,0-1.541,1.2-2.569,3.254-2.569a5.469,5.469,0,0,1,2.4.514.874.874,0,0,1,.685.856.809.809,0,0,1-.856.856,1.3,1.3,0,0,1-.685-.171,5,5,0,0,0-1.541-.342c-.685,0-1.027.171-1.027.685,0,.342.171.514,1.027.685l.856.171c1.884.171,2.569,1.027,2.569,2.4,0,1.712-1.37,2.74-3.6,2.74a8.618,8.618,0,0,1-2.74-.856" transform="translate(-47.054 -611.2)" fill="#5a5a5c"/></svg>