<?xml version="1.0" encoding="utf-8"?>
<!-- Generator: Adobe Illustrator 16.0.0, SVG Export Plug-In . SVG Version: 6.00 Build 0)  -->
<!DOCTYPE svg PUBLIC "-//W3C//DTD SVG 1.1//EN" "http://www.w3.org/Graphics/SVG/1.1/DTD/svg11.dtd">
<svg version="1.1" id="Capa_1" xmlns="http://www.w3.org/2000/svg" xmlns:xlink="http://www.w3.org/1999/xlink" x="0px" y="0px"
	 width="68.438px" height="66.506px" viewBox="0 0 68.438 66.506" enable-background="new 0 0 68.438 66.506" xml:space="preserve">
<g transform="translate(-5.449 -5.999)">
	<path fill="#0072BB" d="M13.322,55.811h52.665c2.227,0.002,4.033-1.801,4.035-4.027c0-0.004,0-0.006,0-0.01V14.974
		c0-2.227-1.805-4.031-4.031-4.031H46.662c-0.955,0-1.729,0.775-1.729,1.73c0,0.955,0.774,1.729,1.729,1.729h19.325
		c0.335,0,0.606,0.271,0.606,0.606l0,0v32.929H12.752V14.98c0-0.334,0.271-0.606,0.605-0.606h11.437c0.955,0,1.729-0.775,1.729-1.73
		c0-0.955-0.774-1.729-1.729-1.729H13.322c-2.226,0-4.03,1.805-4.03,4.031v36.851C9.301,54.016,11.103,55.81,13.322,55.811z"/>
	<path fill="#0072BB" d="M72.613,65.204l-4.566-4.308c-0.514-0.504-1.201-0.79-1.92-0.801H13.219
		c-0.719,0.011-1.406,0.297-1.92,0.801l-4.568,4.308c-1.288,1.405-1.64,3.433-0.9,5.19c0.405,1.225,1.531,2.066,2.82,2.11h62.042
		c1.299-0.048,2.427-0.907,2.82-2.146C74.238,68.612,73.887,66.603,72.613,65.204z"/>
	<path fill="#0072BB" d="M32.907,22.281l-1.886,0.623c-0.23-0.324-0.491-0.625-0.779-0.9l0.9-1.73
		c0.063-0.118,0.02-0.264-0.098-0.328c-0.001,0-0.002-0.001-0.003-0.001l-2.927-1.47c-0.117-0.063-0.265-0.02-0.328,0.098
		c0,0,0,0.001-0.001,0.002l-0.899,1.73c-0.389-0.066-0.782-0.095-1.176-0.087l-0.623-1.883c-0.04-0.127-0.176-0.198-0.304-0.159
		c-0.003,0.001-0.005,0.002-0.008,0.003L21.662,19.2c-0.127,0.04-0.198,0.176-0.158,0.303c0.001,0.002,0.002,0.005,0.003,0.007
		l0.623,1.886c-0.323,0.225-0.625,0.48-0.9,0.761l-1.73-0.9c-0.117-0.063-0.264-0.02-0.327,0.098c-0.001,0-0.001,0.001-0.001,0.002
		l-1.471,2.93c-0.063,0.118-0.02,0.264,0.099,0.328c0,0,0.001,0.001,0.002,0.001l1.729,0.9c-0.065,0.388-0.095,0.782-0.087,1.176
		l-1.886,0.623c-0.128,0.04-0.198,0.176-0.159,0.303c0.001,0.003,0.002,0.005,0.003,0.008l1.021,3.114
		c0.04,0.127,0.176,0.198,0.303,0.158c0.003,0,0.005-0.001,0.008-0.002l1.9-0.675c0.225,0.323,0.479,0.625,0.761,0.9l-0.9,1.73
		c-0.063,0.118-0.02,0.264,0.099,0.328c0,0,0.001,0.001,0.002,0.001l2.924,1.471c0.117,0.063,0.265,0.02,0.328-0.098
		c0-0.001,0-0.001,0.001-0.002l0.899-1.729c0.389,0.065,0.782,0.095,1.177,0.087l0.623,1.886c0.04,0.127,0.176,0.199,0.303,0.159
		c0.003-0.001,0.005-0.001,0.008-0.002l3.114-1.021c0.127-0.04,0.198-0.176,0.158-0.303c-0.001-0.003-0.002-0.005-0.002-0.008
		l-0.623-1.886c0.322-0.225,0.624-0.479,0.899-0.761l1.73,0.9c0.117,0.063,0.264,0.02,0.327-0.098c0.001,0,0.001-0.001,0.002-0.002
		l1.481-2.937c0.063-0.118,0.02-0.264-0.098-0.328c-0.001,0-0.002,0-0.002-0.001l-1.73-0.9c0.066-0.388,0.095-0.782,0.087-1.176
		l1.887-0.588c0.126-0.042,0.194-0.18,0.151-0.306c0,0,0,0,0,0l-1.021-3.114c-0.049-0.123-0.188-0.185-0.312-0.138L32.907,22.281z
		 M26.973,30.035c-1.906,0.626-3.959-0.412-4.585-2.318c-0.627-1.906,0.411-3.959,2.317-4.585s3.959,0.412,4.585,2.318v0
		C29.917,27.356,28.879,29.409,26.973,30.035z"/>
	<path fill="#0072BB" d="M57.457,32.557l-2.353-0.9c0.047-0.501,0.047-1.005,0-1.505l2.3-1.021c0.15-0.07,0.22-0.246,0.156-0.4
		l-1.73-3.806c-0.07-0.15-0.246-0.219-0.399-0.156l-2.318,1.021c-0.33-0.379-0.694-0.727-1.09-1.038l0.9-2.353
		c0.061-0.158-0.017-0.336-0.174-0.4l-3.89-1.482c-0.158-0.061-0.336,0.016-0.399,0.173l-0.9,2.353
		c-0.501-0.047-1.005-0.047-1.505,0l-1.021-2.3c-0.07-0.15-0.246-0.219-0.399-0.156l-3.803,1.73c-0.15,0.07-0.219,0.247-0.155,0.4
		l1.038,2.318c-0.38,0.327-0.727,0.689-1.038,1.082l-2.354-0.9c-0.158-0.061-0.336,0.016-0.399,0.173l-1.486,3.897
		c-0.062,0.158,0.016,0.336,0.173,0.4l2.354,0.9c-0.048,0.5-0.048,1.004,0,1.505l-2.301,1.021c-0.15,0.07-0.219,0.247-0.155,0.4
		l1.729,3.806c0.07,0.151,0.246,0.219,0.4,0.156l2.37-1.038c0.33,0.379,0.694,0.727,1.09,1.038l-0.9,2.353
		c-0.061,0.158,0.017,0.336,0.173,0.4l3.894,1.487c0.158,0.062,0.336-0.016,0.399-0.173l0.9-2.353c0.501,0.047,1.005,0.047,1.505,0
		l1.021,2.3c0.07,0.15,0.246,0.219,0.399,0.156l3.807-1.73c0.15-0.07,0.219-0.247,0.155-0.4l-1.09-2.37
		c0.38-0.33,0.728-0.695,1.038-1.09l2.354,0.9c0.158,0.061,0.336-0.016,0.399-0.173l1.488-3.893
		C57.661,32.75,57.586,32.614,57.457,32.557z M49.012,32.933c-1.003,1.012-2.637,1.02-3.649,0.017
		c-1.012-1.003-1.02-2.636-0.017-3.648l0.017-0.017c1.006-0.997,2.626-0.997,3.632,0C50.007,30.287,50.014,31.92,49.012,32.933z"/>
	<path fill="#0072BB" d="M42.25,11.295h-1.626c-0.092-0.311-0.214-0.612-0.362-0.9l1.159-1.159c0.076-0.072,0.08-0.192,0.008-0.269
		c-0.003-0.003-0.005-0.005-0.008-0.008l-1.9-1.9c-0.072-0.077-0.192-0.081-0.269-0.008c-0.003,0.002-0.006,0.005-0.009,0.008
		l-1.162,1.156c-0.287-0.148-0.589-0.27-0.899-0.363V6.225c0.02-0.103-0.047-0.203-0.15-0.223C37.011,5.999,36.992,5.998,36.972,6
		h-2.681c-0.104,0-0.189,0.085-0.189,0.19l0,0v1.627c-0.311,0.093-0.612,0.214-0.9,0.363l-1.158-1.159
		c-0.072-0.077-0.192-0.08-0.269-0.008c-0.003,0.002-0.006,0.005-0.009,0.008l-1.9,1.9c-0.076,0.072-0.08,0.192-0.008,0.269
		c0.002,0.003,0.005,0.006,0.008,0.009l1.156,1.162c-0.148,0.288-0.271,0.589-0.363,0.9h-1.627c-0.104,0-0.189,0.085-0.189,0.19l0,0
		v2.682c0,0.105,0.085,0.19,0.189,0.19l0,0h1.592c0.093,0.311,0.215,0.612,0.363,0.9l-1.159,1.159
		c-0.076,0.072-0.08,0.192-0.008,0.269c0.003,0.003,0.005,0.006,0.008,0.009l1.9,1.9c0.072,0.077,0.192,0.08,0.269,0.008
		c0.003-0.003,0.006-0.005,0.009-0.008l1.167-1.158c0.288,0.149,0.589,0.271,0.899,0.363v1.626c0,0.105,0.085,0.19,0.19,0.19l0,0
		h2.682c0.105,0,0.19-0.085,0.19-0.19l0,0v-1.624c0.311-0.093,0.611-0.214,0.899-0.363l1.159,1.159
		c0.072,0.077,0.192,0.08,0.269,0.008c0.003-0.002,0.006-0.005,0.009-0.008l1.899-1.9c0.077-0.072,0.081-0.192,0.009-0.269
		c-0.003-0.003-0.006-0.006-0.009-0.009l-1.158-1.159c0.148-0.288,0.27-0.589,0.362-0.9H42.2c0.105,0,0.19-0.085,0.19-0.19V11.5
		c0.013-0.094-0.047-0.183-0.138-0.208L42.25,11.295z M35.641,15.828c-1.644,0-2.976-1.333-2.976-2.977
		c0.001-1.644,1.333-2.976,2.978-2.975c1.644,0,2.976,1.333,2.975,2.977c0,0.023,0,0.046-0.001,0.068
		C38.579,14.537,37.257,15.828,35.641,15.828L35.641,15.828z"/>
</g>
</svg>
