<svg xmlns="http://www.w3.org/2000/svg" width="80.214" height="80.214" viewBox="0 0 80.214 80.214">
  <path id="check-circle" d="M195.054,159.647a3.253,3.253,0,0,0-.94-2.4l-4.752-4.7a3.279,3.279,0,0,0-4.7,0L163.355,173.8l-11.8-11.8a3.279,3.279,0,0,0-4.7,0l-4.752,4.7a3.253,3.253,0,0,0-.94,2.4,3.188,3.188,0,0,0,.94,2.35l18.9,18.9a3.212,3.212,0,0,0,2.35.992,3.272,3.272,0,0,0,2.4-.992L194.114,162A3.189,3.189,0,0,0,195.054,159.647Zm13.16,8.46a39.234,39.234,0,0,1-5.379,20.132,39.927,39.927,0,0,1-14.6,14.6,40.363,40.363,0,0,1-40.264,0,39.927,39.927,0,0,1-14.6-14.6,40.363,40.363,0,0,1,0-40.264,39.926,39.926,0,0,1,14.6-14.6,40.363,40.363,0,0,1,40.264,0,39.926,39.926,0,0,1,14.6,14.6A39.234,39.234,0,0,1,208.214,168.107Z" transform="translate(-128 -128)" fill="#33b560"/>
</svg>
