<svg xmlns="http://www.w3.org/2000/svg" width="74.851" height="68.652" viewBox="0 0 74.851 68.652"><path d="M-29.07,50.307a9.615,9.615,0,0,0-2.924-7.056,9.615,9.615,0,0,0-7.056-2.924,9.615,9.615,0,0,0-7.056,2.924,9.615,9.615,0,0,0-2.924,7.056,9.615,9.615,0,0,0,2.924,7.056,9.615,9.615,0,0,0,7.056,2.924,9.615,9.615,0,0,0,7.056-2.924A9.615,9.615,0,0,0-29.07,50.307ZM.871,70.267A4.8,4.8,0,0,0-.611,66.758a4.8,4.8,0,0,0-3.509-1.481,4.8,4.8,0,0,0-3.509,1.481,4.8,4.8,0,0,0-1.481,3.509A4.808,4.808,0,0,0-7.647,73.8a4.808,4.808,0,0,0,3.528,1.462A4.808,4.808,0,0,0-.591,73.8,4.808,4.808,0,0,0,.871,70.267Zm0-39.921A4.8,4.8,0,0,0-.611,26.838a4.8,4.8,0,0,0-3.509-1.481,4.8,4.8,0,0,0-3.509,1.481,4.8,4.8,0,0,0-1.481,3.509,4.808,4.808,0,0,0,1.462,3.528,4.808,4.808,0,0,0,3.528,1.462A4.808,4.808,0,0,0-.591,33.875,4.808,4.808,0,0,0,.871,30.346ZM-14.1,46.759v7.212a1.269,1.269,0,0,1-.273.76.905.905,0,0,1-.624.409l-6.043.936a19.215,19.215,0,0,1-1.248,2.963q1.325,1.871,3.509,4.483a1.353,1.353,0,0,1,.273.78,1,1,0,0,1-.273.741,40.7,40.7,0,0,1-3.216,3.489q-2.32,2.32-3.06,2.32a1.406,1.406,0,0,1-.819-.273l-4.483-3.509a17.677,17.677,0,0,1-3,1.209,46.414,46.414,0,0,1-.9,6.043,1.14,1.14,0,0,1-1.17.936h-7.251a1.189,1.189,0,0,1-.78-.292,1,1,0,0,1-.39-.682l-.9-5.965a17.1,17.1,0,0,1-2.924-1.209l-4.6,3.47a1.055,1.055,0,0,1-.78.273,1.293,1.293,0,0,1-.819-.312q-5.614-5.185-5.614-6.238a1.306,1.306,0,0,1,.273-.741q.39-.546,1.6-2.066t1.832-2.378a19.94,19.94,0,0,1-1.364-3.2l-5.926-.936a.961.961,0,0,1-.663-.37,1.162,1.162,0,0,1-.273-.76V46.642a1.269,1.269,0,0,1,.273-.76.905.905,0,0,1,.624-.409l6.043-.936a19.215,19.215,0,0,1,1.248-2.963q-1.325-1.871-3.509-4.483a1.487,1.487,0,0,1-.273-.78,1.141,1.141,0,0,1,.273-.78,33.151,33.151,0,0,1,3.2-3.47q2.339-2.3,3.08-2.3a1.406,1.406,0,0,1,.819.273l4.483,3.509a18.966,18.966,0,0,1,3-1.248,44.831,44.831,0,0,1,.9-6,1.14,1.14,0,0,1,1.17-.936h7.251a1.189,1.189,0,0,1,.78.292,1,1,0,0,1,.39.682l.9,5.965A17.1,17.1,0,0,1-30.434,33.5l4.6-3.47a1.141,1.141,0,0,1,.78-.273,1.293,1.293,0,0,1,.819.312q5.614,5.185,5.614,6.238a1.306,1.306,0,0,1-.273.741q-.468.624-1.637,2.105T-22.286,41.5a26.608,26.608,0,0,1,1.325,3.2l5.926.9a1.129,1.129,0,0,1,.663.409A1.162,1.162,0,0,1-14.1,46.759Zm24.95,20.779V73q0,.624-5.809,1.209a11.366,11.366,0,0,1-1.17,2.027q1.988,4.405,1.988,5.38a.337.337,0,0,1-.156.273Q.949,84.652.871,84.652q-.312,0-1.793-1.832T-2.95,80.169q-.78.078-1.17.078t-1.17-.078q-.546.819-2.027,2.651t-1.793,1.832q-.078,0-4.834-2.768a.337.337,0,0,1-.156-.273q0-.975,1.988-5.38a11.366,11.366,0,0,1-1.17-2.027Q-19.089,73.62-19.089,73V67.538q0-.624,5.809-1.209a10.892,10.892,0,0,1,1.17-2.027Q-14.1,59.9-14.1,58.922a.337.337,0,0,1,.156-.273q.156-.078,1.364-.78t2.3-1.325a9.581,9.581,0,0,1,1.17-.624q.312,0,1.793,1.813t2.027,2.631q.78-.078,1.17-.078t1.17.078A35.871,35.871,0,0,1,.637,56l.234-.078q.156,0,4.834,2.729a.337.337,0,0,1,.156.273q0,.975-1.988,5.38a10.892,10.892,0,0,1,1.17,2.027Q10.851,66.914,10.851,67.538Zm0-39.92v5.458q0,.624-5.809,1.209a11.366,11.366,0,0,1-1.17,2.027q1.988,4.405,1.988,5.38a.337.337,0,0,1-.156.273Q.949,44.732.871,44.732q-.312,0-1.793-1.832T-2.95,40.249q-.78.078-1.17.078t-1.17-.078q-.546.819-2.027,2.651t-1.793,1.832q-.078,0-4.834-2.768a.337.337,0,0,1-.156-.273q0-.975,1.988-5.38a11.366,11.366,0,0,1-1.17-2.027q-5.809-.585-5.809-1.209V27.617q0-.624,5.809-1.209a10.893,10.893,0,0,1,1.17-2.027Q-14.1,19.976-14.1,19a.337.337,0,0,1,.156-.273q.156-.078,1.364-.78t2.3-1.325A9.581,9.581,0,0,1-9.109,16q.312,0,1.793,1.813t2.027,2.631q.78-.078,1.17-.078t1.17.078A35.871,35.871,0,0,1,.637,16.078L.871,16q.156,0,4.834,2.729A.337.337,0,0,1,5.861,19q0,.975-1.988,5.38a10.893,10.893,0,0,1,1.17,2.027Q10.851,26.994,10.851,27.617Z" transform="translate(64 -16)" fill="#0072bb"/></svg>