<?xml version="1.0" encoding="utf-8"?>
<!-- Generator: Adobe Illustrator 16.0.0, SVG Export Plug-In . SVG Version: 6.00 Build 0)  -->
<!DOCTYPE svg PUBLIC "-//W3C//DTD SVG 1.1//EN" "http://www.w3.org/Graphics/SVG/1.1/DTD/svg11.dtd">
<svg version="1.1" id="Capa_1" xmlns="http://www.w3.org/2000/svg" xmlns:xlink="http://www.w3.org/1999/xlink" x="0px" y="0px"
	 width="71.438px" height="63.787px" viewBox="0 0 71.438 63.787" enable-background="new 0 0 71.438 63.787" xml:space="preserve">
<path fill="#0072BB" d="M64.36,14.168c3.912-0.007,7.078-3.184,7.071-7.096C71.426,3.16,68.248-0.007,64.336,0
	s-7.078,3.184-7.072,7.096c0.002,0.645,0.091,1.287,0.266,1.908c0.246,0.654,0.976,0.984,1.63,0.738
	c0.576-0.217,0.912-0.818,0.796-1.423C59.273,5.89,60.69,3.367,63.12,2.686c2.43-0.682,4.951,0.735,5.633,3.165
	c0.683,2.429-0.734,4.952-3.164,5.633c-0.381,0.107-0.773,0.164-1.169,0.169c-1.021,0.009-2.013-0.333-2.813-0.967h-0.119
	c-0.079-0.055-0.164-0.1-0.253-0.134h-0.8l-0.238,0.074l-0.208,0.134l-0.134,0.089l-6.638,6.518
	c-8.044-8.535-21.484-8.932-30.019-0.887c-2.991,2.82-5.1,6.447-6.07,10.441l0,0l-0.1,0.461c-0.138,0.677,0.292,1.339,0.967,1.488
	h0.265c0.596-0.001,1.109-0.417,1.234-1l0.089-0.4l0,0c2.471-10.065,12.633-16.222,22.698-13.751
	c10.065,2.47,16.223,12.633,13.752,22.699c-2.471,10.064-12.633,16.222-22.698,13.752c-8.104-1.99-13.921-9.092-14.275-17.429
	c-0.015-0.489-0.319-0.922-0.774-1.1l0,0c-0.1-0.011-0.2-0.011-0.3,0h-0.193l-4.971-0.045h-0.4l-0.223,0.1l-0.179,0.119
	c-0.066,0.058-0.127,0.123-0.18,0.193l-0.118,0.164c-0.045,0.09-0.079,0.185-0.101,0.283c0,0.039,0,0.079,0,0.119
	c-0.325,2.286-2.304,3.972-4.613,3.929c-2.522-0.044-4.532-2.126-4.487-4.648c0.044-2.523,2.125-4.532,4.648-4.488
	c1.654,0.029,3.164,0.951,3.946,2.41c0.266,0.646,1.005,0.955,1.651,0.689c0.646-0.266,0.954-1.005,0.688-1.651
	c-0.033-0.08-0.074-0.157-0.123-0.229c-1.844-3.451-6.136-4.754-9.586-2.91c-3.451,1.844-4.754,6.136-2.91,9.587
	c1.211,2.266,3.554,3.699,6.123,3.744h0.119c3.11,0,5.856-2.027,6.771-5h2.842c1.143,11.665,11.525,20.194,23.19,19.052
	c4.309-0.423,8.386-2.153,11.684-4.958l4.122,4.791c-0.648,1.009-1.027,2.166-1.101,3.363c-0.245,3.906,2.717,7.274,6.622,7.53
	h0.461c3.913,0.123,7.185-2.948,7.308-6.861c0.123-3.912-2.949-7.184-6.861-7.307c-0.648-0.038-1.3,0.012-1.935,0.149
	c-0.707,0.131-1.174,0.811-1.042,1.518c0.131,0.707,0.811,1.174,1.518,1.042l0,0c0.411-0.087,0.831-0.116,1.25-0.089
	c2.519,0.158,4.431,2.329,4.271,4.848s-2.329,4.431-4.848,4.271c-2.519-0.158-4.431-2.329-4.271-4.848
	c0.059-1.017,0.463-1.982,1.146-2.738c0.002-0.039,0.002-0.079,0-0.119c0.06-0.078,0.11-0.162,0.149-0.252
	c0.005-0.064,0.005-0.129,0-0.193c0.039-0.156,0.039-0.32,0-0.477c0.009-0.084,0.009-0.168,0-0.252
	c-0.033-0.074-0.073-0.144-0.119-0.209c-0.021-0.051-0.046-0.101-0.074-0.148l-4.807-5.641c7.015-7.483,7.642-18.924,1.487-27.129
	l6.101-5.953c1.057,0.543,2.234,0.81,3.423,0.774L64.36,14.168z"/>
<circle fill="#0072BB" cx="64.365" cy="7.084" r="2.441"/>
<circle fill="#0072BB" cx="61.626" cy="56.797" r="2.441"/>
<circle fill="#0072BB" cx="7.042" cy="31.984" r="2.441"/>
<path fill="#0072BB" d="M43.947,32.71c3.078-3.288,2.908-8.448-0.379-11.526c-3.288-3.079-8.449-2.909-11.527,0.379
	c-2.936,3.136-2.936,8.012,0,11.147c-3.476,2.105-5.671,5.807-5.849,9.867c0,3.423,8.572,3.779,12.263,3.779
	c2.407,0.035,4.811-0.18,7.173-0.64c1.013-0.223,4.078-0.907,4.078-3.14C49.542,38.536,47.385,34.84,43.947,32.71z M37.941,21.705
	c3.086-0.004,5.591,2.494,5.595,5.58v0.015c-0.004,3.08-2.5,5.575-5.579,5.579c-3.086,0.005-5.591-2.493-5.595-5.579
	C32.358,24.213,34.856,21.708,37.941,21.705z M40.285,43.796c-5.834,0.238-10.67-0.686-11.563-1.488
	c0.221-3.311,2.18-6.256,5.148-7.738c0.091-0.043,0.176-0.098,0.253-0.163c2.366,1.246,5.194,1.246,7.561,0
	c3.174,1.461,5.289,4.548,5.506,8.036C46.848,42.784,45.047,43.603,40.285,43.796z"/>
</svg>
