<svg xmlns="http://www.w3.org/2000/svg" width="54.382" height="34.96" viewBox="0 0 54.382 34.96"><path d="M50.5,401.48a29.831,29.831,0,0,0-11.562-10.712,13.262,13.262,0,0,1,1.851,6.828,13.093,13.093,0,0,1-3.991,9.6,13.093,13.093,0,0,1-9.6,3.991,13.093,13.093,0,0,1-9.6-3.991,13.093,13.093,0,0,1-3.991-9.6,13.263,13.263,0,0,1,1.851-6.828A29.831,29.831,0,0,0,3.884,401.48a31.324,31.324,0,0,0,10.121,9.908,25.421,25.421,0,0,0,26.371,0A31.324,31.324,0,0,0,50.5,401.48Zm-21.85-11.653a1.45,1.45,0,0,0-1.457-1.457,9.274,9.274,0,0,0-9.225,9.225,1.457,1.457,0,1,0,2.913,0,6.32,6.32,0,0,1,6.312-6.312,1.451,1.451,0,0,0,1.457-1.457ZM54.382,401.48a4.2,4.2,0,0,1-.607,2.094,32.194,32.194,0,0,1-11.426,11.183,29.39,29.39,0,0,1-30.317-.015A32.406,32.406,0,0,1,.607,403.574a3.916,3.916,0,0,1,0-4.188,32.406,32.406,0,0,1,11.426-11.168,29.345,29.345,0,0,1,30.317,0,32.406,32.406,0,0,1,11.426,11.168A4.2,4.2,0,0,1,54.382,401.48Z" transform="translate(0 -384)" fill="#0072bb"/></svg>