<svg xmlns="http://www.w3.org/2000/svg" width="28.365" height="33.093" viewBox="0 0 28.365 33.093">
  <path id="file-text-o" d="M155.109,7.017a4.3,4.3,0,0,1,.886,1.4,4.263,4.263,0,0,1,.369,1.625V31.32a1.765,1.765,0,0,1-1.773,1.773H129.773A1.765,1.765,0,0,1,128,31.32V1.773a1.71,1.71,0,0,1,.517-1.256A1.71,1.71,0,0,1,129.773,0h16.546a4.264,4.264,0,0,1,1.625.369,4.3,4.3,0,0,1,1.4.886Zm-8.2-4.506V9.455h6.944a2.017,2.017,0,0,0-.406-.757l-5.78-5.78A2.016,2.016,0,0,0,146.91,2.511ZM154,30.729V11.819h-7.682a1.765,1.765,0,0,1-1.773-1.773V2.364H130.364V30.729Zm-18.91-15.955a.569.569,0,0,1,.591-.591h13a.569.569,0,0,1,.591.591v1.182a.569.569,0,0,1-.591.591h-13a.569.569,0,0,1-.591-.591Zm13.591,4.137a.569.569,0,0,1,.591.591v1.182a.569.569,0,0,1-.591.591h-13a.569.569,0,0,1-.591-.591V19.5a.569.569,0,0,1,.591-.591Zm0,4.727a.569.569,0,0,1,.591.591V25.41a.569.569,0,0,1-.591.591h-13a.569.569,0,0,1-.591-.591V24.228a.569.569,0,0,1,.591-.591Z" transform="translate(-128)"/>
</svg>
