<svg xmlns="http://www.w3.org/2000/svg" width="69.306" height="63.797" viewBox="0 0 69.306 63.797"><path d="M72.986,38.126a2.577,2.577,0,0,0-1.812-.765H69.811c-1.4-3.142-3.607-7.979-6.649-14.712a23.074,23.074,0,0,0,4.173-4.887,4.44,4.44,0,0,0-3.74-6.849,4.987,4.987,0,0,0-.848,0H62.6a4.355,4.355,0,0,0-2.776,2.095c-.183.266-.416.6-.665.914l-.349.366A6.1,6.1,0,0,0,56.978,14a5.719,5.719,0,0,0-3.325,1.047C51.808,14.271,49.5,13.207,47,11.993a8.179,8.179,0,0,0-3.059-4.7A7.8,7.8,0,0,0,38.958,5.46a7.7,7.7,0,0,0-4.538,1.5,8.312,8.312,0,0,0-1.263,1.031,7.963,7.963,0,0,0-2.194,4.006c-2.46,1.214-4.771,2.277-6.649,3.059A5.719,5.719,0,0,0,20.987,14a6.1,6.1,0,0,0-1.829.283l-.316-.316c-.266-.349-.515-.682-.7-.964a4.355,4.355,0,0,0-2.66-1.995h-.1a4.887,4.887,0,0,0-.848,0,4.522,4.522,0,0,0-2.41.7,4.455,4.455,0,0,0-1.33,6.134,23.074,23.074,0,0,0,4.173,4.887C11.828,29.514,9.617,34.369,8.32,37.444H6.907A2.527,2.527,0,0,0,4.38,40.037v.482A17.189,17.189,0,0,0,21.22,57.343h.3a16.823,16.823,0,0,0,13.066-6.649v4.671a4.471,4.471,0,0,0-.482.266,11.371,11.371,0,0,0-4.6,4.738H27.6a4.422,4.422,0,0,0-.748,8.794,2.477,2.477,0,0,0,.6.083H50.727a1.663,1.663,0,0,0,.4,0,4.422,4.422,0,0,0-.648-8.811H48.633a11.637,11.637,0,0,0-4.621-4.754l-.465-.249V50.71A16.823,16.823,0,0,0,56.6,57.359h.349a17.189,17.189,0,0,0,16.74-16.923v-.482A2.56,2.56,0,0,0,72.986,38.126ZM54.251,17.994a3.325,3.325,0,0,1,4.987-.6l.5-.449L61.1,15.584c.3-.4.6-.831.864-1.214a1.812,1.812,0,0,1,1.2-.831h.382a1.928,1.928,0,0,1,1.047.3,1.862,1.862,0,0,1,.815,1.2,1.9,1.9,0,0,1-.249,1.43,18.17,18.17,0,0,1-5.22,5.419c3.325,7.048,5.6,12.152,7.115,15.56H62.813c-.7-1.563-1.5-3.325-2.311-5.137-1.064-2.377-2.194-4.887-3.325-7.281L51.143,37.444H46.97L54.4,22.117a86.032,86.032,0,0,1-9.392-3.923,7.73,7.73,0,0,0,1.662-3.541C49.647,16.016,52.306,17.2,54.251,17.994Zm5.785,19.416H54l3.125-6.45L58.191,33.3c.632,1.313,1.263,2.776,1.845,4.056ZM34.586,20.5V37.361H33.9l-6.749-13.9c2.593-1.014,5.353-2.294,7.148-3.142Zm-.8-7.314A5.2,5.2,0,0,1,35.915,9a5.536,5.536,0,0,1,3.075-.981h.116a5.7,5.7,0,0,1,3.674,1.43,5.253,5.253,0,1,1-8.993,3.674Zm9.974,7.132c1.8.848,4.555,2.128,7.148,3.142l-6.749,13.9h-.682V20.5ZM18.145,21.8a18.386,18.386,0,0,1-5.2-5.469,1.9,1.9,0,0,1,.582-2.627,1.862,1.862,0,0,1,1.031-.3h.382a1.812,1.812,0,0,1,1.2.831c.266.382.565.815.914,1.263l1.313,1.313.5.449a3.325,3.325,0,0,1,4.987.6c1.945-.731,4.6-1.928,7.564-3.325a7.73,7.73,0,0,0,1.662,3.541A86.027,86.027,0,0,1,23.7,22.034l7.431,15.327H26.905L20.871,24.943c-1.1,2.394-2.228,4.9-3.325,7.281-.815,1.829-1.662,3.574-2.311,5.137H11.046c1.513-3.408,3.857-8.511,7.115-15.56Zm5.918,15.56H18.045c.582-1.28,1.214-2.676,1.845-4.106l1.064-2.344ZM21.47,54.8H21.22A14.762,14.762,0,0,1,6.924,40.37v-.482H35.5v.465A14.313,14.313,0,0,1,21.47,54.8Zm25.384,8.079h3.624a1.9,1.9,0,1,1,.166,3.79H27.371a1.9,1.9,0,0,1,.166-3.79h3.624a8.578,8.578,0,0,1,4.173-4.987,8.778,8.778,0,0,1,1.779-.748V20.721a7,7,0,0,0,3.823,0V57.093a9.193,9.193,0,0,1,1.745.748,8.594,8.594,0,0,1,4.173,5.037Zm24.3-22.508A14.762,14.762,0,0,1,56.944,54.8h-.266A14.313,14.313,0,0,1,42.665,40.353v-.465H71.158Z" transform="translate(-4.379 -5.46)" fill="#0072bb"/></svg>