<svg id="logo" xmlns="http://www.w3.org/2000/svg" width="116.687" height="52.756" viewBox="0 0 116.687 52.756">
  <g id="Grupo_1003" data-name="Grupo 1003" transform="translate(0.119 0)">
    <path id="Trazado_3" d="M432.879,202.846a30.549,30.549,0,0,1-7.379-.851,19.518,19.518,0,0,1-5.7-2.22l3.918-7.5a20.051,20.051,0,0,0,10.179,2.8,7.343,7.343,0,0,0,2.985-.473c.684-.311,1.041-.746,1.041-1.285q0-.778-1.057-1.243a20.738,20.738,0,0,0-3.337-1.041,41.124,41.124,0,0,1-5-1.575,9.383,9.383,0,0,1-3.482-2.466,6.353,6.353,0,0,1-1.492-4.374,10.055,10.055,0,0,1,1.824-5.97,11.517,11.517,0,0,1,5.285-3.958,21.492,21.492,0,0,1,8.146-1.41,27.873,27.873,0,0,1,6.28.662,16.774,16.774,0,0,1,5.014,1.927L447.58,179.8h-4.332a23.479,23.479,0,0,0-5.078-.746,7.142,7.142,0,0,0-3.274.6c-.767.394-1.161.87-1.161,1.43,0,.539.352.974,1.057,1.285a19.836,19.836,0,0,0,3.482,1.041,36.515,36.515,0,0,1,4.933,1.471,9.052,9.052,0,0,1,3.482,2.425,6.278,6.278,0,0,1,1.471,4.311,9.769,9.769,0,0,1-1.866,5.907,11.937,11.937,0,0,1-5.306,3.938A21.665,21.665,0,0,1,432.879,202.846Z" transform="translate(-362.014 -171.273)" fill="#0072bb"/>
    <path id="Trazado_1" d="M521.535,179.8H510.486l-5.886-8.5,41.2.622-3.793,7.9h-10.3l-6.633,22.3H514.9Z" transform="translate(-429.238 -171.294)" fill="#0072bb"/>
    <path id="Trazado_5" d="M147.2,172.282h14.011a20.646,20.646,0,0,1,8.436,1.6,12.243,12.243,0,0,1,5.472,4.56,12.658,12.658,0,0,1,1.907,7,17.644,17.644,0,0,1-2.487,9.41,16.523,16.523,0,0,1-6.881,6.238,22.138,22.138,0,0,1-10.028,2.2H141Zm10.778,22.862a8,8,0,0,0,6.28-2.55,9.5,9.5,0,0,0,2.238-6.528,5.255,5.255,0,0,0-1.658-4.163,7.052,7.052,0,0,0-4.809-1.451h-3.979l-2.922,14.716Z" transform="translate(-141 -172.068)" fill="#0072bb"/>
    <path id="Trazado_7" d="M321.069,172.3l-6.2,31.031h-8.6l-8.912-14.447-2.881,14.447H284.3l6.2-31.031h8.6l8.912,14.447,2.881-14.447Z" transform="translate(-254.599 -172.087)" fill="#0072bb"/>
  </g>
  <g id="Grupo_1004" data-name="Grupo 1004" transform="translate(0 36.878)">
    <path id="Trazado_503" data-name="Trazado 503" d="M245.041,351.3h2.094a3.192,3.192,0,0,1,1.389.27,1.8,1.8,0,0,1,.87.726,1.971,1.971,0,0,1,.311,1.119,3.156,3.156,0,0,1-.414,1.6,2.919,2.919,0,0,1-1.161,1.078,3.847,3.847,0,0,1-1.741.373H244Zm1.347,4.518a2.81,2.81,0,0,0,1.347-.311,2.294,2.294,0,0,0,.891-.829,2.384,2.384,0,0,0,.311-1.223,1.41,1.41,0,0,0-.473-1.119,2.093,2.093,0,0,0-1.389-.393h-1.41l-.808,3.879Z" transform="translate(-222.532 -350.864)" fill="#707070"/>
    <path id="Trazado_504" data-name="Trazado 504" d="M274.508,350.878h.726l-.808,3.9H273.7Zm.27-.87a.422.422,0,0,1-.124-.311.454.454,0,0,1,.145-.352.5.5,0,0,1,.373-.145.473.473,0,0,1,.332.124.409.409,0,0,1,.124.29.5.5,0,0,1-.145.373.609.609,0,0,1-.394.145.421.421,0,0,1-.311-.124Z" transform="translate(-246.076 -349.2)" fill="#707070"/>
    <path id="Trazado_505" data-name="Trazado 505" d="M286.052,357.345a2.639,2.639,0,0,1,.954-.145l-.145.684h-.189a1.442,1.442,0,0,0-1.534,1.306l-.414,1.948H284l.808-3.9h.7l-.124.58a1.472,1.472,0,0,1,.663-.476Z" transform="translate(-254.241 -355.541)" fill="#707070"/>
    <path id="Trazado_506" data-name="Trazado 506" d="M299.4,359.4v.042a1.049,1.049,0,0,0,.311.829,1.419,1.419,0,0,0,.954.29,2.018,2.018,0,0,0,.7-.124,1.668,1.668,0,0,0,.56-.332l.311.5a2.082,2.082,0,0,1-.726.414,2.594,2.594,0,0,1-.891.145,2.315,2.315,0,0,1-1.041-.207,1.523,1.523,0,0,1-.662-.58,1.589,1.589,0,0,1-.228-.891,2.491,2.491,0,0,1,.29-1.182,2.023,2.023,0,0,1,.808-.808,2.491,2.491,0,0,1,1.182-.29,1.844,1.844,0,0,1,1.324.456,1.578,1.578,0,0,1,.5,1.223,2.35,2.35,0,0,1-.062.518Zm.622-1.325a1.292,1.292,0,0,0-.518.808h2.611a.956.956,0,0,0-.29-.808,1.26,1.26,0,0,0-.87-.29,1.514,1.514,0,0,0-.934.289Z" transform="translate(-265.895 -355.541)" fill="#707070"/>
    <path id="Trazado_507" data-name="Trazado 507" d="M322.191,360.872a1.522,1.522,0,0,1-.662-.58,1.544,1.544,0,0,1-.228-.891,2.287,2.287,0,0,1,.311-1.182,2.176,2.176,0,0,1,.851-.829,2.373,2.373,0,0,1,1.223-.29,1.725,1.725,0,0,1,1.658.851l-.622.332a1.155,1.155,0,0,0-1.1-.56,1.515,1.515,0,0,0-.808.207,1.371,1.371,0,0,0-.56.58,1.668,1.668,0,0,0-.207.851,1.031,1.031,0,0,0,.311.808,1.316,1.316,0,0,0,.891.29,1.5,1.5,0,0,0,.684-.145,1.135,1.135,0,0,0,.518-.414l.539.373a1.739,1.739,0,0,1-.746.58,2.408,2.408,0,0,1-1.016.207A1.829,1.829,0,0,1,322.191,360.872Z" transform="translate(-283.81 -355.461)" fill="#707070"/>
    <path id="Trazado_508" data-name="Trazado 508" d="M342.891,360.872a1.523,1.523,0,0,1-.662-.58A1.546,1.546,0,0,1,342,359.4a2.286,2.286,0,0,1,.311-1.182,2.175,2.175,0,0,1,.852-.829,2.373,2.373,0,0,1,1.223-.29,1.725,1.725,0,0,1,1.658.851l-.622.332a1.155,1.155,0,0,0-1.1-.56,1.515,1.515,0,0,0-.808.207,1.372,1.372,0,0,0-.56.58,1.666,1.666,0,0,0-.207.851,1.031,1.031,0,0,0,.311.808,1.316,1.316,0,0,0,.891.29,1.5,1.5,0,0,0,.684-.145,1.136,1.136,0,0,0,.518-.414l.539.373a1.739,1.739,0,0,1-.746.58,2.408,2.408,0,0,1-1.015.207,1.865,1.865,0,0,1-1.042-.189Z" transform="translate(-300.219 -355.461)" fill="#707070"/>
    <path id="Trazado_509" data-name="Trazado 509" d="M363.808,350.878h.726l-.808,3.9H363Zm.249-.87a.422.422,0,0,1-.124-.311.454.454,0,0,1,.145-.352.5.5,0,0,1,.373-.145.473.473,0,0,1,.332.124.408.408,0,0,1,.124.29.5.5,0,0,1-.145.373.608.608,0,0,1-.394.145A.422.422,0,0,1,364.057,350.008Z" transform="translate(-316.867 -349.2)" fill="#707070"/>
    <path id="Trazado_510" data-name="Trazado 510" d="M374.191,355.244a1.576,1.576,0,0,1-.891-1.492,2.287,2.287,0,0,1,.311-1.182,2.176,2.176,0,0,1,.852-.829,2.375,2.375,0,0,1,1.223-.29,2.135,2.135,0,0,1,1,.207,1.649,1.649,0,0,1,.662.58,1.723,1.723,0,0,1,.228.891,2.286,2.286,0,0,1-.311,1.182,2.176,2.176,0,0,1-.851.829,2.374,2.374,0,0,1-1.223.291A1.755,1.755,0,0,1,374.191,355.244Zm1.866-.6a1.372,1.372,0,0,0,.559-.58,1.667,1.667,0,0,0,.207-.851,1.031,1.031,0,0,0-.311-.808,1.279,1.279,0,0,0-.891-.291,1.514,1.514,0,0,0-.808.207,1.372,1.372,0,0,0-.56.58,1.666,1.666,0,0,0-.207.852,1.031,1.031,0,0,0,.311.808,1.316,1.316,0,0,0,.891.29,1.8,1.8,0,0,0,.809-.208Zm.435-4.642h.954l-1.389.954h-.726Z" transform="translate(-325.032 -349.834)" fill="#707070"/>
    <path id="Trazado_511" data-name="Trazado 511" d="M400.818,357.452a1.23,1.23,0,0,1,.394.954,3.723,3.723,0,0,1-.042.456l-.456,2.176h-.726l.456-2.176a2.388,2.388,0,0,0,.042-.332.748.748,0,0,0-.228-.58,1.022,1.022,0,0,0-.7-.207,1.483,1.483,0,0,0-.975.311,1.584,1.584,0,0,0-.518.933l-.435,2.052H396.9l.808-3.9h.7l-.1.5a2.039,2.039,0,0,1,1.471-.539,1.686,1.686,0,0,1,1.038.352Z" transform="translate(-343.741 -355.462)" fill="#707070"/>
    <path id="Trazado_512" data-name="Trazado 512" d="M437.858,351.3l-1.078,5.14h-.622l-2.383-3.958-.808,3.958H432.2l1.078-5.14h.625l2.383,3.958.808-3.958Z" transform="translate(-371.724 -350.864)" fill="#707070"/>
    <path id="Trazado_513" data-name="Trazado 513" d="M466.142,357.3l-.808,3.9h-.7l.1-.473a2.226,2.226,0,0,1-.642.394,2.416,2.416,0,0,1-.787.145,1.935,1.935,0,0,1-.933-.207,1.736,1.736,0,0,1-.642-.58,1.78,1.78,0,0,1-.228-.891,2.492,2.492,0,0,1,.29-1.182,2.072,2.072,0,0,1,.829-.808,2.492,2.492,0,0,1,1.182-.291,1.953,1.953,0,0,1,.891.189,1.237,1.237,0,0,1,.56.518l.145-.662h.746Zm-1.866,3.13a1.372,1.372,0,0,0,.56-.58,1.667,1.667,0,0,0,.207-.851,1.031,1.031,0,0,0-.311-.808,1.279,1.279,0,0,0-.891-.291,1.514,1.514,0,0,0-.808.207,1.372,1.372,0,0,0-.56.58,1.667,1.667,0,0,0-.207.851,1.031,1.031,0,0,0,.311.808,1.316,1.316,0,0,0,.891.29,1.8,1.8,0,0,0,.809-.207Z" transform="translate(-394.951 -355.62)" fill="#707070"/>
    <path id="Trazado_514" data-name="Trazado 514" d="M487.691,360.872a1.524,1.524,0,0,1-.662-.58,1.546,1.546,0,0,1-.228-.891,2.287,2.287,0,0,1,.311-1.182,2.176,2.176,0,0,1,.852-.829,2.373,2.373,0,0,1,1.223-.29,1.725,1.725,0,0,1,1.659.851l-.622.332a1.155,1.155,0,0,0-1.1-.56,1.515,1.515,0,0,0-.808.207,1.373,1.373,0,0,0-.559.58,1.668,1.668,0,0,0-.207.851,1.031,1.031,0,0,0,.311.808,1.316,1.316,0,0,0,.891.29,1.5,1.5,0,0,0,.684-.145,1.136,1.136,0,0,0,.518-.414l.539.373a1.739,1.739,0,0,1-.746.58,2.409,2.409,0,0,1-1.015.207A1.829,1.829,0,0,1,487.691,360.872Z" transform="translate(-415.008 -355.461)" fill="#707070"/>
    <path id="Trazado_515" data-name="Trazado 515" d="M508.608,350.878h.726l-.808,3.9H507.8Zm.249-.87a.422.422,0,0,1-.124-.311.454.454,0,0,1,.145-.352.5.5,0,0,1,.373-.145.473.473,0,0,1,.332.124.409.409,0,0,1,.124.29.5.5,0,0,1-.145.373.608.608,0,0,1-.393.145.421.421,0,0,1-.311-.124Z" transform="translate(-431.655 -349.2)" fill="#707070"/>
    <path id="Trazado_516" data-name="Trazado 516" d="M518.991,360.793a1.576,1.576,0,0,1-.891-1.492,2.287,2.287,0,0,1,.311-1.182,2.177,2.177,0,0,1,.852-.829,2.375,2.375,0,0,1,1.223-.29,2.136,2.136,0,0,1,1,.207,1.649,1.649,0,0,1,.662.58,1.723,1.723,0,0,1,.228.891,2.287,2.287,0,0,1-.311,1.182,2.175,2.175,0,0,1-.851.829,2.375,2.375,0,0,1-1.223.29,1.755,1.755,0,0,1-.994-.186Zm1.866-.6a1.372,1.372,0,0,0,.559-.58,1.667,1.667,0,0,0,.207-.851,1.031,1.031,0,0,0-.311-.808,1.279,1.279,0,0,0-.891-.29,1.514,1.514,0,0,0-.808.207,1.372,1.372,0,0,0-.56.58,1.666,1.666,0,0,0-.207.852,1.032,1.032,0,0,0,.311.808,1.315,1.315,0,0,0,.891.29,1.8,1.8,0,0,0,.809-.207Z" transform="translate(-439.82 -355.383)" fill="#707070"/>
    <path id="Trazado_517" data-name="Trazado 517" d="M545.518,357.452a1.23,1.23,0,0,1,.394.954,3.73,3.73,0,0,1-.042.456l-.456,2.176h-.726l.456-2.176a2.383,2.383,0,0,0,.042-.332.748.748,0,0,0-.228-.58,1.023,1.023,0,0,0-.7-.207,1.483,1.483,0,0,0-.974.311,1.583,1.583,0,0,0-.518.933l-.435,2.052H541.6l.808-3.9h.7l-.1.5a2.039,2.039,0,0,1,1.471-.539A1.6,1.6,0,0,1,545.518,357.452Z" transform="translate(-458.449 -355.462)" fill="#707070"/>
    <path id="Trazado_518" data-name="Trazado 518" d="M571.142,357.3l-.808,3.9h-.7l.1-.473a2.225,2.225,0,0,1-.642.394,2.417,2.417,0,0,1-.788.145,1.934,1.934,0,0,1-.933-.207,1.734,1.734,0,0,1-.642-.58,1.78,1.78,0,0,1-.228-.891,2.492,2.492,0,0,1,.29-1.182,2.073,2.073,0,0,1,.829-.808,2.491,2.491,0,0,1,1.182-.29,1.952,1.952,0,0,1,.891.189,1.237,1.237,0,0,1,.559.518l.145-.662h.747Zm-1.845,3.13a1.37,1.37,0,0,0,.559-.58,1.665,1.665,0,0,0,.207-.851,1.031,1.031,0,0,0-.311-.808,1.279,1.279,0,0,0-.891-.291,1.514,1.514,0,0,0-.808.207,1.373,1.373,0,0,0-.56.58,1.669,1.669,0,0,0-.207.851,1.031,1.031,0,0,0,.311.808,1.316,1.316,0,0,0,.891.29,1.8,1.8,0,0,0,.81-.207Z" transform="translate(-478.189 -355.62)" fill="#707070"/>
    <path id="Trazado_519" data-name="Trazado 519" d="M592.935,349.8h.726l-1.135,5.451H591.8Z" transform="translate(-498.245 -349.676)" fill="#707070"/>
    <path id="Trazado_520" data-name="Trazado 520" d="M145.375,392.4l-1.135,5.451h-.7l.1-.473a2.228,2.228,0,0,1-.642.394,2.417,2.417,0,0,1-.788.145,1.934,1.934,0,0,1-.933-.207,1.734,1.734,0,0,1-.642-.58,1.779,1.779,0,0,1-.228-.891,2.492,2.492,0,0,1,.29-1.182,2.073,2.073,0,0,1,.829-.808,2.493,2.493,0,0,1,1.182-.291,1.953,1.953,0,0,1,.891.189,1.237,1.237,0,0,1,.56.518l.456-2.238h.767Zm-2.176,4.663a1.372,1.372,0,0,0,.56-.58,1.667,1.667,0,0,0,.207-.851,1.031,1.031,0,0,0-.311-.808,1.279,1.279,0,0,0-.891-.29,1.513,1.513,0,0,0-.808.207,1.372,1.372,0,0,0-.56.58,1.666,1.666,0,0,0-.207.852,1.031,1.031,0,0,0,.311.808,1.316,1.316,0,0,0,.891.29,1.39,1.39,0,0,0,.808-.207Z" transform="translate(-140.405 -383.446)" fill="#707070"/>
    <path id="Trazado_521" data-name="Trazado 521" d="M166.5,402v.042a1.048,1.048,0,0,0,.311.829,1.418,1.418,0,0,0,.954.29,2.018,2.018,0,0,0,.7-.124,1.671,1.671,0,0,0,.56-.332l.311.5a2.081,2.081,0,0,1-.726.414,2.594,2.594,0,0,1-.891.145,2.313,2.313,0,0,1-1.041-.207,1.523,1.523,0,0,1-.662-.58,1.589,1.589,0,0,1-.228-.891,2.492,2.492,0,0,1,.29-1.182,2.023,2.023,0,0,1,.808-.808,2.493,2.493,0,0,1,1.182-.29,1.845,1.845,0,0,1,1.324.456,1.578,1.578,0,0,1,.5,1.223,2.347,2.347,0,0,1-.062.518Zm.6-1.324a1.292,1.292,0,0,0-.518.808H169.2a.955.955,0,0,0-.29-.808,1.259,1.259,0,0,0-.87-.291,1.514,1.514,0,0,0-.932.289Z" transform="translate(-160.54 -389.312)" fill="#707070"/>
    <path id="Trazado_522" data-name="Trazado 522" d="M197.751,398.857a2.175,2.175,0,0,1-.851-.456l.332-.58a2.122,2.122,0,0,0,.767.435,2.974,2.974,0,0,0,.954.165,2.221,2.221,0,0,0,1.057-.228.7.7,0,0,0,.394-.642.5.5,0,0,0-.145-.373.868.868,0,0,0-.373-.228c-.145-.062-.352-.124-.622-.207-.332-.1-.622-.189-.829-.27a1.452,1.452,0,0,1-.539-.394,1.008,1.008,0,0,1-.228-.684,1.359,1.359,0,0,1,.29-.851,1.712,1.712,0,0,1,.788-.56,3.325,3.325,0,0,1,1.161-.189,3.644,3.644,0,0,1,.954.124,3.285,3.285,0,0,1,.767.311l-.311.6a1.947,1.947,0,0,0-.662-.311,3.279,3.279,0,0,0-.788-.1,1.87,1.87,0,0,0-1.041.249.793.793,0,0,0-.394.662.519.519,0,0,0,.166.373,1.07,1.07,0,0,0,.394.249c.145.062.373.124.642.207.332.1.6.189.808.27a1.332,1.332,0,0,1,.518.373.934.934,0,0,1,.228.642,1.318,1.318,0,0,1-.29.852,1.671,1.671,0,0,1-.808.56,3.366,3.366,0,0,1-1.182.189,5.423,5.423,0,0,1-1.157-.185Z" transform="translate(-185.194 -384.555)" fill="#707070"/>
    <path id="Trazado_523" data-name="Trazado 523" d="M221.808,393.479h.726l-.808,3.9H221Zm.249-.87a.422.422,0,0,1-.124-.311.454.454,0,0,1,.145-.352.5.5,0,0,1,.373-.145.473.473,0,0,1,.332.124.409.409,0,0,1,.124.29.5.5,0,0,1-.145.373.608.608,0,0,1-.394.145.457.457,0,0,1-.311-.125Z" transform="translate(-204.299 -382.97)" fill="#707070"/>
    <path id="Trazado_524" data-name="Trazado 524" d="M238.14,400.052a1.23,1.23,0,0,1,.394.954,2.321,2.321,0,0,1-.062.456l-.456,2.176h-.726l.456-2.176a2.837,2.837,0,0,0,.042-.331.748.748,0,0,0-.228-.58,1.013,1.013,0,0,0-.662-.207,1.408,1.408,0,0,0-.933.311,1.571,1.571,0,0,0-.5.912l-.435,2.073h-.726l.456-2.176a2.387,2.387,0,0,0,.042-.331.748.748,0,0,0-.228-.58.933.933,0,0,0-.684-.207,1.407,1.407,0,0,0-.933.311,1.566,1.566,0,0,0-.5.933l-.435,2.052H231.3l.808-3.9h.7l-.1.473a1.909,1.909,0,0,1,1.41-.518,1.664,1.664,0,0,1,.808.189,1.1,1.1,0,0,1,.5.518,2.112,2.112,0,0,1,1.658-.684,1.475,1.475,0,0,1,1.058.329Z" transform="translate(-212.465 -389.232)" fill="#707070"/>
    <path id="Trazado_525" data-name="Trazado 525" d="M272.862,399.907a1.733,1.733,0,0,1,.642.58,1.778,1.778,0,0,1,.228.891,2.491,2.491,0,0,1-.29,1.182,2.221,2.221,0,0,1-2.01,1.119,1.952,1.952,0,0,1-.891-.189,1.405,1.405,0,0,1-.58-.518l-.435,2.094H268.8l1.1-5.326h.7l-.1.473a1.993,1.993,0,0,1,1.43-.518,2.206,2.206,0,0,1,.933.214Zm-.642,2.943a1.373,1.373,0,0,0,.56-.58,1.667,1.667,0,0,0,.207-.852,1.031,1.031,0,0,0-.311-.808,1.279,1.279,0,0,0-.891-.29,1.514,1.514,0,0,0-.808.207,1.372,1.372,0,0,0-.56.58,1.667,1.667,0,0,0-.207.851,1.032,1.032,0,0,0,.311.808,1.315,1.315,0,0,0,.891.29A1.39,1.39,0,0,0,272.22,402.85Z" transform="translate(-242.192 -389.232)" fill="#707070"/>
    <path id="Trazado_526" data-name="Trazado 526" d="M296.535,392.4h.726l-1.135,5.451H295.4Z" transform="translate(-263.279 -383.446)" fill="#707070"/>
    <path id="Trazado_527" data-name="Trazado 527" d="M306.408,393.479h.726l-.808,3.9H305.6Zm.27-.87a.422.422,0,0,1-.124-.311.455.455,0,0,1,.145-.352.5.5,0,0,1,.373-.145.473.473,0,0,1,.332.124.409.409,0,0,1,.124.29.5.5,0,0,1-.145.373.608.608,0,0,1-.394.145.422.422,0,0,1-.311-.125Z" transform="translate(-271.364 -382.97)" fill="#707070"/>
    <path id="Trazado_528" data-name="Trazado 528" d="M318.366,392.629a.946.946,0,0,0-.27.539l-.062.311h1.182l-.124.58H317.93l-.7,3.316H316.5l.7-3.316h-.7l.124-.58h.7l.083-.373a1.571,1.571,0,0,1,.5-.912,1.5,1.5,0,0,1,1-.311,1.764,1.764,0,0,1,.473.062,1.052,1.052,0,0,1,.373.189l-.311.518a.811.811,0,0,0-.539-.189.8.8,0,0,0-.535.165Zm2.135.851h.726l-.808,3.9h-.726Zm.249-.87a.422.422,0,0,1-.124-.311.455.455,0,0,1,.145-.352.5.5,0,0,1,.373-.145.473.473,0,0,1,.332.124.409.409,0,0,1,.124.29.5.5,0,0,1-.145.373.608.608,0,0,1-.393.145.422.422,0,0,1-.312-.126Z" transform="translate(-280.005 -382.97)" fill="#707070"/>
    <path id="Trazado_529" data-name="Trazado 529" d="M343.091,403.472a1.523,1.523,0,0,1-.662-.58A1.546,1.546,0,0,1,342.2,402a2.285,2.285,0,0,1,.311-1.182,2.175,2.175,0,0,1,.851-.829,2.375,2.375,0,0,1,1.223-.29,1.725,1.725,0,0,1,1.658.851l-.622.332a1.155,1.155,0,0,0-1.1-.559,1.514,1.514,0,0,0-.808.207,1.371,1.371,0,0,0-.559.58,1.666,1.666,0,0,0-.207.851,1.031,1.031,0,0,0,.311.808,1.316,1.316,0,0,0,.891.291,1.5,1.5,0,0,0,.684-.145,1.135,1.135,0,0,0,.518-.414l.539.373a1.74,1.74,0,0,1-.746.58,2.407,2.407,0,0,1-1.015.207A2.065,2.065,0,0,1,343.091,403.472Z" transform="translate(-300.379 -389.232)" fill="#707070"/>
    <path id="Trazado_530" data-name="Trazado 530" d="M367.442,399.9l-.808,3.9h-.7l.1-.473a2.229,2.229,0,0,1-.642.394,2.418,2.418,0,0,1-.787.145,1.934,1.934,0,0,1-.933-.207,1.736,1.736,0,0,1-.642-.58,1.78,1.78,0,0,1-.228-.891,2.491,2.491,0,0,1,.29-1.182,2.072,2.072,0,0,1,.829-.808,2.492,2.492,0,0,1,1.182-.29,1.952,1.952,0,0,1,.891.189,1.237,1.237,0,0,1,.56.518l.145-.662h.746Zm-1.866,3.109a1.372,1.372,0,0,0,.56-.58,1.666,1.666,0,0,0,.207-.851,1.031,1.031,0,0,0-.311-.808,1.279,1.279,0,0,0-.891-.29,1.514,1.514,0,0,0-.808.207,1.372,1.372,0,0,0-.56.58,1.665,1.665,0,0,0-.207.852,1.031,1.031,0,0,0,.311.808,1.587,1.587,0,0,0,1.7.083Z" transform="translate(-316.709 -389.391)" fill="#707070"/>
    <path id="Trazado_531" data-name="Trazado 531" d="M388.991,403.472a1.523,1.523,0,0,1-.662-.58A1.546,1.546,0,0,1,388.1,402a2.286,2.286,0,0,1,.311-1.182,2.175,2.175,0,0,1,.852-.829,2.373,2.373,0,0,1,1.223-.291,1.725,1.725,0,0,1,1.659.852l-.622.332a1.155,1.155,0,0,0-1.1-.559,1.514,1.514,0,0,0-.808.207,1.372,1.372,0,0,0-.56.58,1.667,1.667,0,0,0-.207.851,1.031,1.031,0,0,0,.311.808,1.316,1.316,0,0,0,.891.29,1.5,1.5,0,0,0,.684-.145,1.135,1.135,0,0,0,.518-.414l.539.373a1.739,1.739,0,0,1-.746.58,2.408,2.408,0,0,1-1.015.207A2.066,2.066,0,0,1,388.991,403.472Z" transform="translate(-336.765 -389.232)" fill="#707070"/>
    <path id="Trazado_532" data-name="Trazado 532" d="M409.908,393.479h.726l-.808,3.9H409.1Zm.249-.87a.422.422,0,0,1-.124-.311.454.454,0,0,1,.145-.352.5.5,0,0,1,.373-.145.473.473,0,0,1,.332.124.409.409,0,0,1,.124.29.5.5,0,0,1-.145.373.608.608,0,0,1-.393.145.422.422,0,0,1-.311-.125Z" transform="translate(-353.412 -382.97)" fill="#707070"/>
    <path id="Trazado_533" data-name="Trazado 533" d="M420.291,397.844a1.576,1.576,0,0,1-.891-1.492,2.287,2.287,0,0,1,.311-1.182,2.177,2.177,0,0,1,.852-.829,2.374,2.374,0,0,1,1.223-.29,2.136,2.136,0,0,1,1,.207,1.649,1.649,0,0,1,.662.58,1.724,1.724,0,0,1,.228.891,2.287,2.287,0,0,1-.311,1.182,2.176,2.176,0,0,1-.851.829,2.375,2.375,0,0,1-1.223.29A1.947,1.947,0,0,1,420.291,397.844Zm1.866-.622a1.372,1.372,0,0,0,.56-.58,1.667,1.667,0,0,0,.207-.851,1.031,1.031,0,0,0-.311-.808,1.279,1.279,0,0,0-.891-.291,1.515,1.515,0,0,0-.808.207,1.372,1.372,0,0,0-.56.58,1.665,1.665,0,0,0-.207.851,1.031,1.031,0,0,0,.311.808,1.316,1.316,0,0,0,.891.29,1.39,1.39,0,0,0,.808-.208Zm.435-4.622h.954l-1.389.954h-.726Z" transform="translate(-361.578 -383.604)" fill="#707070"/>
    <path id="Trazado_534" data-name="Trazado 534" d="M446.918,400.052a1.23,1.23,0,0,1,.394.954,3.735,3.735,0,0,1-.042.456l-.456,2.176h-.726l.456-2.176a2.39,2.39,0,0,0,.042-.331.748.748,0,0,0-.228-.58,1.023,1.023,0,0,0-.7-.207,1.485,1.485,0,0,0-.974.311,1.585,1.585,0,0,0-.518.933l-.435,2.052H443l.808-3.9h.7l-.1.5a2.039,2.039,0,0,1,1.471-.539,1.568,1.568,0,0,1,1.038.351Z" transform="translate(-380.286 -389.232)" fill="#707070"/>
    <path id="Trazado_535" data-name="Trazado 535" d="M480.924,394.542H479.1l.124-.642h4.417l-.145.642h-1.824l-.933,4.518h-.747Z" transform="translate(-408.903 -384.635)" fill="#707070"/>
    <path id="Trazado_536" data-name="Trazado 536" d="M498.1,402v.042a1.049,1.049,0,0,0,.311.829,1.419,1.419,0,0,0,.954.29,2.018,2.018,0,0,0,.7-.124,1.673,1.673,0,0,0,.559-.332l.311.5a2.082,2.082,0,0,1-.726.414,2.6,2.6,0,0,1-.891.145,2.313,2.313,0,0,1-1.041-.207,1.523,1.523,0,0,1-.662-.58,1.589,1.589,0,0,1-.228-.891,2.491,2.491,0,0,1,.29-1.182,2.022,2.022,0,0,1,.808-.808,2.493,2.493,0,0,1,1.182-.29,1.845,1.845,0,0,1,1.324.456,1.578,1.578,0,0,1,.5,1.223,2.354,2.354,0,0,1-.062.518Zm.6-1.324a1.292,1.292,0,0,0-.519.808H500.8a.956.956,0,0,0-.29-.808,1.259,1.259,0,0,0-.87-.291,1.608,1.608,0,0,0-.932.289Z" transform="translate(-423.41 -389.312)" fill="#707070"/>
    <path id="Trazado_537" data-name="Trazado 537" d="M520.891,403.472a1.522,1.522,0,0,1-.662-.58A1.545,1.545,0,0,1,520,402a2.286,2.286,0,0,1,.311-1.182,2.177,2.177,0,0,1,.852-.829,2.375,2.375,0,0,1,1.223-.29,1.725,1.725,0,0,1,1.658.851l-.622.332a1.154,1.154,0,0,0-1.1-.559,1.514,1.514,0,0,0-.808.207,1.371,1.371,0,0,0-.56.58,1.667,1.667,0,0,0-.207.852,1.031,1.031,0,0,0,.311.808,1.315,1.315,0,0,0,.891.29,1.5,1.5,0,0,0,.684-.145,1.135,1.135,0,0,0,.518-.414l.539.373a1.74,1.74,0,0,1-.746.58,2.409,2.409,0,0,1-1.016.207A2.021,2.021,0,0,1,520.891,403.472Z" transform="translate(-441.326 -389.232)" fill="#707070"/>
    <path id="Trazado_538" data-name="Trazado 538" d="M544.939,400.052a1.23,1.23,0,0,1,.394.954,3.707,3.707,0,0,1-.042.456l-.456,2.176h-.726l.456-2.176a2.409,2.409,0,0,0,.042-.331.749.749,0,0,0-.228-.58,1.023,1.023,0,0,0-.7-.207,1.485,1.485,0,0,0-.974.311,1.584,1.584,0,0,0-.518.933l-.435,2.052H541l.808-3.9h.7l-.1.5a2.039,2.039,0,0,1,1.471-.539,1.548,1.548,0,0,1,1.058.351Z" transform="translate(-457.973 -389.232)" fill="#707070"/>
    <path id="Trazado_539" data-name="Trazado 539" d="M567.091,403.393a1.576,1.576,0,0,1-.891-1.492,2.286,2.286,0,0,1,.311-1.182,2.177,2.177,0,0,1,.851-.829,2.374,2.374,0,0,1,1.223-.29,2.135,2.135,0,0,1,1,.207,1.649,1.649,0,0,1,.662.58,1.723,1.723,0,0,1,.228.891,2.287,2.287,0,0,1-.311,1.182,2.176,2.176,0,0,1-.852.829,2.373,2.373,0,0,1-1.223.29A1.946,1.946,0,0,1,567.091,403.393Zm1.845-.622a1.371,1.371,0,0,0,.56-.58,1.665,1.665,0,0,0,.207-.851,1.031,1.031,0,0,0-.311-.808,1.279,1.279,0,0,0-.891-.291,1.514,1.514,0,0,0-.808.207,1.372,1.372,0,0,0-.56.58,1.666,1.666,0,0,0-.207.851,1.032,1.032,0,0,0,.311.808,1.588,1.588,0,0,0,1.7.083Z" transform="translate(-477.951 -389.153)" fill="#707070"/>
    <path id="Trazado_540" data-name="Trazado 540" d="M590.635,392.4h.726l-1.135,5.451H589.5Z" transform="translate(-496.421 -383.446)" fill="#707070"/>
    <path id="Trazado_541" data-name="Trazado 541" d="M600.791,397.844a1.576,1.576,0,0,1-.891-1.492,2.285,2.285,0,0,1,.311-1.182,2.176,2.176,0,0,1,.852-.829,2.373,2.373,0,0,1,1.223-.29,2.134,2.134,0,0,1,1,.207,1.648,1.648,0,0,1,.662.58,1.722,1.722,0,0,1,.228.891,2.285,2.285,0,0,1-.311,1.182,2.179,2.179,0,0,1-.851.829,2.374,2.374,0,0,1-1.223.29,1.864,1.864,0,0,1-.994-.186Zm1.845-.622a1.373,1.373,0,0,0,.56-.58,1.667,1.667,0,0,0,.207-.851,1.031,1.031,0,0,0-.311-.808,1.279,1.279,0,0,0-.891-.291,1.515,1.515,0,0,0-.808.207,1.371,1.371,0,0,0-.56.58,1.669,1.669,0,0,0-.207.851,1.032,1.032,0,0,0,.311.808,1.587,1.587,0,0,0,1.7.083Zm.435-4.622h.954l-1.389.954h-.726Z" transform="translate(-504.666 -383.604)" fill="#707070"/>
    <path id="Trazado_542" data-name="Trazado 542" d="M626.774,399.662l-.7,3.378a2.475,2.475,0,0,1-.808,1.514,2.546,2.546,0,0,1-1.617.473,3.3,3.3,0,0,1-1.041-.145,2.483,2.483,0,0,1-.808-.414l.414-.539a1.7,1.7,0,0,0,.642.332,2.81,2.81,0,0,0,.851.124,1.733,1.733,0,0,0,1.1-.311,1.579,1.579,0,0,0,.518-.954l.062-.27a2.109,2.109,0,0,1-1.472.539,2.37,2.37,0,0,1-.954-.189,1.526,1.526,0,0,1-.642-.559,1.626,1.626,0,0,1-.228-.852,2.309,2.309,0,0,1,.29-1.119,2.027,2.027,0,0,1,.829-.787,2.49,2.49,0,0,1,1.182-.291,2.044,2.044,0,0,1,.912.189,1.311,1.311,0,0,1,.6.559l.145-.7h.726Zm-1.887,2.922a1.281,1.281,0,0,0,.559-.539,1.443,1.443,0,0,0,.207-.787.954.954,0,0,0-.311-.746,1.31,1.31,0,0,0-.891-.27,1.807,1.807,0,0,0-.829.189,1.28,1.28,0,0,0-.56.539,1.444,1.444,0,0,0-.207.788.955.955,0,0,0,.311.746,1.31,1.31,0,0,0,.891.27A1.58,1.58,0,0,0,624.888,402.584Z" transform="translate(-522.027 -389.153)" fill="#707070"/>
    <path id="Trazado_543" data-name="Trazado 543" d="M649.408,393.479h.726l-.808,3.9H648.6Zm.27-.87a.422.422,0,0,1-.124-.311.454.454,0,0,1,.145-.352.5.5,0,0,1,.373-.145.473.473,0,0,1,.332.124.409.409,0,0,1,.124.29.5.5,0,0,1-.145.373.608.608,0,0,1-.393.145.422.422,0,0,1-.311-.125Z" transform="translate(-543.272 -382.97)" fill="#707070"/>
    <path id="Trazado_544" data-name="Trazado 544" d="M659.891,403.472a1.523,1.523,0,0,1-.662-.58A1.546,1.546,0,0,1,659,402a2.287,2.287,0,0,1,.311-1.182,2.176,2.176,0,0,1,.852-.829,2.373,2.373,0,0,1,1.223-.29,1.725,1.725,0,0,1,1.659.851l-.622.332a1.155,1.155,0,0,0-1.1-.559,1.514,1.514,0,0,0-.808.207,1.371,1.371,0,0,0-.559.58,1.666,1.666,0,0,0-.207.852,1.032,1.032,0,0,0,.311.808,1.316,1.316,0,0,0,.891.29,1.5,1.5,0,0,0,.684-.145,1.135,1.135,0,0,0,.518-.414l.539.373a1.738,1.738,0,0,1-.746.58,2.41,2.41,0,0,1-1.016.207A2.022,2.022,0,0,1,659.891,403.472Z" transform="translate(-551.516 -389.232)" fill="#707070"/>
    <path id="Trazado_545" data-name="Trazado 545" d="M684.242,399.9l-.808,3.9h-.7l.1-.473a2.228,2.228,0,0,1-.642.394,2.418,2.418,0,0,1-.788.145,1.934,1.934,0,0,1-.933-.207,1.735,1.735,0,0,1-.642-.58,1.778,1.778,0,0,1-.228-.891,2.489,2.489,0,0,1,.29-1.182,2.073,2.073,0,0,1,.829-.808,2.492,2.492,0,0,1,1.182-.29,1.952,1.952,0,0,1,.891.189,1.238,1.238,0,0,1,.559.518l.145-.662h.746Zm-1.866,3.109a1.372,1.372,0,0,0,.56-.58,1.666,1.666,0,0,0,.207-.851,1.031,1.031,0,0,0-.311-.808,1.279,1.279,0,0,0-.891-.291,1.514,1.514,0,0,0-.808.207,1.373,1.373,0,0,0-.56.58,1.666,1.666,0,0,0-.207.851,1.031,1.031,0,0,0,.311.808,1.315,1.315,0,0,0,.891.29,1.389,1.389,0,0,0,.809-.207Z" transform="translate(-567.847 -389.391)" fill="#707070"/>
  </g>
</svg>
