<svg xmlns="http://www.w3.org/2000/svg" width="83" height="70" viewBox="0 0 83 70"><g transform="translate(679 -2894)"><g transform="translate(-3990 -373.534)"><g transform="translate(3317 3288.534)" fill="none" stroke="#0072bb" stroke-width="2"><rect width="71" height="49" rx="16" stroke="none"/><rect x="1" y="1" width="69" height="47" rx="15" fill="none"/></g><g transform="translate(3328 3305.534)" fill="none" stroke="#0072bb" stroke-width="2"><rect width="51" height="16" rx="8" stroke="none"/><rect x="1" y="1" width="49" height="14" rx="7" fill="none"/></g><rect width="5" height="13" transform="translate(3350 3276.534)" fill="none" stroke="#0072bb" stroke-width="2"/><circle cx="5.5" cy="5.5" r="5.5" transform="translate(3347 3267.534)" fill="#0072bb"/><g transform="translate(3336 3310.534)" fill="#0072bb" stroke="#0072bb" stroke-width="1"><circle cx="3.5" cy="3.5" r="3.5" stroke="none"/><circle cx="3.5" cy="3.5" r="3" fill="none"/></g><g transform="translate(3363 3310.534)" fill="#0072bb" stroke="#0072bb" stroke-width="1"><circle cx="3.5" cy="3.5" r="3.5" stroke="none"/><circle cx="3.5" cy="3.5" r="3" fill="none"/></g><g transform="translate(3311 3303.534)" fill="none" stroke="#0072bb" stroke-width="2"><path d="M4,0H8A0,0,0,0,1,8,0V18a0,0,0,0,1,0,0H4a4,4,0,0,1-4-4V4A4,4,0,0,1,4,0Z" stroke="none"/><path d="M4,1H6A1,1,0,0,1,7,2V16a1,1,0,0,1-1,1H4a3,3,0,0,1-3-3V4A3,3,0,0,1,4,1Z" fill="none"/></g><g transform="translate(3394 3321.534) rotate(180)" fill="none" stroke="#0072bb" stroke-width="2"><path d="M4,0H8A0,0,0,0,1,8,0V18a0,0,0,0,1,0,0H4a4,4,0,0,1-4-4V4A4,4,0,0,1,4,0Z" stroke="none"/><path d="M4,1H6A1,1,0,0,1,7,2V16a1,1,0,0,1-1,1H4a3,3,0,0,1-3-3V4A3,3,0,0,1,4,1Z" fill="none"/></g></g></g></svg>