<svg xmlns="http://www.w3.org/2000/svg" width="64.132" height="71.911" viewBox="0 0 64.132 71.911">
  <g id="seguridad-documento" transform="translate(-7.67 -5.54)">
    <path id="Trazado_2212" data-name="Trazado 2212" d="M14.792,66.987a3.981,3.981,0,0,1-3.981-4V12.662A3.981,3.981,0,0,1,14.792,8.7H47.661V19a1.826,1.826,0,0,0,1.826,1.826H58.4V39.56a9.989,9.989,0,0,1,1.643-.146,11.85,11.85,0,0,1,1.424.11V17.866L50.053,5.65l-.11-.11H14.792A7.14,7.14,0,0,0,7.67,12.662V62.988a7.14,7.14,0,0,0,7.122,7.122H45.251V66.987ZM56.134,17.336H51.313V12.059Z" transform="translate(0 0)" fill="#0072bb"/>
    <path id="Trazado_2213" data-name="Trazado 2213" d="M43.781,16.52H15.44a1.57,1.57,0,1,0,0,3.141H43.781a1.57,1.57,0,0,0,0-3.141Z" transform="translate(5.122 9.07)" fill="#0072bb"/>
    <path id="Trazado_2214" data-name="Trazado 2214" d="M43.712,20.17H15.372a1.589,1.589,0,0,0,0,3.159H43.712a1.589,1.589,0,0,0,0-3.159Z" transform="translate(5.19 12.085)" fill="#0072bb"/>
    <path id="Trazado_2215" data-name="Trazado 2215" d="M43.781,23.83H15.44a1.57,1.57,0,1,0,0,3.141H43.781a1.57,1.57,0,0,0,0-3.141Z" transform="translate(5.122 15.109)" fill="#0072bb"/>
    <path id="Trazado_2216" data-name="Trazado 2216" d="M49.352,38.276V33.729a7.67,7.67,0,1,0-15.321,0v4.547A5.168,5.168,0,0,0,30.05,43.3V58.582a2.228,2.228,0,0,0,2.228,2.228H51.086a2.228,2.228,0,0,0,2.228-2.228V43.3a5.168,5.168,0,0,0-3.963-5.022ZM37.007,33.729a4.675,4.675,0,1,1,9.349,0v4.4H37.007ZM50.539,58.016H32.844V43.3a2.392,2.392,0,0,1,2.374-2.429h13a2.392,2.392,0,0,1,2.392,2.392Z" transform="translate(18.488 16.641)" fill="#0072bb"/>
    <path id="Trazado_2217" data-name="Trazado 2217" d="M39.841,38.385a2.356,2.356,0,1,0-3.652,1.99l-.895,3.652a.694.694,0,0,0,.11.566.676.676,0,0,0,.53.256h2.995a.676.676,0,0,0,.53-.256.694.694,0,0,0,.128-.566l-.913-3.652A2.356,2.356,0,0,0,39.841,38.385Z" transform="translate(22.684 25.206)" fill="#0072bb"/>
  </g>
</svg>
