<svg xmlns="http://www.w3.org/2000/svg" width="45.134" height="63.787" viewBox="0 0 45.134 63.787"><g transform="translate(-11.08 -5.25)"><path d="M17.276,21.573h-.7a8.5,8.5,0,0,1-1.594-.143V34.838l2.264-2.264Z" transform="translate(2.318 9.616)" fill="#0072bb"/><path d="M17.264,11.659V10.288a2.854,2.854,0,0,1,2.854-2.854H43.777v7.4a1.291,1.291,0,0,0,1.307,1.275h6.377V26.773a6.218,6.218,0,0,1,2.2,1.291V14.019L45.451,5.25H20.118A5.118,5.118,0,0,0,15,10.289v1.466a10.156,10.156,0,0,1,1.594-.128Zm32.555,1.913H46.36V9.778Z" transform="translate(2.33 0)" fill="#0072bb"/><path d="M29.769,37.509a1.244,1.244,0,0,0-1.387.271l-3.189,3.189a1.275,1.275,0,0,0,1.8,1.8l1.052-1.052V45.5a1.275,1.275,0,0,0,2.551,0V38.641a1.26,1.26,0,0,0-.781-1.18" transform="translate(8.191 19.109)" fill="#0072bb"/><path d="M18.745,39.828a1.275,1.275,0,0,0,2.551,0v-9.98a1.259,1.259,0,0,0-2.168-.893l-3.189,3.189a1.275,1.275,0,0,0,0,1.8,1.259,1.259,0,0,0,1.8,0l1.052-1.052Z" transform="translate(2.666 13.857)" fill="#0072bb"/><path d="M23.067,25.166l1.052-1.052V31a1.275,1.275,0,1,0,2.551,0v-9.98a1.259,1.259,0,0,0-2.168-.877l-3.189,3.189a1.275,1.275,0,0,0,1.8,1.8" transform="translate(5.885 8.621)" fill="#0072bb"/><path d="M33.264,28.665a1.275,1.275,0,0,0-1.387.287L28.689,32.14a1.275,1.275,0,0,0,0,1.8,1.259,1.259,0,0,0,1.8,0l1.052-1.052v6.9a1.275,1.275,0,0,0,2.551,0V29.845a1.291,1.291,0,0,0-.781-1.18" transform="translate(10.243 13.86)" fill="#0072bb"/><path d="M29.9,36.717V32.955a4.384,4.384,0,0,0-4.384-4.384h0A4.384,4.384,0,0,0,21,32.955v3.763A4.4,4.4,0,0,0,25.384,41.1h0a4.384,4.384,0,0,0,4.384-4.384m-2.551,0a1.833,1.833,0,0,1-1.833,1.833h0a1.849,1.849,0,0,1-1.833-1.833V32.955a1.849,1.849,0,0,1,1.833-1.833h0a1.833,1.833,0,0,1,1.993,1.833Z" transform="translate(5.895 13.858)" fill="#0072bb"/><path d="M38.274,28.57h0a4.384,4.384,0,0,0-4.384,4.384v3.763A4.384,4.384,0,0,0,38.274,41.1h0a4.384,4.384,0,0,0,4.384-4.384V32.954a4.384,4.384,0,0,0-4.384-4.384m1.833,8.147a1.849,1.849,0,0,1-1.833,1.833h0a1.849,1.849,0,0,1-1.833-1.833V32.954a1.849,1.849,0,0,1,1.833-1.833h0a1.849,1.849,0,0,1,1.833,1.833Z" transform="translate(13.556 13.859)" fill="#0072bb"/><path d="M30.854,19.75h0a4.384,4.384,0,0,0-4.384,4.384V27.9a4.384,4.384,0,0,0,4.384,4.384h0a1.275,1.275,0,0,0,0-2.551h0A1.849,1.849,0,0,1,28.909,27.9V24.134a1.833,1.833,0,0,1,1.833-1.817h0a1.833,1.833,0,0,1,1.833,1.818,1.275,1.275,0,0,0,2.551,0,4.384,4.384,0,0,0-4.384-4.384" transform="translate(9.146 8.617)" fill="#0072bb"/><path d="M38.274,19.75h0a4.4,4.4,0,0,0-4.384,4.4V27.9a4.384,4.384,0,0,0,4.384,4.384h0A4.384,4.384,0,0,0,42.659,27.9V24.15a4.4,4.4,0,0,0-4.384-4.4M40.108,27.9a1.849,1.849,0,0,1-1.833,1.817h0a1.849,1.849,0,0,1-1.833-1.833V24.15A1.849,1.849,0,0,1,38.274,22.3h0a1.849,1.849,0,0,1,1.833,1.849Z" transform="translate(13.556 8.617)" fill="#0072bb"/><path d="M21.724,37.41h0a4.384,4.384,0,0,0-4.384,4.384v3.747a4.384,4.384,0,0,0,4.384,4.384h0a4.384,4.384,0,0,0,4.384-4.384V41.794a4.384,4.384,0,0,0-4.384-4.384m1.833,8.131a1.817,1.817,0,0,1-1.833,1.833h0a1.833,1.833,0,0,1-1.833-1.833V41.794a1.833,1.833,0,0,1,1.77-1.849h0a1.817,1.817,0,0,1,1.833,1.833Z" transform="translate(3.72 19.112)" fill="#0072bb"/><path d="M18.924,10.48a7.828,7.828,0,1,0,5.545,2.287A7.844,7.844,0,0,0,18.924,10.48Zm3.747,8.657c-.988,1.052-2.009,2.089-3.045,3.109a.957.957,0,0,1-1.419,0,.973.973,0,0,1,0-1.387c.367-.446.781-.845,1.291-1.387H15.99a1.5,1.5,0,0,1-1-.606,1.036,1.036,0,0,1,.1-.957,1.451,1.451,0,0,1,.988-.43h3.507c-.494-.494-.893-.861-1.259-1.259A1.065,1.065,0,1,1,19.8,14.7c.988.957,1.977,1.929,2.933,2.918a.941.941,0,0,1-.1,1.515Z" transform="translate(0 3.108)" fill="#0072bb"/></g></svg>